<?xml version="1.0" encoding="utf-8"?>
<!-- Generator: Adobe Illustrator 16.0.4, SVG Export Plug-In . SVG Version: 6.00 Build 0)  -->
<!DOCTYPE svg PUBLIC "-//W3C//DTD SVG 1.1//EN" "http://www.w3.org/Graphics/SVG/1.1/DTD/svg11.dtd">
<svg version="1.1"
	 id="svg6472" xmlns:dc="http://purl.org/dc/elements/1.1/" xmlns:inkscape="http://www.inkscape.org/namespaces/inkscape" xmlns:cc="http://creativecommons.org/ns#" xmlns:rdf="http://www.w3.org/1999/02/22-rdf-syntax-ns#" xmlns:svg="http://www.w3.org/2000/svg" xmlns:sodipodi="http://sodipodi.sourceforge.net/DTD/sodipodi-0.dtd" sodipodi:docname="General Motors.svg" inkscape:output_extension="org.inkscape.output.svg.inkscape" sodipodi:version="0.32" inkscape:version="0.46"
	 xmlns="http://www.w3.org/2000/svg" xmlns:xlink="http://www.w3.org/1999/xlink" x="0px" y="0px" width="193.886px"
	 height="192.84px" viewBox="0 0 193.886 192.84" enable-background="new 0 0 193.886 192.84" xml:space="preserve">
<sodipodi:namedview  id="base" bordercolor="#666666" inkscape:cx="96.942963" borderopacity="1.0" gridtolerance="10.0" pagecolor="#ffffff" guidetolerance="10.0" inkscape:zoom="2.3957741" showgrid="false" objecttolerance="10.0" inkscape:cy="96.419777" inkscape:current-layer="svg6472" inkscape:window-y="-4" inkscape:window-x="-4" inkscape:pageopacity="0.0" inkscape:pageshadow="2" inkscape:window-height="721" inkscape:window-width="1024">
	</sodipodi:namedview>
<defs>
	
	
		<inkscape:perspective  id="perspective4353" inkscape:vp_x="0 : 96.419777 : 1" sodipodi:type="inkscape:persp3d" inkscape:vp_y="0 : 1000 : 0" inkscape:vp_z="193.88593 : 96.419777 : 1" inkscape:persp3d-origin="96.942963 : 64.279851 : 1">
		</inkscape:perspective>
</defs>
<path fill="#FFFFFF" d="M188.582,187.596l-0.343-0.464l-0.47-180.801l-0.607,0.138L6.332,6l0.452,0.646L6.47,6.332L6,187.161
	l0.171-0.119l-0.112,0.105L188.582,187.596z M96.354,50.867h15.293l7.482,49.729l7.65-49.729h15.126v67.947h-10.079V67.643
	l-8.495,51.171h-8.71l-8.197-51.171v51.071H96.354V50.867z M51.533,67.643c0-2.785,0-18.185,16.908-18.185
	c17.289,0,17.289,13.484,17.289,18.185v4.799H75.395c0,0,0-2.536,0-4.799c0-2.603,0-8.868-6.788-8.868
	c-6.705,0-6.705,6.166-6.705,8.868c0,2.014,0,30.053,0,33.285c0,5.213,1.616,9.166,6.705,9.166c5.081,0,6.788-3.713,6.788-9.166
	c0-1.236,0-10.759,0-10.759h-5.926v-8.172H85.73v36.815l-9.996-0.099v-3.605c-0.853,1.375-4.881,4.989-10.659,4.98
	c-9.771-0.065-13.542-6.82-13.542-17.131C51.533,100.257,51.533,69.127,51.533,67.643z M51.475,126.613h90.515V141.3H51.475V126.613
	z"/>
</svg>
