<?xml version="1.0" encoding="iso-8859-1"?>
<!-- Generator: Adobe Illustrator 16.0.0, SVG Export Plug-In . SVG Version: 6.00 Build 0)  -->
<!DOCTYPE svg PUBLIC "-//W3C//DTD SVG 1.1//EN" "http://www.w3.org/Graphics/SVG/1.1/DTD/svg11.dtd">
<svg version="1.1" id="Layer_1" xmlns="http://www.w3.org/2000/svg" xmlns:xlink="http://www.w3.org/1999/xlink" x="0px" y="0px"
	 width="1153.124px" height="306.779px" viewBox="0 0 1153.124 306.779" style="enable-background:new 0 0 1153.124 306.779;"
	 xml:space="preserve">
<path id="long_2" style="fill:#C6AA92;" d="M1090.891,168.869c-38.334-2-21.664-54-28.664-105s-80.396-60.15-80.396-60.15
	c-15.537-3.975-31.219-5.623-46.734-0.562c-12.291,4.009-22.297,11.851-30.625,21.614c-8.957,10.5-18.234,20.847-26,32.198
	c-4.068,5.946-9.025,6.738-14.859,7.885c-14.857,2.922-29.029,0.469-43.23-4.068c-12.186-3.892-25.146-5.694-37.484-2.475
	c-11.6,3.027-22.602,8.549-33.631,13.5c-10.285,4.615-20.143,10.188-30.451,14.74c-2.502,1.105-6.168,0.342-9.08-0.406
	c-6.092-1.564-11.777-3.48-18.506-2.486c-9.393,1.389-15.143,7.149-20.607,13.701c-1.531,1.838-2.863,4.415-3.008,6.732
	c-0.57,9.127-1.107,18.298,5.84,25.906c3.775,4.137,6.861,8.896,10.414,13.245c12.096,14.806,28.9,17.392,46.396,16.833
	c9.578-0.307,20.127-12.406,20.893-22.045c0.488-6.146-2.131-8.541-8-6.88c-2.996,0.848-5.861,1.558-7.135-1.965
	c-1.328-3.678,1.086-6.333,4.145-7.515c10.055-3.884,20.18,0.195,21.408,11.926c0.799,7.623-1.229,14.752-6.242,21.002
	c-10.566,13.169-27.34,18.248-43.303,12.801c-1.881-0.643-3.818-1.223-5.777-1.514c-12.418-1.848-23.012-6.878-29.377-18.173
	c-4.363-7.744-8.609-15.702-11.613-24.03c-4.693-13.011-14.527-20.24-26.24-25.507c-23.42-10.532-48.201-14.068-73.643-12.434
	c-10.562,0.679-21.033,2.908-31.525,4.56c-5.074,0.8-10.426,1.109-15.08,3.027c-8.242,3.397-15.867,8.276-24.078,11.761
	c-10.271,4.358-19.42,10.188-27.496,17.815c-5.711,5.396-6.074,15.211-0.637,21.041c0.859,0.92,2.148,1.436,2.752,2.831
	c-6.297-0.073-12.52,0.685-16.635-5.304c-3.447-5.015-8.301-7.756-14.254-9.312c-8.48-2.217-16.609-6.676-25.156-7.553
	c-20.355-2.086-40.863-3.208-60.721,4.32c-4.404,1.669-9.387,2.092-14.152,2.465c-8.25,0.647-13.361,6.08-18.793,11.256
	c-1.6,1.524-3.521,3.285-5.545,3.693c-10.092,2.031-20.256,3.713-30.416,5.387c-7.477,1.232-15.643,9.444-15.717,17.102
	c-0.051,5.372-3.277,6.883-7.223,7.909c-7.57,1.967-14.424,0.163-20.797-4.293c-8.41-5.878-17.666-5.626-26.246,0.325
	c-3.561,2.469-5.617,5.48-4.988,10.076c0.762,5.574-0.627,10.527-4.734,14.645c-3.961,3.971-8.156,5.691-13.943,3.875
	c-8.91-2.795-17.953,2.533-19.912,11.547c-0.934,4.297-4.172,5.518-7.416,6.297c-3.457,0.832-7.086,1.221-9.961-2.414
	c-6.338-8.014-18.766-7.521-25.205,0.408c-1.59,1.961-4.59,4.166-6.652,3.912c-1.627-0.201-3.504-3.842-4.062-6.238
	c-1.729-7.414-8.119-12.059-15.756-13.58c-10.641-2.121-18.834,1.709-26.512,8.021c-2.014,1.656-3.4,4.053-5.256,5.932
	c-2.781,2.814-5.439,5.889-8.674,8.076c-3.264,2.205-6.129,1.771-9.439-1.74c-3.857-4.094-9.068-7.396-14.309-9.502
	c-2.682-1.076-7.727,0.129-9.934,2.193c-5.484,5.129-9.826,11.459-14.904,17.055c-1.557,1.717-3.863,3.139-6.088,3.771
	c-3.023,0.857-6.853,1.418-5.706,5.178c0.861,2.816,3.977,6.553,6.538,6.945c8.25,1.266,16.668,0.682,24.385-3.217
	c4.375-2.211,8.041-3.553,12.537,0.629c4.441,4.133,10.494,4.963,16.467,3.143c4.004-1.219,6.955,0.275,9.209,3.215
	c4.445,5.797,8.541,11.861,12.959,17.68c8.754,11.529,26.771,13.469,37.539,4.078c3.859-3.365,7.561-6.914,11.703-10.717
	c3.785,3.664,7.914,7.92,12.314,11.873c11.59,10.408,25.479,12.709,40.467,11.441c12.707-1.072,21.037-8.18,27.055-18.701
	c1.582-2.768,3.121-4.102,6.678-2.902c9.982,3.361,13.047,2.184,18.953-6.211c0.361-0.512,0.92-0.883,2.014-1.906
	c3.727,6.85,10.143,7.525,16.803,7.736c5.275,0.168,9.336-1.816,12.336-6.182c3.477-5.061,6.693-9.68,5.832-16.773
	c-0.914-7.545,11.67-15.379,19.111-12.42c-6.484,5.07-9.65,11.678-11.461,19.527c-1.994,8.637,2.627,13.758,8.52,17.396
	c18.387,11.355,38.277,12.305,58.668,6.369c4.168-1.213,7.918-2.436,12.51-1.316c5.578,1.357,7.479-1.738,9.98-6.859
	c3.617-7.402,12.672-9.877,20.197-11.555c2.926-0.654,6.523-11.304,8.842-12.681c0.139,6.438,3.318,15.536-3.713,17.03
	c-1.947,0.412-7.121,2.954-8.951,3.712c-7.291,3.012-11.443,5.376-9.857,11.997c2.301,9.605,6.768,13.125,15.51,12.635
	c2.953-0.166,5.969,0.699,8.92,0.512c3.578-0.229,7.119-1.535,10.676-1.537c5.254-0.004,10.51,0.695,15.758,1.158
	c11.596,1.027,23.152,2.332,34.727-0.586c11.83-2.982,20.557-10.621,29.029-18.67c8.174-7.766,13.756-8.916,23.789-3.578
	c13.859,7.373,27.973,13.918,43.338,17.637c12.684,3.07,25.389,3.598,38.146,1.307c11.418-2.051,20.465,2.598,29.049,9.143
	c1.186,0.902,2.367,2.252,3.693,2.455c11.186,1.711,22.303,6.072,33.734,1.01c2.412-1.068,5.059-1.682,7.65-2.26
	c4.512-1.004,6.955-4.33,10.137-7.334c7.15-6.75,4.027-14.006,3.262-23.639c-0.16-2.014,5.539-8.626,8-9.667
	c3.168-1.342,27.412-1.499,31.332-1.333c-1.465,0.771-19.732,5.16-21.215,5.898c-6.545,3.26-11.273,8.125-11.453,15.709
	c-0.203,8.57,4.207,14.959,11.584,19.012c10.578,5.812,21.523,7.258,33.945,6.328c19.4-1.451,36.871-8.416,54.852-14.268
	c2.375-0.771,4.748-1.559,7.139-2.285c11.604-3.523,22.455-3.244,33.598,3.037c13.141,7.406,26.834,14.162,40.955,19.408
	c15.779,5.861,32.301,7.59,49.436,0.027c-3.957-4.639-15.125-9.303-19.398-12.867c-10.371-8.652-12.656-20.729-15.229-32.809
	c-0.348-1.623-0.371-3.314-0.682-4.949c-3.461-18.279,12.688-32.891,23.6-46.279c1.121-1.377,2.697-2.686,4.334-3.291
	c13.777-5.094,27.75-8.576,42.145-2.469c9.727,4.125,19.16,21.395,17.602,31.775c-0.131,0.881-0.734,1.689-1.441,3.236
	c-0.76-1.645-1.529-2.6-1.615-3.613c-0.668-7.814-5.383-13.424-10.141-19.033c-3.65-4.301-8.248-6.473-13.914-6.809
	c-15.549-0.924-27.25,6.717-36.922,17.533c-2.898,3.242-3.217,8.928-4.352,13.582c-2.26,9.27-5.879,18.051-4.215,28.279
	c2.58,15.877,12.838,28.059,28.861,30.807c8.447,1.447,17.27,3.775,25.494,2.631c8.836-1.23,16.348,1.068,24.271,3.256
	c36.604,19.849,48.396-33.849,78.396-14.849s73-21,89-77S1129.227,170.869,1090.891,168.869z"/>
</svg>
