<?xml version="1.0" encoding="iso-8859-1"?>
<!-- Generator: Adobe Illustrator 16.0.0, SVG Export Plug-In . SVG Version: 6.00 Build 0)  -->
<!DOCTYPE svg PUBLIC "-//W3C//DTD SVG 1.1//EN" "http://www.w3.org/Graphics/SVG/1.1/DTD/svg11.dtd">
<svg version="1.1" id="Layer_1" xmlns="http://www.w3.org/2000/svg" xmlns:xlink="http://www.w3.org/1999/xlink" x="0px" y="0px"
	 width="1399.022px" height="430.483px" viewBox="0 0 1399.022 430.483" style="enable-background:new 0 0 1399.022 430.483;"
	 xml:space="preserve">
<path id="long_1" style="fill-rule:evenodd;clip-rule:evenodd;fill:#C6AA92;" d="M1394.549,376.541
	c-1.707-1.291-5.355-1.5-7.414-0.585c-10.117,4.495-20.535,5.335-31.258,3.595c-3.512-0.571-6.92-1.807-10.373-2.743
	c-7.666-2.078-13.869-5.751-17.361-13.507c-2.617-5.815-9.645-7.412-15.621-4.5c-1.289,0.627-2.891,1.045-4.293,0.922
	c-3.158-0.276-6.301-1.463-9.414-1.348c-4.584,0.17-8.297-0.798-11.188-4.56c-5.029-6.54-12.176-7.962-19.727-7.047
	c-5.396,0.654-10.66,2.417-16.248,3.749c-1.783-15.18-13.207-20.754-25.689-25.444c-13.516-5.079-25.078,0.507-36.461,6.677
	c-3.826-4.695-8.217-7.562-13.914-6.235c-5.652,1.317-11.082,3.562-16.709,5.013c-2.479,0.64-5.84,1.371-7.691,0.241
	c-4.822-2.942-9.75-6.284-13.342-10.556c-9.773-11.617-22.564-14.368-36.23-11.963c-19.191,3.377-37.51,9.881-53.797,21.008
	c-4.432,3.027-8.895,4.466-14.215,3.495c-13.289-2.425-26.564-4.979-39.916-7.007c-11.354-1.725-21.166-5.977-29.271-14.316
	c-5.221-5.371-11.686-8.658-19.281-9.797c-1.785-0.268-3.391-2.317-4.895-3.742c-2.32-2.199-4.197-4.965-6.764-6.784
	c-6.885-4.881-14.666-4.777-21.969-1.647c-7.078,3.035-11.385,1.049-15.641-4.798c-6.738-9.259-16.189-13.765-27.738-13.85
	c-12.105-0.09-23.71,1.532-34.013,8.594c-4.725,3.237-9.93,2.002-14.566,0.183c-1.918-0.752-3.137-4.003-4.086-6.354
	c-2.213-5.471-6.215-8.479-11.711-10.197c-2.299-0.717-4.65-2.143-6.303-3.887c-4.592-4.844-8.697-10.143-13.229-15.048
	c-11.73-12.698-31.754-12.831-42.784,0.229c-3.179,3.763-6.1,3.161-10.099,2.922c-6.697-0.399-13.613-0.454-20.162,0.789
	c-9.084,1.726-16.889,6.384-23.523,13.146c-4.643,4.729-7.494,3.768-10.689-1.982c-3.781-6.811-6.805-14.516-12.127-19.876
	c-6.526-6.573-14.923-11.386-22.824-16.474c-8.141-5.241-17.199-6.52-26.746-4.66c-6.214,1.209-10.803,4.402-13.535,10.129
	c-1.193,2.501-2.268,5.06-3.352,7.611c-3.143,7.388-1.582,14.324,3.833,20.303c8.661,9.564,19.657,13.342,32.138,14.2
	c2.499,0.173,4.906,1.668,8.373,2.921c-7.746,4.584-15.117,5.636-21.289,3.369c-6.81-2.498-14.396-5.105-18.333-12.793
	c-5.017-9.8-11.565-18.939-10.272-30.835c0.141-1.289-0.441-2.922-1.225-4.007c-9.515-13.188-19.135-26.299-28.719-39.436
	c-7.924-10.865-16.357-21.328-28.594-27.576c-10.442-5.332-21.178-10.11-31.912-14.846c-7.693-3.396-15.797-3.75-23.951-1.752
	c-5.375,1.316-10.189,0.285-15.015-2.381c-8.812-4.869-21.454-2.333-27.407,5.622c-1.484,1.983-2.369,5.263-1.952,7.672
	c1.549,8.933,6.384,15.626,15.35,18.53c3.928,1.271,8.014,2.053,12.962,3.291c-2.021,0.975-3.225,1.76-4.545,2.157
	c-9.205,2.771-21.09-2.282-27.576-11.644c-7.939-11.461-8.152-18.082-0.672-27.929c4.248-5.595,5.477-11.052,2.189-17.9
	c-10.303-21.471-21.014-42.522-35.943-61.408c-9.619-12.17-18.683-24.611-31.065-34.173c-4.888-3.772-9.786-7.529-14.681-11.293
	c0,0-117.688-53.936-196.688,36.064c-79,90-74,134-120,171s-43,158,0,165s140,59,171,37s93.598,23.58,145.688-8.496
	c4.617-4.981,9.551-9.708,13.763-15.01c4.644-5.843,8.517-12.293,12.938-18.32c1.996-2.721,4.666-3.312,8.224-2.293
	c5.601,1.605,11.447,2.334,17.166,3.547c4.245,0.898,9.513,0.712,12.485,3.203c10.79,9.041,23.558,12.553,36.818,14.131
	c13.393,1.591,26.984,2.421,40.457,2.132c10.199-0.217,20.828-2.186,27.55-11.197c3.528-4.73,5.858-10.501,7.964-16.091
	c1.191-3.162,1.971-7.295,0.949-10.318c-2.5-7.394-6.078-14.432-9.366-21.547c-3.928-8.5-7.647-17.178-15.903-22.779
	c12.068,3.016,23.562,6.562,26.839,20.759c0.395,1.708,1.659,3.2,2.188,4.895c1.731,5.544,4.191,11.056,4.709,16.731
	c0.553,6.08,3.479,9.141,8.584,11.102c6.837,2.63,12.713,0.232,18.518-4.07c0.382,0.646,0.625,1.074,0.883,1.492
	c0.342,0.555,0.764,1.072,1.032,1.66c5.152,11.293,13.185,19.666,24.87,24.188c4.374,1.693,8.819,3.365,13.381,4.388
	c16.846,3.776,33.543,4.797,49.378-4.085c4.55-2.552,8.888-3.808,13.052,0.946c1.213,1.385,3.326,1.983,5.03,2.937
	c5.2,2.905,10.556,5.568,15.558,8.782c4.43,2.844,8.912,4.186,14.25,4.07c10.095-0.217,18.408-4.523,26.654-9.711
	c7.273-4.574,14.578-9.428,23.919-8.713c7.466,0.57,14.987,1.404,22.429,1.023c8.031-0.414,16.164-0.931,22.873-6.96
	c5.434-4.884,11.234-10.472,19.814-6.255c0.148,0.072,0.504-0.28,1.143-0.661c-1.521-11.427,0.021-22.433,6.645-32.487
	c8.486-12.887,16.607-25.602,33.572-29.224c13.723-2.929,25.07-0.899,34.486,10.005c4.961,5.743,7.41,17.103,4.133,23.855
	c-0.58,1.195-2.775,1.607-4.223,2.381c-0.615-1.155-2.062-2.75-1.719-3.4c3.816-7.23-0.635-12.361-4.719-16.975
	c-12.729-14.379-22.688-12.764-35.93-5.484c-17.591,9.669-27.878,27.584-23.777,49.459c0.264,1.404,0.678,3.158,1.664,3.982
	c5.719,4.785,11.211,10.059,17.592,13.773c6.404,3.726,13.691,5.996,20.708,8.594c10.246,3.794,20.213,2.839,29.635-2.71
	c8.811-5.188,18.158-9.704,24.027-19.202c11.145,8.756,23.604,10.586,36.822,9.869c13.01-0.706,25.668-5.582,29.193-19.776
	c0.549-2.204,3.385-3.839,5.932-6.56c0.598,2.549,0.842,3.307,0.945,4.084c1.715,12.84,6.896,17.691,19.699,19.615
	c5.252,0.787,10.498,2.434,15.4,4.512c5.441,2.305,10.715,3.452,16.623,2.475c4.295-0.709,8.924-1.49,13.053-0.601
	c5.148,1.109,9.998,3.767,14.865,5.997c10.32,4.729,19.361,3.041,28.213-4.036c4.295-3.436,9.656-6.472,14.967-7.536
	c17.562-3.521,35.355-5.879,52.977-9.132c3.814-0.704,7.84-2.625,10.795-5.132c6.689-5.674,14.184-7.885,22.611-6.812
	c2.469,0.314,4.84,2.08,7.059,3.489c2.967,1.886,5.525,5.37,8.637,5.886c9.74,1.611,19.641,2.408,29.51,3.031
	c9.066,0.57,18.178,0.758,27.258,0.589c3.406-0.063,7.162-0.946,10.094-2.62c6.002-3.43,11.676-1.738,13.463,4.744
	c2.252,8.158,11.811,12.689,18.072,7.422c5.889-4.953,11.916-4.94,18.609-4.697c4.365,0.159,8.777-0.578,13.117-0.236
	c13.004,1.029,25.963,2.716,38.977,3.469c5.688,0.33,9.736-3.527,11.361-8.449C1400.075,382.175,1397.59,378.842,1394.549,376.541z
	 M445.722,311.977c8.919-6.748,21.926-8.049,27.75-3.012C464.302,309.959,455.638,310.9,445.722,311.977z"/>
</svg>
