<?xml version="1.0" encoding="iso-8859-1"?>
<!-- Generator: Adobe Illustrator 16.0.0, SVG Export Plug-In . SVG Version: 6.00 Build 0)  -->
<!DOCTYPE svg PUBLIC "-//W3C//DTD SVG 1.1//EN" "http://www.w3.org/Graphics/SVG/1.1/DTD/svg11.dtd">
<svg version="1.1" id="Layer_1" xmlns="http://www.w3.org/2000/svg" xmlns:xlink="http://www.w3.org/1999/xlink" x="0px" y="0px"
	 width="751.524px" height="377.816px" viewBox="0 0 751.524 377.816" style="enable-background:new 0 0 751.524 377.816;"
	 xml:space="preserve">
<path id="lil_cloud" style="fill:#C6AA92;" d="M15.133,137.972C3.203,11.224,149.08,1.341,149.08,1.341
	c10.268-0.326,20.547-0.462,30.799-1.078c3.984-0.24,7.527-0.797,11.545,1.132c5.084,2.439,10.92,3.26,16.322,5.103
	c9.701,3.311,17.992,8.881,25.743,15.614c5.438,4.728,11.685,8.598,17.827,12.438c15.137,9.46,24.838,23.096,30.34,39.726
	c1.881,5.68,2.498,11.879,2.908,17.894c0.158,2.323-1.459,5.087-2.953,7.151c-11.98,16.552-14.396,34.465-4.718,52.312
	c6.794,12.523,18.797,19.725,33.437,20.841c10.486,0.801,21.141-6.291,25.195-15.904c0.721-1.709,1.344-3.492,2.309-5.06
	c2.389-3.874,3.104-7.978,0.864-11.933c-2.123-3.744-7.806-5.311-13.755-4.17c1.109,2.495,2.122,4.895,3.227,7.25
	c4.695,9.994,0.388,19.815-10.191,22.746c-3.893,1.076-7.91,1.811-11.919,2.318c-5.795,0.732-10.734-1.254-14.279-5.933
	c-8.82-11.646-11.378-25.122-8.093-38.86c2.579-10.794,15.656-23.624,29.866-24.906c6.702-0.605,13.428-1.01,20.153-1.308
	c14.893-0.656,27.94,4.089,40.158,12.608c9.904,6.908,19.176,14.325,26.648,23.785c7.981,10.107,14.195,21.113,17.932,33.652
	c2.748,9.222,3.686,18.437,3.793,27.914c0.016,1.406,1.081,3.211,2.228,4.123c3.768,3.004,10.073,2.203,13.906-0.756
	c2.737-2.113,5.924-4.293,9.204-4.945c12.072-2.397,24.338-1.501,34.795,4.848c6.48,3.936,12.074,10.414,16.178,16.938
	c7.127,11.334,6.521,11.737,19.453,8.418c1.955-0.502,3.842-1.271,5.772-1.879c6.104-1.92,12.021-1.148,16.681,3.079
	c5.834,5.294,11.016,11.309,16.049,16.562c-5.908,7.661-11.76,14.599-16.885,22.038c-8.823,12.809-3.208,33.342,11.116,39.365
	c12.095,5.084,21.964,4.881,32.136-7.748c6.152-7.637,2.962-18.074-6.92-21.906c0.917,1.594,1.701,2.805,2.338,4.088
	c4.436,8.922,0.301,19.167-9.229,22.057c-3.65,1.107-7.621,1.609-11.439,1.582c-5.068-0.035-9.305-2.641-11.387-7.235
	c-3.457-7.634-5.347-15.88-3.549-24.159c2.365-10.896,9.875-17.169,20.674-19.317c13.111-2.608,25.178-0.515,35.752,8.298
	c0.896,0.747,3.213,0.094,4.768-0.304c8.081-2.067,16.285-5.851,24.459-1.741c5.785,2.908,11.587,6.256,14.513,12.975
	c2.659,6.111,4.894,6.311,9.787,2.105c9.56-8.213,23.626-8.137,33.36-0.227c2.586,2.102,6.052,3.137,9.147,4.594
	c3.013,1.42,6.068,2.75,9.653,4.368c0.546-0.398,1.605-1.163,2.658-1.94c7.51-5.547,14.165-4.65,20.363,2.211
	c3.233,3.58,6.946,6.793,10.798,9.704c0.995,0.755,3.403,0.014,5.02-0.497c2.788-0.883,5.835-2.454,7.424,1.236
	c1.697,3.945-1.608,5.264-4.451,6.531c-0.925,0.412-2.111,0.56-2.756,1.232c-7.363,7.699-15.6,2.916-23.614,1.847
	c-1.82-0.243-4.191-0.421-5.535,0.501c-8.287,5.684-17.115,5.399-26.236,3.023c-5.01-1.305-9.043-1.931-13.232,3.281
	c-5.861,7.294-16.369,7.088-24.396,1.512c-1.941-1.351-4.801-1.842-7.254-1.892c-4.667-0.096-9.37,0.839-14.013,0.567
	c-6.149-0.359-11.134,0.854-15.224,5.958c-4.211,5.254-10.115,7.863-16.932,7.741c-3.807-0.067-6.584,1.093-9.27,4.011
	c-6.693,7.271-16.262,9.511-25.219,10.369c-12.637,1.211-25.598,0.78-38.248-0.564c-6.767-0.719-13.123-4.971-19.771-7.322
	c-2.332-0.822-5.018-1.151-7.484-0.961c-4.32,0.336-8.633,1.086-12.874,2.004c-1.544,0.334-3.388,1.304-4.217,2.562
	c-4.104,6.227-9.802,9.105-17.067,10.55c-4.543,0.903-8.912,3.709-12.854,6.399c-8.771,5.992-18.222,9.059-28.872,9.036
	c-17.021-0.036-34.058-0.149-51.054,0.568c-10.213,0.432-20.394,3.601-30.531,3.337c-13.033-0.338-26.31-2.292-37.707-9.418
	c-9.025-5.641-14.421-14.625-17.118-24.765c-2.524-9.483-2.358-19.098,2.876-27.932c7.582-12.799,16.613-24.42,31.875-27.992
	c5.795-1.355,12.416-0.109,18.486,0.947c5.092,0.885,10.023,2.99,14.857,4.965c9.859,4.027,15.658,17.936,12.025,28.041
	c-0.618,1.727-0.717,3.64-1.176,6.1c7.304-4.314,10.023-15.472,5.729-22.905c-8.241-14.255-21.159-21.308-37.277-22.931
	c-9.268-0.934-18.247,0.593-26.832,3.965c-12.149,4.772-17.351,15.334-21.479,26.7c-1.573,4.33-2.968,8.81-5.188,12.806
	c-7.27,13.071-6.144,33.151,2.899,45.059c1.315,1.731,2.689,3.415,4.995,6.333c-10.389,1.963-19.805,4.221-29.352,5.369
	c-5.765,0.691-11.764-0.76-17.609-0.429c-3.199,0.183-6.482,1.721-9.414,3.249c-16.071,8.385-33.282,9.885-51.053,9.748
	c-10.734-0.084-20.501-3.191-30.414-6.361C-80.994,301.737,27.062,264.72,15.133,137.972z"/>
</svg>
