<?xml version="1.0" encoding="iso-8859-1"?>
<!-- Generator: Adobe Illustrator 16.0.0, SVG Export Plug-In . SVG Version: 6.00 Build 0)  -->
<!DOCTYPE svg PUBLIC "-//W3C//DTD SVG 1.1//EN" "http://www.w3.org/Graphics/SVG/1.1/DTD/svg11.dtd">
<svg version="1.1" id="Layer_1" xmlns="http://www.w3.org/2000/svg" xmlns:xlink="http://www.w3.org/1999/xlink" x="0px" y="0px"
	 width="643.758px" height="475.524px" viewBox="0 0 643.758 475.524" style="enable-background:new 0 0 643.758 475.524;"
	 xml:space="preserve">
<g>
	<g>
		<path style="fill:#996928;" d="M322.367,406.388c-112.042,0-203.194-91.152-203.194-203.194S210.325,0,322.367,0
			c34.896,0,69.332,9.008,99.584,26.05l1.865,1.051l-14.842,39.594h12.392l-11.089,32.368l33.58-58.766l2.272,1.748
			c24.16,18.583,44.156,42.749,57.825,69.887c14.337,28.463,21.606,59.168,21.606,91.262
			C525.561,315.236,434.409,406.388,322.367,406.388z M322.367,5C213.082,5,124.172,93.91,124.172,203.194
			s88.91,198.194,198.194,198.194c109.285,0,198.194-88.909,198.194-198.194c0-31.306-7.09-61.254-21.071-89.013
			c-12.905-25.62-31.592-48.526-54.147-66.407l-43.805,76.66l-4.536-2.05l17.366-50.69h-12.608l15.867-42.329
			C388.578,13.419,355.689,5,322.367,5z"/>
	</g>
	<g>
		<polygon style="fill:#996928;" points="475.292,332.43 322.367,144.051 169.441,332.428 165.56,329.278 322.367,136.117 
			479.175,329.28 		"/>
	</g>
	<g>
		<polygon style="fill:#996928;" points="459.22,349.729 322.367,181.148 185.514,349.729 181.632,346.579 322.367,173.215 
			463.103,346.579 		"/>
	</g>
	<g>
		<g>
			<g>
				<path style="fill:#996928;" d="M589.265,130.382l-2.013-0.734c-11.694-4.264-19.648-11.245-23.639-20.751
					c-7.273-17.325,1.305-36.602,1.674-37.415l1.034-2.278l2.277,1.036c0.812,0.369,19.951,9.251,25.863,27.087
					c3.244,9.786,1.844,20.276-4.164,31.178L589.265,130.382z M568.881,76.03c-1.926,5.471-5.668,19.032-0.646,30.959
					c3.204,7.608,9.489,13.378,18.697,17.173c4.442-8.915,5.384-17.395,2.794-25.233C585.667,86.642,573.931,78.886,568.881,76.03z"
					/>
			</g>
			<g>
				<path style="fill:#996928;" d="M582.615,171.696c-31.399,0-38.636-36.364-38.705-36.731l-0.465-2.458l2.458-0.463
					c0.155-0.029,3.868-0.716,9.254-0.716c11.447,0,38.459,3.496,42.021,35.88l0.233,2.129l-2.067,0.558
					C590.914,171.09,586.631,171.696,582.615,171.696z M549.458,136.608c0.872,3.115,2.729,8.62,6.101,14.049
					c8.326,13.404,20.615,18.496,36.365,14.935c-3.878-25.399-24.56-29.265-36.768-29.265
					C552.859,136.327,550.899,136.462,549.458,136.608z"/>
			</g>
			<g>
				<path style="fill:#996928;" d="M586.636,214.161c-31.399,0-38.637-36.364-38.706-36.731l-0.465-2.458l2.458-0.463
					c0.155-0.029,3.868-0.716,9.254-0.716c11.448,0,38.46,3.496,42.021,35.88l0.233,2.129l-2.067,0.558
					C594.934,213.555,590.652,214.161,586.636,214.161z M553.48,179.074c0.872,3.115,2.729,8.62,6.101,14.048
					c8.325,13.402,20.61,18.495,36.364,14.935c-3.877-25.399-24.56-29.265-36.768-29.265
					C556.89,178.792,554.925,178.928,553.48,179.074z"/>
			</g>
			<g>
				<path style="fill:#996928;" d="M579.387,255.281c-31.399,0-38.638-36.364-38.707-36.731l-0.465-2.458l2.458-0.463
					c0.155-0.029,3.868-0.716,9.254-0.716c11.448,0,38.46,3.496,42.021,35.881l0.233,2.129l-2.067,0.559
					C587.685,254.674,583.403,255.281,579.387,255.281z M546.23,220.194c0.872,3.115,2.729,8.619,6.101,14.048
					c8.325,13.402,20.608,18.492,36.364,14.935c-3.877-25.399-24.56-29.266-36.768-29.266
					C549.639,219.912,547.675,220.048,546.23,220.194z"/>
			</g>
			<g>
				<path style="fill:#996928;" d="M574.045,293.278c-33.273,0-34.284-37.267-34.291-37.643l-0.042-2.491l2.7-0.052
					c1.968,0,19.529,0.329,30.272,11.742c6.084,6.463,8.84,15.17,8.192,25.88l-0.129,2.134l-2.127,0.204
					C577.063,293.202,575.523,293.278,574.045,293.278z M544.939,258.2c0.821,7.836,5.254,30.078,29.106,30.078
					c0.628,0,1.27-0.016,1.921-0.046c0.098-8.272-2.227-14.982-6.922-19.97C561.591,260.344,550.11,258.585,544.939,258.2z"/>
			</g>
			<g>
				<path style="fill:#996928;" d="M596.985,169.321l-0.708-2.021c-4.117-11.748-3.76-22.325,1.062-31.438
					c8.786-16.609,29.132-22.196,29.994-22.426l2.417-0.645l0.643,2.418c0.229,0.862,5.495,21.295-4.55,37.175
					c-5.511,8.713-14.511,14.28-26.751,16.546L596.985,169.321z M626.099,119.096c-5.449,1.978-18.314,7.682-24.355,19.13
					c-3.853,7.301-4.33,15.82-1.427,25.348c9.722-2.219,16.881-6.876,21.3-13.862C628.549,138.75,627.098,124.797,626.099,119.096z"
					/>
			</g>
			<g>
				<path style="fill:#996928;" d="M604.26,212.692c-0.003,0-0.004,0-0.006,0c-2.117,0-4.334-0.141-6.589-0.417l-2.126-0.26
					l-0.069-2.141c-0.391-12.131,2.947-21.933,9.919-29.133c11.627-12.007,29.583-12.94,34.81-12.94
					c0.688,0,1.064,0.018,1.064,0.018l2.495,0.115l-0.108,2.495C643.631,170.852,641.314,212.692,604.26,212.692z M600.442,207.533
					c1.302,0.105,2.578,0.158,3.813,0.159c0.001,0,0.004,0,0.005,0c13.516,0,23.392-6.233,29.356-18.528
					c3.106-6.403,4.317-12.839,4.774-16.321c-5.668,0.244-20.164,1.829-29.41,11.376
					C603.399,189.985,600.531,197.821,600.442,207.533z"/>
			</g>
			<g>
				<path style="fill:#996928;" d="M605.361,255.319c-0.002,0-0.003,0-0.005,0c-3.908,0-8.073-0.568-12.379-1.689l-2.072-0.539
					l0.215-2.131c3.303-32.725,30.657-36.258,42.265-36.258c5.081,0,8.549,0.61,8.694,0.636l2.463,0.441l-0.442,2.462
					C644.032,218.612,637.065,255.319,605.361,255.319z M596.358,249.297c3.134,0.678,6.152,1.021,8.999,1.021
					c22.957,0.003,31.09-22.616,33.204-30.383c-1.336-0.123-3.113-0.234-5.177-0.234
					C620.996,219.702,600.041,223.612,596.358,249.297z"/>
			</g>
			<g>
				<path style="fill:#996928;" d="M592.819,296.403c-0.003,0-0.002,0-0.005,0c-3.382,0-6.982-0.492-10.701-1.461l-2.073-0.54
					l0.216-2.131c2.884-28.495,26.625-31.571,36.698-31.571c4.38,0,7.376,0.527,7.501,0.55l2.463,0.441l-0.442,2.462
					C626.417,264.475,620.357,296.403,592.819,296.403z M585.503,290.604c2.543,0.53,4.994,0.799,7.312,0.799
					c19.12,0.003,26.145-18.577,28.104-25.542c-1.073-0.088-2.425-0.161-3.966-0.161C606.471,265.7,588.775,268.999,585.503,290.604
					z"/>
			</g>
			<g>
				<path style="fill:#996928;" d="M563.333,331l-2.121-0.267c-10.7-1.348-18.766-5.722-23.971-13.002
					c-9.489-13.271-5.906-31.267-5.749-32.026l0.506-2.445l2.446,0.503c0.756,0.156,18.605,3.967,27.023,17.906
					c4.642,7.686,5.469,16.863,2.458,27.278L563.333,331z M536.013,289.357c-0.557,5.144-0.938,16.771,5.312,25.491
					c4.016,5.602,10.184,9.161,18.354,10.6c1.929-8.137,1.094-15.258-2.49-21.193C551.648,295.08,540.928,290.869,536.013,289.357z"
					/>
			</g>
			<g>
				<path style="fill:#996928;" d="M579.608,336.588c-0.002,0-0.003,0-0.005,0c-5.516-0.001-11.3-1.541-17.193-4.577l-1.903-0.981
					l0.677-2.032c6.616-19.845,21.012-24.011,31.923-24.011c9.738,0,17.669,3.289,18.002,3.429l2.306,0.97l-0.972,2.306
					c-0.106,0.253-2.676,6.277-7.921,12.349C597.428,332.25,588.813,336.588,579.608,336.588z M566.667,328.52
					c4.481,2.037,8.824,3.067,12.937,3.068c0.001,0,0.003,0,0.004,0c15.013,0,23.983-13.774,27.04-19.445
					c-2.877-0.896-7.918-2.156-13.542-2.156C580.321,309.987,571.436,316.219,566.667,328.52z"/>
			</g>
			<g>
				<path style="fill:#996928;" d="M539.89,363.506l-2.047-0.614c-10.332-3.098-17.563-8.745-21.494-16.785
					c-7.166-14.658-0.657-31.812-0.377-32.535l0.903-2.327l2.329,0.899c0.72,0.278,17.693,6.985,23.693,22.124
					c3.308,8.347,2.607,17.536-2.083,27.311L539.89,363.506z M519.827,317.919c-1.398,4.98-3.696,16.385,1.027,26.019
					c3.034,6.188,8.529,10.719,16.35,13.488c3.248-7.708,3.601-14.869,1.046-21.316C534.3,326.146,524.425,320.222,519.827,317.919z
					"/>
			</g>
			<g>
				<path style="fill:#996928;" d="M559.836,372.109c-0.001,0-0.002,0-0.003,0c-7.06-0.001-14.132-2.611-21.021-7.759l-1.715-1.282
					l1.004-1.893c6.58-12.403,16.61-18.959,29.004-18.959c12.57,0,23.188,6.627,23.634,6.909l2.114,1.337l-1.34,2.113
					C591.009,353.374,578.917,372.109,559.836,372.109z M543.589,361.611c5.421,3.649,10.876,5.498,16.245,5.498
					c12.794,0.001,22.302-10.417,25.892-15.043c-3.562-1.799-10.763-4.85-18.62-4.85
					C557.171,347.216,549.269,352.057,543.589,361.611z"/>
			</g>
			<g>
				<path style="fill:#996928;" d="M513.115,390.951l-1.895-0.989c-7.916-4.133-12.916-9.865-14.861-17.038
					c-3.534-13.035,4.422-25.938,4.762-26.48l1.326-2.115l2.117,1.323c0.54,0.338,13.267,8.428,15.777,21.671
					c1.39,7.326-0.614,14.697-5.954,21.911L513.115,390.951z M504.093,351.474c-1.904,3.95-5.067,12.225-2.901,20.168
					c1.414,5.183,4.918,9.485,10.429,12.812c3.535-5.446,4.816-10.888,3.809-16.201C513.896,360.171,507.51,354.174,504.093,351.474
					z"/>
			</g>
			<g>
				<path style="fill:#996928;" d="M532.101,401.206c-0.002,0-0.002,0-0.003,0c-7.51-0.001-14.392-3.374-20.453-10.026l-1.442-1.583
					l1.343-1.668c6.079-7.554,13.296-11.383,21.449-11.383c12.666,0,22.812,9.393,23.237,9.792l1.823,1.713l-1.714,1.822
					C555.906,390.335,545.529,401.206,532.101,401.206z M516.871,389.391c4.67,4.523,9.784,6.813,15.228,6.814
					c0.001,0,0.002,0,0.003,0c8.163,0,15.288-5.1,18.611-7.927c-3.295-2.465-10.102-6.733-17.718-6.733
					C527.037,381.545,521.622,384.183,516.871,389.391z"/>
			</g>
			<g>
				<path style="fill:#996928;" d="M485.341,413.577l-1.781-1.181c-7.445-4.93-11.824-11.148-13.016-18.484
					c-2.166-13.331,7.084-25.342,7.479-25.847l1.538-1.967l1.969,1.536c0.502,0.392,12.321,9.756,13.447,23.188
					c0.622,7.43-2.135,14.555-8.193,21.177L485.341,413.577z M480.456,373.382c-2.304,3.734-6.303,11.635-4.972,19.756
					c0.869,5.301,3.909,9.942,9.044,13.822c4.073-5.042,5.912-10.312,5.47-15.691C489.325,383.096,483.58,376.438,480.456,373.382z"
					/>
			</g>
			<g>
				<path style="fill:#996928;" d="M505.79,425.877C505.789,425.877,505.79,425.877,505.79,425.877
					c-8.574,0-15.953-4.113-21.934-12.225l-1.271-1.724l1.509-1.521c6.08-6.128,12.787-9.235,19.934-9.235
					c13.899,0,24.245,11.779,24.678,12.281l1.637,1.893l-1.894,1.635C528.028,417.345,518.003,425.877,505.79,425.877z
					 M489.24,412.416c4.709,5.617,10.267,8.462,16.549,8.462c7.306,0,13.94-3.81,17.227-6.063
					c-3.292-3.041-10.507-8.641-18.987-8.641C498.859,406.173,493.893,408.272,489.24,412.416z"/>
			</g>
			<g>
				<path style="fill:#996928;" d="M453.963,429.737l-1.389-1.625c-4.626-5.417-6.617-11.162-5.916-17.077
					c1.268-10.694,10.966-17.849,11.378-18.147l2.02-1.468l1.47,2.019c0.299,0.409,7.284,10.156,5.199,20.701
					c-1.159,5.86-4.84,10.731-10.94,14.479L453.963,429.737z M458.908,398.717c-2.544,2.425-6.61,7.132-7.287,12.934
					c-0.45,3.864,0.688,7.714,3.388,11.471c3.763-2.767,6.051-6.107,6.812-9.953C462.953,407.442,460.569,401.781,458.908,398.717z"
					/>
			</g>
			<g>
				<path style="fill:#996928;" d="M473.114,444.033c-0.002,0-0.002,0-0.003,0c-6.874-0.001-16.041-2.618-20.68-15.083l-0.747-2.007
					l1.868-1.047c4.078-2.282,8.118-3.44,12.007-3.44c14.179,0,21.255,14.916,21.55,15.552l1.052,2.27l-2.271,1.05
					C485.652,441.437,479.964,444.033,473.114,444.033z M457.976,429.253c3.061,6.491,8.143,9.778,15.136,9.779c0,0,0.001,0,0.002,0
					c3.179,0,6.111-0.688,8.097-1.303c-2.35-3.665-7.69-10.274-15.651-10.274C463.14,427.456,460.597,428.059,457.976,429.253z"/>
			</g>
			<g>
				<path style="fill:#996928;" d="M427.577,442.706l-1.389-1.625c-3.588-4.201-5.13-8.672-4.583-13.287
					c0.982-8.29,8.47-13.812,8.788-14.044l2.021-1.466l1.469,2.018c0.23,0.316,5.624,7.842,4.007,16.016
					c-0.904,4.573-3.762,8.365-8.491,11.27L427.577,442.706z M431.239,419.678c-1.821,1.87-4.238,4.993-4.671,8.729
					c-0.297,2.555,0.396,5.113,2.062,7.629c2.388-1.899,3.85-4.143,4.354-6.69C433.705,425.703,432.383,422.01,431.239,419.678z"/>
			</g>
			<g>
				<path style="fill:#996928;" d="M442.066,453.241C442.065,453.241,442.066,453.241,442.066,453.241
					c-5.354-0.001-12.492-2.034-16.097-11.719l-0.747-2.007l1.868-1.047c3.153-1.765,6.286-2.66,9.312-2.66
					c11.029,0,16.502,11.534,16.729,12.024l1.052,2.271l-2.271,1.05C451.728,451.239,447.34,453.241,442.066,453.241z
					 M431.561,441.845c2.212,4.298,5.666,6.395,10.504,6.396h0.001c1.912,0,3.703-0.344,5.082-0.716
					c-1.877-2.704-5.54-6.717-10.746-6.717C434.858,440.808,433.236,441.156,431.561,441.845z"/>
			</g>
		</g>
		<g>
			<path style="fill:#996928;" d="M407.313,448.729l-1.332-4.818c46.234-12.788,87.939-38.196,120.604-73.478
				c33.536-36.222,55.814-81.183,64.427-130.022c6.676-37.86,4.954-75.712-5.117-112.502l4.822-1.32
				c10.269,37.509,12.023,76.097,5.219,114.692c-8.779,49.787-31.491,95.622-65.682,132.55
				C496.958,409.793,454.445,435.694,407.313,448.729z"/>
		</g>
	</g>
	<g>
		<g>
			<g>
				<path style="fill:#996928;" d="M55.276,130.524l-1.034-1.876c-6.007-10.902-7.408-21.392-4.164-31.178
					c5.912-17.835,25.052-26.718,25.864-27.087l2.277-1.036l1.034,2.278c0.369,0.812,8.948,20.089,1.674,37.414
					c-3.991,9.506-11.944,16.488-23.639,20.751L55.276,130.524z M75.664,76.169c-5.046,2.853-16.788,10.61-20.849,22.902
					c-2.589,7.838-1.648,16.318,2.794,25.233c9.22-3.8,15.509-9.579,18.709-17.201C81.338,95.145,77.594,81.626,75.664,76.169z"/>
			</g>
			<g>
				<path style="fill:#996928;" d="M61.927,171.838c-0.002,0-0.001,0-0.003,0c-4.017,0-8.299-0.606-12.728-1.801l-2.068-0.558
					l0.234-2.129c3.562-32.385,30.574-35.881,42.022-35.881c5.386,0,9.098,0.688,9.253,0.716l2.458,0.463l-0.465,2.458
					C100.563,135.473,93.322,171.838,61.927,171.838z M52.616,165.734c3.244,0.732,6.367,1.104,9.309,1.104c0,0,0.001,0,0.002,0
					c11.341,0,20.443-5.396,27.054-16.038c3.373-5.429,5.229-10.933,6.101-14.049c-1.445-0.146-3.41-0.283-5.697-0.283
					C77.177,136.468,56.494,140.334,52.616,165.734z"/>
			</g>
			<g>
				<path style="fill:#996928;" d="M57.906,214.303c-0.002,0-0.001,0-0.003,0c-4.017,0-8.299-0.606-12.728-1.801l-2.068-0.558
					l0.234-2.129c3.562-32.385,30.574-35.881,42.022-35.881c5.386,0,9.098,0.688,9.253,0.716l2.458,0.463l-0.465,2.458
					C96.542,177.938,89.301,214.303,57.906,214.303z M48.595,208.199c3.244,0.732,6.367,1.104,9.309,1.104c0,0,0.001,0,0.002,0
					c11.341,0,20.443-5.396,27.054-16.038c3.372-5.429,5.229-10.933,6.101-14.049c-1.445-0.146-3.41-0.283-5.697-0.283
					C73.156,178.933,52.473,182.799,48.595,208.199z"/>
			</g>
			<g>
				<path style="fill:#996928;" d="M65.16,255.422c-0.002,0-0.002,0-0.004,0c-4.018-0.001-8.3-0.607-12.729-1.802l-2.068-0.559
					l0.234-2.129c3.562-32.384,30.573-35.88,42.021-35.88c5.386,0,9.098,0.688,9.254,0.717l2.458,0.463l-0.465,2.458
					C103.792,219.058,96.555,255.422,65.16,255.422z M55.846,249.318c3.244,0.732,6.367,1.104,9.31,1.104
					c22.712,0.002,30.979-22.374,33.153-30.086c-1.445-0.146-3.409-0.283-5.695-0.283C80.406,220.053,59.724,223.919,55.846,249.318
					z"/>
			</g>
			<g>
				<path style="fill:#996928;" d="M70.501,293.418c-0.002,0-0.001,0-0.003,0c-1.479,0-3.02-0.075-4.578-0.226l-2.127-0.204
					l-0.129-2.133c-0.647-10.711,2.109-19.418,8.192-25.881c10.744-11.413,28.306-11.742,30.273-11.742l2.695,0.051l-0.037,2.492
					C104.78,256.152,103.769,293.418,70.501,293.418z M68.575,288.373c0.651,0.03,1.294,0.046,1.923,0.046c0,0,0.002,0,0.003,0
					c11.875,0.001,20.393-5.429,25.319-16.136c2.485-5.401,3.416-10.829,3.763-13.941c-5.179,0.39-16.643,2.152-24.087,10.062
					C70.801,273.39,68.478,280.1,68.575,288.373z"/>
			</g>
			<g>
				<path style="fill:#996928;" d="M47.556,169.461l-2.106-0.39c-12.24-2.267-21.241-7.833-26.752-16.547
					c-10.044-15.88-4.778-36.312-4.549-37.174l0.643-2.418l2.417,0.645c0.862,0.229,21.208,5.817,29.995,22.426
					c4.821,9.113,5.178,19.69,1.061,31.437L47.556,169.461z M18.447,119.234c-0.993,5.711-2.438,19.71,4.493,30.643
					c4.42,6.972,11.575,11.621,21.285,13.837c2.907-9.54,2.425-18.066-1.441-25.373C36.72,126.877,23.891,121.202,18.447,119.234z"
					/>
			</g>
			<g>
				<path style="fill:#996928;" d="M40.287,212.833c-37.061,0-39.377-41.841-39.396-42.263l-0.112-2.495l2.499-0.115
					c0,0,0.378-0.018,1.064-0.018c5.227,0,23.183,0.933,34.81,12.941c6.972,7.201,10.309,17.002,9.918,29.133l-0.069,2.141
					l-2.126,0.26C44.619,212.693,42.403,212.833,40.287,212.833z M6.154,172.984c0.464,3.513,1.693,10.031,4.835,16.451
					c5.974,12.208,15.831,18.398,29.298,18.398c1.234,0,2.51-0.053,3.812-0.158c-0.089-9.713-2.957-17.549-8.539-23.314
					C26.317,174.815,11.825,173.229,6.154,172.984z"/>
			</g>
			<g>
				<path style="fill:#996928;" d="M39.186,255.461c-31.708,0-38.676-36.708-38.743-37.079L0,215.92l2.463-0.441
					c0.145-0.026,3.613-0.636,8.694-0.636c11.607,0,38.961,3.533,42.264,36.259l0.215,2.131l-2.073,0.539
					C47.257,254.893,43.093,255.461,39.186,255.461z M5.978,220.078c0.849,3.141,2.672,8.707,6.033,14.197
					c8.208,13.407,20.422,18.571,36.171,15.165c-3.683-25.687-24.637-29.597-37.026-29.597
					C9.092,219.843,7.314,219.954,5.978,220.078z"/>
			</g>
			<g>
				<path style="fill:#996928;" d="M51.727,296.545c-27.545,0-33.603-31.93-33.661-32.252l-0.443-2.462l2.462-0.441
					c0.125-0.022,3.121-0.55,7.5-0.55c10.074,0,33.816,3.076,36.699,31.573l0.216,2.131l-2.073,0.54
					C58.708,296.054,55.107,296.545,51.727,296.545z M23.619,266.001c0.768,2.744,2.314,7.29,5.054,11.771
					c6.92,11.318,17.151,15.728,30.364,12.974C55.766,269.14,38.07,265.84,27.586,265.84
					C26.045,265.84,24.693,265.914,23.619,266.001z"/>
			</g>
			<g>
				<path style="fill:#996928;" d="M81.208,331.141l-0.594-2.053c-3.01-10.415-2.183-19.593,2.459-27.278
					c8.418-13.938,26.268-17.748,27.023-17.904l2.445-0.502l0.506,2.444c0.157,0.76,3.741,18.754-5.749,32.026
					c-5.205,7.279-13.27,11.653-23.972,13L81.208,331.141z M108.528,289.504c-4.924,1.522-15.674,5.757-21.191,14.916
					c-3.572,5.931-4.402,13.043-2.476,21.169c8.17-1.438,14.339-4.998,18.354-10.6C109.463,306.273,109.084,294.653,108.528,289.504
					z"/>
			</g>
			<g>
				<path style="fill:#996928;" d="M64.938,336.73c-9.207,0-17.823-4.339-24.917-12.549c-5.246-6.071-7.815-12.094-7.922-12.348
					l-0.972-2.306l2.306-0.97c0.333-0.14,8.263-3.429,18.001-3.429c10.912,0,25.307,4.166,31.923,24.011l0.678,2.032l-1.904,0.981
					C76.237,335.191,70.452,336.73,64.938,336.73z M37.898,312.285c3.07,5.669,12.073,19.445,27.04,19.445
					c4.11,0,8.453-1.03,12.935-3.067c-4.769-12.301-13.653-18.533-26.439-18.533C45.815,310.129,40.778,311.387,37.898,312.285z"/>
			</g>
			<g>
				<path style="fill:#996928;" d="M104.651,363.647l-0.925-1.928c-4.69-9.773-5.391-18.962-2.083-27.309
					c6-15.139,22.974-21.846,23.693-22.124l2.329-0.899l0.903,2.327c0.281,0.723,6.789,17.876-0.376,32.533
					c-3.931,8.04-11.162,13.688-21.494,16.785L104.651,363.647z M124.72,318.065c-4.604,2.313-14.511,8.267-18.439,18.215
					c-2.543,6.439-2.186,13.591,1.057,21.287c7.832-2.773,13.331-7.312,16.363-13.515
					C128.422,334.393,126.124,323.034,124.72,318.065z"/>
			</g>
			<g>
				<path style="fill:#996928;" d="M84.707,372.25c-19.083,0-31.175-18.733-31.68-19.531l-1.339-2.112l2.114-1.338
					c0.446-0.282,11.065-6.91,23.635-6.91c12.394,0,22.423,6.556,29.003,18.958l1.004,1.893l-1.716,1.282
					C98.839,369.639,91.766,372.25,84.707,372.25z M58.82,352.207c3.602,4.623,13.135,15.043,25.886,15.043
					c5.368,0,10.824-1.848,16.245-5.498c-5.679-9.554-13.581-14.394-23.515-14.394C69.584,347.358,62.386,350.407,58.82,352.207z"/>
			</g>
			<g>
				<path style="fill:#996928;" d="M131.427,391.091l-1.271-1.718c-5.341-7.214-7.344-14.585-5.955-21.911
					c2.511-13.243,15.237-21.333,15.778-21.671l2.117-1.323l1.326,2.115c0.34,0.543,8.296,13.445,4.762,26.48
					c-1.945,7.173-6.945,12.905-14.861,17.038L131.427,391.091z M140.456,351.617c-3.421,2.712-9.832,8.742-11.349,16.806
					c-0.998,5.305,0.285,10.736,3.814,16.173c5.521-3.333,9.027-7.645,10.436-12.84C145.518,363.79,142.362,355.554,140.456,351.617
					z"/>
			</g>
			<g>
				<path style="fill:#996928;" d="M112.444,401.346c-13.429,0-23.809-10.87-24.244-11.333l-1.714-1.822l1.824-1.713
					c0.425-0.399,10.57-9.791,23.236-9.791c8.153,0,15.371,3.83,21.45,11.384l1.343,1.668l-1.443,1.583
					C126.834,397.974,119.953,401.346,112.444,401.346z M93.829,388.419c3.322,2.826,10.45,7.927,18.615,7.927
					c5.443,0,10.556-2.289,15.226-6.812c-4.75-5.208-10.167-7.847-16.125-7.847C103.931,381.687,97.125,385.954,93.829,388.419z"/>
			</g>
			<g>
				<path style="fill:#996928;" d="M159.2,413.719l-1.443-1.577c-6.06-6.621-8.816-13.746-8.193-21.177
					c1.126-13.433,12.946-22.797,13.448-23.188l1.968-1.536l1.539,1.967c0.395,0.504,9.645,12.514,7.479,25.845
					c-1.191,7.336-5.571,13.556-13.017,18.486L159.2,413.719z M164.091,373.52c-3.122,3.053-8.874,9.714-9.547,17.892
					c-0.443,5.38,1.396,10.649,5.469,15.691c5.146-3.888,8.187-8.539,9.05-13.853C170.386,385.103,166.395,377.24,164.091,373.52z"
					/>
			</g>
			<g>
				<path style="fill:#996928;" d="M138.754,426.02c-12.217,0-22.241-8.534-22.661-8.897l-1.894-1.636l1.636-1.892
					c0.434-0.502,10.779-12.28,24.677-12.28c7.147,0,13.854,3.107,19.935,9.236l1.508,1.521l-1.271,1.724
					C154.705,421.907,147.326,426.02,138.754,426.02z M121.526,414.955c3.284,2.254,9.919,6.065,17.228,6.065
					c6.281,0,11.839-2.845,16.547-8.462c-4.653-4.145-9.62-6.243-14.789-6.243C132.034,406.315,124.82,411.913,121.526,414.955z"/>
			</g>
			<g>
				<path style="fill:#996928;" d="M190.578,429.879l-1.821-1.119c-6.1-3.747-9.781-8.618-10.94-14.479
					c-2.086-10.546,4.899-20.293,5.198-20.703l1.47-2.019l2.02,1.468c0.413,0.299,10.112,7.455,11.379,18.15
					c0.7,5.914-1.29,11.659-5.917,17.076L190.578,429.879z M185.638,398.864c-1.662,3.079-4.051,8.771-2.912,14.475
					c0.766,3.834,3.053,7.166,6.807,9.926c2.699-3.757,3.838-7.606,3.387-11.471C192.245,405.996,188.184,401.292,185.638,398.864z"
					/>
			</g>
			<g>
				<path style="fill:#996928;" d="M171.432,444.174c-6.853,0-12.542-2.596-12.781-2.707l-2.271-1.05l1.052-2.271
					c0.294-0.635,7.37-15.549,21.549-15.549c3.89,0,7.93,1.157,12.008,3.44l1.869,1.047l-0.748,2.007
					C187.471,441.557,178.304,444.174,171.432,444.174z M163.331,437.871c1.985,0.614,4.92,1.304,8.101,1.304
					c6.991,0,12.073-3.287,15.134-9.778c-2.622-1.194-5.165-1.798-7.584-1.798C171.021,427.598,165.682,434.204,163.331,437.871z"/>
			</g>
			<g>
				<path style="fill:#996928;" d="M216.964,442.846l-1.821-1.119c-4.729-2.904-7.586-6.696-8.491-11.27
					c-1.617-8.174,3.775-15.699,4.006-16.016l1.47-2.019l2.021,1.468c0.318,0.23,7.805,5.755,8.787,14.045
					c0.547,4.615-0.995,9.085-4.583,13.285L216.964,442.846z M213.296,419.814c-1.148,2.329-2.471,6.024-1.734,9.7
					c0.509,2.536,1.968,4.771,4.349,6.663c1.665-2.515,2.358-5.072,2.062-7.627C217.54,424.811,215.12,421.685,213.296,419.814z"/>
			</g>
			<g>
				<path style="fill:#996928;" d="M202.477,453.381c-5.275,0-9.664-2.002-9.848-2.088l-2.271-1.05l1.052-2.271
					c0.228-0.49,5.7-12.023,16.728-12.023c3.026,0,6.159,0.896,9.313,2.661l1.868,1.047l-0.747,2.007
					C214.967,451.348,207.83,453.381,202.477,453.381z M197.382,447.663c1.38,0.373,3.177,0.719,5.095,0.719
					c4.837,0,8.292-2.097,10.503-6.394c-1.675-0.689-3.297-1.038-4.842-1.038C202.896,440.95,199.247,444.958,197.382,447.663z"/>
			</g>
		</g>
		<g>
			<path style="fill:#996928;" d="M238.966,449.256c-47.48-12.822-90.338-38.668-123.939-74.741
				c-34.494-37.032-57.392-83.067-66.219-133.13c-6.8-38.564-5.052-77.123,5.195-114.607l4.823,1.318
				c-10.051,36.766-11.765,74.59-5.095,112.42c8.659,49.109,31.12,94.268,64.954,130.591c32.964,35.39,75.007,60.744,121.584,73.323
				L238.966,449.256z"/>
		</g>
	</g>
	<g>
		<g>
			<g>
				<polygon style="fill:#996928;" points="308.756,468.607 288.324,451.881 308.756,435.157 311.923,439.026 296.218,451.881 
					311.923,464.738 				"/>
			</g>
			<g>
				<polygon style="fill:#996928;" points="335.789,468.607 332.621,464.738 348.325,451.881 332.621,439.026 335.789,435.157 
					356.217,451.881 				"/>
			</g>
		</g>
		<g>
			
				<rect x="319.772" y="427.826" transform="matrix(0.9504 0.3109 -0.3109 0.9504 156.4884 -77.8088)" style="fill:#996928;" width="5" height="48.112"/>
		</g>
	</g>
</g>
</svg>
