<?xml version="1.0" encoding="utf-8"?>
<!-- Generator: Adobe Illustrator 16.0.4, SVG Export Plug-In . SVG Version: 6.00 Build 0)  -->
<!DOCTYPE svg PUBLIC "-//W3C//DTD SVG 1.1//EN" "http://www.w3.org/Graphics/SVG/1.1/DTD/svg11.dtd">
<svg version="1.1" id="Layer_1" xmlns="http://www.w3.org/2000/svg" xmlns:xlink="http://www.w3.org/1999/xlink" x="0px" y="0px"
	 width="539.911px" height="85.426px" viewBox="0 0 539.911 85.426" enable-background="new 0 0 539.911 85.426"
	 xml:space="preserve">
<g>
	<g>
		<path fill="#FFFFFF" d="M9.295,81.795c27.797-17.883,59.312-4.957,75.069,3.631C62.587,76.75,30.718,74.713,9.295,81.795z"/>
		<path fill="#FFFFFF" d="M58.072,0c13.367,0,24.787,7.879,30.01,19.121H77.636c-4.604-5.666-11.774-9.297-19.653-9.297
			c-7.878,0-14.783,3.541-19.387,9.031c0.266-0.178,0.531-0.354,0.708-0.531c10.889-7.791,25.495,0.797,25.495,0.797
			s-13.81-4.072-23.104,2.566c-9.384,6.551-7.879,19.652-7.879,19.652s-0.088-0.178-0.177-0.443c0,0.178,0.089,0.266,0.089,0.443
			c-2.213-1.594-4.958-2.744-7.967-3.012c-0.354-1.857-0.531-3.895-0.531-5.842C25.318,14.518,40.013,0,58.072,0L58.072,0z
			 M16.111,74.182V71.35c8.676-6.373,24.61-14.695,43.908-8.764c29.213,9.117,47.803,21.6,70.377,16.021
			c22.574-5.576,24.521-17.971,24.521-17.971s-3.983,17.439-26.203,21.246c-22.22,3.807-42.669-0.441-68.784-10.182
			C42.403,65.243,25.318,70.288,16.111,74.182L16.111,74.182z M16.111,68.606c1.594-1.062,3.275-2.035,4.78-2.922
			c-0.708-0.441-1.416-0.973-2.036-1.594c-1.151-1.15-2.036-2.479-2.745-3.719v6.021l0.177,0.088
			c0.266,0.266,0.62,0.531,0.885,0.797c-0.354-0.178-0.708-0.354-1.062-0.531L16.111,68.606L16.111,68.606z M16.111,40.456v-10.27
			c2.125-0.707,4.426-1.15,6.728-1.238c-0.088,1.15-0.177,2.391-0.177,3.629c0,2.035,0.177,4.072,0.531,5.932
			C20.626,38.508,18.147,39.215,16.111,40.456z M16.111,30.098v10.268c-4.603,2.656-7.702,7.525-7.702,13.191
			c0,5.576,3.099,10.445,7.702,13.189v1.771c-1.771,1.238-3.629,2.654-5.134,3.717C4.338,68.075,0,60.727,0,52.407
			C0,42.049,6.728,33.284,16.111,30.098L16.111,30.098z M16.111,60.284c-2.921-5.664-1.859-12.127-1.859-12.127
			s-4.958,11.42,1.859,18.148V60.284L16.111,60.284z M16.111,71.35c-4.515,3.363-7.082,6.107-7.082,6.107
			c0,0.09,2.656-1.416,7.082-3.363V71.35z"/>
		<path fill="#FFFFFF" d="M89.587,66.924c0,0,13.898,7.17,27.088,5.932c13.102-1.152,17.085-5.756,17.085-5.756
			s-4.78,8.854-17.439,9.385C103.662,77.016,89.587,67.19,89.587,66.924z"/>
		<rect x="78.875" y="21.776" fill="#FFFFFF" width="11.774" height="11.773"/>
		<rect x="125.439" y="54.354" fill="#FFFFFF" width="9.029" height="9.029"/>
		<rect x="93.04" y="11.065" fill="#FFFFFF" width="15.58" height="15.58"/>
		<rect x="138.364" y="38.153" fill="#FFFFFF" width="15.581" height="15.58"/>
		<rect x="110.213" y="27.973" fill="#FFFFFF" width="8.676" height="8.676"/>
		<rect x="115.967" y="45.147" fill="#FFFFFF" width="8.675" height="8.676"/>
		<rect x="97.643" y="45.944" fill="#FFFFFF" width="8.764" height="8.676"/>
		<rect x="128.184" y="28.239" fill="#FFFFFF" width="8.675" height="8.676"/>
	</g>
	<g>
		<path fill="#FFFFFF" d="M224.941,45.678c0,3.629-0.62,7.082-1.771,10.004c-1.151,3.098-2.921,5.664-5.134,7.877
			c-2.125,2.125-4.869,3.896-7.967,5.135c-3.098,1.152-6.462,1.771-10.269,1.771h-19.21v-49.75h19.033
			c3.807,0,7.259,0.619,10.269,1.77c3.099,1.24,5.754,3.01,7.967,5.135c2.125,2.125,3.895,4.781,5.135,7.881
			C224.321,38.684,224.941,42.049,224.941,45.678z M215.469,45.678c0-2.744-0.354-5.135-1.062-7.438
			c-0.708-2.125-1.771-3.982-3.187-5.486c-1.416-1.506-3.01-2.656-4.958-3.453c-1.947-0.797-4.161-1.15-6.551-1.15h-9.649v35.145
			h9.649c2.479,0,4.604-0.354,6.551-1.15c1.948-0.797,3.629-1.947,4.958-3.453c1.328-1.504,2.479-3.363,3.187-5.488
			C215.026,50.901,215.469,48.334,215.469,45.678z"/>
		<path fill="#FFFFFF" d="M238.574,24.875c0,0.707-0.177,1.416-0.442,2.035c-0.266,0.619-0.708,1.15-1.151,1.682
			c-0.443,0.441-1.062,0.887-1.682,1.15c-0.62,0.266-1.328,0.443-2.125,0.443c-0.708,0-1.417-0.178-2.036-0.443
			c-0.62-0.266-1.239-0.619-1.682-1.15c-0.442-0.441-0.885-1.062-1.15-1.682c-0.266-0.619-0.443-1.328-0.443-2.035
			c0-0.709,0.177-1.418,0.443-2.125c0.265-0.619,0.62-1.24,1.15-1.684c0.443-0.441,1.062-0.885,1.682-1.15
			c0.62-0.266,1.328-0.441,2.036-0.441s1.417,0.178,2.125,0.441c0.62,0.266,1.239,0.619,1.682,1.15
			c0.442,0.443,0.885,1.062,1.151,1.684C238.396,23.459,238.574,24.167,238.574,24.875z M237.334,35.143v35.41h-8.499v-35.41
			H237.334z"/>
		<path fill="#FFFFFF" d="M255.748,34.612c1.505,0,3.01,0.178,4.249,0.443c1.328,0.266,2.567,0.709,3.629,1.328h10.181v3.188
			c0,0.529-0.178,0.885-0.443,1.238c-0.266,0.266-0.707,0.531-1.416,0.619l-3.187,0.531c0.266,0.619,0.442,1.238,0.531,1.859
			c0.088,0.619,0.177,1.326,0.177,2.035c0,1.682-0.354,3.363-1.062,4.691c-0.708,1.416-1.594,2.656-2.921,3.631
			c-1.239,0.973-2.744,1.682-4.338,2.301c-1.682,0.531-3.541,0.797-5.488,0.797c-1.328,0-2.656-0.088-3.895-0.354
			c-1.062,0.619-1.594,1.416-1.594,2.301c0,0.709,0.354,1.24,0.974,1.594s1.505,0.531,2.655,0.709
			c1.062,0.176,2.302,0.176,3.63,0.176c1.328,0,2.744,0.09,4.161,0.178c1.417,0.09,2.833,0.354,4.161,0.621
			c1.328,0.266,2.567,0.707,3.629,1.326c1.063,0.619,1.86,1.416,2.657,2.566c0.619,1.062,0.973,2.48,0.973,4.162
			c0,1.504-0.354,3.098-1.149,4.604c-0.797,1.416-1.858,2.832-3.364,3.982c-1.417,1.15-3.275,2.037-5.312,2.834
			c-2.036,0.707-4.515,1.061-7.259,1.061c-2.745,0-5.046-0.266-6.994-0.795c-1.947-0.531-3.629-1.15-4.869-2.037
			c-1.239-0.885-2.213-1.857-2.921-3.01c-0.62-1.061-0.974-2.213-0.974-3.541c0-1.594,0.531-3.098,1.505-4.16
			s2.479-1.947,4.249-2.744c-0.885-0.441-1.505-1.062-2.036-1.859c-0.531-0.797-0.796-1.771-0.796-3.188
			c0-0.529,0.088-1.061,0.265-1.594c0.177-0.531,0.443-1.061,0.797-1.682c0.354-0.531,0.797-1.062,1.417-1.504
			c0.531-0.443,1.239-0.887,2.036-1.328c-1.771-0.975-3.187-2.213-4.25-3.896c-0.974-1.594-1.505-3.541-1.505-5.666
			c0-1.682,0.354-3.363,1.062-4.689c0.708-1.418,1.682-2.656,2.921-3.631c1.239-0.975,2.744-1.771,4.426-2.303
			C251.853,34.877,253.623,34.612,255.748,34.612z M265.042,72.147c0-0.709-0.177-1.24-0.62-1.682
			c-0.442-0.443-0.974-0.797-1.682-1.062s-1.505-0.441-2.567-0.531c-1.062-0.088-1.948-0.178-3.099-0.178c-1.062,0-2.125,0-3.364,0
			c-1.239,0-2.213-0.088-3.275-0.354c-0.974,0.529-1.682,1.15-2.39,1.857c-0.708,0.709-0.885,1.506-0.885,2.568
			c0,0.619,0.177,1.148,0.443,1.682c0.265,0.531,0.796,0.975,1.416,1.328c0.708,0.354,1.505,0.707,2.656,0.885
			c1.062,0.178,2.479,0.355,3.984,0.355c1.593,0,3.01-0.09,4.072-0.355c1.151-0.266,2.036-0.529,2.833-0.975
			c0.708-0.441,1.239-0.973,1.593-1.504C264.866,73.475,265.042,72.766,265.042,72.147z M255.748,52.051
			c1.062,0,1.948-0.176,2.833-0.441c0.886-0.266,1.417-0.709,1.948-1.15c0.531-0.531,0.885-1.062,1.151-1.771
			c0.266-0.709,0.354-1.506,0.354-2.391c0-1.682-0.531-3.188-1.505-4.16c-1.062-0.975-2.656-1.506-4.692-1.506
			s-3.718,0.531-4.691,1.506c-1.062,0.975-1.505,2.479-1.505,4.16c0,0.797,0.089,1.594,0.354,2.391
			c0.265,0.709,0.62,1.328,1.15,1.771c0.531,0.529,1.151,0.885,1.948,1.15C253.89,51.875,254.685,52.051,255.748,52.051z"/>
		<path fill="#FFFFFF" d="M286.111,24.875c0,0.707-0.177,1.416-0.442,2.035s-0.707,1.15-1.15,1.682
			c-0.441,0.531-1.062,0.887-1.682,1.15c-0.619,0.266-1.328,0.443-2.125,0.443c-0.707,0-1.416-0.178-2.035-0.443
			c-0.62-0.266-1.24-0.619-1.682-1.15c-0.443-0.441-0.887-1.062-1.152-1.682s-0.441-1.328-0.441-2.035
			c0-0.709,0.178-1.418,0.441-2.125c0.267-0.619,0.621-1.24,1.152-1.684c0.44-0.441,1.062-0.885,1.682-1.15
			c0.619-0.266,1.328-0.441,2.035-0.441c0.709,0,1.416,0.178,2.125,0.441c0.619,0.266,1.238,0.619,1.682,1.15
			c0.443,0.443,0.886,1.062,1.15,1.684C285.935,23.459,286.111,24.167,286.111,24.875z M284.784,35.143v35.41h-8.498v-35.41H284.784
			z"/>
		<path fill="#FFFFFF" d="M302.577,71.084c-3.099,0-5.398-0.887-7.082-2.656c-1.593-1.682-2.479-4.16-2.479-7.258V41.518h-3.541
			c-0.441,0-0.797-0.178-1.15-0.443c-0.354-0.266-0.531-0.709-0.531-1.328v-3.363l5.666-0.885l1.771-9.648
			c0.089-0.443,0.267-0.797,0.62-1.062s0.708-0.354,1.238-0.354h4.427v11.064h9.294v6.02h-9.294v19.121
			c0,1.062,0.266,1.947,0.797,2.656c0.53,0.709,1.239,0.885,2.124,0.885c0.531,0,0.975-0.088,1.328-0.176
			c0.354-0.09,0.619-0.268,0.887-0.355c0.266-0.176,0.529-0.266,0.707-0.354c0.178-0.09,0.441-0.178,0.619-0.178
			c0.266,0,0.443,0.088,0.619,0.178c0.178,0.088,0.355,0.354,0.531,0.529l2.568,4.162c-1.24,0.975-2.744,1.771-4.25,2.391
			C305.942,70.819,304.348,71.084,302.577,71.084z"/>
		<path fill="#FFFFFF" d="M341.881,70.553h-3.807c-0.797,0-1.416-0.088-1.857-0.354c-0.443-0.266-0.797-0.709-0.975-1.416
			l-0.709-2.566c-0.885,0.797-1.771,1.504-2.654,2.035c-0.887,0.619-1.684,1.062-2.744,1.506c-0.887,0.441-1.859,0.707-2.922,0.885
			c-0.975,0.178-2.125,0.266-3.453,0.266c-1.504,0-2.92-0.178-4.16-0.619c-1.238-0.354-2.391-0.975-3.275-1.771
			s-1.592-1.771-2.035-3.01c-0.443-1.15-0.709-2.656-0.709-4.16c0-1.328,0.354-2.656,1.062-3.984
			c0.707-1.238,1.859-2.479,3.541-3.541c1.682-1.061,3.807-1.857,6.461-2.654c2.656-0.797,6.021-0.975,10.094-0.975v-2.035
			c0-2.391-0.531-4.162-1.506-5.312s-2.479-1.684-4.338-1.684c-1.326,0-2.566,0.18-3.451,0.443c-0.887,0.266-1.684,0.709-2.48,1.062
			c-0.707,0.354-1.238,0.707-1.859,1.061c-0.617,0.355-1.148,0.443-1.857,0.443c-0.531,0-1.062-0.178-1.416-0.443
			c-0.443-0.266-0.709-0.619-0.975-1.061l-1.506-2.744c4.072-3.719,8.941-5.578,14.695-5.578c2.037,0,3.896,0.354,5.488,0.975
			c1.594,0.709,3.01,1.594,4.162,2.832c1.061,1.152,1.945,2.656,2.566,4.338c0.531,1.684,0.885,3.541,0.885,5.488v22.486h-0.266
			V70.553L341.881,70.553z M325.329,65.243c0.885,0,1.682-0.09,2.479-0.266c0.707-0.178,1.416-0.355,2.035-0.709
			s1.24-0.707,1.859-1.15c0.619-0.441,1.24-0.975,1.77-1.594v-5.932c-2.479,0-4.514,0.178-6.195,0.441
			c-1.594,0.268-3.01,0.709-3.982,1.152c-0.973,0.441-1.684,1.061-2.125,1.682c-0.443,0.619-0.619,1.328-0.619,2.035
			c0,1.506,0.441,2.656,1.326,3.275C322.76,64.977,323.911,65.243,325.329,65.243z"/>
		<path fill="#FFFFFF" d="M355.87,19.387v51.166h-8.5V19.387H355.87z"/>
		<path fill="#FFFFFF" d="M410.313,45.678c0,3.629-0.621,7.082-1.771,10.092c-1.15,3.098-2.922,5.754-5.135,8.145
			c-2.125,2.213-4.869,4.072-7.967,5.312c-3.1,1.24-6.463,1.859-10.27,1.859s-7.26-0.621-10.27-1.859
			c-3.012-1.24-5.754-3.1-8.057-5.312c-2.213-2.213-3.982-4.957-5.135-8.145c-1.15-3.098-1.77-6.463-1.77-10.092
			s0.617-7.082,1.77-10.092c1.15-3.1,3.01-5.756,5.135-8.145c2.303-2.215,4.869-4.072,8.057-5.312
			c3.098-1.238,6.551-1.859,10.27-1.859c3.717,0,7.258,0.621,10.27,1.859c3.098,1.238,5.754,3.098,7.967,5.312
			c2.125,2.301,3.895,4.957,5.135,8.057C409.78,38.596,410.313,42.049,410.313,45.678z M400.838,45.678
			c0-2.744-0.354-5.135-1.061-7.438c-0.709-2.125-1.771-3.982-3.189-5.486c-1.416-1.506-3.01-2.746-4.957-3.541
			c-1.947-0.797-4.16-1.152-6.551-1.152c-2.479,0-4.604,0.355-6.551,1.152c-1.947,0.795-3.629,1.945-4.957,3.541
			c-1.328,1.592-2.479,3.361-3.188,5.486s-1.062,4.605-1.062,7.438c0,2.744,0.354,5.135,1.062,7.348
			c0.707,2.213,1.771,3.982,3.188,5.488c1.328,1.506,3.098,2.656,4.957,3.453c1.947,0.797,4.16,1.148,6.551,1.148
			c2.479,0,4.604-0.354,6.551-1.148c1.947-0.797,3.631-1.947,4.957-3.453c1.328-1.506,2.48-3.363,3.189-5.488
			C400.485,50.901,400.838,48.334,400.838,45.678z"/>
		<path fill="#FFFFFF" d="M438.551,42.668c-0.266,0.354-0.531,0.529-0.709,0.707c-0.266,0.178-0.619,0.266-1.061,0.266
			c-0.443,0-0.887-0.088-1.24-0.354s-0.885-0.531-1.416-0.887c-0.531-0.354-1.24-0.619-2.035-0.885
			c-0.797-0.266-1.771-0.354-3.01-0.354c-1.506,0-2.834,0.266-3.984,0.797c-1.062,0.531-2.037,1.328-2.832,2.391
			c-0.709,0.975-1.238,2.213-1.684,3.719c-0.354,1.416-0.531,3.1-0.531,4.869c0,1.857,0.178,3.541,0.621,5.045
			c0.354,1.416,0.973,2.744,1.682,3.719c0.707,0.975,1.684,1.682,2.832,2.303c1.062,0.529,2.215,0.797,3.631,0.797
			s2.479-0.178,3.275-0.531s1.504-0.709,2.035-1.062s1.062-0.797,1.506-1.062c0.441-0.266,0.885-0.531,1.416-0.531
			c0.707,0,1.15,0.268,1.504,0.797l2.48,3.1c-0.887,1.062-1.947,1.947-3.1,2.834c-1.061,0.795-2.301,1.326-3.453,1.77
			c-1.148,0.443-2.479,0.709-3.717,0.887c-1.238,0.176-2.566,0.266-3.807,0.266c-2.125,0-4.25-0.443-6.109-1.24
			c-1.857-0.797-3.629-1.947-5.045-3.629c-1.416-1.594-2.656-3.453-3.453-5.754c-0.797-2.213-1.238-4.869-1.238-7.791
			c0-2.656,0.354-4.957,1.062-7.258c0.707-2.215,1.771-4.162,3.275-5.754c1.416-1.596,3.273-2.922,5.398-3.809
			c2.125-0.885,4.604-1.328,7.438-1.328c2.654,0,4.957,0.443,6.992,1.24c1.947,0.797,3.807,2.035,5.312,3.629L438.551,42.668z"/>
		<path fill="#FFFFFF" d="M457.85,34.612c2.213,0,4.248,0.355,6.107,1.062c1.859,0.709,3.541,1.682,4.869,3.188
			c1.328,1.328,2.479,3.1,3.186,5.045c0.709,1.949,1.152,4.25,1.152,6.73c0,0.619,0,1.148-0.09,1.592
			c-0.088,0.443-0.176,0.709-0.266,0.975c-0.178,0.268-0.354,0.443-0.619,0.531s-0.531,0.178-0.975,0.178H449.35
			c0.266,3.629,1.238,6.285,2.922,8.057c1.682,1.682,3.982,2.566,6.729,2.566c1.328,0,2.566-0.178,3.629-0.443
			c0.975-0.354,1.859-0.707,2.656-1.062c0.797-0.354,1.416-0.709,1.947-1.061c0.529-0.355,1.061-0.443,1.594-0.443
			c0.354,0,0.619,0.088,0.885,0.178c0.266,0.178,0.443,0.354,0.619,0.531l2.479,3.098c-0.885,1.062-1.945,1.947-3.186,2.834
			c-1.24,0.885-2.48,1.326-3.719,1.77s-2.656,0.709-3.896,0.887c-1.328,0.178-2.654,0.266-3.895,0.266
			c-2.48,0-4.781-0.443-6.904-1.238c-2.037-0.797-3.984-1.949-5.488-3.631c-1.506-1.682-2.834-3.629-3.719-5.932
			c-0.885-2.391-1.328-5.047-1.328-8.232c0-2.479,0.355-4.691,1.15-6.729c0.797-2.125,1.859-3.982,3.365-5.486
			c1.416-1.506,3.273-2.834,5.311-3.721C452.715,35.055,455.104,34.612,457.85,34.612z M457.938,40.809
			c-2.479,0-4.426,0.709-5.844,2.037c-1.416,1.416-2.213,3.451-2.744,5.93h16.023c0-1.061-0.178-2.123-0.443-3.186
			c-0.264-1.062-0.707-1.771-1.326-2.568c-0.619-0.707-1.416-1.328-2.391-1.682C460.329,40.987,459.176,40.809,457.938,40.809z"/>
		<path fill="#FFFFFF" d="M504.325,70.553h-3.809c-0.795,0-1.416-0.088-1.857-0.354s-0.797-0.709-0.975-1.416l-0.707-2.566
			c-0.887,0.797-1.771,1.504-2.656,2.035c-0.885,0.619-1.682,1.062-2.744,1.506c-0.885,0.441-1.859,0.707-2.92,0.885
			c-0.977,0.178-2.125,0.266-3.453,0.266c-1.506,0-2.922-0.178-4.16-0.619c-1.24-0.354-2.391-0.975-3.275-1.771
			c-0.887-0.797-1.594-1.771-2.035-3.01c-0.443-1.15-0.709-2.656-0.709-4.16c0-1.328,0.354-2.656,1.062-3.984
			c0.709-1.238,1.859-2.479,3.541-3.541c1.682-1.061,3.807-1.857,6.463-2.654c2.744-0.709,6.02-0.975,10.092-0.975v-2.035
			c0-2.391-0.531-4.162-1.506-5.312c-0.973-1.15-2.479-1.684-4.338-1.684c-1.328,0-2.566,0.18-3.451,0.443
			c-0.887,0.266-1.684,0.709-2.479,1.062c-0.709,0.354-1.24,0.707-1.859,1.061c-0.619,0.355-1.15,0.443-1.857,0.443
			c-0.531,0-1.062-0.178-1.416-0.443c-0.443-0.266-0.709-0.619-0.975-1.061l-1.506-2.744c4.072-3.719,8.941-5.578,14.695-5.578
			c2.035,0,3.895,0.354,5.488,0.975c1.594,0.709,3.01,1.594,4.16,2.832c1.062,1.152,1.947,2.656,2.566,4.338
			c0.531,1.684,0.885,3.541,0.885,5.488v22.486h-0.266V70.553L504.325,70.553z M487.682,65.243c0.887,0,1.684-0.09,2.479-0.266
			c0.797-0.178,1.416-0.355,2.035-0.709c0.621-0.354,1.24-0.707,1.859-1.15c0.619-0.441,1.238-0.975,1.771-1.594v-5.932
			c-2.48,0-4.516,0.178-6.197,0.441c-1.594,0.268-3.01,0.709-3.982,1.152c-0.975,0.441-1.684,1.061-2.125,1.682
			c-0.441,0.619-0.619,1.328-0.619,2.035c0,1.506,0.441,2.656,1.328,3.275C485.204,64.977,486.266,65.243,487.682,65.243z"/>
		<path fill="#FFFFFF" d="M509.194,70.553v-35.41h5.223c1.062,0,1.771,0.531,2.125,1.506l0.531,2.832
			c0.707-0.707,1.416-1.416,2.213-1.947c0.797-0.619,1.594-1.061,2.566-1.504c0.885-0.443,1.771-0.797,2.834-0.975
			c0.973-0.266,2.035-0.355,3.361-0.355c1.859,0,3.631,0.355,5.135,0.975c1.506,0.621,2.744,1.506,3.719,2.834
			c0.975,1.148,1.684,2.654,2.215,4.248c0.529,1.594,0.795,3.453,0.795,5.4v22.484h-8.498V48.157c0-2.125-0.531-3.807-1.504-5.047
			c-0.975-1.15-2.568-1.77-4.516-1.77c-1.416,0-2.922,0.354-4.16,0.973c-1.24,0.619-2.566,1.506-3.629,2.744v25.584h-8.498v-0.088
			H509.194L509.194,70.553z"/>
	</g>
</g>
</svg>
