<?xml version="1.0" encoding="utf-8"?>
<!-- Generator: Adobe Illustrator 16.0.4, SVG Export Plug-In . SVG Version: 6.00 Build 0)  -->
<!DOCTYPE svg PUBLIC "-//W3C//DTD SVG 1.1//EN" "http://www.w3.org/Graphics/SVG/1.1/DTD/svg11.dtd">
<svg version="1.1" id="Layer_1" xmlns="http://www.w3.org/2000/svg" xmlns:xlink="http://www.w3.org/1999/xlink" x="0px" y="0px"
	 width="3936.053px" height="51.948px" viewBox="-2.79 -0.001 3936.053 51.948"
	 enable-background="new -2.79 -0.001 3936.053 51.948" xml:space="preserve">
<g id="Layer_1_1_" display="none">
	<g display="inline">
		<path fill="#CC9548" d="M633.727,666.224c0,0,9.642,52.439-183.857,52.439h-30.033c-193.499,0-183.862-52.439-183.862-52.439
			c-21.283,28.559,6.503,64.854,11.824,79.043c5.321,14.189,172.038,4.143,172.038,4.143v-0.182h30.033v0.182
			c0,0,166.718,10.051,172.038-4.143C627.224,731.078,655.01,694.779,633.727,666.224z"/>
		<path fill="#EBD6B9" d="M235.969,690.521c0,0-9.636,39.965,183.862,39.965h30.033c193.499,0,183.857-39.965,183.857-39.965v-5.385
			c0,0,9.642,39.969-183.857,39.969h-30.033c-193.499,0-183.862-39.969-183.862-39.969V690.521L235.969,690.521z"/>
		<path fill="#EBD6B9" d="M235.614,701.517c0,0-9.637,39.971,183.862,39.971h30.033c193.499,0,183.862-39.971,183.862-39.971v-5.379
			c0,0,9.637,39.965-183.862,39.965h-30.033c-193.499,0-183.862-39.965-183.862-39.965V701.517L235.614,701.517z"/>
	</g>
	<path display="inline" fill="#996928" d="M642.891,638.32l-11.884,5.26c0.062,0.65,12.534,54.746-17.145,88.146
		c-8.75,9.812-19.982,14.725-34.585,14.725h-99.146H388.91h-99.146c-14.604,0-25.955-4.789-34.584-14.725
		c-25.599-29.266-17.736-92.105-17.677-92.695l-5.675-0.771l-5.853-0.77c-0.354,2.773-8.868,68.693,20.278,102.041
		c10.878,12.475,25.539,18.736,43.512,18.736h99.146h91.222h99.146c17.973,0,32.634-6.32,43.512-18.736
		C651.936,706.187,643.304,641.156,642.891,638.32z"/>
	<g display="inline">
		<rect x="282.674" y="493.298" fill="#15110E" width="177.359" height="177.359"/>
		<rect x="282.556" y="493.298" fill="#641313" width="88.683" height="44.34"/>
		<rect x="282.556" y="537.755" fill="#996928" width="44.343" height="44.34"/>
		<rect x="326.896" y="537.755" fill="#744921" width="44.34" height="44.34"/>
		<rect x="282.556" y="581.978" fill="#8C5B29" width="44.343" height="44.344"/>
		<rect x="282.556" y="626.376" fill="#D57A16" width="29.562" height="44.34"/>
		<rect x="312.115" y="626.376" fill="#EB9D1B" width="29.56" height="44.34"/>
		<rect x="341.675" y="626.376" fill="#EBD6B9" width="29.562" height="44.34"/>
		<rect x="326.896" y="582.095" fill="#CC9548" width="44.34" height="44.34"/>
	</g>
</g>
<g id="Layer_3" display="none">
	<path display="inline" fill="#996928" d="M697.398,629.806c-0.182-4.434-3.192-1.771-3.192-1.771
		c-10.582-2.719-11.942-14.604-12.062-15.902c7.745-1.062,6.858-2.66,3.666-4.908c-1.946-1.354-8.1-3.482-13.479-5.197
		c-0.71-0.297-1.479-0.596-2.306-0.891c0.94-10.584-12.533-15.9-12.533-15.9c0.118,7.031-0.178,9.104-1.479,12.943
		c-6.439-0.178-12.942,1.717-17.73,7.809c-13.896,17.678-7.036,37.127-5.267,48.301l10.878-7.98c0,0-1.771-10.521-1.301-15.781
		c0.177-1.01,0.296-1.949,0.532-2.777c0.65-2.012,2.479-6.207,7.922-6.207c14.543,0.061,9.577,18.326,20.278,22.938
		c3.896,1.715,6.681,0.297,6.681,0.297c-8.159-8.572-7.979-21.938-7.979-21.938c5.315,5.912,18.209,14.365,21.573,14.543
		C695.093,637.431,697.576,634.24,697.398,629.806z"/>
	<path display="inline" fill="#996928" d="M656.074,598.058c0,0-15.549-3.365-21.047,2.365l8.271,2.365
		C643.304,602.789,659.267,604.089,656.074,598.058z"/>
	<path display="inline" fill="#996928" d="M646.615,603.261c0,0-11.061-3.604-16.559,2.068l8.276,2.365
		C638.279,607.695,649.748,609.291,646.615,603.261z"/>
	<path display="inline" fill="#996928" d="M643.009,608.404c0,0-11.056-3.605-16.554,2.064l8.275,2.365
		C634.731,612.837,646.201,614.375,643.009,608.404z"/>
	<path display="inline" fill="#996928" d="M641.058,613.429c0,0-11.056-3.604-16.554,2.07l8.277,2.363
		C632.781,617.863,644.25,619.46,641.058,613.429z"/>
	<path display="inline" fill="#996928" d="M639.698,618.396c0,0-11.061-3.605-16.559,2.064l8.276,2.365
		C631.421,622.83,642.831,624.367,639.698,618.396z"/>
	<path display="inline" fill="#996928" d="M675.761,738.054c3.312-5.854,5.267-12.592,5.267-19.805
		c0-11.529-4.907-21.934-12.715-29.266c0,0-1.533-1.418-2.307-2.014c-21.047-18.855-21.992-40.729-21.992-40.729h-5.676
		c0,0,0.236,14.066-1.951,32.219c0,0,0,0-0.059,0c-1.064,8.041-0.178,35.062-16.438,54.213
		c-13.834,16.199-45.167,25.604-45.167,25.604h66.217c12.826,0,24.236-6.029,31.567-15.371c1.359-1.479,2.482-3.074,3.251-4.787
		C675.702,738.113,675.702,738.054,675.761,738.054z"/>
	<path display="inline" fill="#996928" d="M192.161,738.054c-3.311-5.854-5.262-12.592-5.262-19.805
		c0-11.529,4.907-21.934,12.711-29.266c0,0,1.537-1.418,2.306-2.014c21.046-18.855,21.992-40.729,21.992-40.729h5.676
		c0,0-0.236,14.066,1.951,32.219c0,0,0,0,0.059,0c1.064,8.041,0.178,35.062,16.436,54.213c13.775,16.258,45.11,25.604,45.11,25.604
		h-66.216c-12.829,0-24.239-6.029-31.57-15.371c-1.36-1.479-2.483-3.074-3.251-4.787
		C192.161,738.113,192.161,738.054,192.161,738.054z"/>
	<path display="inline" fill="#8C5B29" d="M697.398,629.806c-0.182-4.434-3.192-1.771-3.192-1.771
		c-10.582-2.719-11.942-14.604-12.062-15.902c2.483-0.354,4.971-1.184,4.971-1.184s-15.075-4.611-21.643-5.201
		c-31.86-3.02-31.215,14.66-30.441,34.053c0.527,12.65,28.313,111.678,28.313,111.678c3.488-2.361,6.562-5.262,9.164-8.514
		c1.359-1.479,2.482-3.074,3.251-4.789c0,0,0-0.059,0.062-0.059c3.311-5.855,5.262-12.596,5.262-19.811
		c0-11.523-4.907-21.934-12.711-29.264c0,0-1.537-1.42-2.308-2.012c-21.05-18.857-21.991-40.732-21.991-40.732
		s-1.773-10.521-1.305-15.785c0.182-1.006,0.3-1.945,0.531-2.773c0.65-2.014,2.483-6.207,7.923-6.207
		c14.543,0.059,9.577,18.326,20.277,22.938c3.902,1.715,6.681,0.295,6.681,0.295c-8.153-8.568-7.979-21.934-7.979-21.934
		c5.317,5.912,18.209,14.365,21.579,14.543C695.093,637.431,697.576,634.24,697.398,629.806z"/>
	<g display="inline">
		<circle fill="#996928" cx="216.696" cy="638.673" r="20.811"/>
		<circle fill="#CC9548" cx="216.696" cy="638.672" r="14.78"/>
		<circle fill="#996928" cx="216.696" cy="638.673" r="11.824"/>
		<circle fill="#CC9548" cx="216.696" cy="638.674" r="8.868"/>
		<circle fill="#996928" cx="216.696" cy="638.674" r="2.956"/>
	</g>
</g>
<g id="Layer_4" display="none">
	<circle display="inline" fill="#8C5B29" cx="228.342" cy="718.426" r="31.688"/>
	<circle display="inline" fill="#996928" cx="228.342" cy="718.426" r="23.647"/>
	<circle display="inline" fill="#CC9548" cx="228.342" cy="718.426" r="19.687"/>
	<circle display="inline" fill="#996928" cx="228.342" cy="718.426" r="16.79"/>
	<circle display="inline" fill="#8C5B29" cx="639.166" cy="718.426" r="31.688"/>
	<circle display="inline" fill="#996928" cx="639.166" cy="718.426" r="23.647"/>
	<circle display="inline" fill="#CC9548" cx="639.166" cy="718.426" r="19.687"/>
	<circle display="inline" fill="#996928" cx="639.166" cy="718.426" r="16.79"/>
</g>
<g>
	<path fill="#37B1DB" d="M44.792,0c-5.264,9.164-15.195,15.371-26.605,15.371c-8.011,0-15.305-3.1-20.78-8.14L-2.728,37.77
		c5.478,5.103,12.824,8.226,20.915,8.226c16.967,0,30.685-13.715,30.685-30.684C48.872,9.754,47.393,4.495,44.792,0z"/>
	<path fill="#37B1DB" d="M443.672,15.371c-11.354,0-21.283-6.207-26.604-15.371c-2.604,4.493-4.079,9.755-4.079,15.312
		c0,16.969,13.716,30.684,30.686,30.684c16.967,0,30.686-13.715,30.686-30.684c0-5.558-1.479-10.817-4.079-15.312
		C464.955,9.164,455.021,15.371,443.672,15.371z"/>
	<path fill="#37B1DB" d="M71.336,15.371C59.984,15.371,50.053,9.164,44.732,0c-2.602,4.493-4.08,9.755-4.08,15.312
		c0,16.969,13.718,30.684,30.685,30.684c16.968,0,30.684-13.715,30.684-30.684c0-5.558-1.479-10.817-4.079-15.312
		C92.618,9.164,82.745,15.371,71.336,15.371z"/>
	<path fill="#37B1DB" d="M124.544,15.371c-11.353,0-21.283-6.207-26.604-15.371c-2.602,4.493-4.08,9.755-4.08,15.312
		c0,16.969,13.716,30.684,30.686,30.684c16.968,0,30.684-13.715,30.684-30.684c0-5.558-1.479-10.817-4.08-15.312
		C145.826,9.164,135.894,15.371,124.544,15.371z"/>
	<path fill="#37B1DB" d="M177.691,15.371c-11.351,0-21.283-6.207-26.604-15.371c-2.604,4.493-4.079,9.755-4.079,15.312
		c0,16.969,13.716,30.684,30.683,30.684c16.968,0,30.684-13.715,30.684-30.684c0-5.558-1.479-10.817-4.077-15.312
		C198.975,9.164,189.044,15.371,177.691,15.371z"/>
	<path fill="#37B1DB" d="M230.841,15.371c-11.354,0-21.283-6.207-26.604-15.371c-2.602,4.493-4.079,9.755-4.079,15.312
		c0,16.969,13.716,30.684,30.686,30.684c16.967,0,30.685-13.715,30.685-30.684c0-5.558-1.479-10.817-4.079-15.312
		C252.123,9.164,242.19,15.371,230.841,15.371z"/>
	<path fill="#37B1DB" d="M284.107,15.371c-11.354,0-21.283-6.207-26.604-15.371c-2.603,4.493-4.079,9.755-4.079,15.312
		c0,16.969,13.716,30.684,30.686,30.684c16.967,0,30.683-13.715,30.683-30.684c0-5.558-1.479-10.817-4.077-15.312
		C305.391,9.164,295.458,15.371,284.107,15.371z"/>
	<path fill="#37B1DB" d="M337.256,15.371c-11.353,0-21.283-6.207-26.604-15.371c-2.604,4.493-4.079,9.755-4.079,15.312
		c0,16.969,13.715,30.684,30.685,30.684c16.968,0,30.687-13.715,30.687-30.684c0-5.558-1.479-10.817-4.079-15.312
		C358.539,9.164,348.606,15.371,337.256,15.371z"/>
	<path fill="#37B1DB" d="M390.522,15.371c-11.354,0-21.283-6.207-26.604-15.371c-2.604,4.493-4.079,9.755-4.079,15.312
		c0,16.969,13.716,30.684,30.686,30.684c16.968,0,30.684-13.715,30.684-30.684c0-5.558-1.479-10.817-4.077-15.312
		C411.806,9.164,401.874,15.371,390.522,15.371z"/>
	<polygon fill="#37B1DB" points="474.354,15.312 -2.628,15.312 -2.764,45.998 474.354,45.998 	"/>
</g>
<g>
	<g>
		<path fill="#2980B9" d="M-2.562,0.281L-2.696,30.58c2.58-4.495,4.062-9.704,4.062-15.268C1.366,9.867-0.06,4.715-2.562,0.281z"/>
		<path fill="#2980B9" d="M50.438,0c-5.263,9.164-15.196,15.371-26.606,15.371c-11.21,0-21.027-6.06-26.395-15.038l-0.134,30.405
			c5.312,9.128,15.191,15.257,26.53,15.257c16.968,0,30.684-13.715,30.684-30.684C54.517,9.754,53.038,4.495,50.438,0z"/>
		<path fill="#2980B9" d="M76.981,15.371C65.628,15.371,55.699,9.164,50.377,0c-2.602,4.493-4.078,9.755-4.078,15.312
			c0,16.969,13.716,30.684,30.684,30.684c16.967,0,30.685-13.715,30.685-30.684c0-5.558-1.479-10.817-4.079-15.312
			C98.265,9.164,88.392,15.371,76.981,15.371z"/>
		<path fill="#2980B9" d="M130.188,15.371c-11.351,0-21.283-6.207-26.604-15.371c-2.604,4.493-4.079,9.755-4.079,15.312
			c0,16.969,13.716,30.684,30.683,30.684c16.968,0,30.686-13.715,30.686-30.684c0-5.558-1.479-10.817-4.079-15.312
			C151.472,9.164,141.54,15.371,130.188,15.371z"/>
		<path fill="#2980B9" d="M183.338,15.371c-11.354,0-21.283-6.207-26.604-15.371c-2.601,4.493-4.079,9.755-4.079,15.312
			c0,16.969,13.716,30.684,30.686,30.684c16.967,0,30.684-13.715,30.684-30.684c0-5.558-1.479-10.817-4.08-15.312
			C204.622,9.164,194.688,15.371,183.338,15.371z"/>
		<path fill="#2980B9" d="M236.485,15.371c-11.351,0-21.282-6.207-26.604-15.371c-2.604,4.493-4.08,9.755-4.08,15.312
			c0,16.969,13.717,30.684,30.684,30.684c16.969,0,30.686-13.715,30.686-30.684c0-5.558-1.479-10.817-4.079-15.312
			C257.77,9.164,247.837,15.371,236.485,15.371z"/>
		<path fill="#2980B9" d="M289.753,15.371C278.4,15.371,268.47,9.164,263.148,0c-2.604,4.493-4.079,9.755-4.079,15.312
			c0,16.969,13.716,30.684,30.685,30.684c16.968,0,30.684-13.715,30.684-30.684c0-5.558-1.479-10.817-4.077-15.312
			C311.036,9.164,301.104,15.371,289.753,15.371z"/>
		<path fill="#2980B9" d="M342.901,15.371c-11.354,0-21.281-6.207-26.604-15.371c-2.604,4.493-4.079,9.755-4.079,15.312
			c0,16.969,13.716,30.684,30.686,30.684c16.969,0,30.686-13.715,30.686-30.684c0-5.558-1.479-10.817-4.079-15.312
			C364.185,9.164,354.253,15.371,342.901,15.371z"/>
		<path fill="#2980B9" d="M396.169,15.371c-11.354,0-21.283-6.207-26.604-15.371c-2.604,4.493-4.079,9.755-4.079,15.312
			c0,16.969,13.716,30.684,30.686,30.684c16.967,0,30.686-13.715,30.686-30.684c0-5.558-1.479-10.817-4.079-15.312
			C417.452,9.164,407.52,15.371,396.169,15.371z"/>
		<path fill="#2980B9" d="M449.317,15.371c-11.354,0-21.283-6.207-26.604-15.371c-2.604,4.493-4.08,9.755-4.08,15.312
			c0,16.969,13.716,30.684,30.687,30.684c16.968,0,30.686-13.715,30.686-30.684c0-5.558-1.479-10.817-4.08-15.312
			C470.601,9.164,460.668,15.371,449.317,15.371z"/>
	</g>
	<polygon fill="#2980B9" points="480.001,15.312 -2.628,15.312 -2.79,51.91 480.001,51.91 	"/>
</g>
<g>
	<g>
		<path fill="#37B1DB" d="M496.871,15.37c-11.354,0-21.283-6.207-26.604-15.371c-2.602,4.493-4.079,9.755-4.079,15.312
			c0,16.969,13.718,30.685,30.685,30.685s30.686-13.716,30.686-30.685c0-5.558-1.479-10.817-4.08-15.312
			C518.213,9.163,508.281,15.37,496.871,15.37z"/>
		<path fill="#37B1DB" d="M922.357,15.37c-11.355,0-21.283-6.207-26.605-15.371c-2.602,4.493-4.078,9.755-4.078,15.312
			c0,16.969,13.715,30.685,30.688,30.685c16.967,0,30.684-13.716,30.684-30.685c0-5.558-1.479-10.817-4.08-15.312
			C943.64,9.163,933.707,15.37,922.357,15.37z"/>
		<path fill="#37B1DB" d="M550.021,15.37c-11.354,0-21.282-6.207-26.604-15.371c-2.602,4.493-4.08,9.755-4.08,15.312
			c0,16.969,13.719,30.685,30.688,30.685s30.684-13.716,30.684-30.685c0-5.558-1.479-10.817-4.078-15.312
			C571.303,9.163,561.43,15.37,550.021,15.37z"/>
		<path fill="#37B1DB" d="M603.229,15.37c-11.354,0-21.281-6.207-26.604-15.371c-2.604,4.493-4.08,9.755-4.08,15.312
			c0,16.969,13.716,30.685,30.686,30.685c16.971,0,30.686-13.716,30.686-30.685c0-5.558-1.479-10.817-4.08-15.312
			C624.511,9.163,614.578,15.37,603.229,15.37z"/>
		<path fill="#37B1DB" d="M656.375,15.37c-11.351,0-21.282-6.207-26.604-15.371c-2.604,4.493-4.079,9.755-4.079,15.312
			c0,16.969,13.716,30.685,30.683,30.685c16.969,0,30.685-13.716,30.685-30.685c0-5.558-1.479-10.817-4.075-15.312
			C677.66,9.163,667.729,15.37,656.375,15.37z"/>
		<path fill="#37B1DB" d="M709.525,15.37c-11.354,0-21.283-6.207-26.604-15.371c-2.603,4.493-4.079,9.755-4.079,15.312
			c0,16.969,13.716,30.685,30.688,30.685c16.966,0,30.683-13.716,30.683-30.685c0-5.558-1.479-10.817-4.078-15.312
			C730.808,9.163,720.875,15.37,709.525,15.37z"/>
		<path fill="#37B1DB" d="M762.792,15.37c-11.354,0-21.283-6.207-26.605-15.371c-2.602,4.493-4.076,9.755-4.076,15.312
			c0,16.969,13.715,30.685,30.684,30.685c16.967,0,30.684-13.716,30.684-30.685c0-5.558-1.479-10.817-4.076-15.312
			C784.076,9.163,774.142,15.37,762.792,15.37z"/>
		<path fill="#37B1DB" d="M815.941,15.37c-11.355,0-21.283-6.207-26.605-15.371c-2.602,4.493-4.078,9.755-4.078,15.312
			c0,16.969,13.715,30.685,30.686,30.685c16.969,0,30.686-13.716,30.686-30.685c0-5.558-1.479-10.817-4.08-15.312
			C837.224,9.163,827.291,15.37,815.941,15.37z"/>
		<path fill="#37B1DB" d="M869.207,15.37c-11.352,0-21.283-6.207-26.604-15.371c-2.604,4.493-4.078,9.755-4.078,15.312
			c0,16.969,13.717,30.685,30.684,30.685c16.969,0,30.684-13.716,30.684-30.685c0-5.558-1.479-10.817-4.074-15.312
			C890.49,9.163,880.558,15.37,869.207,15.37z"/>
		<rect x="424.33" y="15.311" fill="#37B1DB" width="528.708" height="30.685"/>
		<path fill="#37B1DB" d="M470.326-0.001c-5.322,9.164-15.252,15.371-26.604,15.371c-7.331,0-14.13-2.603-19.393-6.917v30.625
			c5.263,4.312,12.062,6.918,19.393,6.918c16.969,0,30.686-13.719,30.686-30.686C474.406,9.695,472.929,4.492,470.326-0.001z"/>
	</g>
	<g>
		<g>
			<path fill="#2980B9" d="M449.369,15.37c-11.354,0-21.285-6.207-26.605-15.371c-2.602,4.493-4.08,9.755-4.08,15.312
				c0,16.969,13.719,30.685,30.686,30.685c16.969,0,30.684-13.716,30.684-30.685c0-5.558-1.479-10.817-4.079-15.312
				C470.651,9.163,460.719,15.37,449.369,15.37z"/>
			<path fill="#2980B9" d="M502.517,15.37c-11.351,0-21.28-6.207-26.603-15.371c-2.604,4.493-4.08,9.755-4.08,15.312
				c0,16.969,13.717,30.685,30.684,30.685c16.97,0,30.686-13.716,30.686-30.685c0-5.558-1.479-10.817-4.078-15.312
				C523.859,9.163,513.927,15.37,502.517,15.37z"/>
			<path fill="#2980B9" d="M555.666,15.37c-11.354,0-21.282-6.207-26.604-15.371c-2.604,4.493-4.078,9.755-4.078,15.312
				c0,16.969,13.716,30.685,30.685,30.685c16.967,0,30.685-13.716,30.685-30.685c0-5.558-1.479-10.817-4.077-15.312
				C576.949,9.163,567.076,15.37,555.666,15.37z"/>
			<path fill="#2980B9" d="M608.873,15.37c-11.352,0-21.283-6.207-26.604-15.371c-2.604,4.493-4.077,9.755-4.077,15.312
				c0,16.969,13.717,30.685,30.684,30.685c16.968,0,30.686-13.716,30.686-30.685c0-5.558-1.479-10.817-4.077-15.312
				C630.156,9.163,620.225,15.37,608.873,15.37z"/>
			<path fill="#2980B9" d="M662.021,15.37c-11.354,0-21.281-6.207-26.604-15.371c-2.601,4.493-4.078,9.755-4.078,15.312
				c0,16.969,13.716,30.685,30.688,30.685c16.967,0,30.684-13.716,30.684-30.685c0-5.558-1.479-10.817-4.08-15.312
				C683.307,9.163,673.373,15.37,662.021,15.37z"/>
			<path fill="#2980B9" d="M715.17,15.37c-11.351,0-21.282-6.207-26.604-15.371c-2.604,4.493-4.08,9.755-4.08,15.312
				c0,16.969,13.717,30.685,30.684,30.685c16.968,0,30.685-13.716,30.685-30.685c0-5.558-1.479-10.817-4.076-15.312
				C736.455,9.163,726.521,15.37,715.17,15.37z"/>
			<path fill="#2980B9" d="M768.437,15.37c-11.352,0-21.281-6.207-26.604-15.371c-2.604,4.493-4.078,9.755-4.078,15.312
				c0,16.969,13.715,30.685,30.686,30.685c16.969,0,30.684-13.716,30.684-30.685c0-5.558-1.479-10.817-4.078-15.312
				C789.72,9.163,779.789,15.37,768.437,15.37z"/>
			<path fill="#2980B9" d="M821.585,15.37c-11.352,0-21.281-6.207-26.604-15.371c-2.604,4.493-4.078,9.755-4.078,15.312
				c0,16.969,13.715,30.685,30.684,30.685s30.688-13.716,30.688-30.685c0-5.558-1.48-10.817-4.08-15.312
				C842.869,9.163,832.937,15.37,821.585,15.37z"/>
			<path fill="#2980B9" d="M874.853,15.37c-11.354,0-21.281-6.207-26.604-15.371c-2.602,4.493-4.078,9.755-4.078,15.312
				c0,16.969,13.715,30.685,30.688,30.685c16.967,0,30.684-13.716,30.684-30.685c0-5.558-1.479-10.817-4.08-15.312
				C896.136,9.163,886.205,15.37,874.853,15.37z"/>
			<path fill="#2980B9" d="M928.001,15.37c-11.352,0-21.283-6.207-26.604-15.371c-2.604,4.493-4.08,9.755-4.08,15.312
				c0,16.969,13.717,30.685,30.686,30.685c16.967,0,30.688-13.716,30.688-30.685c0-5.558-1.48-10.817-4.08-15.312
				C949.285,9.163,939.353,15.37,928.001,15.37z"/>
		</g>
		<rect x="418.685" y="15.311" fill="#2980B9" width="540" height="36.597"/>
	</g>
</g>
<g>
	<g>
		<path fill="#37B1DB" d="M1028.816,15.41c-11.354,0-21.283-6.207-26.604-15.371c-2.602,4.493-4.08,9.755-4.08,15.312
			c0,16.97,13.717,30.686,30.686,30.686c16.967,0,30.686-13.716,30.686-30.686c0-5.558-1.479-10.816-4.08-15.312
			C1050.158,9.203,1040.226,15.41,1028.816,15.41z"/>
		<path fill="#37B1DB" d="M1454.302,15.41c-11.354,0-21.283-6.207-26.604-15.371c-2.604,4.493-4.08,9.755-4.08,15.312
			c0,16.97,13.717,30.686,30.688,30.686c16.967,0,30.684-13.716,30.684-30.686c0-5.558-1.479-10.816-4.078-15.312
			C1475.585,9.203,1465.652,15.41,1454.302,15.41z"/>
		<path fill="#37B1DB" d="M1081.966,15.41c-11.354,0-21.281-6.207-26.604-15.371c-2.602,4.493-4.08,9.755-4.08,15.312
			c0,16.97,13.719,30.686,30.688,30.686s30.684-13.716,30.684-30.686c0-5.558-1.479-10.816-4.078-15.312
			C1103.248,9.203,1093.375,15.41,1081.966,15.41z"/>
		<path fill="#37B1DB" d="M1135.173,15.41c-11.354,0-21.281-6.207-26.604-15.371c-2.604,4.493-4.08,9.755-4.08,15.312
			c0,16.97,13.717,30.686,30.686,30.686c16.971,0,30.686-13.716,30.686-30.686c0-5.558-1.479-10.816-4.08-15.312
			C1156.457,9.203,1146.523,15.41,1135.173,15.41z"/>
		<path fill="#37B1DB" d="M1188.32,15.41c-11.352,0-21.281-6.207-26.604-15.371c-2.604,4.493-4.08,9.755-4.08,15.312
			c0,16.97,13.717,30.686,30.684,30.686c16.969,0,30.686-13.716,30.686-30.686c0-5.558-1.479-10.816-4.076-15.312
			C1209.605,9.203,1199.673,15.41,1188.32,15.41z"/>
		<path fill="#37B1DB" d="M1241.47,15.41c-11.354,0-21.283-6.207-26.604-15.371c-2.604,4.493-4.078,9.755-4.078,15.312
			c0,16.97,13.715,30.686,30.686,30.686c16.969,0,30.686-13.716,30.686-30.686c0-5.558-1.48-10.816-4.08-15.312
			C1262.753,9.203,1252.82,15.41,1241.47,15.41z"/>
		<path fill="#37B1DB" d="M1294.738,15.41c-11.354,0-21.283-6.207-26.605-15.371c-2.602,4.493-4.078,9.755-4.078,15.312
			c0,16.97,13.717,30.686,30.686,30.686c16.967,0,30.684-13.716,30.684-30.686c0-5.558-1.479-10.816-4.076-15.312
			C1316.021,9.203,1306.087,15.41,1294.738,15.41z"/>
		<path fill="#37B1DB" d="M1347.886,15.41c-11.354,0-21.283-6.207-26.604-15.371c-2.604,4.493-4.08,9.755-4.08,15.312
			c0,16.97,13.715,30.686,30.686,30.686c16.969,0,30.686-13.716,30.686-30.686c0-5.558-1.479-10.816-4.078-15.312
			C1369.169,9.203,1359.236,15.41,1347.886,15.41z"/>
		<path fill="#37B1DB" d="M1401.152,15.41c-11.352,0-21.283-6.207-26.604-15.371c-2.604,4.493-4.078,9.755-4.078,15.312
			c0,16.97,13.715,30.686,30.684,30.686s30.684-13.716,30.684-30.686c0-5.558-1.479-10.816-4.076-15.312
			C1422.435,9.203,1412.503,15.41,1401.152,15.41z"/>
		<rect x="956.275" y="15.35" fill="#37B1DB" width="528.709" height="30.685"/>
		<path fill="#37B1DB" d="M1002.271,0.039c-5.322,9.164-15.252,15.371-26.604,15.371c-7.332,0-14.131-2.603-19.393-6.917v30.625
			c5.262,4.312,12.061,6.918,19.393,6.918c16.967,0,30.684-13.72,30.684-30.686C1006.351,9.735,1004.875,4.532,1002.271,0.039z"/>
	</g>
	<g>
		<g>
			<path fill="#2980B9" d="M981.314,15.41c-11.354,0-21.285-6.207-26.605-15.371c-2.602,4.493-4.08,9.755-4.08,15.312
				c0,16.97,13.719,30.686,30.686,30.686c16.969,0,30.684-13.716,30.684-30.686c0-5.558-1.479-10.816-4.078-15.312
				C1002.597,9.203,992.664,15.41,981.314,15.41z"/>
			<path fill="#2980B9" d="M1034.462,15.41c-11.352,0-21.281-6.207-26.604-15.371c-2.604,4.493-4.08,9.755-4.08,15.312
				c0,16.97,13.717,30.686,30.684,30.686c16.969,0,30.686-13.716,30.686-30.686c0-5.558-1.479-10.816-4.078-15.312
				C1055.804,9.203,1045.873,15.41,1034.462,15.41z"/>
			<path fill="#2980B9" d="M1087.611,15.41c-11.354,0-21.281-6.207-26.604-15.371c-2.604,4.493-4.078,9.755-4.078,15.312
				c0,16.97,13.715,30.686,30.686,30.686c16.967,0,30.684-13.716,30.684-30.686c0-5.558-1.479-10.816-4.078-15.312
				C1108.894,9.203,1099.021,15.41,1087.611,15.41z"/>
			<path fill="#2980B9" d="M1140.818,15.41c-11.352,0-21.283-6.207-26.604-15.371c-2.604,4.493-4.078,9.755-4.078,15.312
				c0,16.97,13.717,30.686,30.684,30.686c16.969,0,30.686-13.716,30.686-30.686c0-5.558-1.479-10.816-4.078-15.312
				C1162.101,9.203,1152.169,15.41,1140.818,15.41z"/>
			<path fill="#2980B9" d="M1193.966,15.41c-11.354,0-21.281-6.207-26.604-15.371c-2.602,4.493-4.078,9.755-4.078,15.312
				c0,16.97,13.717,30.686,30.688,30.686c16.967,0,30.684-13.716,30.684-30.686c0-5.558-1.479-10.816-4.08-15.312
				C1215.251,9.203,1205.318,15.41,1193.966,15.41z"/>
			<path fill="#2980B9" d="M1247.115,15.41c-11.352,0-21.281-6.207-26.604-15.371c-2.604,4.493-4.08,9.755-4.08,15.312
				c0,16.97,13.717,30.686,30.684,30.686c16.969,0,30.686-13.716,30.686-30.686c0-5.558-1.479-10.816-4.078-15.312
				C1268.4,9.203,1258.466,15.41,1247.115,15.41z"/>
			<path fill="#2980B9" d="M1300.382,15.41c-11.352,0-21.281-6.207-26.604-15.371c-2.604,4.493-4.078,9.755-4.078,15.312
				c0,16.97,13.715,30.686,30.686,30.686c16.969,0,30.684-13.716,30.684-30.686c0-5.558-1.479-10.816-4.078-15.312
				C1321.666,9.203,1311.734,15.41,1300.382,15.41z"/>
			<path fill="#2980B9" d="M1353.531,15.41c-11.352,0-21.281-6.207-26.604-15.371c-2.604,4.493-4.08,9.755-4.08,15.312
				c0,16.97,13.717,30.686,30.686,30.686s30.686-13.716,30.686-30.686c0-5.558-1.479-10.816-4.078-15.312
				C1374.814,9.203,1364.882,15.41,1353.531,15.41z"/>
			<path fill="#2980B9" d="M1406.798,15.41c-11.354,0-21.281-6.207-26.604-15.371c-2.602,4.493-4.078,9.755-4.078,15.312
				c0,16.97,13.715,30.686,30.686,30.686c16.967,0,30.686-13.716,30.686-30.686c0-5.558-1.48-10.816-4.08-15.312
				C1428.082,9.203,1418.15,15.41,1406.798,15.41z"/>
			<path fill="#2980B9" d="M1459.947,15.41c-11.352,0-21.283-6.207-26.604-15.371c-2.604,4.493-4.08,9.755-4.08,15.312
				c0,16.97,13.715,30.686,30.686,30.686c16.967,0,30.686-13.716,30.686-30.686c0-5.558-1.479-10.816-4.08-15.312
				C1481.23,9.203,1471.298,15.41,1459.947,15.41z"/>
		</g>
		<rect x="950.63" y="15.35" fill="#2980B9" width="540" height="36.597"/>
	</g>
</g>
<g>
	<g>
		<path fill="#37B1DB" d="M1507.451,15.392c-11.354,0-21.283-6.208-26.604-15.372c-2.602,4.493-4.08,9.755-4.08,15.312
			c0,16.97,13.717,30.686,30.686,30.686c16.967,0,30.686-13.716,30.686-30.686c0-5.558-1.479-10.816-4.08-15.312
			C1528.792,9.185,1518.861,15.392,1507.451,15.392z"/>
		<path fill="#37B1DB" d="M1932.937,15.392c-11.354,0-21.283-6.208-26.604-15.372c-2.604,4.493-4.08,9.755-4.08,15.312
			c0,16.97,13.717,30.686,30.688,30.686c16.967,0,30.684-13.716,30.684-30.686c0-5.558-1.479-10.816-4.078-15.312
			C1954.22,9.185,1944.287,15.392,1932.937,15.392z"/>
		<path fill="#37B1DB" d="M1560.601,15.392c-11.354,0-21.281-6.208-26.604-15.372c-2.602,4.493-4.08,9.755-4.08,15.312
			c0,16.97,13.719,30.686,30.688,30.686s30.684-13.716,30.684-30.686c0-5.558-1.479-10.816-4.078-15.312
			C1581.882,9.185,1572.009,15.392,1560.601,15.392z"/>
		<path fill="#37B1DB" d="M1613.808,15.392c-11.354,0-21.281-6.208-26.604-15.372c-2.604,4.493-4.08,9.755-4.08,15.312
			c0,16.97,13.717,30.686,30.686,30.686c16.971,0,30.686-13.716,30.686-30.686c0-5.558-1.479-10.816-4.08-15.312
			C1635.091,9.185,1625.158,15.392,1613.808,15.392z"/>
		<path fill="#37B1DB" d="M1666.955,15.392c-11.352,0-21.281-6.208-26.604-15.372c-2.604,4.493-4.08,9.755-4.08,15.312
			c0,16.97,13.717,30.686,30.684,30.686c16.969,0,30.686-13.716,30.686-30.686c0-5.558-1.479-10.816-4.076-15.312
			C1688.24,9.185,1678.308,15.392,1666.955,15.392z"/>
		<path fill="#37B1DB" d="M1720.105,15.392c-11.354,0-21.283-6.208-26.604-15.372c-2.604,4.493-4.078,9.755-4.078,15.312
			c0,16.97,13.715,30.686,30.686,30.686c16.969,0,30.686-13.716,30.686-30.686c0-5.558-1.48-10.816-4.08-15.312
			C1741.388,9.185,1731.455,15.392,1720.105,15.392z"/>
		<path fill="#37B1DB" d="M1773.373,15.392c-11.354,0-21.283-6.208-26.605-15.372c-2.602,4.493-4.078,9.755-4.078,15.312
			c0,16.97,13.717,30.686,30.686,30.686c16.967,0,30.684-13.716,30.684-30.686c0-5.558-1.479-10.816-4.076-15.312
			C1794.656,9.185,1784.722,15.392,1773.373,15.392z"/>
		<path fill="#37B1DB" d="M1826.521,15.392c-11.354,0-21.283-6.208-26.604-15.372c-2.604,4.493-4.08,9.755-4.08,15.312
			c0,16.97,13.715,30.686,30.686,30.686c16.969,0,30.686-13.716,30.686-30.686c0-5.558-1.479-10.816-4.078-15.312
			C1847.804,9.185,1837.871,15.392,1826.521,15.392z"/>
		<path fill="#37B1DB" d="M1879.787,15.392c-11.352,0-21.283-6.208-26.604-15.372c-2.604,4.493-4.078,9.755-4.078,15.312
			c0,16.97,13.715,30.686,30.684,30.686s30.684-13.716,30.684-30.686c0-5.558-1.479-10.816-4.076-15.312
			C1901.07,9.185,1891.138,15.392,1879.787,15.392z"/>
		<rect x="1434.91" y="15.332" fill="#37B1DB" width="528.709" height="30.685"/>
		<path fill="#37B1DB" d="M1480.906,0.021c-5.322,9.164-15.252,15.372-26.604,15.372c-7.332,0-14.131-2.604-19.393-6.917V39.1
			c5.262,4.312,12.061,6.918,19.393,6.918c16.967,0,30.684-13.72,30.684-30.686C1484.986,9.716,1483.509,4.514,1480.906,0.021z"/>
	</g>
	<g>
		<g>
			<path fill="#2980B9" d="M1459.949,15.392c-11.354,0-21.285-6.208-26.605-15.372c-2.602,4.493-4.08,9.755-4.08,15.312
				c0,16.97,13.719,30.686,30.686,30.686c16.969,0,30.684-13.716,30.684-30.686c0-5.558-1.479-10.816-4.078-15.312
				C1481.232,9.185,1471.298,15.392,1459.949,15.392z"/>
			<path fill="#2980B9" d="M1513.097,15.392c-11.352,0-21.281-6.208-26.604-15.372c-2.604,4.493-4.08,9.755-4.08,15.312
				c0,16.97,13.717,30.686,30.684,30.686c16.969,0,30.686-13.716,30.686-30.686c0-5.558-1.479-10.816-4.078-15.312
				C1534.439,9.185,1524.507,15.392,1513.097,15.392z"/>
			<path fill="#2980B9" d="M1566.246,15.392c-11.354,0-21.281-6.208-26.604-15.372c-2.604,4.493-4.078,9.755-4.078,15.312
				c0,16.97,13.715,30.686,30.686,30.686c16.967,0,30.684-13.716,30.684-30.686c0-5.558-1.479-10.816-4.078-15.312
				C1587.529,9.185,1577.656,15.392,1566.246,15.392z"/>
			<path fill="#2980B9" d="M1619.453,15.392c-11.352,0-21.283-6.208-26.604-15.372c-2.604,4.493-4.078,9.755-4.078,15.312
				c0,16.97,13.717,30.686,30.684,30.686c16.969,0,30.686-13.716,30.686-30.686c0-5.558-1.479-10.816-4.078-15.312
				C1640.736,9.185,1630.804,15.392,1619.453,15.392z"/>
			<path fill="#2980B9" d="M1672.601,15.392c-11.354,0-21.281-6.208-26.604-15.372c-2.602,4.493-4.078,9.755-4.078,15.312
				c0,16.97,13.717,30.686,30.688,30.686c16.967,0,30.684-13.716,30.684-30.686c0-5.558-1.479-10.816-4.08-15.312
				C1693.886,9.185,1683.953,15.392,1672.601,15.392z"/>
			<path fill="#2980B9" d="M1725.75,15.392c-11.352,0-21.281-6.208-26.604-15.372c-2.604,4.493-4.08,9.755-4.08,15.312
				c0,16.97,13.717,30.686,30.684,30.686c16.969,0,30.686-13.716,30.686-30.686c0-5.558-1.479-10.816-4.078-15.312
				C1747.035,9.185,1737.101,15.392,1725.75,15.392z"/>
			<path fill="#2980B9" d="M1779.017,15.392c-11.352,0-21.281-6.208-26.604-15.372c-2.604,4.493-4.078,9.755-4.078,15.312
				c0,16.97,13.715,30.686,30.686,30.686c16.969,0,30.684-13.716,30.684-30.686c0-5.558-1.479-10.816-4.078-15.312
				C1800.3,9.185,1790.369,15.392,1779.017,15.392z"/>
			<path fill="#2980B9" d="M1832.166,15.392c-11.352,0-21.281-6.208-26.604-15.372c-2.604,4.493-4.08,9.755-4.08,15.312
				c0,16.97,13.717,30.686,30.686,30.686s30.686-13.716,30.686-30.686c0-5.558-1.479-10.816-4.078-15.312
				C1853.449,9.185,1843.517,15.392,1832.166,15.392z"/>
			<path fill="#2980B9" d="M1885.433,15.392c-11.354,0-21.281-6.208-26.604-15.372c-2.602,4.493-4.078,9.755-4.078,15.312
				c0,16.97,13.715,30.686,30.686,30.686c16.967,0,30.686-13.716,30.686-30.686c0-5.558-1.48-10.816-4.08-15.312
				C1906.716,9.185,1896.785,15.392,1885.433,15.392z"/>
			<path fill="#2980B9" d="M1965.189,0.021c-5.324,9.164-15.256,15.372-26.607,15.372s-21.283-6.208-26.604-15.372
				c-2.604,4.493-4.08,9.755-4.08,15.312c0,16.97,13.715,30.686,30.686,30.686c11.392,0,21.311-6.188,26.605-15.387l0.048-30.522
				C1965.22,0.081,1965.206,0.049,1965.189,0.021z"/>
		</g>
		<polygon fill="#2980B9" points="1429.265,15.332 1429.265,51.928 1965.156,51.928 1965.212,15.332 		"/>
	</g>
</g>
<g>
	<g>
		<path fill="#37B1DB" d="M2012.819,0c-5.265,9.164-15.195,15.371-26.605,15.371c-8.011,0-15.305-3.1-20.779-8.14l-0.135,30.539
			c5.477,5.103,12.824,8.226,20.914,8.226c16.967,0,30.686-13.715,30.686-30.684C2016.899,9.754,2015.419,4.495,2012.819,0z"/>
		<path fill="#37B1DB" d="M2411.698,15.371c-11.354,0-21.283-6.207-26.604-15.371c-2.604,4.493-4.078,9.755-4.078,15.312
			c0,16.969,13.715,30.684,30.686,30.684c16.967,0,30.686-13.715,30.686-30.684c0-5.558-1.48-10.817-4.08-15.312
			C2432.981,9.164,2423.047,15.371,2411.698,15.371z"/>
		<path fill="#37B1DB" d="M2039.362,15.371c-11.352,0-21.282-6.207-26.604-15.371c-2.602,4.493-4.08,9.755-4.08,15.312
			c0,16.969,13.719,30.684,30.686,30.684c16.968,0,30.684-13.715,30.684-30.684c0-5.558-1.479-10.817-4.079-15.312
			C2060.645,9.164,2050.772,15.371,2039.362,15.371z"/>
		<path fill="#37B1DB" d="M2092.571,15.371c-11.354,0-21.283-6.207-26.604-15.371c-2.603,4.493-4.08,9.755-4.08,15.312
			c0,16.969,13.716,30.684,30.687,30.684c16.968,0,30.684-13.715,30.684-30.684c0-5.558-1.479-10.817-4.08-15.312
			C2113.852,9.164,2103.92,15.371,2092.571,15.371z"/>
		<path fill="#37B1DB" d="M2145.717,15.371c-11.352,0-21.283-6.207-26.604-15.371c-2.604,4.493-4.08,9.755-4.08,15.312
			c0,16.969,13.717,30.684,30.684,30.684c16.969,0,30.684-13.715,30.684-30.684c0-5.558-1.479-10.817-4.076-15.312
			C2167.001,9.164,2157.071,15.371,2145.717,15.371z"/>
		<path fill="#37B1DB" d="M2198.868,15.371c-11.354,0-21.283-6.207-26.604-15.371c-2.603,4.493-4.079,9.755-4.079,15.312
			c0,16.969,13.717,30.684,30.686,30.684c16.968,0,30.686-13.715,30.686-30.684c0-5.558-1.479-10.817-4.078-15.312
			C2220.149,9.164,2210.216,15.371,2198.868,15.371z"/>
		<path fill="#37B1DB" d="M2252.133,15.371c-11.354,0-21.283-6.207-26.604-15.371c-2.604,4.493-4.08,9.755-4.08,15.312
			c0,16.969,13.717,30.684,30.687,30.684c16.968,0,30.683-13.715,30.683-30.684c0-5.558-1.479-10.817-4.076-15.312
			C2273.417,9.164,2263.485,15.371,2252.133,15.371z"/>
		<path fill="#37B1DB" d="M2305.282,15.371c-11.353,0-21.282-6.207-26.604-15.371c-2.604,4.493-4.078,9.755-4.078,15.312
			c0,16.969,13.715,30.684,30.684,30.684s30.688-13.715,30.688-30.684c0-5.558-1.48-10.817-4.08-15.312
			C2326.565,9.164,2316.633,15.371,2305.282,15.371z"/>
		<path fill="#37B1DB" d="M2358.549,15.371c-11.354,0-21.283-6.207-26.605-15.371c-2.604,4.493-4.078,9.755-4.078,15.312
			c0,16.969,13.715,30.684,30.686,30.684c16.967,0,30.684-13.715,30.684-30.684c0-5.558-1.48-10.817-4.078-15.312
			C2379.833,9.164,2369.901,15.371,2358.549,15.371z"/>
		<polygon fill="#37B1DB" points="2442.379,15.312 1965.398,15.312 1965.262,45.998 2442.379,45.998 		"/>
	</g>
	<g>
		<g>
			<path fill="#2980B9" d="M1965.463,0.281l-0.133,30.299c2.58-4.495,4.062-9.704,4.062-15.268
				C1969.393,9.867,1967.967,4.715,1965.463,0.281z"/>
			<path fill="#2980B9" d="M2018.464,0c-5.263,9.164-15.196,15.371-26.606,15.371c-11.21,0-21.027-6.06-26.395-15.038l-0.134,30.405
				c5.312,9.128,15.191,15.257,26.53,15.257c16.967,0,30.684-13.715,30.684-30.684C2022.543,9.754,2021.065,4.495,2018.464,0z"/>
			<path fill="#2980B9" d="M2045.007,15.371c-11.353,0-21.282-6.207-26.604-15.371c-2.602,4.493-4.078,9.755-4.078,15.312
				c0,16.969,13.717,30.684,30.685,30.684s30.685-13.715,30.685-30.684c0-5.558-1.479-10.817-4.078-15.312
				C2066.292,9.164,2056.418,15.371,2045.007,15.371z"/>
			<path fill="#2980B9" d="M2098.214,15.371c-11.351,0-21.283-6.207-26.604-15.371c-2.604,4.493-4.078,9.755-4.078,15.312
				c0,16.969,13.716,30.684,30.683,30.684c16.968,0,30.687-13.715,30.687-30.684c0-5.558-1.479-10.817-4.08-15.312
				C2119.499,9.164,2109.567,15.371,2098.214,15.371z"/>
			<path fill="#2980B9" d="M2151.364,15.371c-11.354,0-21.282-6.207-26.604-15.371c-2.602,4.493-4.079,9.755-4.079,15.312
				c0,16.969,13.716,30.684,30.687,30.684c16.967,0,30.684-13.715,30.684-30.684c0-5.558-1.479-10.817-4.08-15.312
				C2172.649,9.164,2162.714,15.371,2151.364,15.371z"/>
			<path fill="#2980B9" d="M2204.511,15.371c-11.351,0-21.282-6.207-26.604-15.371c-2.604,4.493-4.08,9.755-4.08,15.312
				c0,16.969,13.718,30.684,30.685,30.684c16.97,0,30.687-13.715,30.687-30.684c0-5.558-1.479-10.817-4.08-15.312
				C2225.796,9.164,2215.864,15.371,2204.511,15.371z"/>
			<path fill="#2980B9" d="M2257.78,15.371c-11.354,0-21.283-6.207-26.605-15.371c-2.604,4.493-4.079,9.755-4.079,15.312
				c0,16.969,13.716,30.684,30.685,30.684s30.685-13.715,30.685-30.684c0-5.558-1.479-10.817-4.077-15.312
				C2279.063,9.164,2269.13,15.371,2257.78,15.371z"/>
			<path fill="#2980B9" d="M2310.928,15.371c-11.354,0-21.281-6.207-26.605-15.371c-2.604,4.493-4.078,9.755-4.078,15.312
				c0,16.969,13.716,30.684,30.686,30.684c16.969,0,30.686-13.715,30.686-30.684c0-5.558-1.479-10.817-4.08-15.312
				C2332.211,9.164,2322.28,15.371,2310.928,15.371z"/>
			<path fill="#2980B9" d="M2364.196,15.371c-11.354,0-21.283-6.207-26.604-15.371c-2.604,4.493-4.08,9.755-4.08,15.312
				c0,16.969,13.717,30.684,30.686,30.684c16.967,0,30.686-13.715,30.686-30.684c0-5.558-1.479-10.817-4.078-15.312
				C2385.479,9.164,2375.545,15.371,2364.196,15.371z"/>
			<path fill="#2980B9" d="M2417.344,15.371c-11.354,0-21.283-6.207-26.605-15.371c-2.604,4.493-4.08,9.755-4.08,15.312
				c0,16.969,13.717,30.684,30.688,30.684c16.967,0,30.686-13.715,30.686-30.684c0-5.558-1.479-10.817-4.08-15.312
				C2438.627,9.164,2428.694,15.371,2417.344,15.371z"/>
		</g>
		<polygon fill="#2980B9" points="2448.028,15.312 1965.398,15.312 1965.237,51.91 2448.028,51.91 		"/>
	</g>
	<g>
		<g>
			<path fill="#37B1DB" d="M2464.897,15.37c-11.354,0-21.283-6.207-26.604-15.371c-2.602,4.493-4.08,9.755-4.08,15.312
				c0,16.969,13.719,30.685,30.686,30.685s30.686-13.716,30.686-30.685c0-5.558-1.479-10.817-4.08-15.312
				C2486.239,9.163,2476.307,15.37,2464.897,15.37z"/>
			<path fill="#37B1DB" d="M2890.383,15.37c-11.355,0-21.283-6.207-26.605-15.371c-2.602,4.493-4.078,9.755-4.078,15.312
				c0,16.969,13.715,30.685,30.688,30.685c16.967,0,30.684-13.716,30.684-30.685c0-5.558-1.479-10.817-4.08-15.312
				C2911.667,9.163,2901.733,15.37,2890.383,15.37z"/>
			<path fill="#37B1DB" d="M2518.047,15.37c-11.354,0-21.281-6.207-26.604-15.371c-2.602,4.493-4.08,9.755-4.08,15.312
				c0,16.969,13.719,30.685,30.688,30.685s30.684-13.716,30.684-30.685c0-5.558-1.48-10.817-4.078-15.312
				C2539.329,9.163,2529.456,15.37,2518.047,15.37z"/>
			<path fill="#37B1DB" d="M2571.254,15.37c-11.354,0-21.281-6.207-26.604-15.371c-2.604,4.493-4.08,9.755-4.08,15.312
				c0,16.969,13.717,30.685,30.686,30.685c16.971,0,30.686-13.716,30.686-30.685c0-5.558-1.479-10.817-4.08-15.312
				C2592.538,9.163,2582.604,15.37,2571.254,15.37z"/>
			<path fill="#37B1DB" d="M2624.401,15.37c-11.35,0-21.281-6.207-26.604-15.371c-2.604,4.493-4.078,9.755-4.078,15.312
				c0,16.969,13.715,30.685,30.682,30.685c16.969,0,30.686-13.716,30.686-30.685c0-5.558-1.479-10.817-4.076-15.312
				C2645.686,9.163,2635.754,15.37,2624.401,15.37z"/>
			<path fill="#37B1DB" d="M2677.551,15.37c-11.354,0-21.283-6.207-26.604-15.371c-2.604,4.493-4.08,9.755-4.08,15.312
				c0,16.969,13.717,30.685,30.688,30.685c16.967,0,30.684-13.716,30.684-30.685c0-5.558-1.479-10.817-4.078-15.312
				C2698.834,9.163,2688.901,15.37,2677.551,15.37z"/>
			<path fill="#37B1DB" d="M2730.819,15.37c-11.354,0-21.283-6.207-26.605-15.371c-2.602,4.493-4.076,9.755-4.076,15.312
				c0,16.969,13.715,30.685,30.684,30.685c16.967,0,30.684-13.716,30.684-30.685c0-5.558-1.479-10.817-4.076-15.312
				C2752.102,9.163,2742.168,15.37,2730.819,15.37z"/>
			<path fill="#37B1DB" d="M2783.967,15.37c-11.355,0-21.283-6.207-26.605-15.371c-2.602,4.493-4.078,9.755-4.078,15.312
				c0,16.969,13.715,30.685,30.686,30.685c16.969,0,30.686-13.716,30.686-30.685c0-5.558-1.479-10.817-4.08-15.312
				C2805.25,9.163,2795.317,15.37,2783.967,15.37z"/>
			<path fill="#37B1DB" d="M2837.233,15.37c-11.352,0-21.283-6.207-26.604-15.371c-2.604,4.493-4.078,9.755-4.078,15.312
				c0,16.969,13.717,30.685,30.684,30.685c16.969,0,30.684-13.716,30.684-30.685c0-5.558-1.479-10.817-4.074-15.312
				C2858.516,9.163,2848.584,15.37,2837.233,15.37z"/>
			<rect x="2392.356" y="15.311" fill="#37B1DB" width="528.709" height="30.685"/>
			<path fill="#37B1DB" d="M2438.352-0.001c-5.322,9.164-15.252,15.371-26.604,15.371c-7.332,0-14.131-2.603-19.393-6.917v30.625
				c5.262,4.312,12.061,6.918,19.393,6.918c16.969,0,30.686-13.719,30.686-30.686C2442.432,9.695,2440.956,4.492,2438.352-0.001z"/>
		</g>
		<g>
			<g>
				<path fill="#2980B9" d="M2417.395,15.37c-11.354,0-21.285-6.207-26.605-15.371c-2.602,4.493-4.08,9.755-4.08,15.312
					c0,16.969,13.719,30.685,30.686,30.685c16.969,0,30.684-13.716,30.684-30.685c0-5.558-1.479-10.817-4.078-15.312
					C2438.678,9.163,2428.745,15.37,2417.395,15.37z"/>
				<path fill="#2980B9" d="M2470.543,15.37c-11.352,0-21.281-6.207-26.604-15.371c-2.604,4.493-4.08,9.755-4.08,15.312
					c0,16.969,13.717,30.685,30.684,30.685c16.971,0,30.686-13.716,30.686-30.685c0-5.558-1.479-10.817-4.078-15.312
					C2491.885,9.163,2481.954,15.37,2470.543,15.37z"/>
				<path fill="#2980B9" d="M2523.692,15.37c-11.354,0-21.281-6.207-26.604-15.371c-2.604,4.493-4.078,9.755-4.078,15.312
					c0,16.969,13.717,30.685,30.686,30.685c16.967,0,30.684-13.716,30.684-30.685c0-5.558-1.479-10.817-4.076-15.312
					C2544.975,9.163,2535.102,15.37,2523.692,15.37z"/>
				<path fill="#2980B9" d="M2576.899,15.37c-11.352,0-21.283-6.207-26.604-15.371c-2.604,4.493-4.078,9.755-4.078,15.312
					c0,16.969,13.717,30.685,30.684,30.685c16.969,0,30.686-13.716,30.686-30.685c0-5.558-1.479-10.817-4.076-15.312
					C2598.182,9.163,2588.25,15.37,2576.899,15.37z"/>
				<path fill="#2980B9" d="M2630.047,15.37c-11.354,0-21.281-6.207-26.604-15.371c-2.602,4.493-4.078,9.755-4.078,15.312
					c0,16.969,13.715,30.685,30.688,30.685c16.967,0,30.684-13.716,30.684-30.685c0-5.558-1.479-10.817-4.08-15.312
					C2651.333,9.163,2641.399,15.37,2630.047,15.37z"/>
				<path fill="#2980B9" d="M2683.196,15.37c-11.35,0-21.281-6.207-26.604-15.371c-2.604,4.493-4.08,9.755-4.08,15.312
					c0,16.969,13.717,30.685,30.684,30.685c16.969,0,30.686-13.716,30.686-30.685c0-5.558-1.479-10.817-4.076-15.312
					C2704.481,9.163,2694.547,15.37,2683.196,15.37z"/>
				<path fill="#2980B9" d="M2736.463,15.37c-11.352,0-21.281-6.207-26.604-15.371c-2.604,4.493-4.078,9.755-4.078,15.312
					c0,16.969,13.715,30.685,30.686,30.685c16.969,0,30.684-13.716,30.684-30.685c0-5.558-1.479-10.817-4.078-15.312
					C2757.747,9.163,2747.815,15.37,2736.463,15.37z"/>
				<path fill="#2980B9" d="M2789.612,15.37c-11.352,0-21.281-6.207-26.604-15.371c-2.604,4.493-4.078,9.755-4.078,15.312
					c0,16.969,13.715,30.685,30.684,30.685s30.688-13.716,30.688-30.685c0-5.558-1.48-10.817-4.08-15.312
					C2810.895,9.163,2800.963,15.37,2789.612,15.37z"/>
				<path fill="#2980B9" d="M2842.879,15.37c-11.354,0-21.281-6.207-26.604-15.371c-2.602,4.493-4.078,9.755-4.078,15.312
					c0,16.969,13.715,30.685,30.688,30.685c16.967,0,30.684-13.716,30.684-30.685c0-5.558-1.479-10.817-4.08-15.312
					C2864.163,9.163,2854.231,15.37,2842.879,15.37z"/>
				<path fill="#2980B9" d="M2896.028,15.37c-11.352,0-21.283-6.207-26.604-15.371c-2.604,4.493-4.08,9.755-4.08,15.312
					c0,16.969,13.717,30.685,30.686,30.685c16.967,0,30.688-13.716,30.688-30.685c0-5.558-1.48-10.817-4.08-15.312
					C2917.311,9.163,2907.379,15.37,2896.028,15.37z"/>
			</g>
			<rect x="2386.711" y="15.311" fill="#2980B9" width="540" height="36.597"/>
		</g>
	</g>
	<g>
		<g>
			<path fill="#37B1DB" d="M2996.842,15.41c-11.354,0-21.283-6.207-26.604-15.371c-2.602,4.493-4.08,9.755-4.08,15.312
				c0,16.97,13.717,30.686,30.686,30.686c16.967,0,30.686-13.716,30.686-30.686c0-5.558-1.479-10.816-4.08-15.312
				C3018.184,9.203,3008.252,15.41,2996.842,15.41z"/>
			<path fill="#37B1DB" d="M3422.329,15.41c-11.354,0-21.283-6.207-26.604-15.371c-2.604,4.493-4.08,9.755-4.08,15.312
				c0,16.97,13.717,30.686,30.688,30.686c16.967,0,30.684-13.716,30.684-30.686c0-5.558-1.479-10.816-4.078-15.312
				C3443.612,9.203,3433.678,15.41,3422.329,15.41z"/>
			<path fill="#37B1DB" d="M3049.993,15.41c-11.354,0-21.281-6.207-26.604-15.371c-2.602,4.493-4.08,9.755-4.08,15.312
				c0,16.97,13.719,30.686,30.688,30.686s30.684-13.716,30.684-30.686c0-5.558-1.479-10.816-4.078-15.312
				C3071.274,9.203,3061.401,15.41,3049.993,15.41z"/>
			<path fill="#37B1DB" d="M3103.2,15.41c-11.354,0-21.281-6.207-26.604-15.371c-2.604,4.493-4.08,9.755-4.08,15.312
				c0,16.97,13.717,30.686,30.686,30.686c16.971,0,30.686-13.716,30.686-30.686c0-5.558-1.479-10.816-4.08-15.312
				C3124.483,9.203,3114.549,15.41,3103.2,15.41z"/>
			<path fill="#37B1DB" d="M3156.346,15.41c-11.352,0-21.281-6.207-26.604-15.371c-2.604,4.493-4.08,9.755-4.08,15.312
				c0,16.97,13.717,30.686,30.684,30.686c16.969,0,30.686-13.716,30.686-30.686c0-5.558-1.479-10.816-4.076-15.312
				C3177.631,9.203,3167.7,15.41,3156.346,15.41z"/>
			<path fill="#37B1DB" d="M3209.497,15.41c-11.354,0-21.283-6.207-26.604-15.371c-2.604,4.493-4.078,9.755-4.078,15.312
				c0,16.97,13.715,30.686,30.686,30.686c16.969,0,30.686-13.716,30.686-30.686c0-5.558-1.48-10.816-4.08-15.312
				C3230.78,9.203,3220.846,15.41,3209.497,15.41z"/>
			<path fill="#37B1DB" d="M3262.764,15.41c-11.354,0-21.283-6.207-26.605-15.371c-2.602,4.493-4.078,9.755-4.078,15.312
				c0,16.97,13.717,30.686,30.686,30.686c16.967,0,30.684-13.716,30.684-30.686c0-5.558-1.479-10.816-4.076-15.312
				C3284.047,9.203,3274.114,15.41,3262.764,15.41z"/>
			<path fill="#37B1DB" d="M3315.913,15.41c-11.354,0-21.283-6.207-26.604-15.371c-2.604,4.493-4.08,9.755-4.08,15.312
				c0,16.97,13.715,30.686,30.686,30.686c16.969,0,30.686-13.716,30.686-30.686c0-5.558-1.479-10.816-4.078-15.312
				C3337.196,9.203,3327.262,15.41,3315.913,15.41z"/>
			<path fill="#37B1DB" d="M3369.178,15.41c-11.352,0-21.283-6.207-26.604-15.371c-2.604,4.493-4.078,9.755-4.078,15.312
				c0,16.97,13.715,30.686,30.684,30.686s30.684-13.716,30.684-30.686c0-5.558-1.479-10.816-4.076-15.312
				C3390.461,9.203,3380.53,15.41,3369.178,15.41z"/>
			<rect x="2924.301" y="15.35" fill="#37B1DB" width="528.709" height="30.685"/>
			<path fill="#37B1DB" d="M2970.297,0.039c-5.322,9.164-15.252,15.371-26.604,15.371c-7.332,0-14.131-2.603-19.393-6.917v30.625
				c5.262,4.312,12.061,6.918,19.393,6.918c16.967,0,30.684-13.72,30.684-30.686C2974.377,9.735,2972.901,4.532,2970.297,0.039z"/>
		</g>
		<g>
			<g>
				<path fill="#2980B9" d="M2949.34,15.41c-11.354,0-21.285-6.207-26.605-15.371c-2.602,4.493-4.08,9.755-4.08,15.312
					c0,16.97,13.719,30.686,30.686,30.686c16.969,0,30.684-13.716,30.684-30.686c0-5.558-1.479-10.816-4.078-15.312
					C2970.624,9.203,2960.69,15.41,2949.34,15.41z"/>
				<path fill="#2980B9" d="M3002.489,15.41c-11.352,0-21.281-6.207-26.604-15.371c-2.604,4.493-4.08,9.755-4.08,15.312
					c0,16.97,13.717,30.686,30.684,30.686c16.969,0,30.686-13.716,30.686-30.686c0-5.558-1.479-10.816-4.078-15.312
					C3023.831,9.203,3013.899,15.41,3002.489,15.41z"/>
				<path fill="#2980B9" d="M3055.637,15.41c-11.354,0-21.281-6.207-26.604-15.371c-2.604,4.493-4.078,9.755-4.078,15.312
					c0,16.97,13.715,30.686,30.686,30.686c16.967,0,30.684-13.716,30.684-30.686c0-5.558-1.479-10.816-4.078-15.312
					C3076.92,9.203,3067.047,15.41,3055.637,15.41z"/>
				<path fill="#2980B9" d="M3108.844,15.41c-11.352,0-21.283-6.207-26.604-15.371c-2.604,4.493-4.078,9.755-4.078,15.312
					c0,16.97,13.717,30.686,30.684,30.686c16.969,0,30.686-13.716,30.686-30.686c0-5.558-1.479-10.816-4.078-15.312
					C3130.127,9.203,3120.196,15.41,3108.844,15.41z"/>
				<path fill="#2980B9" d="M3161.993,15.41c-11.354,0-21.281-6.207-26.604-15.371c-2.602,4.493-4.078,9.755-4.078,15.312
					c0,16.97,13.717,30.686,30.688,30.686c16.967,0,30.684-13.716,30.684-30.686c0-5.558-1.479-10.816-4.08-15.312
					C3183.278,9.203,3173.344,15.41,3161.993,15.41z"/>
				<path fill="#2980B9" d="M3215.141,15.41c-11.352,0-21.281-6.207-26.604-15.371c-2.604,4.493-4.08,9.755-4.08,15.312
					c0,16.97,13.717,30.686,30.684,30.686c16.969,0,30.686-13.716,30.686-30.686c0-5.558-1.479-10.816-4.078-15.312
					C3236.426,9.203,3226.493,15.41,3215.141,15.41z"/>
				<path fill="#2980B9" d="M3268.409,15.41c-11.352,0-21.281-6.207-26.604-15.371c-2.604,4.493-4.078,9.755-4.078,15.312
					c0,16.97,13.715,30.686,30.686,30.686c16.969,0,30.684-13.716,30.684-30.686c0-5.558-1.479-10.816-4.078-15.312
					C3289.692,9.203,3279.76,15.41,3268.409,15.41z"/>
				<path fill="#2980B9" d="M3321.557,15.41c-11.352,0-21.281-6.207-26.604-15.371c-2.604,4.493-4.08,9.755-4.08,15.312
					c0,16.97,13.717,30.686,30.686,30.686s30.686-13.716,30.686-30.686c0-5.558-1.479-10.816-4.078-15.312
					C3342.84,9.203,3332.909,15.41,3321.557,15.41z"/>
				<path fill="#2980B9" d="M3374.825,15.41c-11.354,0-21.281-6.207-26.604-15.371c-2.602,4.493-4.078,9.755-4.078,15.312
					c0,16.97,13.715,30.686,30.686,30.686c16.967,0,30.686-13.716,30.686-30.686c0-5.558-1.48-10.816-4.08-15.312
					C3396.108,9.203,3386.176,15.41,3374.825,15.41z"/>
				<path fill="#2980B9" d="M3427.973,15.41c-11.352,0-21.283-6.207-26.604-15.371c-2.604,4.493-4.08,9.755-4.08,15.312
					c0,16.97,13.715,30.686,30.686,30.686c16.967,0,30.686-13.716,30.686-30.686c0-5.558-1.479-10.816-4.08-15.312
					C3449.256,9.203,3439.325,15.41,3427.973,15.41z"/>
			</g>
			<rect x="2918.657" y="15.35" fill="#2980B9" width="540" height="36.597"/>
		</g>
	</g>
	<g>
		<g>
			<path fill="#37B1DB" d="M3475.477,15.392c-11.354,0-21.283-6.208-26.604-15.372c-2.602,4.493-4.08,9.755-4.08,15.312
				c0,16.97,13.717,30.686,30.686,30.686c16.967,0,30.686-13.716,30.686-30.686c0-5.558-1.479-10.816-4.08-15.312
				C3496.819,9.185,3486.887,15.392,3475.477,15.392z"/>
			<path fill="#37B1DB" d="M3900.963,15.392c-11.354,0-21.283-6.208-26.604-15.372c-2.604,4.493-4.08,9.755-4.08,15.312
				c0,16.97,13.717,30.686,30.688,30.686c16.967,0,30.684-13.716,30.684-30.686c0-5.558-1.479-10.816-4.078-15.312
				C3922.247,9.185,3912.313,15.392,3900.963,15.392z"/>
			<path fill="#37B1DB" d="M3528.627,15.392c-11.354,0-21.281-6.208-26.604-15.372c-2.602,4.493-4.08,9.755-4.08,15.312
				c0,16.97,13.719,30.686,30.688,30.686s30.684-13.716,30.684-30.686c0-5.558-1.479-10.816-4.078-15.312
				C3549.909,9.185,3540.036,15.392,3528.627,15.392z"/>
			<path fill="#37B1DB" d="M3581.834,15.392c-11.354,0-21.281-6.208-26.604-15.372c-2.604,4.493-4.08,9.755-4.08,15.312
				c0,16.97,13.717,30.686,30.686,30.686c16.971,0,30.686-13.716,30.686-30.686c0-5.558-1.479-10.816-4.08-15.312
				C3603.118,9.185,3593.184,15.392,3581.834,15.392z"/>
			<path fill="#37B1DB" d="M3634.981,15.392c-11.352,0-21.281-6.208-26.604-15.372c-2.604,4.493-4.08,9.755-4.08,15.312
				c0,16.97,13.717,30.686,30.684,30.686c16.969,0,30.686-13.716,30.686-30.686c0-5.558-1.479-10.816-4.076-15.312
				C3656.266,9.185,3646.334,15.392,3634.981,15.392z"/>
			<path fill="#37B1DB" d="M3688.131,15.392c-11.354,0-21.283-6.208-26.604-15.372c-2.604,4.493-4.078,9.755-4.078,15.312
				c0,16.97,13.715,30.686,30.686,30.686c16.969,0,30.686-13.716,30.686-30.686c0-5.558-1.48-10.816-4.08-15.312
				C3709.415,9.185,3699.481,15.392,3688.131,15.392z"/>
			<path fill="#37B1DB" d="M3741.399,15.392c-11.354,0-21.283-6.208-26.605-15.372c-2.602,4.493-4.078,9.755-4.078,15.312
				c0,16.97,13.717,30.686,30.686,30.686c16.967,0,30.684-13.716,30.684-30.686c0-5.558-1.479-10.816-4.076-15.312
				C3762.682,9.185,3752.749,15.392,3741.399,15.392z"/>
			<path fill="#37B1DB" d="M3794.547,15.392c-11.354,0-21.283-6.208-26.604-15.372c-2.604,4.493-4.08,9.755-4.08,15.312
				c0,16.97,13.715,30.686,30.686,30.686c16.969,0,30.686-13.716,30.686-30.686c0-5.558-1.479-10.816-4.078-15.312
				C3815.831,9.185,3805.897,15.392,3794.547,15.392z"/>
			<path fill="#37B1DB" d="M3847.813,15.392c-11.352,0-21.283-6.208-26.604-15.372c-2.604,4.493-4.078,9.755-4.078,15.312
				c0,16.97,13.715,30.686,30.684,30.686s30.684-13.716,30.684-30.686c0-5.558-1.479-10.816-4.076-15.312
				C3869.096,9.185,3859.165,15.392,3847.813,15.392z"/>
			<rect x="3402.936" y="15.332" fill="#37B1DB" width="528.709" height="30.685"/>
			<path fill="#37B1DB" d="M3448.932,0.021c-5.322,9.164-15.252,15.372-26.604,15.372c-7.332,0-14.131-2.604-19.393-6.917V39.1
				c5.262,4.312,12.061,6.918,19.393,6.918c16.967,0,30.684-13.72,30.684-30.686C3453.012,9.716,3451.536,4.514,3448.932,0.021z"/>
		</g>
		<g>
			<g>
				<path fill="#2980B9" d="M3427.975,15.392c-11.354,0-21.285-6.208-26.605-15.372c-2.602,4.493-4.08,9.755-4.08,15.312
					c0,16.97,13.719,30.686,30.686,30.686c16.969,0,30.684-13.716,30.684-30.686c0-5.558-1.479-10.816-4.078-15.312
					C3449.258,9.185,3439.325,15.392,3427.975,15.392z"/>
				<path fill="#2980B9" d="M3481.124,15.392c-11.352,0-21.281-6.208-26.604-15.372c-2.604,4.493-4.08,9.755-4.08,15.312
					c0,16.97,13.717,30.686,30.684,30.686c16.969,0,30.686-13.716,30.686-30.686c0-5.558-1.479-10.816-4.078-15.312
					C3502.465,9.185,3492.534,15.392,3481.124,15.392z"/>
				<path fill="#2980B9" d="M3534.272,15.392c-11.354,0-21.281-6.208-26.604-15.372c-2.604,4.493-4.078,9.755-4.078,15.312
					c0,16.97,13.715,30.686,30.686,30.686c16.967,0,30.684-13.716,30.684-30.686c0-5.558-1.479-10.816-4.078-15.312
					C3555.555,9.185,3545.682,15.392,3534.272,15.392z"/>
				<path fill="#2980B9" d="M3587.479,15.392c-11.352,0-21.283-6.208-26.604-15.372c-2.604,4.493-4.078,9.755-4.078,15.312
					c0,16.97,13.717,30.686,30.684,30.686c16.969,0,30.686-13.716,30.686-30.686c0-5.558-1.479-10.816-4.078-15.312
					C3608.762,9.185,3598.831,15.392,3587.479,15.392z"/>
				<path fill="#2980B9" d="M3640.627,15.392c-11.354,0-21.281-6.208-26.604-15.372c-2.602,4.493-4.078,9.755-4.078,15.312
					c0,16.97,13.717,30.686,30.688,30.686c16.967,0,30.684-13.716,30.684-30.686c0-5.558-1.479-10.816-4.08-15.312
					C3661.913,9.185,3651.979,15.392,3640.627,15.392z"/>
				<path fill="#2980B9" d="M3693.776,15.392c-11.352,0-21.281-6.208-26.604-15.372c-2.604,4.493-4.08,9.755-4.08,15.312
					c0,16.97,13.717,30.686,30.684,30.686c16.969,0,30.686-13.716,30.686-30.686c0-5.558-1.479-10.816-4.078-15.312
					C3715.061,9.185,3705.127,15.392,3693.776,15.392z"/>
				<path fill="#2980B9" d="M3747.043,15.392c-11.352,0-21.281-6.208-26.604-15.372c-2.604,4.493-4.078,9.755-4.078,15.312
					c0,16.97,13.715,30.686,30.686,30.686c16.969,0,30.684-13.716,30.684-30.686c0-5.558-1.479-10.816-4.078-15.312
					C3768.327,9.185,3758.395,15.392,3747.043,15.392z"/>
				<path fill="#2980B9" d="M3800.192,15.392c-11.352,0-21.281-6.208-26.604-15.372c-2.604,4.493-4.08,9.755-4.08,15.312
					c0,16.97,13.717,30.686,30.686,30.686s30.686-13.716,30.686-30.686c0-5.558-1.479-10.816-4.078-15.312
					C3821.475,9.185,3811.543,15.392,3800.192,15.392z"/>
				<path fill="#2980B9" d="M3853.459,15.392c-11.354,0-21.281-6.208-26.604-15.372c-2.602,4.493-4.078,9.755-4.078,15.312
					c0,16.97,13.715,30.686,30.686,30.686c16.967,0,30.686-13.716,30.686-30.686c0-5.558-1.48-10.816-4.08-15.312
					C3874.743,9.185,3864.811,15.392,3853.459,15.392z"/>
				<path fill="#2980B9" d="M3933.215,0.021c-5.324,9.164-15.256,15.372-26.607,15.372s-21.283-6.208-26.604-15.372
					c-2.604,4.493-4.08,9.755-4.08,15.312c0,16.97,13.715,30.686,30.686,30.686c11.392,0,21.311-6.188,26.605-15.387l0.048-30.522
					C3933.247,0.081,3933.232,0.049,3933.215,0.021z"/>
			</g>
			<polygon fill="#2980B9" points="3397.292,15.332 3397.292,51.928 3933.182,51.928 3933.239,15.332 			"/>
		</g>
	</g>
</g>
</svg>
