<?xml version="1.0" encoding="utf-8"?>
<!-- Generator: Adobe Illustrator 16.0.0, SVG Export Plug-In . SVG Version: 6.00 Build 0)  -->
<!DOCTYPE svg PUBLIC "-//W3C//DTD SVG 1.1//EN" "http://www.w3.org/Graphics/SVG/1.1/DTD/svg11.dtd">
<svg version="1.1" id="Layer_1" xmlns="http://www.w3.org/2000/svg" xmlns:xlink="http://www.w3.org/1999/xlink" x="0px" y="0px"
	 width="825.228px" height="159.978px" viewBox="0 0 825.228 159.978" enable-background="new 0 0 825.228 159.978"
	 xml:space="preserve">
<g id="tR4qNQ.tif">
	<g>
		<path fill-rule="evenodd" clip-rule="evenodd" fill="#FFFFFF" d="M67.126,159.978c-15.453-7.068-29.127-17.18-43.784-25.611
			c-4.903-2.82-9.676-5.867-14.492-8.839c-5.84-3.604-8.867-8.728-8.842-15.72C0.082,89.816,0.103,69.825,0,49.834
			c-0.04-7.8,3.409-13.027,10.103-16.971c16.058-9.462,31.97-19.182,47.756-29.091c7.951-4.991,15.377-5.044,23.317-0.069
			c14.666,9.19,29.405,18.275,44.331,27.035c9.383,5.506,12.483,14.274,10.385,24.703c-0.761,3.778-3.079,6.613-6.295,8.647
			c-5.765,3.647-11.585,7.208-17.378,10.811c-1.684,1.048-3.354,2.12-5.46,3.453c1.208,1.041,2.071,1.946,3.084,2.631
			c7.033,4.758,14.111,9.448,21.145,14.204c4.646,3.142,7.61,7.345,8.122,13.094c0.695,7.806-2.54,13.489-9.141,17.493
			c-11.384,6.904-22.735,13.863-34.1,20.801c-1.705,1.04-3.375,2.142-5.118,3.113c-6.195,3.453-12.415,6.863-18.625,10.289
			C70.46,159.978,68.793,159.978,67.126,159.978z M8.043,79.253c0,9.658,0.15,19.318-0.061,28.973
			c-0.111,5.084,1.955,8.428,6.227,11.003c16.384,9.878,32.714,19.844,48.98,29.914c4.503,2.788,8.567,2.685,13.026-0.077
			c16.124-9.983,32.343-19.814,48.519-29.713c1.133-0.693,2.31-1.364,3.298-2.235c3.528-3.109,4.196-7.806,1.773-11.754
			c-2.544-4.144-7.243-5.656-11.698-3.579c-2.101,0.98-4.063,2.27-6.05,3.482c-12.64,7.711-25.322,15.354-37.864,23.221
			c-3.251,2.039-5.892,2.066-9.131,0.038c-11.279-7.062-22.645-13.99-34.079-20.8c-3.244-1.932-4.61-4.361-4.522-8.129
			c0.187-7.988,0.031-15.984,0.08-23.977c0.009-1.477,0.098-3.024,0.546-4.412c0.777-2.409,2.739-3.27,5.129-2.404
			c1.08,0.392,2.081,1.034,3.071,1.637c9.093,5.539,18.161,11.116,27.273,16.624c1.548,0.936,3.205,1.803,4.926,2.32
			c3.523,1.061,8.159-0.805,10.037-3.793c2.251-3.582,1.898-7.939-1.104-11.026c-1.139-1.171-2.584-2.084-3.992-2.948
			c-12.051-7.397-24.125-14.756-36.194-22.126c-4.685-2.861-9.309-5.831-14.077-8.546c-4.253-2.422-8.625-1.583-11.736,1.943
			C8.559,45,7.997,47.497,8.017,50.28C8.086,59.938,8.043,69.595,8.043,79.253z"/>
		<path fill-rule="evenodd" clip-rule="evenodd" fill="#FFFFFF" d="M753.736,113.612c-4.264,0-8.016,0-12.044,0
			c-0.128-0.816-0.354-1.596-0.355-2.375c-0.023-11.826-0.137-23.654,0.015-35.479c0.154-12.088,6.622-20.949,17.439-23.904
			c7.439-2.032,14.513-0.984,20.892,3.582c1.202,0.861,2.33,1.827,3.664,2.88c1.425-1.066,2.71-2.07,4.037-3.015
			c13.353-9.5,32.256-3.223,36.948,12.322c0.566,1.88,0.827,3.919,0.845,5.888c0.084,9.66,0.042,19.321,0.036,28.982
			c-0.002,2.876-0.336,5.685-2.27,7.993c-2.322,2.772-5.309,3.854-9.549,3.218c-0.06-1.511-0.174-3.093-0.176-4.675
			c-0.016-11.159-0.354-22.334,0.102-33.475c0.354-8.704-9.593-15.09-18.237-10.163c-3.823,2.18-5.437,5.509-5.388,9.951
			c0.127,11.325,0.047,22.653,0.033,33.979c-0.002,1.304-0.107,2.607-0.18,4.234c-3.981,0-7.732,0-11.948,0
			c-0.09-1.32-0.27-2.75-0.272-4.18c-0.023-11.326-0.375-22.669,0.11-33.975c0.333-7.75-8.54-15.034-17.936-10.184
			c-4.054,2.093-5.837,5.633-5.796,10.264c0.097,10.992,0.03,21.986,0.029,32.98C753.736,110.093,753.736,111.723,753.736,113.612z"
			/>
		<path fill-rule="evenodd" clip-rule="evenodd" fill="#FFFFFF" d="M343.401,51.069c35.665,0,70.774,0,106.193,0
			c1.178,3.923,0.54,7.842,0.396,12.336c-7.699,0-15.275,0-23.297,0c-0.887,5.932-0.355,11.382-0.449,16.791
			c-0.096,5.495-0.021,10.992-0.021,16.488c0,5.487,0,10.974,0,16.356c-3.739,1.27-6.253,1.363-11.935,0.418
			c0-16.289,0-32.686,0-48.918c-4.148-1.131-26.929-1.403-34.308-0.476c-0.611,16.283,0.043,32.687-0.367,49.443
			c-4.085,0-7.943,0-12.333,0c0-16.536,0-32.936,0-49.79c-8.101,0-15.689,0-23.489,0C342.779,59.415,343.269,55.52,343.401,51.069z"
			/>
		<path fill-rule="evenodd" clip-rule="evenodd" fill="#FFFFFF" d="M528.781,94.896c0,6.574,0,12.493,0,18.696
			c-4.254,0-7.979,0-11.969,0c-0.107-1.481-0.281-2.772-0.282-4.065c-0.019-16.32-0.02-32.641,0.001-48.961
			c0.002-1.322,0.032-2.681,0.324-3.96c0.818-3.581,2.92-5.369,6.631-5.648c1.987-0.15,3.994-0.072,5.992-0.073
			c9.825-0.005,19.65-0.004,29.476-0.002c11.146,0.002,16.99,4.394,19.503,15.179c1.338,5.739,1.267,11.563-1.031,17.161
			c-1.764,4.301-4.783,7.546-9.211,10.229c3.123,6.675,6.19,13.23,9.615,20.55c-4.471,0-8.377,0.165-12.251-0.116
			c-0.962-0.07-2.147-1.422-2.667-2.465c-2.145-4.314-4.207-8.682-6.031-13.14c-1.035-2.53-2.499-3.509-5.266-3.442
			C544.312,95.011,537.001,94.896,528.781,94.896z M529.056,82.118c10.811,0,21.233,0.026,31.655-0.044
			c0.923-0.006,1.937-0.487,2.747-1.003c3.14-1.995,4.488-6.766,3.308-11.199c-1.227-4.605-3.896-6.467-8.169-6.347
			c-7.797,0.219-15.604,0.062-23.405,0.061c-1.946,0-3.894,0-6.136,0C529.056,69.91,529.056,75.645,529.056,82.118z"/>
		<path fill-rule="evenodd" clip-rule="evenodd" fill="#FFFFFF" d="M316.198,113.747c-4.746,0-8.99,0-13.726,0
			c-2.199-4.755-4.698-9.613-6.696-14.67c-1.315-3.328-3.263-4.434-6.764-4.259c-5.646,0.282-11.316,0.056-16.976,0.089
			c-1.454,0.01-2.906,0.186-4.859,0.318c0,6.172,0,12.088,0,18.329c-4.084,0-7.656,0-11.585,0c-0.124-1.226-0.362-2.491-0.364-3.759
			c-0.025-16.646-0.036-33.294-0.008-49.941c0.012-6.727,2.208-8.934,8.967-8.959c11.985-0.045,23.974,0.131,35.957-0.074
			c5.977-0.102,10.205,2.482,13.363,7.212c7.369,11.037,5.429,28.276-5.578,34.683c-0.269,0.157-0.442,0.476-1.037,1.138
			C309.856,100.194,312.92,106.743,316.198,113.747z M267.243,81.872c1.442,0.124,2.409,0.277,3.376,0.279
			c8.822,0.02,17.644,0.057,26.466-0.002c5.75-0.038,8.46-3.099,8.423-9.288c-0.039-6.338-2.58-9.213-8.402-9.256
			c-8.655-0.063-17.312-0.037-25.967,0.006c-1.251,0.006-2.502,0.315-3.896,0.504C267.243,70.103,267.243,75.712,267.243,81.872z"/>
		<path fill-rule="evenodd" clip-rule="evenodd" fill="#FFFFFF" d="M507.755,51.131c0,4.078,0,7.848,0,12.308
			c-6.527,0.328-13.12,0.097-19.699,0.139c-6.47,0.041-12.94,0.009-19.761,0.009c0,4.135,0,7.86,0,12.087
			c13.062,0,25.997,0,39.336,0c0,4.39,0,8.292,0,12.815c-12.948,0-26.013,0-39.378,0c0,4.36,0,8.117,0,12.457
			c13.016,0,26.07,0,39.454,0c0,4.467,0,8.365,0,12.697c-1.634,0.084-3.239,0.236-4.845,0.239c-11.33,0.027-22.66,0.021-33.99,0.032
			c-6.075,0.006-10.873-3.539-12.392-9.497c-0.609-2.393-0.9-4.927-0.922-7.399c-0.096-10.996-0.042-21.993-0.04-32.99
			c0.001-0.833-0.029-1.671,0.053-2.497c0.65-6.528,4.443-10.274,11.062-10.566c4.822-0.212,9.661-0.078,14.492-0.083
			c7.165-0.007,14.329-0.016,21.494,0.009C504.243,50.898,505.865,51.039,507.755,51.131z"/>
		<path fill-rule="evenodd" clip-rule="evenodd" fill="#FFFFFF" d="M677.739,113.832c-0.098-1.548-0.204-2.518-0.212-3.488
			c-0.023-2.812-0.008-5.625-0.008-8.771c1.543-0.154,2.8-0.387,4.059-0.391c9.994-0.029,19.988-0.017,29.982-0.018
			c1.166,0,2.337,0.057,3.498-0.021c3.598-0.242,6.055-2.603,6.203-5.892c0.155-3.45-2.377-6.306-6.207-6.392
			c-7.492-0.168-14.99-0.041-22.486-0.077c-8.598-0.041-15.592-4.69-17.729-12.642c-2.475-9.209-0.334-17.042,7.076-22.17
			c1.98-1.372,4.519-2.67,6.826-2.717c12.796-0.261,25.6-0.125,38.371-0.125c1.121,5.921-1.426,10.517-6.766,11.976
			c-1.894,0.517-3.939,0.634-5.918,0.655c-7.162,0.074-14.325-0.013-21.487,0.046c-4.424,0.036-6.955,2.299-6.969,6.022
			c-0.014,3.715,2.507,6.124,6.927,6.195c7.327,0.119,14.666,0.259,21.985-0.019c8.71-0.331,16.627,6.397,18.079,14.834
			c1.762,10.234-2.945,19.01-11.856,22.172c-1.085,0.386-2.246,0.781-3.374,0.786C704.585,113.852,691.438,113.832,677.739,113.832z
			"/>
		<path fill-rule="evenodd" clip-rule="evenodd" fill="#FFFFFF" d="M643.637,113.679c-1.573,0.07-3.197,0.201-4.821,0.205
			c-7.994,0.021-16-0.262-23.98,0.073c-12.142,0.509-23.401-7.679-28.016-18.855c-7.39-17.902,1.992-38.273,20.025-43.296
			c1.114-0.311,2.27-0.664,3.406-0.669c10.314-0.052,20.629-0.03,31.367-0.03c0,3.942,0,7.839,0,12.196
			c-1.285,0.088-2.724,0.265-4.162,0.272c-7.495,0.034-14.992-0.103-22.483,0.064c-8.522,0.19-14.922,4.686-17.325,12.519
			c-2.486,8.099-0.552,15.609,5.599,20.881c3.154,2.703,6.774,4.139,10.955,4.129c6.329-0.014,12.658-0.037,18.986,0.008
			C640.761,101.23,644.41,105.497,643.637,113.679z"/>
		<path fill-rule="evenodd" clip-rule="evenodd" fill="#FFFFFF" d="M247.937,113.663c-1.907,0.086-3.534,0.217-5.162,0.221
			c-7.827,0.022-15.668-0.301-23.477,0.078c-13.848,0.674-25.742-9.471-29.424-21.809c-4.083-13.686,0.611-28.455,12.231-36.175
			c3.368-2.238,7.495-4.353,11.388-4.583c10.595-0.627,21.251-0.215,32.305-0.215c0,3.959,0,7.845,0,12.131
			c-1.446,0.092-2.896,0.257-4.347,0.264c-7.494,0.034-14.991-0.111-22.48,0.072c-8.418,0.206-14.38,4.566-17.114,12.118
			c-2.72,7.513-0.723,15.697,5.163,20.996c3.217,2.896,6.969,4.435,11.349,4.41c6.161-0.033,12.323-0.025,18.484,0
			C244.768,101.202,248.036,104.704,247.937,113.663z"/>
		<path fill-rule="evenodd" clip-rule="evenodd" fill="#FFFFFF" d="M324.819,113.675c0-21.123,0-41.691,0-62.524
			c3.902,0,7.505,0,11.416,0c0.172,1.151,0.476,2.246,0.478,3.341c0.031,15.646,0.066,31.291,0.002,46.936
			c-0.029,7.146-3.226,11.35-9.156,12.352C326.77,113.911,325.928,113.726,324.819,113.675z"/>
		<path fill-rule="evenodd" clip-rule="evenodd" fill="#FFFFFF" d="M653.468,113.56c0-20.977,0-41.513,0-62.362
			c3.818,0,7.385,0,11.223,0c0.182,0.997,0.498,1.93,0.499,2.864c0.03,15.948,0.013,31.895,0.03,47.842
			c0.004,3.633-0.76,6.926-3.695,9.381C659.283,113.159,656.836,114.334,653.468,113.56z"/>
	</g>
</g>
</svg>
