<?xml version="1.0" encoding="utf-8"?>
<!-- Generator: Adobe Illustrator 19.1.0, SVG Export Plug-In . SVG Version: 6.00 Build 0)  -->
<svg version="1.1" id="Layer_1" xmlns="http://www.w3.org/2000/svg" xmlns:xlink="http://www.w3.org/1999/xlink" x="0px" y="0px"
	 viewBox="0 0 65.4 23.5" style="enable-background:new 0 0 65.4 23.5;" xml:space="preserve">
<style type="text/css">
	.st0{opacity:0.23;}
	.st1{fill:#80FFDB;}
	.st2{opacity:6.000000e-02;}
	.st3{fill:#5AFFB4;}
	.st4{opacity:9.000000e-02;fill:#80FFDB;}
	.st5{opacity:0.41;}
	.st6{fill:#80FFDB;stroke:#60EAA5;stroke-miterlimit:10;}
	.st7{opacity:0.63;}
	.st8{fill:none;stroke:#80FFDB;stroke-miterlimit:10;}
	.st9{opacity:0.72;fill:#80FFDB;}
	.st10{opacity:0.63;fill:#80FFDB;}
	.st11{opacity:0.33;fill:#80FFDB;}
	.st12{opacity:0.49;fill:#80FFDB;stroke:#60EAA5;stroke-miterlimit:10;}
	.st13{opacity:0.46;fill:#80FFDB;}
	.st14{fill:none;stroke:#60EAA5;stroke-miterlimit:10;}
	.st15{opacity:0.33;fill:#60EAA5;}
	.st16{opacity:0.49;fill:none;stroke:#60EAA5;stroke-miterlimit:10;}
	.st17{fill:#030316;}
	.st18{opacity:0.3;fill:none;stroke:#80FFDB;stroke-miterlimit:10;}
	.st19{fill:#FFFFFF;}
	.st20{opacity:0.9;}
</style>
<g>
	<g>
		<path class="st1" d="M11.5,19.1l2-1.5v5.9H0V19l8.3-4.8c1.8-1.1,2.9-2.8,2.9-4.8c0-3-2.4-5.4-5.4-5.4H2.3v7l1.4-0.8v2.7
			C3.1,13.3,2.2,13.8,0,15V1.7h5.8c4.2,0,7.7,3.5,7.7,7.7c0,2.7-1.4,5.1-3.6,6.5l-7.6,4.4v0.9h9.2V19.1z"/>
	</g>
	<g>
		<path class="st1" d="M37.5,8.7l-21,5.6c-0.8-5.4,2.5-10.8,8-12.2C29.9,0.6,35.6,3.5,37.5,8.7z M17.2,16.5l21-5.6
			c0.8,5.4-2.6,10.8-8,12.2C24.7,24.6,19.2,21.7,17.2,16.5z M18.9,11.3l15.1-4c-2.1-2.6-5.5-3.8-8.9-2.9C21.7,5.2,19.4,8,18.9,11.3z
			 M35.8,13.9L20.7,18c2.1,2.5,5.5,3.8,8.9,2.9C32.9,20,35.3,17.2,35.8,13.9z"/>
	</g>
	<g>
		<path class="st1" d="M44.5,13.5v10h-2.3v-6.9l-1,0.3v-2.4L44.5,13.5z M42.2,11.8V1.7h2.3v7L46,8.3v2.4L42.2,11.8z"/>
	</g>
	<g>
		<path class="st1" d="M63.9,5.6c-1.3-0.8-2.9-1.2-4.3-1.2l0.8,1.1l-2.1,1.1c-1.4-2.1-3.3-4.5-4-5.4l2-1.3l1.6,2.2
			c2.4-0.3,4.9,0.1,7.1,1.4 M56.2,7.8L54.1,9L53,7.4c-0.3,0.4-0.6,0.8-0.8,1.2c-2.4,4.1-1.1,9.3,3,11.7l-1.2,2
			c-5.2-3.1-6.9-9.8-3.8-14.9c0.4-0.7,0.9-1.3,1.4-1.9l-1.2-1.6l2-1.3C54.1,4.9,54.5,5.6,56.2,7.8z"/>
	</g>
	<g>
		<path class="st1" d="M58.1,11.3c2.7,0,4.9,2.2,4.9,4.9c0,2.7-2.2,4.9-4.9,4.9s-4.9-2.2-4.9-4.9C53.2,13.5,55.4,11.3,58.1,11.3
			 M58.1,8.9c-4.1,0-7.3,3.3-7.3,7.3c0,4.1,3.3,7.3,7.3,7.3s7.3-3.3,7.3-7.3C65.4,12.1,62.1,8.9,58.1,8.9L58.1,8.9z"/>
	</g>
</g>
</svg>
