<?xml version="1.0" encoding="iso-8859-1"?>
<!-- Generator: Adobe Illustrator 16.0.0, SVG Export Plug-In . SVG Version: 6.00 Build 0)  -->
<!DOCTYPE svg PUBLIC "-//W3C//DTD SVG 1.1//EN" "http://www.w3.org/Graphics/SVG/1.1/DTD/svg11.dtd">
<svg version="1.1" id="Layer_1" xmlns="http://www.w3.org/2000/svg" xmlns:xlink="http://www.w3.org/1999/xlink" x="0px" y="0px"
	 width="1440px" height="547.767px" viewBox="0 0 1440 547.767" style="enable-background:new 0 0 1440 547.767;"
	 xml:space="preserve">
<path id="backfog" style="fill:#5D4F43;" d="M1371.685,81.179c-22.83,11.592-46.652,10.723-70.773,8.326
	c-9.609-0.955-13.223-5.361-14.713-14.824c-0.104-0.656-0.213-1.33-0.18-1.988c0.863-17.198-8.967-26.561-23.289-33.615
	c-19.404-9.559-38.465-8.787-57.801-0.51c-12.564,5.378-20.854,14.598-22.705,28.209c-1.582,11.627-8.061,16.811-18.932,19.033
	c-18.572,3.797-37.09,7.936-55.473,12.561c-19.342,4.865-36.045,14.826-51.846,26.988c-10.455,8.049-22.035,15.02-33.973,20.652
	c-14.699,6.938-30.258,12.072-45.52,17.785c-4.025,1.506-8.273,2.621-12.516,3.299c-10.457,1.676-19.488-0.15-26.779-9.182
	c-3.834-4.752-9.684-7.986-14.912-11.473c-5.725-3.82-10.609-7.58-10.584-15.586c0.016-5.449-2.914-7.381-9.42-8.293
	c-3.463-0.486-6.971-0.648-10.42-1.199c-4.453-0.711-8.975-2.365-10.291-6.896c-5.693-19.617-21.711-25.207-38.891-29.041
	c-14.863-3.316-29.803-1.67-44.699,0.41c-18.605,2.598-37.236,5.023-55.855,7.521c-8.41,1.129-16.844,2.107-25.227,3.42
	c-12.953,2.025-23.799,8.186-32.994,17.42c-4.23,4.25-8.4,8.568-12.795,12.645c-12.227,11.344-26.838,12.631-42.035,8.646
	c-4.078-1.068-8.41-4.615-10.752-8.238c-7.996-12.367-19.861-16.748-33.506-17.697c-10.793-0.752-20.863-3.088-30.459-8.43
	c-5.113-2.846-11.371-3.555-16.945-5.67c-3.979-1.51-8.418-2.99-11.352-5.826c-6.748-6.527-14.764-8.65-23.629-9.096
	c-2.662-0.135-5.324-0.25-7.988-0.359c-14.211-0.594-24.498-7.373-31.531-19.619c-2.893-5.039-6.105-9.929-9.549-14.609
	c-3.408-4.635-8.158-7.428-14.062-7.438c-30.523-0.051-60.404,3.416-88.977,15.201c-14.646,6.041-26.158,15.648-35.764,27.939
	c-5.867,7.508-13.219,12.848-22.943,13.637c-14.465,1.174-28.721,0-41.832-6.881c-13.07-6.859-26.691-12.957-35.865-25.484
	c-4.297-5.869-11.062-7.105-17.891-7.24c-6.992-0.14-14.072-0.596-20.973,0.248c-19.66,2.404-34.293-6.743-47.496-19.584
	c-5.961-5.797-11.631-11.898-17.686-17.592C91.196,1.197,69.382-3.569,44.669,2.521c-15.779,3.889-31.041,8.791-44.67,17.91
	c0,99.389,0,527.336,0,527.336h1440V60.431C1439.999,60.431,1393.093,70.306,1371.685,81.179z"/>
</svg>
