<?xml version="1.0" encoding="utf-8"?>
<!-- Generator: Adobe Illustrator 16.0.4, SVG Export Plug-In . SVG Version: 6.00 Build 0)  -->
<!DOCTYPE svg PUBLIC "-//W3C//DTD SVG 1.1//EN" "http://www.w3.org/Graphics/SVG/1.1/DTD/svg11.dtd">
<svg version="1.1" id="Layer_1" xmlns="http://www.w3.org/2000/svg" xmlns:xlink="http://www.w3.org/1999/xlink" x="0px" y="0px"
	 width="329.811px" height="51.454px" viewBox="-0.001 0 329.811 51.454" enable-background="new -0.001 0 329.811 51.454"
	 xml:space="preserve">
<g id="Layer_1_1_" display="none">
	<g display="inline">
		<path fill="#CC9548" d="M633.726,666.224c0,0,9.641,52.439-183.857,52.439h-30.033c-193.5,0-183.862-52.439-183.862-52.439
			c-21.283,28.559,6.503,64.854,11.823,79.043c5.322,14.189,172.039,4.143,172.039,4.143v-0.182h30.033v0.182
			c0,0,166.717,10.05,172.037-4.143C627.224,731.078,655.009,694.778,633.726,666.224z"/>
		<path fill="#EBD6B9" d="M235.968,690.521c0,0-9.635,39.965,183.863,39.965h30.033c193.498,0,183.857-39.965,183.857-39.965v-5.384
			c0,0,9.641,39.968-183.857,39.968h-30.033c-193.5,0-183.863-39.968-183.863-39.968V690.521L235.968,690.521z"/>
		<path fill="#EBD6B9" d="M235.614,701.518c0,0-9.637,39.969,183.862,39.969h30.033c193.498,0,183.861-39.969,183.861-39.969v-5.38
			c0,0,9.637,39.966-183.861,39.966h-30.033c-193.499,0-183.862-39.966-183.862-39.966V701.518L235.614,701.518z"/>
	</g>
	<path display="inline" fill="#996928" d="M642.89,638.319l-11.883,5.261c0.062,0.65,12.533,54.745-17.145,88.146
		c-8.75,9.813-19.982,14.725-34.586,14.725H480.13H388.91h-99.146c-14.604,0-25.955-4.789-34.584-14.725
		c-25.599-29.265-17.736-92.105-17.677-92.696l-5.676-0.771l-5.853-0.769c-0.354,2.774-8.868,68.694,20.278,102.041
		c10.877,12.474,25.539,18.737,43.512,18.737h99.146h91.221h99.146c17.973,0,32.635-6.322,43.512-18.737
		C651.935,706.188,643.304,641.156,642.89,638.319z"/>
	<g display="inline">
		<rect x="282.673" y="493.298" fill="#15110E" width="177.359" height="177.359"/>
		<rect x="282.556" y="493.298" fill="#641313" width="88.684" height="44.34"/>
		<rect x="282.556" y="537.756" fill="#996928" width="44.344" height="44.34"/>
		<rect x="326.896" y="537.756" fill="#744921" width="44.34" height="44.34"/>
		<rect x="282.556" y="581.979" fill="#8C5B29" width="44.344" height="44.343"/>
		<rect x="282.556" y="626.377" fill="#D57A16" width="29.562" height="44.34"/>
		<rect x="312.115" y="626.377" fill="#EB9D1B" width="29.561" height="44.34"/>
		<rect x="341.675" y="626.377" fill="#EBD6B9" width="29.562" height="44.34"/>
		<rect x="326.896" y="582.096" fill="#CC9548" width="44.34" height="44.34"/>
	</g>
</g>
<g id="Layer_3" display="none">
	<path display="inline" fill="#996928" d="M697.398,629.806c-0.18-4.434-3.191-1.771-3.191-1.771
		c-10.582-2.72-11.943-14.604-12.062-15.903c7.744-1.062,6.857-2.66,3.666-4.907c-1.947-1.355-8.1-3.484-13.479-5.198
		c-0.711-0.297-1.48-0.596-2.307-0.891c0.941-10.583-12.533-15.9-12.533-15.9c0.119,7.032-0.178,9.104-1.479,12.944
		c-6.441-0.178-12.943,1.716-17.732,7.808c-13.896,17.677-7.035,37.127-5.266,48.301l10.879-7.981c0,0-1.771-10.521-1.301-15.782
		c0.176-1.008,0.295-1.949,0.531-2.777c0.65-2.011,2.479-6.207,7.922-6.207c14.543,0.06,9.578,18.327,20.279,22.938
		c3.896,1.715,6.68,0.296,6.68,0.296c-8.158-8.571-7.979-21.937-7.979-21.937c5.316,5.912,18.209,14.366,21.574,14.544
		C695.093,637.432,697.576,634.239,697.398,629.806z"/>
	<path display="inline" fill="#996928" d="M656.074,598.059c0,0-15.549-3.366-21.047,2.364l8.273,2.365
		C643.304,602.788,659.267,604.089,656.074,598.059z"/>
	<path display="inline" fill="#996928" d="M646.615,603.261c0,0-11.059-3.604-16.557,2.069l8.275,2.365
		C638.279,607.695,649.748,609.291,646.615,603.261z"/>
	<path display="inline" fill="#996928" d="M643.009,608.404c0,0-11.057-3.606-16.555,2.065l8.275,2.364
		C634.732,612.838,646.201,614.375,643.009,608.404z"/>
	<path display="inline" fill="#996928" d="M641.058,613.43c0,0-11.057-3.604-16.555,2.069l8.277,2.364
		C632.781,617.863,644.25,619.46,641.058,613.43z"/>
	<path display="inline" fill="#996928" d="M639.699,618.396c0,0-11.061-3.606-16.559,2.065l8.277,2.364
		C631.421,622.829,642.832,624.366,639.699,618.396z"/>
	<path display="inline" fill="#996928" d="M675.761,738.054c3.312-5.853,5.266-12.592,5.266-19.805
		c0-11.528-4.908-21.934-12.715-29.265c0,0-1.533-1.419-2.307-2.014c-21.047-18.855-21.992-40.729-21.992-40.729h-5.676
		c0,0,0.236,14.067-1.951,32.22c0,0,0,0-0.059,0c-1.064,8.041-0.178,35.061-16.438,54.213
		c-13.834,16.199-45.168,25.603-45.168,25.603h66.217c12.826,0,24.236-6.029,31.568-15.371c1.359-1.479,2.482-3.074,3.25-4.788
		C675.703,738.113,675.703,738.054,675.761,738.054z"/>
	<path display="inline" fill="#996928" d="M192.161,738.054c-3.311-5.853-5.262-12.592-5.262-19.805
		c0-11.528,4.907-21.934,12.711-29.265c0,0,1.537-1.419,2.306-2.014c21.046-18.855,21.992-40.729,21.992-40.729h5.676
		c0,0-0.235,14.067,1.951,32.22c0,0,0,0,0.06,0c1.063,8.041,0.178,35.061,16.436,54.213c13.775,16.258,45.11,25.603,45.11,25.603
		h-66.217c-12.828,0-24.238-6.029-31.569-15.371c-1.36-1.479-2.483-3.074-3.251-4.788
		C192.161,738.113,192.161,738.054,192.161,738.054z"/>
	<path display="inline" fill="#8C5B29" d="M697.398,629.806c-0.18-4.434-3.191-1.771-3.191-1.771
		c-10.582-2.72-11.943-14.604-12.062-15.903c2.482-0.354,4.969-1.183,4.969-1.183s-15.074-4.611-21.641-5.202
		c-31.861-3.019-31.215,14.661-30.443,34.053c0.529,12.651,28.314,111.678,28.314,111.678c3.488-2.361,6.562-5.262,9.164-8.514
		c1.359-1.479,2.482-3.074,3.252-4.789c0,0,0-0.059,0.062-0.059c3.311-5.854,5.262-12.595,5.262-19.81
		c0-11.524-4.908-21.933-12.711-29.264c0,0-1.537-1.419-2.309-2.011c-21.049-18.858-21.99-40.733-21.99-40.733
		s-1.773-10.521-1.305-15.785c0.182-1.005,0.299-1.946,0.531-2.774c0.65-2.012,2.484-6.207,7.924-6.207
		c14.543,0.059,9.576,18.327,20.277,22.938c3.902,1.716,6.68,0.295,6.68,0.295c-8.154-8.568-7.979-21.934-7.979-21.934
		c5.318,5.912,18.209,14.366,21.58,14.544C695.093,637.432,697.576,634.239,697.398,629.806z"/>
	<g display="inline">
		<circle fill="#996928" cx="216.696" cy="638.673" r="20.81"/>
		<circle fill="#CC9548" cx="216.696" cy="638.673" r="14.78"/>
		<circle fill="#996928" cx="216.696" cy="638.674" r="11.824"/>
		<circle fill="#CC9548" cx="216.696" cy="638.674" r="8.868"/>
		<circle fill="#996928" cx="216.696" cy="638.674" r="2.956"/>
	</g>
</g>
<g id="Layer_4" display="none">
	<circle display="inline" fill="#8C5B29" cx="228.341" cy="718.426" r="31.688"/>
	<circle display="inline" fill="#996928" cx="228.341" cy="718.426" r="23.648"/>
	<circle display="inline" fill="#CC9548" cx="228.341" cy="718.426" r="19.687"/>
	<circle display="inline" fill="#996928" cx="228.341" cy="718.426" r="16.79"/>
	<circle display="inline" fill="#8C5B29" cx="639.166" cy="718.426" r="31.688"/>
	<circle display="inline" fill="#996928" cx="639.166" cy="718.426" r="23.648"/>
	<circle display="inline" fill="#CC9548" cx="639.166" cy="718.426" r="19.687"/>
	<circle display="inline" fill="#996928" cx="639.166" cy="718.426" r="16.79"/>
</g>
<g>
	<defs>
		<rect id="SVGID_1_" x="-0.001" width="329.811" height="51.454"/>
	</defs>
	<clipPath id="SVGID_2_">
		<use xlink:href="#SVGID_1_"  overflow="visible"/>
	</clipPath>
	<g clip-path="url(#SVGID_2_)">
		<g>
			<defs>
				<rect id="SVGID_3_" x="-0.001" width="432.62" height="51.908"/>
			</defs>
			<clipPath id="SVGID_4_">
				<use xlink:href="#SVGID_3_"  overflow="visible"/>
			</clipPath>
			<g clip-path="url(#SVGID_4_)">
				<path fill="#37B1DB" d="M78.187,15.371C66.835,15.371,56.903,9.164,51.583,0c-2.601,4.493-4.079,9.755-4.079,15.312
					c0,16.969,13.716,30.684,30.683,30.684s30.685-13.715,30.685-30.684c0-5.558-1.479-10.817-4.08-15.312
					C99.528,9.164,89.597,15.371,78.187,15.371z"/>
				<path fill="#37B1DB" d="M503.671,15.371c-11.354,0-21.283-6.207-26.604-15.371c-2.602,4.493-4.078,9.755-4.078,15.312
					c0,16.969,13.715,30.684,30.686,30.684c16.967,0,30.684-13.715,30.684-30.684c0-5.558-1.479-10.817-4.078-15.312
					C524.955,9.164,515.021,15.371,503.671,15.371z"/>
				<path fill="#37B1DB" d="M131.336,15.371c-11.352,0-21.283-6.207-26.604-15.371c-2.602,4.493-4.08,9.755-4.08,15.312
					c0,16.969,13.718,30.684,30.685,30.684c16.968,0,30.684-13.715,30.684-30.684c0-5.558-1.479-10.817-4.079-15.312
					C152.618,9.164,142.745,15.371,131.336,15.371z"/>
				<path fill="#37B1DB" d="M184.544,15.371c-11.353,0-21.283-6.207-26.604-15.371c-2.602,4.493-4.08,9.755-4.08,15.312
					c0,16.969,13.716,30.684,30.686,30.684c16.968,0,30.684-13.715,30.684-30.684c0-5.558-1.479-10.817-4.08-15.312
					C205.826,9.164,195.894,15.371,184.544,15.371z"/>
				<path fill="#37B1DB" d="M237.691,15.371c-11.352,0-21.283-6.207-26.604-15.371c-2.604,4.493-4.079,9.755-4.079,15.312
					c0,16.969,13.716,30.684,30.683,30.684c16.969,0,30.684-13.715,30.684-30.684c0-5.558-1.479-10.817-4.076-15.312
					C258.975,9.164,249.044,15.371,237.691,15.371z"/>
				<path fill="#37B1DB" d="M290.841,15.371c-11.354,0-21.283-6.207-26.604-15.371c-2.603,4.493-4.079,9.755-4.079,15.312
					c0,16.969,13.717,30.684,30.686,30.684c16.967,0,30.686-13.715,30.686-30.684c0-5.558-1.48-10.817-4.08-15.312
					C312.123,9.164,302.19,15.371,290.841,15.371z"/>
				<path fill="#37B1DB" d="M344.107,15.371c-11.354,0-21.283-6.207-26.604-15.371c-2.604,4.493-4.08,9.755-4.08,15.312
					c0,16.969,13.717,30.684,30.686,30.684c16.967,0,30.684-13.715,30.684-30.684c0-5.558-1.48-10.817-4.078-15.312
					C365.39,9.164,355.458,15.371,344.107,15.371z"/>
				<path fill="#37B1DB" d="M397.255,15.371c-11.352,0-21.283-6.207-26.604-15.371c-2.604,4.493-4.078,9.755-4.078,15.312
					c0,16.969,13.715,30.684,30.684,30.684s30.686-13.715,30.686-30.684c0-5.558-1.479-10.817-4.078-15.312
					C418.539,9.164,408.607,15.371,397.255,15.371z"/>
				<path fill="#37B1DB" d="M450.523,15.371c-11.354,0-21.283-6.207-26.605-15.371c-2.604,4.493-4.078,9.755-4.078,15.312
					c0,16.969,13.715,30.684,30.684,30.684s30.684-13.715,30.684-30.684c0-5.558-1.479-10.817-4.076-15.312
					C471.806,9.164,461.875,15.371,450.523,15.371z"/>
				<rect x="5.646" y="15.312" fill="#37B1DB" width="528.707" height="30.685"/>
				<path fill="#37B1DB" d="M51.642,0C46.32,9.164,36.389,15.371,25.038,15.371c-7.331,0-14.13-2.603-19.392-6.917v30.624
					c5.262,4.313,12.061,6.918,19.392,6.918c16.967,0,30.683-13.718,30.683-30.685C55.722,9.696,54.244,4.493,51.642,0z"/>
			</g>
		</g>
		<g>
			<defs>
				<rect id="SVGID_5_" x="-0.001" width="432.62" height="51.908"/>
			</defs>
			<clipPath id="SVGID_6_">
				<use xlink:href="#SVGID_5_"  overflow="visible"/>
			</clipPath>
			<g clip-path="url(#SVGID_6_)">
				<g>
					<path fill="#2980B9" d="M30.684,15.371C19.332,15.371,9.4,9.164,4.079,0c-2.602,4.493-4.08,9.755-4.08,15.312
						c0,16.969,13.717,30.684,30.684,30.684c16.968,0,30.683-13.715,30.683-30.684c0-5.558-1.478-10.817-4.079-15.312
						C51.967,9.164,42.034,15.371,30.684,15.371z"/>
					<path fill="#2980B9" d="M83.832,15.371C72.481,15.371,62.55,9.164,57.229,0c-2.602,4.493-4.079,9.755-4.079,15.312
						c0,16.969,13.716,30.684,30.683,30.684c16.968,0,30.684-13.715,30.684-30.684c0-5.558-1.479-10.817-4.079-15.312
						C105.175,9.164,95.242,15.371,83.832,15.371z"/>
					<path fill="#2980B9" d="M136.981,15.371c-11.353,0-21.282-6.207-26.604-15.371c-2.602,4.493-4.078,9.755-4.078,15.312
						c0,16.969,13.716,30.684,30.684,30.684c16.967,0,30.685-13.715,30.685-30.684c0-5.558-1.479-10.817-4.079-15.312
						C158.265,9.164,148.392,15.371,136.981,15.371z"/>
					<path fill="#2980B9" d="M190.188,15.371c-11.351,0-21.283-6.207-26.604-15.371c-2.604,4.493-4.079,9.755-4.079,15.312
						c0,16.969,13.716,30.684,30.683,30.684c16.968,0,30.687-13.715,30.687-30.684c0-5.558-1.479-10.817-4.08-15.312
						C211.472,9.164,201.54,15.371,190.188,15.371z"/>
					<path fill="#2980B9" d="M243.337,15.371c-11.354,0-21.282-6.207-26.604-15.371c-2.601,4.493-4.079,9.755-4.079,15.312
						c0,16.969,13.716,30.684,30.687,30.684c16.967,0,30.684-13.715,30.684-30.684c0-5.558-1.479-10.817-4.08-15.312
						C264.623,9.164,254.688,15.371,243.337,15.371z"/>
					<path fill="#2980B9" d="M296.485,15.371c-11.351,0-21.282-6.207-26.604-15.371c-2.604,4.493-4.08,9.755-4.08,15.312
						c0,16.969,13.718,30.684,30.685,30.684c16.97,0,30.687-13.715,30.687-30.684c0-5.558-1.479-10.817-4.08-15.312
						C317.769,9.164,307.837,15.371,296.485,15.371z"/>
					<path fill="#2980B9" d="M349.753,15.371C338.4,15.371,328.47,9.164,323.148,0c-2.604,4.493-4.078,9.755-4.078,15.312
						c0,16.969,13.715,30.684,30.684,30.684s30.684-13.715,30.684-30.684c0-5.558-1.479-10.817-4.076-15.312
						C371.037,9.164,361.103,15.371,349.753,15.371z"/>
					<path fill="#2980B9" d="M402.902,15.371c-11.354,0-21.281-6.207-26.605-15.371c-2.604,4.493-4.078,9.755-4.078,15.312
						c0,16.969,13.715,30.684,30.684,30.684s30.686-13.715,30.686-30.684c0-5.558-1.479-10.817-4.078-15.312
						C424.185,9.164,414.253,15.371,402.902,15.371z"/>
					<path fill="#2980B9" d="M456.169,15.371c-11.354,0-21.283-6.207-26.604-15.371c-2.604,4.493-4.08,9.755-4.08,15.312
						c0,16.969,13.717,30.684,30.686,30.684c16.967,0,30.686-13.715,30.686-30.684c0-5.558-1.48-10.817-4.08-15.312
						C477.453,9.164,467.519,15.371,456.169,15.371z"/>
					<path fill="#2980B9" d="M509.318,15.371c-11.354,0-21.283-6.207-26.605-15.371c-2.604,4.493-4.08,9.755-4.08,15.312
						c0,16.969,13.717,30.684,30.686,30.684s30.686-13.715,30.686-30.684c0-5.558-1.479-10.817-4.08-15.312
						C530.601,9.164,520.667,15.371,509.318,15.371z"/>
				</g>
				<rect y="15.312" fill="#2980B9" width="540.001" height="36.597"/>
			</g>
		</g>
	</g>
</g>
</svg>
