<?xml version="1.0" encoding="utf-8"?>
<!-- Generator: Adobe Illustrator 16.0.4, SVG Export Plug-In . SVG Version: 6.00 Build 0)  -->
<!DOCTYPE svg PUBLIC "-//W3C//DTD SVG 1.1//EN" "http://www.w3.org/Graphics/SVG/1.1/DTD/svg11.dtd">
<svg version="1.1" id="svg4472" xmlns:svg="http://www.w3.org/2000/svg" xmlns:rdf="http://www.w3.org/1999/02/22-rdf-syntax-ns#"
	 xmlns="http://www.w3.org/2000/svg" xmlns:xlink="http://www.w3.org/1999/xlink" x="0px" y="0px" width="750px" height="257.629px"
	 viewBox="0 0 750 257.629" enable-background="new 0 0 750 257.629" xml:space="preserve">
<g id="layer1" transform="translate(4636.4128,-2865.2086)">
	<path id="path4423" fill="#FFFFFF" d="M-4520.08,2990.41h32.21v45.241c-10.05,3.229-22.74,5-35.93,5
		c-53.46,0-84.88-45.781-84.88-90.491c0-43.85,28.42-74.61,68.07-74.61c25.09,0,39.69,8.5,52.75,20.34v14.76l24.49-24.49
		c-15.49-10.479-37.92-20.439-69.98-20.439c-70.38,0-102.55,50.35-102.55,91.729c0,58.9,42.9,94.38,96.81,94.38
		c26.14,0,49.35-3.99,76.16-11.45v-46.74c0-2.39,1.05-4.03,2.62-5.47l8.46-8.46h-57.45L-4520.08,2990.41z"/>
	<path id="path4425" fill="#FFFFFF" d="M-4375.79,2928.93c-40.51,0-65.61,29.6-65.61,61.02c0,27.121,20.22,59.32,61.19,59.32
		c39.41,0,63.59-29.66,63.59-61.629c0-29.78-23.63-58.7-59.17-58.7V2928.93z M-4382.51,2937.56c28.56,0,41.28,37.21,41.28,63.75
		c0,39.469-29.61,40.25-33.15,40.25c-13.55,0-23.02-8.191-30.11-18.931c-6.24-9.899-12.34-28.29-12.34-46.26
		c0-17.899,5.86-26.64,15.08-33.07c7.54-4.82,14.6-5.74,19.23-5.74H-4382.51z"/>
	<path id="path4429" fill="#FFFFFF" d="M-4110.98,2928.92c-35.38,0-54.521,22.4-54.521,47.41c0,19.04,13.641,40.52,41.78,40.52h7.12
		c0,0-1.939,4.711-1.95,9.26c0,6.711,2.41,10.48,7.53,16.281c-48.42,2.949-67.881,22.479-67.881,43.469
		c0,18.381,17.601,36.471,54.59,36.471c43.791,0,66.471-24.311,66.471-48.17c0-16.82-8.38-26.041-29.601-41.939
		c-6.239-4.852-7.45-7.941-7.45-11.57c0-5.201,3.11-8.641,4.25-9.94c2.011-2.12,5.49-4.54,6.791-5.7
		c7.129-6.039,17.199-14.98,17.199-32.82c0-12.24-5.09-22.77-16.689-32.63h14.16l10.64-10.64h-52.431L-4110.98,2928.92z
		 M-4120.74,2936.88c6.42,0,11.78,2.27,17.44,6.98c6.279,5.66,16.31,20.87,16.31,39.69c0,20.31-15.78,25.87-24.319,25.87
		c-4.181,0-9.19-1.17-13.431-4.07c-9.42-6.109-18.771-22.37-18.771-41.72C-4143.51,2946.17-4133.11,2936.88-4120.74,2936.88z
		 M-4106.73,3050.1c2.7,0,4.64,0.221,4.64,0.221s6.371,4.549,10.82,7.949c10.36,8.189,16.82,14.45,16.82,25.6
		c0,15.33-14.22,27.352-37.25,27.352c-25.279,0-44.6-11.771-44.6-30.99C-4156.299,3064.311-4143.059,3050.609-4106.73,3050.1
		L-4106.73,3050.1z"/>
	<path id="path4433" fill="#FFFFFF" d="M-4050.879,3045.76h48.569l7.4-7.4l-13.931-1.739c-3.75-0.46-5.979-3.7-5.979-6.841V2883.07
		c0-2.89,1.34-4.37,2.32-5.31l8.76-8.76h-41.42l-10.78,10.78h16.101v151.97c0,2.16-0.681,3.63-2.14,5.141L-4050.879,3045.76z"/>
	<path id="path4435" fill="#FFFFFF" d="M-3936.5,2928.93c-27.119,0-55.93,20.67-55.93,57.78c0,30.649,20.67,62.56,59.29,62.56
		c9.63,0,17.561-1.24,24.99-4.649c7.97-3.67,15.64-9.63,21.24-17.12c-10.57,5.33-19.19,8.83-30.64,8.83
		c-21.761,0-42.74-15.699-50.08-44.56l76.869-31.07c-4.439-15.83-16.959-31.77-45.729-31.77H-3936.5z M-3941.52,2937.42
		c14.55,0,25.07,11.97,25.07,21.34c0,3.03-1.9,4.63-5.66,6.11l-47.25,19.11c0,0-1.28-5.95-1.28-12.38
		C-3970.64,2944.63-3951.14,2937.42-3941.52,2937.42L-3941.52,2937.42z"/>
	<path id="path4439" fill="#FFFFFF" d="M-4238.331,2928.93c-40.51,0-65.609,29.6-65.609,61.02c0,27.121,20.221,59.32,61.189,59.32
		c39.41,0,63.59-29.66,63.59-61.629c0-29.78-23.629-58.7-59.17-58.7V2928.93z M-4245.05,2937.56c28.56,0,41.28,37.21,41.28,63.75
		c0,39.469-29.61,40.25-33.15,40.25c-13.55,0-23.02-8.191-30.109-18.931c-6.24-9.899-12.34-28.29-12.34-46.26
		c0-17.899,5.859-26.64,15.08-33.07c7.539-4.82,14.6-5.74,19.229-5.74H-4245.05z"/>
</g>
</svg>
