<?xml version="1.0" encoding="utf-8"?>
<!-- Generator: Adobe Illustrator 19.1.0, SVG Export Plug-In . SVG Version: 6.00 Build 0)  -->
<svg version="1.1" id="Layer_1" xmlns="http://www.w3.org/2000/svg" xmlns:xlink="http://www.w3.org/1999/xlink" x="0px" y="0px"
	 viewBox="0 0 66.7 24.9" style="enable-background:new 0 0 66.7 24.9;" xml:space="preserve">
<style type="text/css">
	.st0{opacity:0.41;}
	.st1{fill:#99D5C6;}
</style>
<g class="st0">
	<g>
		<path class="st1" d="M12.3,19.8l2-1.5v5.9H0.8v-4.5l8.3-4.8c1.8-1.1,2.9-2.8,2.9-4.8c0-3-2.4-5.4-5.4-5.4H3.1v7l1.4-0.8v2.7
			c-0.7,0.4-1.6,0.9-3.8,2.1V2.4h5.8c4.2,0,7.7,3.5,7.7,7.7c0,2.7-1.4,5.1-3.6,6.5L3,21v0.9h9.2v-2.1H12.3z"/>
	</g>
	<g>
		<path class="st1" d="M38.4,9.4l-21,5.6c-0.8-5.4,2.5-10.8,8-12.2C30.8,1.3,36.4,4.2,38.4,9.4z M18,17.2l21-5.6
			c0.8,5.4-2.6,10.8-8,12.2C25.6,25.3,20,22.4,18,17.2z M19.7,12l15.1-4c-2.1-2.6-5.5-3.8-8.9-2.9C22.6,5.9,20.2,8.7,19.7,12z
			 M36.6,14.6l-15.1,4.1c2.1,2.5,5.5,3.8,8.9,2.9S36.1,17.9,36.6,14.6z"/>
	</g>
	<g>
		<path class="st1" d="M45.4,14.2v10h-2.3v-6.9l-1,0.3v-2.4L45.4,14.2z M43,12.5V2.4h2.3v7L46.8,9v2.4L43,12.5z"/>
	</g>
	<g>
		<path class="st1" d="M64.7,6.3c-1.3-0.8-2.9-1.2-4.3-1.2l0.8,1.1l-2.1,1.1c-1.4-2.1-3.3-4.5-4-5.4l2-1.3l1.6,2.2
			c2.4-0.3,4.9,0.1,7.1,1.4 M57,8.5l-2.1,1.2l-1.1-1.6c-0.3,0.4-0.6,0.8-0.8,1.2c-2.4,4.1-1.1,9.3,3,11.7l-1.2,2
			c-5.2-3.1-6.9-9.8-3.8-14.9c0.4-0.7,0.9-1.3,1.4-1.9l-1.2-1.6l2-1.3C54.9,5.6,55.4,6.3,57,8.5z"/>
	</g>
	<g>
		<path class="st1" d="M58.9,12c2.7,0,4.9,2.2,4.9,4.9s-2.2,4.9-4.9,4.9S54,19.6,54,16.9S56.2,12,58.9,12 M58.9,9.6
			c-4.1,0-7.3,3.3-7.3,7.3c0,4.1,3.3,7.3,7.3,7.3c4.1,0,7.3-3.3,7.3-7.3C66.3,12.8,63,9.6,58.9,9.6L58.9,9.6z"/>
	</g>
</g>
</svg>
