<?xml version="1.0" encoding="utf-8"?>
<!-- Generator: Adobe Illustrator 19.2.0, SVG Export Plug-In . SVG Version: 6.00 Build 0)  -->
<svg version="1.1" id="Layer_1" xmlns="http://www.w3.org/2000/svg" xmlns:xlink="http://www.w3.org/1999/xlink" x="0px" y="0px"
	 viewBox="0 0 574 112.5" style="enable-background:new 0 0 574 112.5;" xml:space="preserve">
<style type="text/css">
	.st0{fill:#666666;}
</style>
<g>
	<g>
		<path class="st0" d="M329.1,10.6c-9.3-8.1-25.2-5.8-35.1-0.9c-13.9,7.8-24.7,22.1-25.8,37.7c-0.6,7.5,1.4,14.5,7.5,19.2
			c12.5,7.8,29,2.3,39.7-4.9c9.3-7.2,15.7-16.8,18.9-27.3C336.7,26.3,335.5,16.7,329.1,10.6z M289,66.4c-13.4,0,14.4-55.7,25.3-55.7
			C325,10.6,302.5,66.4,289,66.4z"/>
	</g>
	<polygon class="st0" points="258.1,58.5 234,58.3 238.3,46 262.6,46 	"/>
	<path class="st0" d="M96.1,64l-2,4.8H58.6l0.9-5.5c0,0,7.1,0.6,8.3-3.5l7-16H61.3c-5.7,5.2-10.5,9.7-18.2,16.9
		c-7.3,6.8-16.8,11.2-27.4,7.8C8,65.6,2.5,60.4,1.1,52.7C1,52,1,51.3,1,50.7c0-4,1.9-11.8,10.8-11.8c7.4,0,9.9,7.1,9.9,9.3
		c0,5.5-3.6,8.7-8,8.9c3.6,4.9,9.4,4.6,14.3,2.6C39.7,54.7,92.2,0,92.2,0h24.5c0,0-26.3,60.9-26.6,61.6C90,62.2,90.1,63.6,96.1,64z
		 M86.6,16.7L69.5,35.9h8.7L86.6,16.7L86.6,16.7z"/>
	<path class="st0" d="M215,26.4c29.2,0,18.1,42.2-13.6,42.2C174.8,68.5,184.4,26.4,215,26.4z M200.3,64.7c8.3,0,22.3-34.6,15.7-34.6
		C209.2,30.1,192,64.7,200.3,64.7z"/>
	<path class="st0" d="M158.3,27.9C149.6,49,144.9,58.7,146,59.6c1.1,0.9,6.8-6.6,8.3-5.8c1.6,0.8-5.8,15.6-15.9,15.6
		c-10.1,0-9-9.6-9-9.6c-4,3.2-9.6,9.1-17.8,9.1c-6,0-14.1-5.1,0.1-30.1c2.2-4.2-5.1,2.2-5.7,1.1c-1.4-2.5,6-13.3,18.7-13.3
		c15.8,0-9.8,32.3-4.1,32.3c3.8,0,9.5-3.7,22.7-31.1c0.6-1.2,1-1,1.6-1c4.8,0,12.1,0.1,12.1,0.1C157.7,27,158.7,27.1,158.3,27.9z"/>
	<path class="st0" d="M164.9,32.5c1.9,0,2.1,1.1,0.7,4c-3,6.3-5.2,11.3-7,15.2c-4.3,9.1-2.2,17.7,5.3,17.7
		c12.4,0,19.4-12.8,18.9-14.2c-1-3.4-6.3,5.4-9.3,3.9c-2.4-1.1,0.9-6.4,9.6-25.2c0.3-0.6,1.2-1.4,2.4-1.4c1.9,0,3.4,0,5.6,0
		c0.6,0,1.4-0.5,2.1-2.3c0.7-2.1,0.9-2.9-0.1-2.9h-4.6c-1,0-1.8-0.8-1.3-2.3l4.4-10h-15.1l-6.2,10.9c-0.6,1-1.2,1.5-2.7,1.5h-3.5
		c-1.2,0-1.6,1.1-2.1,2.3c-0.6,1.4-0.8,2.9,0.2,2.9h2.7L164.9,32.5L164.9,32.5z"/>
	<path class="st0" d="M565.7,41.3c-2.9,0.6-6.4,0-7-3.5l0.6-5.8c-2.6-1.4-5.2,1.2-5.8,3.5c-0.3,8.7,15.7,11,9.9,21.2
		c-4.6,9.3-14.5,13-24.4,12.2c-3.5,0-7.3-2-8.4-5.2c-0.9-4.1,1.4-6.4,4.4-8.4c3.2-0.9,6.7,0.3,8.1,3.2c1.7,2.6-2,5.5,0.6,7
		c3.2,0.6,5.5-2.9,6.1-5.5c-1.7-8.7-18-12.8-10.7-23.8c6.7-7.8,18.3-9.9,28.1-7.3C573.6,31.2,571.5,41,565.7,41.3L565.7,41.3z"/>
	<path class="st0" d="M395.9,68.8h14.4c11.4-23.4,20.1-32.1,24.1-32.1c5.8,0-23.6,33-2.8,33c11.9,0,18.4-12.3,18-13.6
		c-1-3.3-6,5.1-8.9,3.7c-2.3-1.1,11.1-16.7,11.1-23.3c0-3.9-2.1-9-9.2-9c-6.2,0-12.9,5.7-16.6,8.8c1-6.7-1.7-8.9-5.6-8.9
		c-10.7,0-20.3,11.6-19,14.9c0.8,2,4.2-2.9,5.8-2.9C409.5,39.4,398.9,61.1,395.9,68.8z"/>
	<path class="st0" d="M522.2,38.8c-3,0.6-6.3,5.3-18.6,30.3h-14.4c3.4-8,14.9-30.6,12.6-30.6c-1.6,0-3.8,2.2-5.2,0.7
		c-1.3-1.3,9.7-11.8,16.4-11.8c4.6,0,5.7,2.4,4.7,9.1c3-5.1,8.2-9.6,13.3-9.6c4,0,5.4,2.5,5.4,6C536.5,39.1,527.2,47.2,522.2,38.8z"
		/>
	<path class="st0" d="M468.8,51.6c0,0-6.6,10.5,1.8,10.5c9.1,0,15.7-12,15.7-7.1c0,2.6-8.5,13.8-21.6,13.8c-8.4,0-13.7-4-13.7-11.8
		c0-12.5,16.5-30.4,32.4-30.4c6.3,0,11.5,2.6,11.5,8.5C494.9,40.8,488.2,47.8,468.8,51.6z M482.3,32.1c-4.6,0-12.6,13.2-8.9,13.2
		C478.9,45.3,487,32.1,482.3,32.1z"/>
	<path class="st0" d="M355.1,27.8c-13.2,0-21.3,9.4-19.5,13.3c0.8,1.7,5.6-5,6.1-3c0.4,1.6-18.9,27.8-0.1,30.9
		c6.2,1,11.2-4.8,17.7-9.7c-0.3,5.6,4.6,9.7,10.1,9.8c8.3,0,24.8-12.5,31.4-33.4c1-4.4-1.7-8-4.9-8c-7.4,0-12.6,9.6-5.4,15.3
		c-5.6,12.7-10.8,18-14.8,18s6.9-26.6,9.5-32.4l-14.1,0.1c-9.1,17.5-15.2,29.8-21.6,29.8c-3.2,0,6.6-14.6,9.1-19.5
		C361.4,33.2,361.5,27.8,355.1,27.8z"/>
	<g>
		<path class="st0" d="M145.9,86.3h5.6v26.2h-5.6V86.3z"/>
		<path class="st0" d="M186.4,86.3h5.5v26.2h-5.5l-12-17v17h-5.6V86.3h5.6l12,16.8V86.3z"/>
		<path class="st0" d="M224.1,88.7l-3.5,3.8c-1.8-1.1-3.2-1.6-4-1.6c-0.6,0-1.2,0.2-1.6,0.7c-0.5,0.5-0.7,1-0.7,1.7
			c0,1.3,1.2,2.4,3.5,3.4c1.7,0.7,3,1.4,3.9,2s1.6,1.4,2.2,2.5s0.9,2.2,0.9,3.4c0,2.2-0.9,4.2-2.7,5.9c-1.8,1.7-4,2.5-6.4,2.5
			c-2.7,0-5.4-1.3-8-3.8l3.7-4.3c1.7,1.7,3.2,2.6,4.7,2.6c0.7,0,1.3-0.3,2-0.9c0.6-0.6,0.9-1.2,0.9-1.9c0-1.4-1.4-2.6-4.3-3.6
			c-1.6-0.6-2.8-1.2-3.5-1.7s-1.3-1.3-1.7-2.3c-0.5-1-0.7-2-0.7-3.1c0-2.3,0.8-4.2,2.3-5.7c1.5-1.4,3.5-2.2,5.9-2.2
			C219.7,85.9,222.1,86.8,224.1,88.7z"/>
		<path class="st0" d="M241.1,86.3h5.6v16c0,1.5,0.4,2.7,1.2,3.6s1.9,1.4,3.3,1.4c1.5,0,2.7-0.5,3.6-1.4s1.3-2.2,1.3-3.9V86.3h5.5
			v17c0,1.5-0.4,3-1.2,4.6c-0.8,1.6-2,2.8-3.6,3.7c-1.6,0.9-3.4,1.3-5.4,1.3c-3.6,0-6.2-1-7.9-3s-2.5-4.1-2.5-6.3V86.3H241.1z"/>
		<path class="st0" d="M279.2,86.3h8.6c2.6,0,4.7,0.7,6.2,2.1s2.3,3.2,2.3,5.6c0,1.3-0.4,2.7-1.1,4.2c-0.7,1.4-2,2.6-3.9,3.4
			l7.3,10.9h-6.5l-6.8-10.1h-0.6v10.1h-5.6V86.3H279.2z M284.9,91v6.8h1.2c2.9,0,4.4-1.2,4.4-3.6c0-1-0.4-1.8-1.2-2.3
			c-0.8-0.6-1.8-0.9-3.2-0.9H284.9z"/>
		<path class="st0" d="M324.4,86.3h4.4l10.7,26.2h-5.7l-2.1-5.1h-10l-2.1,5.1H314L324.4,86.3z M326.6,94.9l-3.1,7.7h6.2L326.6,94.9z
			"/>
		<path class="st0" d="M373,86.3h5.5v26.2H373l-12-17v17h-5.6V86.3h5.6l12,16.8V86.3z"/>
		<path class="st0" d="M415.6,87.7v6.4c-2.8-1.7-5.3-2.6-7.4-2.6s-3.8,0.7-5.1,2.2c-1.3,1.5-1.9,3.4-1.9,5.9c0,2.3,0.7,4.2,2,5.6
			s3.1,2.1,5.4,2.1c2,0,4.3-0.8,7.1-2.4v6.3c-3.1,1-5.6,1.5-7.7,1.5c-3.5,0-6.5-1.3-9-3.9s-3.7-5.7-3.7-9.5s1.3-7,3.8-9.6
			s5.6-3.9,9.1-3.9C410.5,85.9,413,86.5,415.6,87.7z"/>
		<path class="st0" d="M432.1,86.3h14.7v5.2h-9.1v5.3h9.1v5.1h-9.1v5.4h9.1v5.2h-14.7V86.3z"/>
	</g>
</g>
</svg>
