<?xml version="1.0" encoding="utf-8"?>
<!-- Generator: Adobe Illustrator 19.2.0, SVG Export Plug-In . SVG Version: 6.00 Build 0)  -->
<svg version="1.1" id="Layer_1" xmlns="http://www.w3.org/2000/svg" xmlns:xlink="http://www.w3.org/1999/xlink" x="0px" y="0px"
	 viewBox="0 0 500 500" style="enable-background:new 0 0 500 500;" xml:space="preserve">
<style type="text/css">
	.st0{fill:none;stroke:#60EAA5;stroke-miterlimit:10;}
	.st1{opacity:0.63;}
	.st2{fill:#80FFDB;}
	.st3{fill:none;stroke:#80FFDB;stroke-miterlimit:10;}
	.st4{opacity:0.72;fill:#80FFDB;enable-background:new    ;}
	.st5{opacity:0.63;fill:#80FFDB;enable-background:new    ;}
	.st6{opacity:0.33;fill:#60EAA5;enable-background:new    ;}
	.st7{fill:#5AFFB4;}
	.st8{opacity:0.46;fill:#80FFDB;enable-background:new    ;}
	.st9{enable-background:new    ;}
</style>
<g>
	
		<image style="overflow:visible;enable-background:new    ;" width="499" height="499" xlink:href="9389F13352C1CD2B.png"  transform="matrix(1 0 0 0.998 0.5 1)">
	</image>
	<g>
		<g>
			<line class="st0" x1="282.9" y1="214.2" x2="283.2" y2="214.8"/>
			<g class="st1">
				<path class="st2" d="M247.9,344.8v0.1c-1.7,0-3.3-0.1-5-0.1c-0.5,1-1.4,1.8-2.5,2v6.8c-0.4,0-1-0.1-1.5-0.2
					c-0.4-0.1-0.8-0.2-1.1-0.2L237,353c-0.3-0.1-0.7-0.1-1-0.1l-0.5-0.1c-0.4-0.1-0.8-0.1-1.2-0.2l-2.9-0.4
					c-0.7-0.1-1.4-0.2-2.2-0.4c-0.6-0.1-1.2-0.2-1.9-0.4c-1.3-0.2-2.6-0.5-4-0.9c-0.7-0.2-1.3-0.3-2-0.5l-2-0.5
					c-1.2-0.4-2.4-0.7-3.7-1.1c-1.6-0.5-3.3-1.1-5-1.7c-0.3-0.1-0.6-0.2-0.9-0.3l-0.2-0.1c-0.3-0.1-0.5-0.2-0.8-0.3
					c-0.5-0.2-1.1-0.4-1.6-0.7c-0.8-0.3-1.5-0.6-2.3-1c-0.1,0-0.1-0.1-0.2-0.1l-0.8-0.4c-0.6-0.3-1.1-0.5-1.7-0.8
					c-0.7-0.3-1.4-0.6-2.1-1c-0.7-0.4-1.5-0.8-2.2-1.2c-0.4-0.2-0.8-0.4-1.1-0.6l-0.1-0.1c-0.1,0-0.2-0.1-0.3-0.2
					c-1.1-0.6-2.4-1.3-3.6-2c-1-0.6-2-1.2-2.9-1.8c-0.4-0.2-0.8-0.5-1.2-0.8l-0.4-0.3c-0.9-0.6-1.8-1.2-2.6-1.8
					c-0.6-0.4-1.2-0.9-1.8-1.3c-0.4-0.2-0.7-0.5-1-0.8c-0.5-0.4-1-0.8-1.5-1.2l-0.5-0.4c-0.4-0.3-0.8-0.6-1.2-0.9l0.9-0.9
					c0.3,0.3,0.7,0.5,1,0.8l0.5,0.4c0.5,0.4,1,0.8,1.5,1.2c0.3,0.3,0.6,0.5,1,0.7c0.6,0.5,1.2,0.9,1.8,1.3c0.8,0.6,1.7,1.2,2.6,1.8
					l0.4,0.3c0.4,0.2,0.7,0.5,1.1,0.7c1,0.6,1.9,1.2,2.9,1.8c1.2,0.7,2.4,1.4,3.6,2.1l-0.1,0.7l0.2-0.6l0.2,0.1
					c0.4,0.2,0.7,0.4,1.1,0.6c0.8,0.4,1.5,0.8,2.2,1.2c0.7,0.4,1.4,0.7,2.1,1c0.6,0.3,1.1,0.5,1.6,0.8l1,0.4c0.8,0.3,1.6,0.7,2.3,1
					c0.5,0.2,1.1,0.5,1.6,0.7c0.3,0.1,0.5,0.2,0.8,0.3l0.2,0.1c0.3,0.1,0.6,0.2,0.9,0.3c1.6,0.6,3.3,1.2,4.9,1.7
					c1.2,0.4,2.4,0.7,3.6,1.1l2,0.5c0.6,0.2,1.3,0.3,1.9,0.5c1.4,0.4,2.7,0.7,4,0.9c0.6,0.1,1.2,0.3,1.8,0.4
					c0.7,0.1,1.4,0.3,2.1,0.4l2.8,0.4c0.4,0.1,0.8,0.1,1.2,0.2l0.5,0.1c0.3,0,0.7,0.1,1,0.1l0.8,0.1c0.2,0,0.5,0.1,0.8,0.1v-5.4
					c-1.4-0.4-2.4-1.7-2.4-3.2c0-1.9,1.5-3.4,3.4-3.4c1.5,0,2.9,1.1,3.2,2.5c1.6,0.1,3.2,0.1,4.8,0.1L247.9,344.8L247.9,344.8z"/>
			</g>
			<path class="st3" d="M248.8,139.6l-0.2-0.6h-0.3c-34.1,0.4-64.5,17-84.2,42c-1.7,2.2-3.4,4.4-4.9,6.7
				c-8.3,12.3-14.1,26.4-16.8,41.5c0,0.1,0,0.1,0,0.2c-1.1,6.2-1.6,12.5-1.6,18.9c0,0.9,0,1.7,0,2.6c0,0.2,0,0.4,0,0.6
				c0,0.6,0,1.3,0.1,1.9c0,0.4,0,0.8,0.1,1.2c0,0.7,0.1,1.5,0.1,2.2c0.1,1,0.2,2.1,0.3,3.1c0.1,0.6,0.1,1.2,0.2,1.8
				c0.1,1.1,0.3,2.2,0.5,3.4c0.2,1.4,0.5,2.7,0.7,4.1c0,0.1,0,0.2,0,0.2c0.1,0.5,0.2,0.9,0.3,1.4c0.2,0.8,0.3,1.6,0.5,2.4
				c0.2,0.7,0.4,1.5,0.5,2.2c0.2,0.8,0.4,1.6,0.7,2.5c0,0.1,0.1,0.2,0.1,0.3c0.2,0.8,0.5,1.6,0.7,2.4c0.2,0.6,0.3,1.1,0.5,1.7
				c0.1,0.3,0.2,0.5,0.3,0.8c0.1,0.4,0.3,0.8,0.4,1.1c0.6,1.6,1.2,3.2,1.8,4.8c0.5,1.2,1,2.3,1.5,3.4c0.3,0.6,0.6,1.2,0.8,1.8
				c0.3,0.6,0.6,1.2,0.9,1.8c0.6,1.2,1.2,2.4,1.8,3.6c0.3,0.5,0.6,1.1,0.9,1.6c0.4,0.6,0.7,1.2,1.1,1.8c0.3,0.6,0.7,1.2,1,1.7
				c0.4,0.6,0.7,1.1,1.1,1.7c0.3,0.4,0.5,0.8,0.8,1.2c0.1,0.2,0.3,0.4,0.4,0.7c0.3,0.5,0.8,1.6,1.2,2.1"/>
			<path class="st4" d="M359.4,248.9c0,21.9-6.7,43.6-17.6,60.7c-0.3,0.4-0.6,0.9-0.9,1.3c-0.4,0.6-0.8,1.1-1.2,1.7l0,0
				c-5.3,7.7-11.5,14.3-18.4,19.5l-4.7-4.6l0,0l-1.5-1.4l-4.4-4.3l0,0l-1.5-1.5l0,0l-4.6-4.5l-1.5-1.5l-3.5-3.4l0,0l-1.5-1.4l0,0
				L287,298.7l-1.6-1.6L275.1,287l-3.2-3.1l-22.7-21.2l-0.6-0.6v-33l-0.1-3.7v-2.1v-84.5h1.2c47.8,0,88.1,30.3,103.2,72.8
				c0.3,0.9,0.6,1.7,0.9,2.5C357.5,224.9,359.4,236.8,359.4,248.9z"/>
			<g id="lines_9_">
				<g>
					<path class="st2" d="M299.1,311.8c-1.7,1.4-3.4,2.6-5.2,3.9l0,0c-1.5,1-2.9,1.9-4.4,2.8c-0.7,0.4-1.5,0.9-2.2,1.2
						c-0.8,0.5-1.6,0.9-2.4,1.3l0,0c-6.8,3.5-14.1,6-21.7,7.5c-0.2,1.6-1.6,2.9-3.3,2.9c-1.9,0-3.4-1.5-3.4-3.3s1.4-3.2,3.1-3.3
						c0.1,0,0.2,0,0.3,0c0.2,0,0.3,0,0.5,0c1.1,0.1,1.9,0.7,2.4,1.6c0,0,0,0,0.1,0c12.8-2.4,24.7-7.9,34.8-16.1l0,0L299.1,311.8z"/>
					<path class="st2" d="M308.8,321.4l1.5,1.5c-3.3,2.8-6.8,5.3-10.4,7.7c-0.6,0.4-1.1,0.7-1.7,1c0.1,0.4,0.1,0.6,0.1,1
						c0,1.9-1.5,3.3-3.3,3.3c-1.9,0-3.4-1.5-3.4-3.3c0-1.9,1.5-3.4,3.4-3.4c0.8,0,1.4,0.2,1.9,0.6c0.6-0.3,1.1-0.7,1.6-1
						C302.2,326.4,305.6,323.9,308.8,321.4L308.8,321.4z"/>
					<g>
						<path class="st2" d="M316.3,328.6c-10.2,8.8-21.9,15.6-34.7,20l-0.3-1l-0.2,0.1l-2.7-8c-8,2.7-16.3,4.3-24.8,4.9v0.1l0.6,7.6
							c2.3,0,8.3-0.3,14.1-1.8c0-0.1,0-0.2,0-0.2c0.2-1.6,1.6-2.9,3.2-2.9c1.8,0,3.2,1.3,3.4,3.1c0,0.1,0,0.2,0,0.3
							c0,0.1,0,0.2,0,0.3c-0.2,1.7-1.6,3-3.4,3c-1.2,0-2.2-0.6-2.8-1.5c-6.9,1.8-14,1.8-15.4,1.8c-0.1,0-0.2,0-0.2,0h-1l-0.8-9.5
							v-0.1c-1.3,0.1-2.6,0.1-3.8,0.1l0,0v-2.1c10.3,0,20.5-1.7,30.1-5l-2.3-6.6l0.1-0.1l-0.1-0.5c10-3.5,19.3-8.7,27.3-15.4
							l1.5,1.5c-7.8,6.6-16.7,11.7-26.3,15.3l4.9,14.1c11.7-4.3,22.6-10.7,32.1-18.9L316.3,328.6z"/>
						<rect x="247.5" y="342.9" class="st5" width="0" height="2"/>
					</g>
					<circle class="st2" cx="259.8" cy="327.9" r="1.7"/>
					<circle class="st2" cx="271.5" cy="350.8" r="1.7"/>
					<circle class="st2" cx="295.1" cy="332.4" r="1.7"/>
				</g>
				<g class="st1">
					<path class="st2" d="M212.4,320.4l-4,8c-0.7-0.3-1.4-0.7-2-1l3-5.9c-2.3-1.2-7.8-4.5-12.5-9l1.6-1.6c5.7,5.4,12.8,9,12.9,9
						L212.4,320.4z"/>
				</g>
				<g>
					<circle class="st2" cx="259.3" cy="286.8" r="1"/>
					<path class="st2" d="M286.4,299.4l-1.5-1.5c-3.3,2.4-6.8,4.5-10.5,6.4l-2.1-4c1.5-0.7,4.5-2.2,9.4-5.5l-1.5-1.5
						c-6.8,4.4-9.6,5.5-9.6,5.5l-1.2,0.4l1.5,2.9c-5.9,2.7-14.3,3.7-17.3,4l-0.5-7.6c1-0.1,2.6-0.3,4.4-0.6l0.9,2.7l2-0.7l-0.8-2.3
						c0.7-0.1,1.4-0.3,2.1-0.5l0.8,2.3l2-0.7l-0.8-2.2c0.8-0.3,1.7-0.5,2.5-0.8l0.8,2.3l2-0.7l-0.8-2.4c0.5-0.2,0.9-0.4,1.3-0.6
						l1.3,2.2l1.8-1l-2.4-4.1l-0.9,0.6c-5.9,3.6-17.4,4.6-17.5,4.6l-1,0.1l0.7,11.7l1-0.1c0.5,0,11.5-0.8,19.2-4.3l0.6,1.2
						c-7.5,3.2-15.8,5-24.5,5c-0.2,0-0.3,0-0.6,0v2.1c0.2,0,0.3,0,0.6,0C262.4,312.2,275.7,307.4,286.4,299.4z"/>
					<path class="st2" d="M259.8,284.6l-2.4-8.1l-1,0.2c-3.4,0.8-6.5,1-9,1v2.1c2.4-0.1,5.3-0.3,8.5-0.9l1.8,6.2
						c-0.4,0.4-0.7,1-0.7,1.6c0,1.2,1,2.2,2.2,2.2s2.2-1,2.2-2.2C261.5,285.8,260.8,284.9,259.8,284.6z M260.3,287.1L260.3,287.1
						c-0.1,0.1-0.2,0.2-0.2,0.3l-0.2,0.2l0,0c0,0-0.1,0-0.1,0.1c0,0,0,0-0.1,0l0,0l0,0l0,0l0,0c-0.1,0-0.1,0-0.2,0
						c-0.1,0-0.1,0-0.2,0c-0.2,0-0.3,0-0.4-0.1c-0.1,0-0.1-0.1-0.2-0.1c-0.1-0.1-0.1-0.1-0.2-0.2c0,0-0.1,0-0.1-0.1l0,0
						c0-0.1-0.1-0.1-0.1-0.2v-0.1c0-0.1,0-0.1-0.1-0.2c0-0.1,0-0.1,0-0.2s0-0.2,0-0.2v-0.1l0,0l0,0l0,0c0,0,0,0,0-0.1c0,0,0,0,0-0.1
						c0,0,0-0.1,0.1-0.1c0-0.1,0.1-0.1,0.1-0.1l0,0l0,0l0.1-0.1l0,0l0,0c0.1,0,0.1-0.1,0.1-0.1c0.1,0,0.1,0,0.2-0.1
						c0.1,0,0.1,0,0.2,0s0.1,0,0.2,0c0.1,0,0.1,0,0.2,0.1l0,0l0,0c0,0,0,0,0.1,0c0,0,0.1,0,0.1,0.1c0.1,0,0.1,0.1,0.2,0.1
						c0.1,0.1,0.2,0.2,0.2,0.3c0.1,0.1,0.1,0.3,0.1,0.4C260.4,286.9,260.3,287,260.3,287.1z"/>
					<path class="st2" d="M252.3,287.5l-0.6-2c-1.4,0.4-2.9,0.6-4.3,0.6v2.1C249,288.2,250.7,288,252.3,287.5z"/>
					<path class="st2" d="M247.4,292.6v2.1c0.2,0,0.3,0,0.6,0c9.5,0,18.3-2.9,25.7-7.8l-1.5-1.5c-6.9,4.5-15.2,7.1-24.1,7.1
						C247.8,292.6,247.6,292.6,247.4,292.6z"/>
					<path class="st5" d="M211,297.6L211,297.6L211,297.6L211,297.6L211,297.6z"/>
					<path class="st5" d="M212.5,298.8c-0.2-0.2-0.5-0.3-0.7-0.5l0,0C212,298.4,212.2,298.5,212.5,298.8z"/>
					<path class="st5" d="M247.4,292.6l-0.1,2.1c-9.6-0.1-16.9-2.6-24.4-7.3l1.6-1.5c3.4,2,5.6,3.2,9.5,4.4l3.5-14.3l1.1,0.4
						c0,0.1,3.3,1.2,8.7,1.2v2.1c-4,0-6.9-0.6-8.4-1l-1.4,5.7c1.7,0.5,5.7,1.7,9.8,1.6v2.1h-0.5c-4.1,0-7.9-1-9.8-1.7l-1,4.5
						C239.7,292,243.5,292.6,247.4,292.6z"/>
				</g>
			</g>
			<path class="st6" d="M138.5,335.9c-0.4-0.5-0.8-1.1-1.3-1.7c-0.1,0-0.1-0.1-0.1-0.1l0,0C137.6,334.8,138.1,335.4,138.5,335.9z"/>
			<path class="st7" d="M299.4,311.8c0.2-0.1,0.3-0.2,0.4-0.4C299.7,311.5,299.5,311.6,299.4,311.8L299.4,311.8z"/>
			<path class="st2" d="M249.1,139c-0.2,0-0.4,0-0.6,0l0,0v84.1l0,0l91.2,89.5c12.6-17.9,19.9-39.7,19.9-63.3
				C359.6,188.4,310.1,139,249.1,139z"/>
			<path class="st8" d="M387.7,249.9c0,76-61.7,137.7-137.7,137.7h-1.6v-20.2c-0.6,0-1.4-0.1-1.9-0.1c-15.3-1.5-30.2-5.7-44.2-12.2
				l-5,10.4l-3-1.4c-11.1-5.5-21.6-12.6-31.1-20.8l-7.8-7.4l-1.9,16.6c-0.1-0.1-0.2-0.2-0.3-0.3c-0.6-0.5-1.1-1-1.6-1.6
				c-0.1-0.1-0.3-0.3-0.5-0.5c-0.5-0.5-1-1-1.4-1.4c-0.2-0.2-0.4-0.4-0.6-0.6c-0.5-0.6-1.1-1.2-1.6-1.8l-0.3-0.3
				c-0.6-0.7-1.3-1.4-1.9-2.1c-0.1-0.1-0.2-0.2-0.3-0.3c-0.5-0.6-1.1-1.3-1.6-1.9c-0.1-0.1-0.2-0.2-0.3-0.3
				c-1.3-1.5-2.5-3.1-3.8-4.7l-0.1-0.1c-0.2-0.2-0.3-0.4-0.5-0.6l-0.1-0.1c-0.4-0.6-0.9-1.2-1.3-1.8
				c-38.5-54.7-33.5-130.9,15.1-179.9l2.7,2.9c-0.1,0-0.1,0-0.2-0.1c-47,47.6-52,121.3-14.9,174.3l5-4.9l7-6.9l1.9-1.9l3.2-3.3
				l1.4-1.4c0,0,0,0,0,0.1l24.7-24.8l0.2-0.2l8.1-8.1l1.4-1.4l0.5-0.5l0.9-0.9l2-2l11.6-11.7l1.4-1.5l20.6-20.6l18.6-18.6l0.1,38.7
				l-13.7,13l-2.1,2l-21.9,20.8l0,0l-0.2,0.2l-0.9,0.9l-0.7,0.6l-0.1,0.1l-10.8,10.3l-2.1,2l-16.3,15.5c-0.1-0.1-0.1-0.1-0.2-0.1
				l-0.8,1c0,0,0,0,0.1,0.1l-2.9,2.7l-2.7,2.5l-3.2,3.1l-3.4,3.4l-1.4,1.4l0.8,0.7c9,7.7,18.9,14.2,29.4,19.4l4.8-9.8l0.2,0.1
				l0.4-0.7c14.3,7,29.7,11.5,45.5,13.2l2.2,0.1h0.9c63,0,114.1-51.1,114.1-114.1s-51.1-114.1-114.1-114.1l-1.2-0.1v-23.6h1.7
				c24.5,0,53.1,7.7,73.5,20.9l-1.4,14.4l12.3-4.8l1.2,8l7.1-2.6C370.3,173.4,387.6,209.7,387.7,249.9z"/>
			<g class="st1">
				<path class="st2" d="M211,297.6l-0.2,0.2l-0.9,0.9l-0.7,0.7l0,0l0.7-0.6l0.9-0.9L211,297.6L211,297.6z"/>
				<path class="st2" d="M247.3,310.1v2.1h-0.1c-11.2-0.1-21.6-2.9-30.7-8l0,0c-0.7-0.4-1.4-0.8-2-1.2c-0.4-0.3-0.9-0.5-1.3-0.8
					c-0.6-0.4-1.2-0.8-1.8-1.2c-0.5-0.4-1-0.8-1.5-1.1l0.7-0.7l0.9-0.9l0.2-0.2c0.2,0.2,0.5,0.3,0.7,0.5c0,0,0,0,0.1,0
					c1.7,1.2,3.4,2.3,5.2,3.3c0.4,0.2,0.8,0.5,1.2,0.7c0.1,0,0.1,0.1,0.2,0.1c0.1,0,0.1,0.1,0.2,0.1c6.2,3.4,13,5.6,20.3,6.6v-0.3
					l0.9-7.1c-3.8-0.6-15.9-2.3-23.1-9.5l1.5-1.4c7.7,7.7,22.7,8.9,22.8,8.9l1,0.1l-1.2,9.2v0.2C243.6,310,245.5,310.1,247.3,310.1z
					"/>
				<path class="st2" d="M209.2,299.4L209.2,299.4C209.1,299.4,209.1,299.4,209.2,299.4L209.2,299.4L209.2,299.4z"/>
				<path class="st2" d="M213.3,302.2c-1.1-0.7-2.3-1.5-3.4-2.3l0.1-0.1c0.5,0.4,1,0.8,1.5,1.1C212.1,301.4,212.7,301.9,213.3,302.2
					z"/>
				<path class="st2" d="M217.8,302l-0.1,0.1c-1.8-1-3.5-2.1-5.2-3.3C214.2,299.9,216,301,217.8,302z"/>
			</g>
			<path class="st5" d="M249.4,324.6l-0.1,12.1c-0.8,0.1-1.5,0.1-2.3,0.1l0.1-9.9l-6.4,0.1v4.2h-1.1c-0.3,0-3.5-0.2-7.9-0.8l-1,5.6
				c-0.8-0.1-1.5-0.2-2.2-0.3l1-5.6c-4.6-0.8-10.1-2.2-14.9-4.3l-0.8-0.4l1.1-4.9c-0.7-0.5-1.2-1.4-1.2-2.3c0-1.6,1.3-2.8,2.8-2.8
				c1.6,0,2.8,1.3,2.8,2.8c0,1.4-1,2.5-2.3,2.8l0,0l-0.7,3.2c8,3.6,18.6,4.5,22.1,4.8v-6.7c0.8,0.1,1.5,0.1,2.1,0.2v2.5L249.4,324.6
				z"/>
		</g>
	</g>
</g>
<g class="st9">
	<path class="st2" d="M23.6,477.3l4.2-1.7c0.4-3.9,2.2-7.8,5.2-10.8c7.1-7,18.5-7,25.5,0l-2.7,2.7c-5.5-5.5-14.5-5.5-20,0
		c-1.8,1.8-3.1,4.1-3.7,6.4l2.2-0.9l1,3.8c-3.9,1.3-8.6,3.5-10.2,4.2L23.6,477.3z M36.1,480.6l1,3.8l-2.9,1.2c0.5,0.6,1,1.2,1.6,1.8
		c5.5,5.5,14.4,5.6,20,0l2.7,2.7c-7,7-18.4,7-25.4,0c-1-1-1.8-2-2.5-3.1l-3.1,1.2l-1.2-3.7C30.6,482.8,31.7,482.4,36.1,480.6z"/>
	<path class="st2" d="M98.1,470.9l-34.6,9.3c-1.4-9,4.2-17.8,13.2-20.2C85.6,457.6,94.8,462.4,98.1,470.9z M64.5,483.8l34.6-9.3
		c1.4,9-4.2,17.8-13.2,20.2C77,497.1,67.7,492.3,64.5,483.8z M67.3,475.1l25-6.7c-3.4-4.2-9.1-6.3-14.6-4.8
		C72,465.2,68.1,469.8,67.3,475.1z M95.3,479.6l-25,6.7c3.4,4.2,9.1,6.2,14.7,4.8C90.5,489.5,94.4,484.9,95.3,479.6z"/>
	<path class="st2" d="M111.5,483.6l-1.8,3.5l-2.7-0.7l-5.1,9h-4.4l5.7-10l-3.1-0.8l1.8-3.5L111.5,483.6z M139.9,476.7l2.4-0.6
		l-4.8-8.8l-9.9,17.7l-9.9-17.7l-4.9,8.8l2.4,0.6l-1.8,3.5l-9.6-2.6l1.9-3.5l3.3,0.9l8.7-15.6l9.9,17.6l9.9-17.6l8.6,15.6l3.3-0.9
		l1.9,3.5l-9.6,2.6L139.9,476.7z M155,484.5l-3.1,0.8l5.7,10h-4.4l-5.1-9l-2.7,0.7l-1.8-3.5l9.6-2.6L155,484.5z"/>
	<path class="st2" d="M166.2,476.8l2.4-1.3v4.5c-1.4,0.8-3.4,1.9-6.2,3.5v-24.1h9.6c7,0,12.7,5.7,12.7,12.7c0,4.5-2.4,8.4-5.9,10.7
		c-0.5,0.3-0.8,0.5-12.6,7.3v5.3h-3.8v-7.5L176,480c3.1-1.8,4.8-4.7,4.8-7.9c0-4.9-4-8.9-8.9-8.9h-5.8V476.8z"/>
	<path class="st2" d="M221.8,480.5l8.4,14.9h-4.4L220,485l-23.8,6.4l-2.3,4h-4.4l4.1-7.2L221.8,480.5z M196.3,483.4l13.6-24.1
		l10,17.7L196.3,483.4z M209.9,467.1l-5.8,10.2l10-2.7L209.9,467.1z"/>
	<path class="st2" d="M252.1,474.7l-6.2,1.7l-7-7.4v26.4H235v-36l12,12.7l2.9-0.8L252.1,474.7z M246.7,480.1l6.4-1.7l7.1,7.4v-26.4
		h3.8v36l-12.1-12.7l-2.6,0.7L246.7,480.1z"/>
	<path class="st2" d="M285.1,476.4l-3.2,5.6l-13.1-22.7h4.4l8.6,15l1-1.8L285.1,476.4z M285.7,483.2l13.7-23.8h4.5l-14.4,24.9v11.1
		h-3.8V483.2z"/>
	<path class="st2" d="M338.2,478.9v12.6H355v3.8h-20.6v-11.5l-1.7,0.5v-4L338.2,478.9z M334.3,476v-16.6h3.8v11.5l2.4-0.6v4
		L334.3,476z"/>
	<path class="st2" d="M394.6,470.9l-34.6,9.3c-1.4-9,4.2-17.8,13.2-20.2C382.1,457.6,391.4,462.4,394.6,470.9z M361,483.8l34.6-9.3
		c1.4,9-4.2,17.8-13.2,20.2C373.5,497.1,364.3,492.3,361,483.8z M363.8,475.1l25-6.7c-3.4-4.2-9.1-6.3-14.6-4.8
		C368.6,465.2,364.7,469.8,363.8,475.1z M391.8,479.6l-25,6.7c3.4,4.2,9.1,6.2,14.7,4.8C387,489.5,390.9,484.9,391.8,479.6z"/>
	<path class="st2" d="M400.7,477.3l4.2-1.7c0.4-3.9,2.2-7.8,5.2-10.8c7.1-7,18.5-7,25.5,0l-2.7,2.7c-5.5-5.5-14.5-5.5-20,0
		c-1.8,1.8-3.1,4.1-3.7,6.4l2.2-0.9l1,3.8c-3.9,1.3-8.6,3.5-10.2,4.2L400.7,477.3z M413.2,480.6l1,3.8l-2.9,1.2
		c0.5,0.6,1,1.2,1.6,1.8c5.1,5.2,13.2,5.5,18.9,1.1v-9.3h3.8v10.9c-7,7-18.4,7-25.4,0c-1-1-1.8-2-2.5-3.1l-3.1,1.2l-1.2-3.7
		C407.7,482.8,408.8,482.4,413.2,480.6z"/>
	<path class="st2" d="M475.2,470.9l-34.6,9.3c-1.4-9,4.2-17.8,13.2-20.2C462.6,457.6,471.9,462.4,475.2,470.9z M441.6,483.8
		l34.6-9.3c1.4,9-4.2,17.8-13.2,20.2C454,497.1,444.8,492.3,441.6,483.8z M444.4,475.1l25-6.7c-3.4-4.2-9.1-6.3-14.6-4.8
		C449.1,465.2,445.2,469.8,444.4,475.1z M472.3,479.6l-25,6.7c3.4,4.2,9.1,6.2,14.7,4.8C467.6,489.5,471.5,484.9,472.3,479.6z"/>
</g>
</svg>
