<?xml version="1.0" encoding="utf-8"?>
<!-- Generator: Adobe Illustrator 19.1.0, SVG Export Plug-In . SVG Version: 6.00 Build 0)  -->
<svg version="1.1" id="Capa_1" xmlns="http://www.w3.org/2000/svg" xmlns:xlink="http://www.w3.org/1999/xlink" x="0px" y="0px"
	 viewBox="-412.6 115 571.6 572" style="enable-background:new -412.6 115 571.6 572;" xml:space="preserve">
<path d="M-127,687c-76.4,0-148.2-29.7-202.2-83.8c-54-54-83.8-125.8-83.8-202.2s29.7-148.2,83.8-202.2c54-54,125.8-83.8,202.2-83.8
	s148.2,29.7,202.2,83.8c54,54,83.8,125.8,83.8,202.2s-29.7,148.2-83.8,202.2S-50.6,687-127,687z M-127,135
	c-71.1,0-137.8,27.7-188.1,77.9S-393,329.9-393,401c0,71.1,27.7,137.8,77.9,188.1c50.2,50.2,117,77.9,188.1,77.9
	c71.1,0,137.8-27.7,188.1-77.9c50.2-50.2,77.9-117,77.9-188.1c0-71.1-27.7-137.8-77.9-188.1C10.8,162.7-55.9,135-127,135z"/>
<path d="M17,273c8.8,0,16,7.2,16,16v48c0,17.6-14.4,32-32,32h-64c-17.6,0-32-14.4-32-32h-64c0,17.6-14.4,32-32,32h-64
	c-17.6,0-32-14.4-32-32v-48c0-8.8,7.2-16,16-16h96c8.8,0,16,7.2,16,16v16h64v-16c0-8.8,7.2-16,16-16H17z"/>
<path d="M-127,529c46.6,0,87.4-24.9,109.8-62.1l27.4,16.5c-28,46.5-79,77.7-137.2,77.7c-24.2,0-47.2-5.4-67.8-15l16.6-27.6
	C-162.5,525.2-145.2,529-127,529z"/>
</svg>
