<?xml version="1.0" encoding="utf-8"?>
<!-- Generator: Adobe Illustrator 19.1.0, SVG Export Plug-In . SVG Version: 6.00 Build 0)  -->
<svg version="1.1" id="Capa_1" xmlns="http://www.w3.org/2000/svg" xmlns:xlink="http://www.w3.org/1999/xlink" x="0px" y="0px"
	 viewBox="-542.2 -112.6 1029.1 1029.1" style="enable-background:new -542.2 -112.6 1029.1 1029.1;" xml:space="preserve">
<g>
	<g id="linkedin">
		<g>
			<path d="M-199.4,267.5h-115.9c-7.9,0-14.4,6.4-14.4,14.4v405.3c0,7.9,6.4,14.4,14.4,14.4h115.9c7.9,0,14.4-6.4,14.4-14.4V281.9
				C-185.1,273.9-191.5,267.5-199.4,267.5z M-213.8,672.8H-301V296.2h87.2V672.8z M123.8,262.6c-56.3,0-93.1,24.3-114.5,45.4
				l-2.6-27.5c-0.7-7.4-6.9-13-14.3-13h-0.3l-105.7,2c-3.9,0.1-7.6,1.7-10.2,4.5c-2.7,2.8-4.1,6.6-3.9,10.5
				c1.3,29.6,1.3,64.2,1.2,104.2l0,300.4c0,7.9,6.4,14.4,14.4,14.4H3.8c7.9,0,14.4-6.4,14.4-14.4V454.9c0-12,1-20.6,3.1-25.8
				c7.2-18.4,31.1-37.4,58.4-37.4c35.5,0,56.6,27,56.6,72.2v225.3c0,7.9,6.4,14.4,14.4,14.4h113.9c7.9,0,14.4-6.4,14.4-14.4v-240
				C279,332.3,221,262.6,123.8,262.6z M250.3,674.8h-85.2V463.9c0-61.3-33.5-100.9-85.4-100.9c-41.1,0-74.6,28.7-85.1,55.6
				c-3.5,8.7-5.1,20.3-5.1,36.3v219.9h-87.2l0-286c0-34,0.1-64.1-0.7-90.8l77.8-1.5l4.5,46.3c0.7,7.4,6.9,13,14.3,13h2.4
				c5,0,9.6-2.5,12.2-6.8c8.5-13.5,41.5-57.7,111.1-57.7c80.4,0,126.4,57.5,126.4,157.9L250.3,674.8L250.3,674.8L250.3,674.8z
				 M-252.5,98.5c-46.6,0-80.5,32.1-80.5,76.4c0,44.3,33.2,76.4,78.9,76.4c47.1,0,81.3-32.1,81.3-76.7
				C-173.9,129.8-206.7,98.5-252.5,98.5z M-254.1,222.5c-29.5,0-50.1-19.6-50.1-47.6c0-28.5,20.8-47.7,51.7-47.7
				c30.3,0,50.3,18.8,50.9,47.7C-201.6,203.4-222.7,222.5-254.1,222.5z"/>
		</g>
	</g>
</g>
<g>
	<path d="M471.8,401l-14.4,0c0,66.9-13.6,130.6-38.1,188.5c-36.8,86.9-98.2,160.9-175.5,213.1C166.5,854.9,73.4,885.4-27,885.4
		c-66.9,0-130.6-13.6-188.5-38.1c-86.9-36.8-160.9-98.2-213.1-175.5c-52.2-77.3-82.7-170.5-82.7-270.8c0-66.9,13.6-130.6,38.1-188.5
		c36.8-86.9,98.2-160.9,175.5-213.1C-220.5-52.9-127.4-83.4-27-83.4c66.9,0,130.6,13.6,188.5,38.1c86.9,36.8,160.9,98.2,213.1,175.5
		c52.2,77.3,82.7,170.5,82.7,270.8L471.8,401h14.4c0-70.8-14.4-138.3-40.3-199.7c-39-92.1-104-170.4-185.9-225.7
		C178-79.8,79.2-112.1-27-112.1c-70.8,0-138.3,14.4-199.7,40.3c-92.1,39-170.4,104-225.7,185.9c-55.3,81.9-87.6,180.7-87.6,286.9
		c0,70.8,14.4,138.3,40.3,199.7c39,92.1,104,170.4,185.9,225.7c81.9,55.3,180.7,87.6,286.9,87.6c70.8,0,138.3-14.4,199.7-40.3
		c92.1-39,170.4-104,225.7-185.9c55.3-81.9,87.6-180.7,87.6-286.9L471.8,401z"/>
</g>
</svg>
