<?xml version="1.0" encoding="utf-8"?>
<!-- Generator: Adobe Illustrator 19.1.0, SVG Export Plug-In . SVG Version: 6.00 Build 0)  -->
<svg version="1.1" id="Capa_1" xmlns="http://www.w3.org/2000/svg" xmlns:xlink="http://www.w3.org/1999/xlink" x="0px" y="0px"
	 viewBox="-180 271.4 250.6 250.6" style="enable-background:new -180 271.4 250.6 250.6;" xml:space="preserve">
<style type="text/css">
	.st0{fill:#356966;}
</style>
<g id="Menu">
	<path class="st0" d="M-157.6,340.3H48.2c12.4,0,22.4-10,22.4-22.4s-10-22.4-22.4-22.4h-205.8c-12.4,0-22.4,10-22.4,22.4
		S-170,340.3-157.6,340.3z M48.2,367.1h-205.8c-12.4,0-22.4,10-22.4,22.4s10,22.4,22.4,22.4H48.2c12.4,0,22.4-10,22.4-22.4
		C70.6,377.2,60.6,367.1,48.2,367.1z M48.2,438.7h-205.8c-12.4,0-22.4,10-22.4,22.4s10,22.4,22.4,22.4H48.2
		c12.4,0,22.4-10,22.4-22.4S60.6,438.7,48.2,438.7z"/>
</g>
</svg>
