<?xml version="1.0" encoding="utf-8"?>
<!-- Generator: Adobe Illustrator 19.1.0, SVG Export Plug-In . SVG Version: 6.00 Build 0)  -->
<svg version="1.1" id="Capa_1" xmlns="http://www.w3.org/2000/svg" xmlns:xlink="http://www.w3.org/1999/xlink" x="0px" y="0px"
	 viewBox="-180 271.4 250.6 250.6" style="enable-background:new -180 271.4 250.6 250.6;" xml:space="preserve">
<style type="text/css">
	.st0{fill:#FFFFFF;}
</style>
<g id="Menu">
	<path class="st0" d="M-157.6,347.5H48.2c12.4,0,22.4-10,22.4-22.4s-10-22.4-22.4-22.4h-205.8c-12.4,0-22.4,10-22.4,22.4
		S-170,347.5-157.6,347.5z M48.2,374.3h-205.8c-12.4,0-22.4,10-22.4,22.4s10,22.4,22.4,22.4H48.2c12.4,0,22.4-10,22.4-22.4
		C70.6,384.4,60.6,374.3,48.2,374.3z M48.2,445.9h-205.8c-12.4,0-22.4,10-22.4,22.4s10,22.4,22.4,22.4H48.2
		c12.4,0,22.4-10,22.4-22.4S60.6,445.9,48.2,445.9z"/>
</g>
</svg>
