<?xml version="1.0" encoding="utf-8"?>
<!-- Generator: Adobe Illustrator 19.1.0, SVG Export Plug-In . SVG Version: 6.00 Build 0)  -->
<svg version="1.1"
	 id="svg3120" xmlns:cc="http://creativecommons.org/ns#" xmlns:dc="http://purl.org/dc/elements/1.1/" xmlns:inkscape="http://www.inkscape.org/namespaces/inkscape" xmlns:rdf="http://www.w3.org/1999/02/22-rdf-syntax-ns#" xmlns:sodipodi="http://sodipodi.sourceforge.net/DTD/sodipodi-0.dtd" xmlns:svg="http://www.w3.org/2000/svg"
	 xmlns="http://www.w3.org/2000/svg" xmlns:xlink="http://www.w3.org/1999/xlink" x="0px" y="0px" viewBox="-244 318.4 122.5 157.6"
	 style="enable-background:new -244 318.4 122.5 157.6;" xml:space="preserve">
<style type="text/css">
	.st0{fill:#FFFFFF;}
</style>
<g id="layer7" transform="translate(-273.27313,-435.95455)">
	<path id="path3993" class="st0" d="M42.6,873.9v23.2h5.9v-6l5.4,5.4h9.1l-7.2-7.2c0,0,5.2-0.1,5.6-7.6c0-6.9-5.2-7.8-11.2-7.8H42.6
		z M48.8,880.2h5.1v4.1h-5.1V880.2z"/>
	<path id="path3997" class="st0" d="M74.3,874c-3.2,0-7.7,0.3-7.7,6.4v16.1h6.1v-3.9h5.9v3.8h6.1v-16.9c0-5.3-5.9-5.5-9-5.5
		C75.2,874,74.8,874,74.3,874z M72.8,879.8h5.7v6.3h-5.7V879.8z"/>
	<rect id="rect4001" x="90.7" y="874" class="st0" width="6.3" height="22.2"/>
	<path id="path4003" class="st0" d="M103.6,874.3v22.2h15.1v-5.9h-8.9v-16.4L103.6,874.3z"/>
	<path id="path4005" class="st0" d="M138.7,874.1v6h-10.1v2.2c0,0,2.1,0,4.3,0s7-0.1,7,7c0,7.1-3.2,7.4-9.8,7.4c-6.6,0-7.9,0-7.9,0
		v-5.4c0,0,6.4,0,9.1,0s2.9-0.9,2.9-1.7s-1.4-1.1-4.3-1.1s-8.1-1.4-8.1-6.9s2.7-7.5,8.2-7.5S138.7,874.1,138.7,874.1L138.7,874.1z"
		/>
</g>
<g id="layer6" transform="translate(-273.27313,-435.95455)">
	<path id="path3966" class="st0" d="M48.1,867.4h52.1c0,0-11.6-26.3-8.6-50.4c2.9-24.1,22-35.1,32.7-36.3
		c10.8-1.2,16.7,5.5,16.7,5.5l2.4-3.5c0,0-15.5-15.7-35.1-13.9c-19.6,1.8-33.1,14.7-41.6,30.4c-8.4,15.7-13.3,26.7-16.7,43.1
		S48.1,867.4,48.1,867.4z"/>
	<path id="path3968" class="st0" d="M37.7,841.1l10.2,0.8l-1.8,10.2l-9.6-1.2L37.7,841.1z"/>
	<path id="path3970" class="st0" d="M53.8,819.5l2.7-7.6l-9-3.5l-2.9,8.2L53.8,819.5z"/>
	<path id="path3972" class="st0" d="M66.5,793.3l5.3-6.3l-6.9-4.5l-5.5,6.1L66.5,793.3z"/>
	<path id="path3974" class="st0" d="M80.4,769l4.7,5.7l6.5-3.7l-4.7-5.3L80.4,769z"/>
	<path id="path3976" class="st0" d="M103.4,762.5l1.2,5.7l8-0.2l-0.8-5.1L103.4,762.5z"/>
	<path id="path3978" class="st0" d="M130.6,768.6l-0.2,3.5l5.5,2.9l1.2-1.8L130.6,768.6z"/>
	<path id="path3980" class="st0" d="M129.4,783.7v2.9l5.3,0.6v-2.4L129.4,783.7z"/>
	<path id="path3982" class="st0" d="M112.6,786.2l2.5,4.7l3.7-2.9l-0.8-3.1L112.6,786.2z"/>
	<path id="path3984" class="st0" d="M104.5,792.3l3.9,5.9l-2.4,4.1l-5.7-6.3L104.5,792.3z"/>
	<path id="path3986" class="st0" d="M96.7,808.6l-2.5,5.1l6.7,5.7l1.6-6.5L96.7,808.6z"/>
	<path id="path3988" class="st0" d="M94,826.4l-0.4,6.9l8.2,3.5l-0.4-6.5L94,826.4z"/>
	<path id="path3990" class="st0" d="M96.3,850.7l2,7.1l10.4,0.6l-3.7-7.6H96.3z"/>
</g>
</svg>
