<?xml version="1.0" encoding="utf-8"?>
<!-- Generator: Adobe Illustrator 19.2.0, SVG Export Plug-In . SVG Version: 6.00 Build 0)  -->
<svg version="1.1" id="Layer_1" xmlns="http://www.w3.org/2000/svg" xmlns:xlink="http://www.w3.org/1999/xlink" x="0px" y="0px"
	 viewBox="0 0 706 498" style="enable-background:new 0 0 706 498;" xml:space="preserve">
<style type="text/css">
	.st0{enable-background:new    ;}
	.st1{fill:#80FFDB;}
	.st2{fill:none;stroke:#60EAA5;stroke-miterlimit:10;}
	.st3{opacity:0.63;}
	.st4{fill:none;stroke:#80FFDB;stroke-miterlimit:10;}
	.st5{opacity:0.72;fill:#80FFDB;enable-background:new    ;}
	.st6{opacity:0.63;fill:#80FFDB;enable-background:new    ;}
	.st7{opacity:0.33;fill:#60EAA5;enable-background:new    ;}
	.st8{fill:#5AFFB4;}
	.st9{opacity:0.46;fill:#80FFDB;enable-background:new    ;}
</style>
<g class="st0">
	<path class="st1" d="M16.1,446.4c4.5,0,8.1-3.6,8.1-8V432l3.8-1v7.3c0,6.6-5.3,11.9-11.9,11.9c-5.6,0-10.2-3.7-11.5-8.9l-2.2,0.6
		v-4l5.7-1.5v2.1C8.1,442.6,11.6,446.4,16.1,446.4z M8.1,432.4l-3.8,1.1v-19.3h3.8V432.4z M24.2,414.2H28v8.8l2.1-0.6v4l-5.9,1.6
		V414.2z"/>
	<path class="st1" d="M38.7,431.7l2.4-1.3v4.5c-1.4,0.8-3.4,1.9-6.2,3.5v-24.1h9.6c7,0,12.7,5.7,12.7,12.7c0,4.5-2.4,8.4-5.9,10.7
		c-0.5,0.3-0.8,0.5-12.6,7.3v5.3h-3.8v-7.5l13.6-7.9c3.1-1.8,4.8-4.7,4.8-7.9c0-4.9-4-8.9-8.9-8.9h-5.8V431.7z"/>
	<path class="st1" d="M67.5,433.7v12.6h16.8v3.8H63.7v-11.5l-1.7,0.5v-4L67.5,433.7z M63.7,430.8v-16.6h3.8v11.5l2.4-0.6v4
		L63.7,430.8z"/>
	<path class="st1" d="M119.2,425.7L84.6,435c-1.4-9,4.2-17.8,13.2-20.2C106.7,412.4,115.9,417.2,119.2,425.7z M85.6,438.7l34.6-9.3
		c1.4,9-4.2,17.8-13.2,20.2C98.1,452,88.8,447.2,85.6,438.7z M88.4,430l25-6.7c-3.4-4.2-9.1-6.3-14.6-4.8
		C93.1,420,89.2,424.7,88.4,430z M116.4,434.4l-25,6.7c3.4,4.2,9.1,6.2,14.7,4.8C111.6,444.4,115.5,439.8,116.4,434.4z"/>
	<path class="st1" d="M152.7,435.3l8.4,14.9h-4.4l-5.9-10.4l-23.8,6.4l-2.3,4h-4.4l4.1-7.2L152.7,435.3z M127.2,438.3l13.6-24.1
		l10,17.7L127.2,438.3z M140.8,422l-5.8,10.2l10-2.7L140.8,422z"/>
	<path class="st1" d="M165.9,435.6v-21.4l9.9,0c8.3,0,15.6,6.1,17.5,14.1L165.9,435.6z M193.8,432.3c0,9.3-7.8,18-17.9,17.9h-10
		v-10.6L193.8,432.3z M169.8,430.7l18.7-5c-1.5-4.3-7.7-7.7-12.6-7.6l-6,0L169.8,430.7z M189,437.5l-19.2,5v3.9l6.1,0
		C181.5,446.3,187,442.9,189,437.5z"/>
	<path class="st1" d="M222.6,438.3v-24.1h9.6c7,0,12.7,5.7,12.7,12.7c0,4.5-2.4,8.4-5.9,10.7c-0.3,0.2-0.6,0.4-4.3,2.5l10.1,10.1
		h-5.5l-8.1-8.1c-1.4,0.8-2.9,1.6-4.8,2.8v5.3h-3.8v-7.5l13.6-7.9c3.1-1.8,4.8-4.7,4.8-7.9c0-4.9-4-8.9-8.9-8.9h-5.8v13.6l2.4-1.3
		v4.5C227.6,435.4,226.2,436.2,222.6,438.3z"/>
	<path class="st1" d="M249.7,431.8v-3.9l3.8-1.1v-12.6h19.9v3.8h-16.1v7.7l3.8-1.1v4L249.7,431.8z M253.5,438.7l-3.8,1v-3.9
		l11.5-3.2v4l-3.8,1.1v8.7h16.1v3.8h-19.9V438.7z"/>
	<path class="st1" d="M292.8,432.1l8.2-2.2c2.9,6.6,3,10.1,1.7,13.4c-2.6,6.5-10.1,9.6-16.6,7c-4.6-1.9-7.3-6-7.8-10.6h3.8
		c0.4,3,2.4,5.8,5.5,7c4.5,1.9,9.7-0.3,11.6-4.8c1-2.4,0.8-5.2-0.4-7.4l-3.5,1L292.8,432.1z M296.9,427l-8.4,2.3l-3.4-3.1
		c-2.3-1.9-3.2-5.2-1.9-8.2c1.5-3.6,5.7-5.4,9.4-3.9c2.8,1.2,4.4,3.9,4.4,6.7h-3.7c0-1.3-0.9-2.6-2.2-3.1c-1.7-0.8-3.7,0-4.4,1.8
		c-0.6,1.7,0.1,3.7,1.9,4.4l2,0.8l3.7-1L296.9,427z"/>
	<path class="st1" d="M322,446.4c4.5,0,8.1-3.6,8.1-8V432l3.8-1v7.3c0,6.6-5.3,11.9-11.9,11.9c-5.6,0-10.2-3.7-11.5-8.9l-2.2,0.6v-4
		l5.7-1.5v2.1C314,442.6,317.5,446.4,322,446.4z M314,432.4l-3.8,1.1v-19.3h3.8V432.4z M330.1,414.2h3.8v8.8l2.1-0.6v4l-5.9,1.6
		V414.2z"/>
	<path class="st1" d="M351.5,438.5l-1.8,3.5l-2.7-0.7l-5.1,9h-4.4l5.7-10l-3.1-0.8l1.8-3.5L351.5,438.5z M379.9,431.5l2.4-0.6
		l-4.8-8.8l-9.9,17.7l-9.9-17.7l-4.9,8.8l2.4,0.6l-1.8,3.5l-9.6-2.6l1.9-3.5l3.3,0.9l8.7-15.6l9.9,17.6l9.9-17.6l8.6,15.6l3.3-0.9
		l1.9,3.5l-9.6,2.6L379.9,431.5z M395,439.4l-3.1,0.8l5.7,10h-4.4l-5.1-9l-2.7,0.7l-1.8-3.5l9.6-2.6L395,439.4z"/>
	<path class="st1" d="M402.4,431.8v-3.9l3.8-1.1v-12.6h19.9v3.8h-16.1v7.7l3.8-1.1v4L402.4,431.8z M406.3,438.7l-3.8,1v-3.9
		l11.5-3.2v4l-3.8,1.1v8.7h16.1v3.8h-19.9V438.7z"/>
	<path class="st1" d="M487.3,435.3l8.4,14.9h-4.4l-5.9-10.4l-23.8,6.4l-2.3,4H455l4.1-7.2L487.3,435.3z M461.8,438.3l13.6-24.1
		l10,17.7L461.8,438.3z M475.3,422l-5.8,10.2l10-2.7L475.3,422z"/>
	<path class="st1" d="M511.6,432.1l8.2-2.2c2.9,6.6,3,10.1,1.7,13.4c-2.6,6.5-10.1,9.6-16.6,7c-4.6-1.9-7.3-6-7.8-10.6h3.8
		c0.4,3,2.4,5.8,5.5,7c4.5,1.9,9.7-0.3,11.6-4.8c1-2.4,0.8-5.2-0.4-7.4l-3.5,1L511.6,432.1z M515.8,427l-8.4,2.3l-3.4-3.1
		c-2.3-1.9-3.2-5.2-1.9-8.2c1.5-3.6,5.7-5.4,9.4-3.9c2.8,1.2,4.4,3.9,4.4,6.7h-3.7c0-1.3-0.9-2.6-2.2-3.1c-1.7-0.8-3.7,0-4.4,1.8
		c-0.6,1.7,0.1,3.7,1.9,4.4l2,0.8l3.7-1L515.8,427z"/>
	<path class="st1" d="M583.5,435.3l8.4,14.9h-4.4l-5.9-10.4l-23.8,6.4l-2.3,4h-4.4l4.1-7.2L583.5,435.3z M557.9,438.3l13.6-24.1
		l10,17.7L557.9,438.3z M571.5,422l-5.8,10.2l10-2.7L571.5,422z"/>
	<path class="st1" d="M624.5,431.7l2.4-1.3v4.5c-1.4,0.8-3.4,1.9-6.2,3.5v-24.1h9.6c7,0,12.7,5.7,12.7,12.7c0,4.5-2.4,8.4-5.9,10.7
		c-0.5,0.3-0.8,0.5-12.6,7.3v5.3h-3.8v-7.5l13.6-7.9c3.1-1.8,4.8-4.7,4.8-7.9c0-4.9-4-8.9-8.9-8.9h-5.8V431.7z"/>
	<path class="st1" d="M647.8,435.6v-21.4l9.9,0c8.3,0,15.6,6.1,17.5,14.1L647.8,435.6z M675.6,432.3c0,9.3-7.8,18-17.9,17.9h-10
		v-10.6L675.6,432.3z M651.6,430.7l18.7-5c-1.5-4.3-7.7-7.7-12.6-7.6l-6,0L651.6,430.7z M670.8,437.5l-19.2,5v3.9l6.1,0
		C663.4,446.3,668.8,442.9,670.8,437.5z"/>
	<path class="st1" d="M680.4,431.8v-3.9l3.8-1.1v-12.6h19.9v3.8h-16.1v7.7l3.8-1.1v4L680.4,431.8z M684.3,438.7l-3.8,1v-3.9
		l11.5-3.2v4l-3.8,1.1v12.5h-3.8V438.7z"/>
</g>
<title>company-logo</title>
<g>
	
		<image style="overflow:visible;enable-background:new    ;" width="500" height="498" xlink:href="7D364C8FCB96BE7F.png"  transform="matrix(0.998 0 0 1.002 103.7008 -47.5)">
	</image>
	<line class="st2" x1="386.1" y1="165.6" x2="386.4" y2="166.2"/>
	<g class="st3">
		<path class="st1" d="M351.1,296.2v0.1c-1.7,0-3.3-0.1-5-0.1c-0.5,1-1.4,1.8-2.5,2v6.8c-0.5,0-1-0.1-1.5-0.2
			c-0.4-0.1-0.7-0.2-1.1-0.2l-0.8-0.1c-0.3-0.1-0.7-0.1-1-0.1l-0.5-0.1c-0.4-0.1-0.8-0.1-1.2-0.2l-2.9-0.4c-0.7-0.1-1.5-0.2-2.2-0.4
			c-0.6-0.1-1.3-0.2-1.9-0.4c-1.4-0.2-2.7-0.5-4-0.9c-0.7-0.2-1.3-0.3-2-0.5l-2-0.5c-1.2-0.4-2.4-0.7-3.7-1.1
			c-1.6-0.5-3.3-1.1-5-1.7l-0.9-0.3l-0.2-0.1c-0.3-0.1-0.5-0.2-0.8-0.3c-0.6-0.2-1.1-0.4-1.6-0.7c-0.8-0.3-1.6-0.6-2.3-1
			c-0.1,0-0.1-0.1-0.2-0.1l-0.8-0.4c-0.6-0.3-1.1-0.5-1.7-0.8c-0.7-0.3-1.4-0.6-2.1-1s-1.5-0.8-2.2-1.2c-0.4-0.2-0.7-0.4-1.1-0.6
			l-0.1-0.1c-0.1,0-0.2-0.1-0.3-0.2c-1.1-0.6-2.4-1.3-3.6-2c-1-0.6-2-1.2-2.9-1.8c-0.4-0.2-0.8-0.5-1.2-0.8l-0.4-0.3
			c-0.9-0.6-1.8-1.2-2.6-1.8c-0.6-0.4-1.2-0.9-1.8-1.3c-0.4-0.2-0.7-0.5-1-0.8l-1.5-1.2L284,281l-1.2-0.9l0.9-0.9
			c0.3,0.3,0.7,0.5,1,0.8l0.5,0.4l1.5,1.2c0.3,0.3,0.6,0.5,1,0.7c0.6,0.5,1.2,0.9,1.8,1.3c0.8,0.6,1.7,1.2,2.6,1.8l0.4,0.3
			c0.4,0.2,0.7,0.5,1.1,0.7c1,0.6,1.9,1.2,2.9,1.8l3.6,2.1L300,291l0.2-0.6l0.2,0.1c0.4,0.2,0.7,0.4,1.1,0.6
			c0.8,0.4,1.5,0.8,2.2,1.2c0.7,0.4,1.4,0.7,2.1,1c0.6,0.3,1.1,0.5,1.6,0.8l1,0.4c0.8,0.3,1.6,0.7,2.3,1c0.5,0.2,1.1,0.5,1.6,0.7
			c0.3,0.1,0.5,0.2,0.8,0.3l0.2,0.1l0.9,0.3c1.6,0.6,3.3,1.2,4.9,1.7c1.2,0.4,2.4,0.7,3.6,1.1l2,0.5c0.6,0.2,1.3,0.3,1.9,0.5
			c1.3,0.4,2.6,0.7,4,0.9c0.6,0.1,1.2,0.3,1.8,0.4s1.4,0.3,2.1,0.4l2.8,0.4c0.4,0.1,0.8,0.1,1.2,0.2l0.5,0.1c0.3,0,0.7,0.1,1,0.1
			l0.8,0.1c0.2,0,0.5,0.1,0.8,0.1V298c-1.4-0.4-2.4-1.7-2.4-3.2c0-1.9,1.5-3.4,3.3-3.4c0,0,0,0,0.1,0c1.5,0,2.8,1,3.2,2.5
			c1.6,0.1,3.2,0.1,4.8,0.1L351.1,296.2L351.1,296.2L351.1,296.2z"/>
	</g>
	<path class="st4" d="M352,91l-0.2-0.6h-0.3c-34.1,0.4-64.5,17-84.2,42c-1.7,2.2-3.4,4.4-4.9,6.7c-8.4,12.5-14.2,26.6-16.8,41.5v0.2
		c-1.1,6.2-1.6,12.6-1.6,18.9v3.2c0,0.6,0,1.3,0.1,1.9c0,0.4,0,0.8,0.1,1.2c0,0.7,0.1,1.5,0.1,2.2c0.1,1,0.2,2.1,0.3,3.1
		c0.1,0.6,0.1,1.2,0.2,1.8c0.1,1.1,0.3,2.2,0.5,3.4c0.2,1.4,0.5,2.7,0.7,4.1v0.2c0.1,0.5,0.2,0.9,0.3,1.4c0.2,0.8,0.3,1.6,0.5,2.4
		c0.2,0.7,0.4,1.5,0.5,2.2c0.2,0.8,0.4,1.6,0.7,2.5c0,0.1,0.1,0.2,0.1,0.3c0.2,0.8,0.5,1.6,0.7,2.4c0.2,0.6,0.3,1.1,0.5,1.7
		c0.1,0.3,0.2,0.5,0.3,0.8s0.3,0.8,0.4,1.1l1.8,4.8c0.5,1.2,1,2.3,1.5,3.4c0.3,0.6,0.6,1.2,0.8,1.8l0.9,1.8l1.8,3.6
		c0.3,0.5,0.6,1.1,0.9,1.6s0.7,1.2,1.1,1.8s0.7,1.2,1,1.7s0.7,1.1,1.1,1.7c0.3,0.4,0.5,0.8,0.8,1.2c0.2,0.2,0.3,0.5,0.4,0.7
		c0.4,0.7,0.8,1.4,1.2,2.1"/>
	<path class="st5" d="M462.6,200.4c-0.1,21.5-6.2,42.5-17.6,60.7c-0.3,0.4-0.6,0.9-0.9,1.3c-0.4,0.6-0.8,1.1-1.2,1.7l0,0
		c-5,7.4-11.3,14-18.4,19.5l-4.7-4.6l0,0l-1.5-1.4l-4.4-4.3l0,0l-1.5-1.5l0,0l-4.6-4.5l-1.5-1.5l-3.5-3.4l0,0l-1.5-1.4l0,0
		l-11.1-10.9l-1.6-1.6l-10.3-10l-3.2-3.1l-22.7-21.2l-0.6-0.6v-33l-0.1-3.7V90.3h1.2c46.4-0.1,87.7,29.1,103.2,72.8
		c0.3,0.9,0.6,1.7,0.9,2.5C460.8,176.8,462.6,188.6,462.6,200.4z"/>
	<path class="st1" d="M402.3,263.2c-1.7,1.4-3.4,2.6-5.2,3.9l0,0c-1.5,1-2.9,1.9-4.4,2.8c-0.7,0.4-1.4,0.8-2.2,1.2
		c-0.8,0.5-1.6,0.9-2.4,1.3l0,0c-6.8,3.5-14.2,6-21.7,7.5c-0.3,1.8-2,3.1-3.8,2.8c-1.6-0.2-2.8-1.6-2.9-3.2c0-1.7,1.4-3.2,3.1-3.3
		h0.8c1,0.1,1.9,0.7,2.4,1.6h0.1c12.8-2.4,24.7-7.9,34.8-16.1l0,0L402.3,263.2z"/>
	<path class="st1" d="M412,272.9l1.5,1.5c-3.3,2.8-6.8,5.3-10.4,7.7c-0.5,0.4-1.1,0.7-1.7,1c0.1,0.3,0.1,0.7,0.1,1
		c0,1.8-1.4,3.3-3.2,3.3c0,0,0,0-0.1,0c-1.9,0-3.4-1.5-3.4-3.4s1.5-3.4,3.4-3.4c0.7,0,1.4,0.2,1.9,0.6c0.6-0.3,1.1-0.7,1.6-1
		C405.3,278,408.7,275.5,412,272.9L412,272.9z"/>
	<path class="st1" d="M419.5,280.1c-10.2,8.8-22,15.6-34.7,20l-0.3-1l-0.2,0.1l-2.7-8c-8,2.7-16.4,4.3-24.8,4.9v0.1l0.6,7.6
		c4.8-0.1,9.5-0.7,14.1-1.8v-0.2c0.2-1.6,1.6-2.9,3.2-2.9c1.8,0,3.3,1.3,3.4,3.1v0.6c-0.2,1.7-1.7,3-3.4,3c-1.1,0-2.2-0.6-2.8-1.5
		c-5,1.2-10.2,1.8-15.4,1.8h-1.2l-0.8-9.5v-0.1c-1.3,0.1-2.6,0.1-3.8,0.1l0,0v-2.1c10.2,0,20.4-1.7,30.1-5l-2.3-6.6l0.1-0.1
		l-0.1-0.5c10-3.4,19.2-8.7,27.3-15.4l1.5,1.5c-7.8,6.6-16.7,11.7-26.3,15.2l4.9,14.1c11.7-4.3,22.6-10.7,32.1-18.9L419.5,280.1z"/>
	<rect x="350.7" y="294.4" class="st6" width="0" height="2"/>
	<circle class="st1" cx="363" cy="279.5" r="1.7"/>
	<circle class="st1" cx="374.7" cy="302.2" r="1.7"/>
	<circle class="st1" cx="398.3" cy="284" r="1.7"/>
	<g class="st3">
		<path class="st1" d="M315.6,271.9l-4,8c-0.7-0.3-1.4-0.7-2-1l3-5.9c-4.5-2.5-8.7-5.5-12.5-9l1.6-1.6c3.9,3.6,8.2,6.6,12.9,9
			L315.6,271.9z"/>
	</g>
	<circle class="st1" cx="362.5" cy="238.2" r="1"/>
	<path class="st1" d="M389.6,250.8l-1.5-1.5c-3.3,2.4-6.8,4.5-10.5,6.4l-2.1-4c3.3-1.6,6.4-3.4,9.4-5.5l-1.5-1.5
		c-6.8,4.4-9.6,5.5-9.6,5.5l-1.2,0.4l1.5,2.9c-5.9,2.7-14.3,3.7-17.3,4l-0.5-7.6c1-0.1,2.6-0.3,4.4-0.6l0.9,2.7l2-0.7l-0.8-2.3
		c0.7-0.1,1.4-0.3,2.1-0.5l0.8,2.3l2-0.7l-0.8-2.2c0.8-0.3,1.7-0.5,2.5-0.8l0.8,2.3l2-0.7l-0.8-2.4c0.5-0.2,0.9-0.4,1.3-0.6l1.3,2.2
		l1.8-1l-2.4-4.1l-0.9,0.6c-5.9,3.6-17.4,4.6-17.5,4.6l-1,0.1l0.7,11.7l1-0.1c0.5,0,11.5-0.8,19.2-4.3l0.6,1.2
		c-7.7,3.3-16.1,5-24.5,5h-0.6v2.1h0.6C364.9,263.8,378.5,259.3,389.6,250.8z"/>
	<path class="st1" d="M363,236.1l-2.4-8.1l-1,0.2c-3,0.7-6,1-9,1v2.1c2.9-0.1,5.7-0.4,8.5-0.9l1.8,6.2c-0.4,0.4-0.7,1-0.7,1.6
		c0,1.2,1,2.2,2.2,2.2s2.2-1,2.2-2.2l0,0C364.7,237.2,364,236.3,363,236.1z"/>
	<path class="st1" d="M355.5,239l-0.6-2c-1.4,0.4-2.8,0.6-4.3,0.6v2.1C352.3,239.8,353.9,239.5,355.5,239z"/>
	<path class="st1" d="M350.6,244.1v2.1h0.6c9.1,0,18.1-2.7,25.7-7.8l-1.5-1.5c-7.2,4.7-15.5,7.1-24.1,7.1
		C351.1,244.1,350.8,244.2,350.6,244.1z"/>
	<path class="st6" d="M314.2,249.1L314.2,249.1z"/>
	<path class="st6" d="M315.7,250.2c-0.2-0.2-0.5-0.3-0.7-0.5l0,0C315.2,249.8,315.4,250,315.7,250.2z"/>
	<path class="st6" d="M350.6,244.1l-0.1,2.1c-8.7,0-17.2-2.5-24.4-7.3l1.6-1.5c3,1.9,6.2,3.4,9.5,4.4l3.5-14.3l1.1,0.4
		c0,0.1,3.3,1.2,8.7,1.2v2.1c-2.8,0-5.7-0.3-8.4-1l-1.4,5.8c3.2,1,6.5,1.6,9.8,1.6v2.1H350c-3.3,0-6.6-0.6-9.8-1.7l-1,4.5
		C342.9,243.6,346.7,244.1,350.6,244.1z"/>
	<path class="st7" d="M241.7,287.5c-0.4-0.5-0.8-1.1-1.3-1.7c-0.1,0-0.1,0-0.1-0.1l0,0l0,0C240.8,286.2,241.3,286.8,241.7,287.5z"/>
	<path class="st8" d="M402.6,263.2c0.2-0.1,0.3-0.2,0.4-0.4C402.9,263,402.8,263.1,402.6,263.2L402.6,263.2z"/>
	<path class="st1" d="M352.3,90.5h-0.6v84.1l0,0l91.2,89.5c34.9-50,22.7-118.8-27.3-153.7C397.1,97.4,375,90.5,352.3,90.5z"/>
	<path class="st9" d="M490.9,201.4c0,76-61.7,137.7-137.7,137.7h-1.6v-20.2c-0.6,0-1.4-0.1-1.9-0.1c-15.3-1.5-30.3-5.7-44.2-12.2
		l-5,10.4l-3-1.4c-11.2-5.6-21.6-12.6-31.1-20.8l-7.8-7.4l-1.9,16.6l-0.3-0.3c-0.6-0.5-1.1-1-1.6-1.6l-0.5-0.5l-1.4-1.4l-0.6-0.6
		c-0.5-0.6-1.1-1.2-1.6-1.8l-0.3-0.3c-0.6-0.7-1.3-1.4-1.9-2.1l-0.3-0.3l-1.6-1.9l-0.3-0.3c-1.3-1.5-2.5-3.1-3.8-4.7l-0.1-0.1
		c-0.2-0.2-0.3-0.4-0.5-0.6l-0.1-0.1c-0.4-0.6-0.9-1.2-1.3-1.8C202,230.9,207,154.7,255.6,105.7l2.7,2.9c-0.1,0-0.2,0-0.2-0.1
		c-46.3,46.9-52.6,120.2-14.9,174.3l5-4.9l7-6.9l1.9-1.9l3.2-3.3l1.4-1.4v0.1l24.7-24.8l0.2-0.2l8.1-8.1l1.4-1.4l0.5-0.5l0.9-0.9
		l2-2l11.6-11.7l1.4-1.5l20.6-20.6l18.6-18.6l0.1,38.7l-13.7,13l-2.1,2l-21.9,20.8l0,0l-0.2,0.2l-0.9,0.9l-0.7,0.6l-0.1,0.1
		l-10.8,10.3l-2.1,2L283,278.3c0-0.1-0.1-0.1-0.2-0.1l-0.8,1l0.1,0.1l-2.9,2.7l-2.7,2.5l-3.2,3.1l-3.4,3.4l-1.4,1.4l0.8,0.7
		c9,7.7,18.8,14.2,29.4,19.4l4.8-9.8l0.2,0.1l0.4-0.7c14.3,7,29.7,11.5,45.5,13.2l2.2,0.1h0.9c63,0,114.1-51.1,114.1-114.1
		s-51.1-114-114.1-114l-1.2-0.1V63.6h1.7c24.5,0,53.1,7.7,73.5,20.9l-1.4,14.4l12.3-4.8l1.2,8l7.1-2.6
		C474.5,125.7,490.8,162.7,490.9,201.4z"/>
	<g class="st3">
		<path class="st1" d="M314.2,249.1l-0.2,0.2l-0.9,0.9l-0.7,0.7l0,0l0.7-0.6l0.9-0.9L314.2,249.1L314.2,249.1L314.2,249.1z"/>
		<path class="st1" d="M350.5,261.6v2.1h-0.1c-10.7,0-21.3-2.8-30.7-8l0,0c-0.7-0.4-1.4-0.8-2-1.2c-0.4-0.3-0.9-0.5-1.3-0.8
			l-1.8-1.2c-0.5-0.4-1-0.8-1.5-1.1l0.7-0.7l0.9-0.9l0.2-0.2c0.2,0.2,0.5,0.3,0.7,0.5h0.1c1.7,1.2,3.4,2.3,5.2,3.3
			c0.4,0.2,0.8,0.5,1.2,0.7c0.1,0,0.1,0.1,0.2,0.1s0.1,0.1,0.2,0.1c6.3,3.4,13.2,5.7,20.3,6.6v-0.3l0.9-7.1
			c-3.8-0.6-15.9-2.3-23.1-9.5l1.5-1.4c7.7,7.7,22.7,8.9,22.8,8.9l1,0.1l-1.2,9.2v0.2C346.6,261.5,348.5,261.7,350.5,261.6z"/>
		<path class="st1" d="M312.4,250.8L312.4,250.8z"/>
		<path class="st1" d="M316.5,253.7c-1.1-0.7-2.3-1.5-3.4-2.3l0.1-0.1c0.5,0.4,1,0.8,1.5,1.1C315.3,252.9,315.9,253.3,316.5,253.7z"
			/>
		<path class="st1" d="M321,253.5l-0.1,0.1c-1.8-1-3.5-2.1-5.2-3.3C317.4,251.4,319.2,252.5,321,253.5z"/>
	</g>
	<path class="st6" d="M352.6,276.1l-0.1,12.1c-0.8,0.1-1.5,0.1-2.3,0.1l0.1-9.9l-6.4,0.1v4.2h-1.1c-0.3,0-3.5-0.2-7.9-0.8l-1,5.6
		l-2.2-0.3l1-5.6c-5.1-0.9-10.1-2.3-14.9-4.3l-0.8-0.4l1.1-4.9c-0.7-0.5-1.2-1.4-1.2-2.3c0-1.5,1.3-2.8,2.8-2.8s2.8,1.3,2.8,2.8
		c0,1.4-1,2.5-2.3,2.8l0,0l-0.7,3.2c8,3.6,18.6,4.5,22.1,4.8v-6.7c0.8,0.1,1.5,0.1,2.1,0.2v2.5L352.6,276.1z"/>
</g>
</svg>
