<?xml version="1.0" encoding="utf-8"?>
<!-- Generator: Adobe Illustrator 19.2.0, SVG Export Plug-In . SVG Version: 6.00 Build 0)  -->
<svg version="1.1" id="Layer_1" xmlns="http://www.w3.org/2000/svg" xmlns:xlink="http://www.w3.org/1999/xlink" x="0px" y="0px"
	 viewBox="0 0 499 498" style="enable-background:new 0 0 499 498;" xml:space="preserve">
<style type="text/css">
	.st0{fill:none;stroke:#60EAA5;stroke-miterlimit:10;}
	.st1{opacity:0.63;}
	.st2{fill:#80FFDB;}
	.st3{fill:none;stroke:#80FFDB;stroke-miterlimit:10;}
	.st4{opacity:0.72;fill:#80FFDB;enable-background:new    ;}
	.st5{opacity:0.63;fill:#80FFDB;enable-background:new    ;}
	.st6{opacity:0.33;fill:#60EAA5;enable-background:new    ;}
	.st7{fill:#5AFFB4;}
	.st8{opacity:0.46;fill:#80FFDB;enable-background:new    ;}
</style>
<title>company-logo</title>
<g>
	
		<image style="overflow:visible;enable-background:new    ;" width="500" height="498" xlink:href="7D364C8FCB96BE7F.png"  transform="matrix(0.998 0 0 1.002 0 -47.5)">
	</image>
	<line class="st0" x1="282.4" y1="165.6" x2="282.7" y2="166.2"/>
	<g class="st1">
		<path class="st2" d="M247.4,296.2v0.1c-1.7,0-3.3-0.1-5-0.1c-0.5,1-1.4,1.8-2.5,2v6.8c-0.5,0-1-0.1-1.5-0.2
			c-0.4-0.1-0.7-0.2-1.1-0.2l-0.8-0.1c-0.3-0.1-0.7-0.1-1-0.1l-0.5-0.1c-0.4-0.1-0.8-0.1-1.2-0.2l-2.9-0.4c-0.7-0.1-1.5-0.2-2.2-0.4
			c-0.6-0.1-1.3-0.2-1.9-0.4c-1.4-0.2-2.7-0.5-4-0.9c-0.7-0.2-1.3-0.3-2-0.5l-2-0.5c-1.2-0.4-2.4-0.7-3.7-1.1
			c-1.6-0.5-3.3-1.1-5-1.7l-0.9-0.3l-0.2-0.1c-0.3-0.1-0.5-0.2-0.8-0.3c-0.6-0.2-1.1-0.4-1.6-0.7c-0.8-0.3-1.6-0.6-2.3-1
			c-0.1,0-0.1-0.1-0.2-0.1l-0.8-0.4c-0.6-0.3-1.1-0.5-1.7-0.8c-0.7-0.3-1.4-0.6-2.1-1c-0.7-0.4-1.5-0.8-2.2-1.2
			c-0.4-0.2-0.7-0.4-1.1-0.6l-0.1-0.1c-0.1,0-0.2-0.1-0.3-0.2c-1.1-0.6-2.4-1.3-3.6-2c-1-0.6-2-1.2-2.9-1.8
			c-0.4-0.2-0.8-0.5-1.2-0.8l-0.4-0.3c-0.9-0.6-1.8-1.2-2.6-1.8c-0.6-0.4-1.2-0.9-1.8-1.3c-0.4-0.2-0.7-0.5-1-0.8l-1.5-1.2l-0.5-0.4
			l-1.2-0.9l0.9-0.9c0.3,0.3,0.7,0.5,1,0.8l0.5,0.4l1.5,1.2c0.3,0.3,0.6,0.5,1,0.7c0.6,0.5,1.2,0.9,1.8,1.3c0.8,0.6,1.7,1.2,2.6,1.8
			l0.4,0.3c0.4,0.2,0.7,0.5,1.1,0.7c1,0.6,1.9,1.2,2.9,1.8l3.6,2.1l-0.1,0.7l0.2-0.6l0.2,0.1c0.4,0.2,0.7,0.4,1.1,0.6
			c0.8,0.4,1.5,0.8,2.2,1.2c0.7,0.4,1.4,0.7,2.1,1c0.6,0.3,1.1,0.5,1.6,0.8l1,0.4c0.8,0.3,1.6,0.7,2.3,1c0.5,0.2,1.1,0.5,1.6,0.7
			c0.3,0.1,0.5,0.2,0.8,0.3l0.2,0.1l0.9,0.3c1.6,0.6,3.3,1.2,4.9,1.7c1.2,0.4,2.4,0.7,3.6,1.1l2,0.5c0.6,0.2,1.3,0.3,1.9,0.5
			c1.3,0.4,2.6,0.7,4,0.9c0.6,0.1,1.2,0.3,1.8,0.4s1.4,0.3,2.1,0.4l2.8,0.4c0.4,0.1,0.8,0.1,1.2,0.2l0.5,0.1c0.3,0,0.7,0.1,1,0.1
			l0.8,0.1c0.2,0,0.5,0.1,0.8,0.1V298c-1.4-0.4-2.4-1.7-2.4-3.2c0-1.9,1.5-3.4,3.3-3.4c0,0,0,0,0.1,0c1.5,0,2.8,1,3.2,2.5
			c1.6,0.1,3.2,0.1,4.8,0.1L247.4,296.2L247.4,296.2L247.4,296.2z"/>
	</g>
	<path class="st3" d="M248.3,91l-0.2-0.6h-0.3c-34.1,0.4-64.5,17-84.2,42c-1.7,2.2-3.4,4.4-4.9,6.7c-8.4,12.5-14.2,26.6-16.8,41.5
		v0.2c-1.1,6.2-1.6,12.6-1.6,18.9v3.2c0,0.6,0,1.3,0.1,1.9c0,0.4,0,0.8,0.1,1.2c0,0.7,0.1,1.5,0.1,2.2c0.1,1,0.2,2.1,0.3,3.1
		c0.1,0.6,0.1,1.2,0.2,1.8c0.1,1.1,0.3,2.2,0.5,3.4c0.2,1.4,0.5,2.7,0.7,4.1v0.2c0.1,0.5,0.2,0.9,0.3,1.4c0.2,0.8,0.3,1.6,0.5,2.4
		c0.2,0.7,0.4,1.5,0.5,2.2c0.2,0.8,0.4,1.6,0.7,2.5c0,0.1,0.1,0.2,0.1,0.3c0.2,0.8,0.5,1.6,0.7,2.4c0.2,0.6,0.3,1.1,0.5,1.7
		c0.1,0.3,0.2,0.5,0.3,0.8s0.3,0.8,0.4,1.1l1.8,4.8c0.5,1.2,1,2.3,1.5,3.4c0.3,0.6,0.6,1.2,0.8,1.8l0.9,1.8l1.8,3.6
		c0.3,0.5,0.6,1.1,0.9,1.6s0.7,1.2,1.1,1.8s0.7,1.2,1,1.7s0.7,1.1,1.1,1.7c0.3,0.4,0.5,0.8,0.8,1.2c0.2,0.2,0.3,0.5,0.4,0.7
		c0.4,0.7,0.8,1.4,1.2,2.1"/>
	<path class="st4" d="M358.9,200.4c-0.1,21.5-6.2,42.5-17.6,60.7c-0.3,0.4-0.6,0.9-0.9,1.3c-0.4,0.6-0.8,1.1-1.2,1.7l0,0
		c-5,7.4-11.3,14-18.4,19.5l-4.7-4.6l0,0l-1.5-1.4l-4.4-4.3l0,0l-1.5-1.5l0,0l-4.6-4.5l-1.5-1.5l-3.5-3.4l0,0l-1.5-1.4l0,0
		l-11.1-10.9l-1.6-1.6l-10.3-10l-3.2-3.1l-22.7-21.2l-0.6-0.6v-33l-0.1-3.7V90.3h1.2c46.4-0.1,87.7,29.1,103.2,72.8
		c0.3,0.9,0.6,1.7,0.9,2.5C357.1,176.8,358.9,188.6,358.9,200.4z"/>
	<path class="st2" d="M298.6,263.2c-1.7,1.4-3.4,2.6-5.2,3.9l0,0c-1.5,1-2.9,1.9-4.4,2.8c-0.7,0.4-1.4,0.8-2.2,1.2
		c-0.8,0.5-1.6,0.9-2.4,1.3l0,0c-6.8,3.5-14.2,6-21.7,7.5c-0.3,1.8-2,3.1-3.8,2.8c-1.6-0.2-2.8-1.6-2.9-3.2c0-1.7,1.4-3.2,3.1-3.3
		h0.8c1,0.1,1.9,0.7,2.4,1.6h0.1c12.8-2.4,24.7-7.9,34.8-16.1l0,0L298.6,263.2z"/>
	<path class="st2" d="M308.3,272.9l1.5,1.5c-3.3,2.8-6.8,5.3-10.4,7.7c-0.5,0.4-1.1,0.7-1.7,1c0.1,0.3,0.1,0.7,0.1,1
		c0,1.8-1.4,3.3-3.2,3.3c0,0,0,0-0.1,0c-1.9,0-3.4-1.5-3.4-3.4s1.5-3.4,3.4-3.4c0.7,0,1.4,0.2,1.9,0.6c0.6-0.3,1.1-0.7,1.6-1
		C301.6,278,305,275.5,308.3,272.9L308.3,272.9z"/>
	<path class="st2" d="M315.8,280.1c-10.2,8.8-22,15.6-34.7,20l-0.3-1l-0.2,0.1l-2.7-8c-8,2.7-16.4,4.3-24.8,4.9v0.1l0.6,7.6
		c4.8-0.1,9.5-0.7,14.1-1.8v-0.2c0.2-1.6,1.6-2.9,3.2-2.9c1.8,0,3.3,1.3,3.4,3.1v0.6c-0.2,1.7-1.7,3-3.4,3c-1.1,0-2.2-0.6-2.8-1.5
		c-5,1.2-10.2,1.8-15.4,1.8h-1.2l-0.8-9.5v-0.1c-1.3,0.1-2.6,0.1-3.8,0.1l0,0v-2.1c10.2,0,20.4-1.7,30.1-5l-2.3-6.6l0.1-0.1
		l-0.1-0.5c10-3.4,19.2-8.7,27.3-15.4l1.5,1.5c-7.8,6.6-16.7,11.7-26.3,15.2l4.9,14.1c11.7-4.3,22.6-10.7,32.1-18.9L315.8,280.1z"/>
	<rect x="247" y="294.4" class="st5" width="0" height="2"/>
	<circle class="st2" cx="259.3" cy="279.5" r="1.7"/>
	<circle class="st2" cx="271" cy="302.2" r="1.7"/>
	<circle class="st2" cx="294.6" cy="284" r="1.7"/>
	<g class="st1">
		<path class="st2" d="M211.9,271.9l-4,8c-0.7-0.3-1.4-0.7-2-1l3-5.9c-4.5-2.5-8.7-5.5-12.5-9l1.6-1.6c3.9,3.6,8.2,6.6,12.9,9
			L211.9,271.9z"/>
	</g>
	<circle class="st2" cx="258.8" cy="238.2" r="1"/>
	<path class="st2" d="M285.9,250.8l-1.5-1.5c-3.3,2.4-6.8,4.5-10.5,6.4l-2.1-4c3.3-1.6,6.4-3.4,9.4-5.5l-1.5-1.5
		c-6.8,4.4-9.6,5.5-9.6,5.5l-1.2,0.4l1.5,2.9c-5.9,2.7-14.3,3.7-17.3,4l-0.5-7.6c1-0.1,2.6-0.3,4.4-0.6l0.9,2.7l2-0.7l-0.8-2.3
		c0.7-0.1,1.4-0.3,2.1-0.5l0.8,2.3l2-0.7l-0.8-2.2c0.8-0.3,1.7-0.5,2.5-0.8l0.8,2.3l2-0.7l-0.8-2.4c0.5-0.2,0.9-0.4,1.3-0.6l1.3,2.2
		l1.8-1l-2.4-4.1l-0.9,0.6c-5.9,3.6-17.4,4.6-17.5,4.6l-1,0.1l0.7,11.7l1-0.1c0.5,0,11.5-0.8,19.2-4.3l0.6,1.2
		c-7.7,3.3-16.1,5-24.5,5h-0.6v2.1h0.6C261.2,263.8,274.8,259.3,285.9,250.8z"/>
	<path class="st2" d="M259.3,236.1l-2.4-8.1l-1,0.2c-3,0.7-6,1-9,1v2.1c2.9-0.1,5.7-0.4,8.5-0.9l1.8,6.2c-0.4,0.4-0.7,1-0.7,1.6
		c0,1.2,1,2.2,2.2,2.2s2.2-1,2.2-2.2l0,0C261,237.2,260.3,236.3,259.3,236.1z"/>
	<path class="st2" d="M251.8,239l-0.6-2c-1.4,0.4-2.8,0.6-4.3,0.6v2.1C248.6,239.8,250.2,239.5,251.8,239z"/>
	<path class="st2" d="M246.9,244.1v2.1h0.6c9.1,0,18.1-2.7,25.7-7.8l-1.5-1.5c-7.2,4.7-15.5,7.1-24.1,7.1
		C247.4,244.1,247.1,244.2,246.9,244.1z"/>
	<path class="st5" d="M210.5,249.1L210.5,249.1z"/>
	<path class="st5" d="M212,250.2c-0.2-0.2-0.5-0.3-0.7-0.5l0,0C211.5,249.8,211.7,250,212,250.2z"/>
	<path class="st5" d="M246.9,244.1l-0.1,2.1c-8.7,0-17.2-2.5-24.4-7.3l1.6-1.5c3,1.9,6.2,3.4,9.5,4.4l3.5-14.3l1.1,0.4
		c0,0.1,3.3,1.2,8.7,1.2v2.1c-2.8,0-5.7-0.3-8.4-1L237,236c3.2,1,6.5,1.6,9.8,1.6v2.1h-0.5c-3.3,0-6.6-0.6-9.8-1.7l-1,4.5
		C239.2,243.6,243,244.1,246.9,244.1z"/>
	<path class="st6" d="M138,287.5c-0.4-0.5-0.8-1.1-1.3-1.7c-0.1,0-0.1,0-0.1-0.1l0,0l0,0C137.1,286.2,137.6,286.8,138,287.5z"/>
	<path class="st7" d="M298.9,263.2c0.2-0.1,0.3-0.2,0.4-0.4C299.2,263,299.1,263.1,298.9,263.2L298.9,263.2z"/>
	<path class="st2" d="M248.6,90.5H248v84.1l0,0l91.2,89.5c34.9-50,22.7-118.8-27.3-153.7C293.4,97.4,271.3,90.5,248.6,90.5z"/>
	<path class="st8" d="M387.2,201.4c0,76-61.7,137.7-137.7,137.7h-1.6v-20.2c-0.6,0-1.4-0.1-1.9-0.1c-15.3-1.5-30.3-5.7-44.2-12.2
		l-5,10.4l-3-1.4c-11.2-5.6-21.6-12.6-31.1-20.8l-7.8-7.4L153,304l-0.3-0.3c-0.6-0.5-1.1-1-1.6-1.6l-0.5-0.5l-1.4-1.4l-0.6-0.6
		c-0.5-0.6-1.1-1.2-1.6-1.8l-0.3-0.3c-0.6-0.7-1.3-1.4-1.9-2.1l-0.3-0.3l-1.6-1.9l-0.3-0.3c-1.3-1.5-2.5-3.1-3.8-4.7l-0.1-0.1
		c-0.2-0.2-0.3-0.4-0.5-0.6l-0.1-0.1c-0.4-0.6-0.9-1.2-1.3-1.8c-38.5-54.7-33.5-130.9,15.1-179.9l2.7,2.9c-0.1,0-0.2,0-0.2-0.1
		c-46.3,46.9-52.6,120.2-14.9,174.3l5-4.9l7-6.9l1.9-1.9l3.2-3.3l1.4-1.4v0.1l24.7-24.8l0.2-0.2l8.1-8.1l1.4-1.4l0.5-0.5l0.9-0.9
		l2-2l11.6-11.7l1.4-1.5l20.6-20.6l18.6-18.6l0.1,38.7l-13.7,13l-2.1,2l-21.9,20.8l0,0l-0.2,0.2l-0.9,0.9l-0.7,0.6l-0.1,0.1
		l-10.8,10.3l-2.1,2l-16.3,15.5c0-0.1-0.1-0.1-0.2-0.1l-0.8,1l0.1,0.1l-2.9,2.7l-2.7,2.5l-3.2,3.1l-3.4,3.4l-1.4,1.4l0.8,0.7
		c9,7.7,18.8,14.2,29.4,19.4l4.8-9.8l0.2,0.1l0.4-0.7c14.3,7,29.7,11.5,45.5,13.2l2.2,0.1h0.9c63,0,114.1-51.1,114.1-114.1
		S312,87.3,249,87.3l-1.2-0.1V63.6h1.7c24.5,0,53.1,7.7,73.5,20.9l-1.4,14.4l12.3-4.8l1.2,8l7.1-2.6
		C370.8,125.7,387.1,162.7,387.2,201.4z"/>
	<g class="st1">
		<path class="st2" d="M210.5,249.1l-0.2,0.2l-0.9,0.9l-0.7,0.7l0,0l0.7-0.6l0.9-0.9L210.5,249.1L210.5,249.1L210.5,249.1z"/>
		<path class="st2" d="M246.8,261.6v2.1h-0.1c-10.7,0-21.3-2.8-30.7-8l0,0c-0.7-0.4-1.4-0.8-2-1.2c-0.4-0.3-0.9-0.5-1.3-0.8
			l-1.8-1.2c-0.5-0.4-1-0.8-1.5-1.1l0.7-0.7l0.9-0.9l0.2-0.2c0.2,0.2,0.5,0.3,0.7,0.5h0.1c1.7,1.2,3.4,2.3,5.2,3.3
			c0.4,0.2,0.8,0.5,1.2,0.7c0.1,0,0.1,0.1,0.2,0.1s0.1,0.1,0.2,0.1c6.3,3.4,13.2,5.7,20.3,6.6v-0.3l0.9-7.1
			c-3.8-0.6-15.9-2.3-23.1-9.5l1.5-1.4c7.7,7.7,22.7,8.9,22.8,8.9l1,0.1l-1.2,9.2v0.2C242.9,261.5,244.8,261.7,246.8,261.6z"/>
		<path class="st2" d="M208.7,250.8L208.7,250.8z"/>
		<path class="st2" d="M212.8,253.7c-1.1-0.7-2.3-1.5-3.4-2.3l0.1-0.1c0.5,0.4,1,0.8,1.5,1.1C211.6,252.9,212.2,253.3,212.8,253.7z"
			/>
		<path class="st2" d="M217.3,253.5l-0.1,0.1c-1.8-1-3.5-2.1-5.2-3.3C213.7,251.4,215.5,252.5,217.3,253.5z"/>
	</g>
	<path class="st5" d="M248.9,276.1l-0.1,12.1c-0.8,0.1-1.5,0.1-2.3,0.1l0.1-9.9l-6.4,0.1v4.2h-1.1c-0.3,0-3.5-0.2-7.9-0.8l-1,5.6
		l-2.2-0.3l1-5.6c-5.1-0.9-10.1-2.3-14.9-4.3l-0.8-0.4l1.1-4.9c-0.7-0.5-1.2-1.4-1.2-2.3c0-1.5,1.3-2.8,2.8-2.8s2.8,1.3,2.8,2.8
		c0,1.4-1,2.5-2.3,2.8l0,0l-0.7,3.2c8,3.6,18.6,4.5,22.1,4.8v-6.7c0.8,0.1,1.5,0.1,2.1,0.2v2.5L248.9,276.1z"/>
</g>
<g>
	<path class="st2" d="M52.1,444.7c4.5,0,8.1-3.6,8.1-8v-6.3l3.8-1v7.3c0,6.6-5.3,11.9-11.9,11.9c-5.6,0-10.2-3.7-11.5-8.9l-2.2,0.6
		v-4l5.7-1.5v2.1C44,440.9,47.5,444.7,52.1,444.7z M44,430.7l-3.8,1.1v-19.3H44V430.7z M60.1,412.5H64v8.8l2.1-0.6v4l-5.9,1.6V412.5
		z"/>
	<path class="st2" d="M74.7,430l2.4-1.3v4.5c-1.4,0.8-3.4,1.9-6.2,3.5v-24.1h9.6c7,0,12.7,5.7,12.7,12.7c0,4.5-2.4,8.4-5.9,10.7
		c-0.5,0.3-0.8,0.5-12.6,7.3v5.3h-3.8V441l13.6-7.9c3.1-1.8,4.8-4.7,4.8-7.9c0-4.9-4-8.9-8.9-8.9h-5.8V430z"/>
	<path class="st2" d="M103.5,432v12.6h16.8v3.8H99.6V437l-1.7,0.5v-4L103.5,432z M99.6,429.1v-16.6h3.8V424l2.4-0.6v4L99.6,429.1z"
		/>
	<path class="st2" d="M155.1,424l-34.6,9.3c-1.4-9,4.2-17.8,13.2-20.2C142.6,410.7,151.8,415.5,155.1,424z M121.5,437l34.6-9.3
		c1.4,9-4.2,17.8-13.2,20.2C134,450.3,124.8,445.5,121.5,437z M124.3,428.3l25-6.7c-3.4-4.2-9.1-6.3-14.6-4.8
		C129,418.3,125.2,423,124.3,428.3z M152.3,432.7l-25,6.7c3.4,4.2,9.1,6.2,14.7,4.8C147.5,442.7,151.4,438.1,152.3,432.7z"/>
	<path class="st2" d="M188.7,433.6l8.4,14.9h-4.4l-5.9-10.4l-23.8,6.4l-2.3,4h-4.4l4.1-7.2L188.7,433.6z M163.1,436.6l13.6-24.1
		l10,17.7L163.1,436.6z M176.7,420.3l-5.8,10.2l10-2.7L176.7,420.3z"/>
	<path class="st2" d="M201.9,433.9v-21.4l9.9,0c8.3,0,15.6,6.1,17.5,14.1L201.9,433.9z M229.7,430.6c0,9.3-7.8,18-17.9,17.9h-10
		v-10.6L229.7,430.6z M205.7,429l18.7-5c-1.5-4.3-7.7-7.7-12.6-7.6l-6,0L205.7,429z M224.9,435.8l-19.2,5v3.9l6.1,0
		C217.5,444.6,222.9,441.2,224.9,435.8z"/>
	<path class="st2" d="M258.5,436.6v-24.1h9.6c7,0,12.7,5.7,12.7,12.7c0,4.5-2.4,8.4-5.9,10.7c-0.3,0.2-0.6,0.4-4.3,2.5l10.1,10.1
		h-5.5l-8.1-8.1c-1.4,0.8-2.9,1.6-4.8,2.8v5.3h-3.8V441l13.6-7.9c3.1-1.8,4.8-4.7,4.8-7.9c0-4.9-4-8.9-8.9-8.9h-5.8V430l2.4-1.3v4.5
		C263.5,433.7,262.1,434.5,258.5,436.6z"/>
	<path class="st2" d="M285.6,430.1v-3.9l3.8-1.1v-12.6h19.9v3.8h-16.1v7.7l3.8-1.1v4L285.6,430.1z M289.5,437l-3.8,1v-3.9l11.5-3.2
		v4l-3.8,1.1v8.7h16.1v3.8h-19.9V437z"/>
	<path class="st2" d="M327.2,430.4l8.2-2.2c2.9,6.6,3,10.1,1.7,13.4c-2.6,6.5-10.1,9.6-16.6,7c-4.6-1.9-7.3-6-7.8-10.6h3.8
		c0.4,3,2.4,5.8,5.5,7c4.5,1.9,9.7-0.3,11.6-4.8c1-2.4,0.8-5.2-0.4-7.4l-3.5,1L327.2,430.4z M331.4,425.3l-8.4,2.3l-3.4-3.1
		c-2.3-1.9-3.2-5.2-1.9-8.2c1.5-3.6,5.7-5.4,9.4-3.9c2.8,1.2,4.4,3.9,4.4,6.7h-3.7c0-1.3-0.9-2.6-2.2-3.1c-1.7-0.8-3.7,0-4.4,1.8
		c-0.6,1.7,0.1,3.7,1.9,4.4l2,0.8l3.7-1L331.4,425.3z"/>
	<path class="st2" d="M356.5,444.7c4.5,0,8.1-3.6,8.1-8v-6.3l3.8-1v7.3c0,6.6-5.3,11.9-11.9,11.9c-5.6,0-10.2-3.7-11.5-8.9l-2.2,0.6
		v-4l5.7-1.5v2.1C348.5,440.9,352,444.7,356.5,444.7z M348.5,430.7l-3.8,1.1v-19.3h3.8V430.7z M364.6,412.5h3.8v8.8l2.1-0.6v4
		l-5.9,1.6V412.5z"/>
	<path class="st2" d="M386,436.8l-1.8,3.5l-2.7-0.7l-5.1,9h-4.4l5.7-10l-3.1-0.8l1.8-3.5L386,436.8z M414.4,429.8l2.4-0.6l-4.8-8.8
		L402,438l-9.9-17.7l-4.9,8.8l2.4,0.6l-1.8,3.5l-9.6-2.6l1.9-3.5l3.3,0.9l8.7-15.6l9.9,17.6l9.9-17.6l8.6,15.6l3.3-0.9l1.9,3.5
		l-9.6,2.6L414.4,429.8z M429.5,437.7l-3.1,0.8l5.7,10h-4.4l-5.1-9l-2.7,0.7l-1.8-3.5l9.6-2.6L429.5,437.7z"/>
	<path class="st2" d="M436.9,430.1v-3.9l3.8-1.1v-12.6h19.9v3.8h-16.1v7.7l3.8-1.1v4L436.9,430.1z M440.8,437l-3.8,1v-3.9l11.5-3.2
		v4l-3.8,1.1v8.7h16.1v3.8h-19.9V437z"/>
</g>
</svg>
