<?xml version="1.0" encoding="utf-8"?>
<!-- Generator: Adobe Illustrator 19.1.0, SVG Export Plug-In . SVG Version: 6.00 Build 0)  -->
<svg version="1.1" id="Layer_1" xmlns="http://www.w3.org/2000/svg" xmlns:xlink="http://www.w3.org/1999/xlink" x="0px" y="0px"
	 viewBox="-451 364.2 346 23.8" style="enable-background:new -451 364.2 346 23.8;" xml:space="preserve">
<style type="text/css">
	.st0{fill:#80FFDB;}
	.st1{opacity:0.9;}
	.st2{opacity:0.41;}
</style>
<g>
	<g>
		<g id="extras_1_">
			<g>
				<path class="st0" d="M-127.9,378.1l-3.7,9.1l-1.3-0.5l2.6-6.3h-0.7l1-2.2L-127.9,378.1z M-128.5,376l3.8-9.2l1.3,0.5l-2.6,6.4
					h0.9l-0.9,2.2L-128.5,376z"/>
			</g>
			<g>
				<path class="st0" d="M-119.1,371.9v-1.8l14.1,8l-6.1,3.4l0.4,1.3l-1.4,0.7l-1-3.8l1.4-0.7l0.2,0.9l3.5-1.9L-119.1,371.9z
					 M-113.5,384.3l-1.4,0.7l-0.3-1.2l-3.9,2.2v-1.7l3.5-2l-0.3-1.1l1.4-0.7L-113.5,384.3z"/>
			</g>
			<g>
				<path class="st0" d="M-436.9,383v1.8l-14.1-8l6.1-3.4l-0.3-1.3l1.4-0.7l1,3.8l-1.4,0.7l-0.2-0.9l-3.5,1.9L-436.9,383z
					 M-442.5,370.6l1.4-0.7l0.3,1.2l3.9-2.2v1.7l-3.5,2l0.3,1.1l-1.4,0.7L-442.5,370.6z"/>
			</g>
		</g>
		<g class="st1">
			<g>
				<path class="st0" d="M-407.1,376.5l4.9-1.3c1.7,3.9,1.8,6.1,1,8c-1.6,3.9-6,5.8-9.9,4.2c-2.7-1.1-4.4-3.6-4.7-6.3h2.3
					c0.3,1.8,1.4,3.4,3.3,4.2c2.7,1.1,5.8-0.2,6.9-2.9c0.6-1.5,0.5-3.1-0.2-4.4l-2.1,0.6L-407.1,376.5z M-404.6,373.5l-5,1.3l-2-1.8
					c-1.3-1.1-1.9-3.1-1.1-4.9c0.9-2.2,3.4-3.2,5.6-2.4c1.7,0.7,2.6,2.3,2.6,4h-2.2c0-0.8-0.5-1.5-1.3-1.9c-1-0.5-2.2,0-2.6,1.1
					c-0.4,1,0.1,2.2,1.1,2.6l1.2,0.5l2.2-0.6L-404.6,373.5z"/>
			</g>
			<g>
				<path class="st0" d="M-395.5,376.3l1.4-0.8v2.7c-0.9,0.5-2,1.1-3.7,2.1v-14.5h5.7c4.2,0,7.6,3.4,7.6,7.6c0,2.7-1.4,5-3.5,6.4
					c-0.3,0.2-0.5,0.3-7.5,4.4v3.2h-2.3v-4.5l8.1-4.7c1.8-1.1,2.9-2.8,2.9-4.7c0-2.9-2.4-5.3-5.3-5.3h-3.4
					C-395.5,368.2-395.5,376.3-395.5,376.3z"/>
			</g>
			<g>
				<path class="st0" d="M-368,378.5l5,8.9h-2.6l-3.5-6.2l-14.2,3.8l-1.3,2.4h-2.6l2.5-4.3L-368,378.5z M-383.3,380.2l8.1-14.4
					l6,10.6L-383.3,380.2z M-375.2,370.5l-3.4,6.1l6-1.6L-375.2,370.5z"/>
			</g>
			<g>
				<path class="st0" d="M-360.1,380.2v-14.4h5.7c4.2,0,7.6,3.4,7.6,7.6c0,2.7-1.4,5-3.5,6.4c-0.2,0.1-0.3,0.2-2.6,1.5l6,6h-3.3
					l-4.8-4.8c-0.8,0.5-1.7,1-2.9,1.7v3.2h-2.3v-4.5l8.2-4.7c1.8-1.1,2.9-2.8,2.9-4.7c0-2.9-2.4-5.3-5.3-5.3h-3.4v8.1l1.4-0.8v2.7
					C-357.1,378.5-358,379-360.1,380.2z"/>
			</g>
			<g>
				<path class="st0" d="M-346.2,365.8h16.9v2.3h-7.3v4.6l1.4-0.4v2.4l-3.7,1v-7.6h-7.3V365.8z M-336.6,377.5v9.8h-2.3v-6.9l-1,0.3
					v-2.4L-336.6,377.5z"/>
			</g>
			<g>
				<path class="st0" d="M-314.3,378.5l5,8.9h-2.6l-3.5-6.2l-14.2,3.8l-1.3,2.4h-2.6l2.5-4.3L-314.3,378.5z M-329.5,380.2l8.1-14.4
					l6,10.6L-329.5,380.2z M-321.4,370.5l-3.4,6.1l6-1.6L-321.4,370.5z"/>
			</g>
			<g>
				<path class="st0" d="M-292.2,365.8v7.9l-14.2,3.8v-11.7h2.3v8.7l9.6-2.6v-6.1H-292.2z M-306.4,380l14.2-3.8v11.2h-2.3v-8.2
					l-9.6,2.6v5.6h-2.3L-306.4,380L-306.4,380z"/>
			</g>
			<g>
				<path class="st0" d="M-270,378.5l5,8.9h-2.6l-3.5-6.2l-14.2,3.8l-1.3,2.4h-2.6l2.5-4.3L-270,378.5z M-285.3,380.2l8.1-14.4
					l6,10.6L-285.3,380.2z M-277.2,370.5l-3.4,6.1l6-1.6L-277.2,370.5z"/>
			</g>
			<g>
				<path class="st0" d="M-266.4,376.6l2.5-1c0.3-2.4,1.3-4.7,3.1-6.5c4.2-4.2,11-4.2,15.2,0l-1.6,1.6c-3.3-3.3-8.7-3.3-12,0
					c-1.1,1.1-1.8,2.4-2.2,3.8l1.3-0.5l0.6,2.3c-2.3,0.8-5.1,2.1-6.1,2.5L-266.4,376.6z M-259,378.5l0.6,2.3l-1.7,0.7
					c0.3,0.4,0.6,0.7,0.9,1.1c3.3,3.3,8.6,3.3,12,0l1.6,1.6c-4.2,4.2-11,4.2-15.2,0c-0.6-0.6-1.1-1.2-1.5-1.8l-1.8,0.7l-0.7-2.2
					C-262.2,379.9-261.6,379.6-259,378.5z"/>
			</g>
			<g>
				<path class="st0" d="M-238.8,373.7l-3.8,4.4v-2.6h-0.1v-9.7h2.3v6.2l1.6-1.8V373.7z M-225.8,387.4h-3.1l-7.9-9l-3.6,4.1v4.9
					h-2.3v-0.6h0.1v-5.3l5.9-6.7L-225.8,387.4z M-233.2,375.3l-2-2.3l6.3-7.2h3.1l-6.3,7.1l0.5,0.6L-233.2,375.3z"/>
			</g>
		</g>
	</g>
	<g class="st2">
		<g>
			<path class="st0" d="M-208.5,383.3l2-1.5v5.9H-220v-4.5l8.3-4.8c1.8-1.1,2.9-2.8,2.9-4.8c0-3-2.4-5.4-5.4-5.4h-3.5v7l1.4-0.8v2.7
				c-0.7,0.4-1.6,0.9-3.8,2.1v-13.3h5.8c4.2,0,7.7,3.5,7.7,7.7c0,2.7-1.4,5.1-3.6,6.5l-7.6,4.4v0.9h9.2v-2.1H-208.5z"/>
		</g>
		<g>
			<path class="st0" d="M-182.4,372.9l-21,5.6c-0.8-5.4,2.5-10.8,8-12.2C-190,364.8-184.4,367.7-182.4,372.9z M-202.8,380.7l21-5.6
				c0.8,5.4-2.6,10.8-8,12.2C-195.2,388.8-200.8,385.9-202.8,380.7z M-201.1,375.5l15.1-4c-2.1-2.6-5.5-3.8-8.9-2.9
				C-198.2,369.4-200.6,372.2-201.1,375.5z M-184.2,378.1l-15.1,4.1c2.1,2.5,5.5,3.8,8.9,2.9S-184.7,381.4-184.2,378.1z"/>
		</g>
		<g>
			<path class="st0" d="M-175.4,377.7v10h-2.3v-6.9l-1,0.3v-2.4L-175.4,377.7z M-177.8,376v-10.1h2.3v7l1.5-0.4v2.4L-177.8,376z"/>
		</g>
		<g>
			<path class="st0" d="M-156.1,369.8c-1.3-0.8-2.9-1.2-4.3-1.2l0.8,1.1l-2.1,1.1c-1.4-2.1-3.3-4.5-4-5.4l2-1.3l1.6,2.2
				c2.4-0.3,4.9,0.1,7.1,1.4 M-163.8,372l-2.1,1.2l-1.1-1.6c-0.3,0.4-0.6,0.8-0.8,1.2c-2.4,4.1-1.1,9.3,3,11.7l-1.2,2
				c-5.2-3.1-6.9-9.8-3.8-14.9c0.4-0.7,0.9-1.3,1.4-1.9l-1.2-1.6l2-1.3C-165.9,369.1-165.4,369.8-163.8,372z"/>
		</g>
		<g>
			<path class="st0" d="M-161.9,375.5c2.7,0,4.9,2.2,4.9,4.9c0,2.7-2.2,4.9-4.9,4.9s-4.9-2.2-4.9-4.9
				C-166.8,377.7-164.6,375.5-161.9,375.5 M-161.9,373.1c-4.1,0-7.3,3.3-7.3,7.3c0,4.1,3.3,7.3,7.3,7.3c4.1,0,7.3-3.3,7.3-7.3
				C-154.5,376.3-157.8,373.1-161.9,373.1L-161.9,373.1z"/>
		</g>
	</g>
</g>
</svg>
