<?xml version="1.0" encoding="utf-8"?>
<!-- Generator: Adobe Illustrator 19.1.0, SVG Export Plug-In . SVG Version: 6.00 Build 0)  -->
<svg version="1.1" id="Layer_1" xmlns="http://www.w3.org/2000/svg" xmlns:xlink="http://www.w3.org/1999/xlink" x="0px" y="0px"
	 viewBox="0 0 346 23.8" style="enable-background:new 0 0 346 23.8;" xml:space="preserve">
<style type="text/css">
	.st0{opacity:0.23;}
	.st1{fill:#80FFDB;}
	.st2{opacity:6.000000e-02;}
	.st3{fill:#5AFFB4;}
	.st4{opacity:9.000000e-02;fill:#80FFDB;}
	.st5{opacity:0.41;}
	.st6{fill:#80FFDB;stroke:#60EAA5;stroke-miterlimit:10;}
	.st7{opacity:0.63;}
	.st8{fill:none;stroke:#80FFDB;stroke-miterlimit:10;}
	.st9{opacity:0.72;fill:#80FFDB;}
	.st10{opacity:0.63;fill:#80FFDB;}
	.st11{opacity:0.33;fill:#80FFDB;}
	.st12{opacity:0.49;fill:#80FFDB;stroke:#60EAA5;stroke-miterlimit:10;}
	.st13{opacity:0.46;fill:#80FFDB;}
	.st14{fill:none;stroke:#60EAA5;stroke-miterlimit:10;}
	.st15{opacity:0.33;fill:#60EAA5;}
	.st16{opacity:0.49;fill:none;stroke:#60EAA5;stroke-miterlimit:10;}
	.st17{fill:#030316;}
	.st18{opacity:0.3;fill:none;stroke:#80FFDB;stroke-miterlimit:10;}
	.st19{fill:#FFFFFF;}
	.st20{opacity:0.9;}
</style>
<g>
	<g>
		<g id="extras_1_">
			<g>
				<path class="st1" d="M323.1,13.9l-3.7,9.1l-1.3-0.5l2.6-6.3l-0.7,0L321,14L323.1,13.9z M322.5,11.8l3.8-9.2l1.3,0.5L325,9.5
					l0.9,0l-0.9,2.2L322.5,11.8z"/>
			</g>
			<g>
				<path class="st1" d="M331.9,7.7V5.9l14.1,8l-6.1,3.4l0.4,1.3l-1.4,0.7l-1-3.8l1.4-0.7l0.2,0.9l3.5-1.9L331.9,7.7z M337.5,20.1
					l-1.4,0.7l-0.3-1.2l-3.9,2.2v-1.7l3.5-2l-0.3-1.1l1.4-0.7L337.5,20.1z"/>
			</g>
			<g>
				<path class="st1" d="M14.1,18.8v1.8L0,12.6l6.1-3.4L5.8,7.9l1.4-0.7l1,3.8l-1.4,0.7l-0.2-0.9l-3.5,1.9L14.1,18.8z M8.5,6.4
					l1.4-0.7l0.3,1.2l3.9-2.2v1.7l-3.5,2l0.3,1.1l-1.4,0.7L8.5,6.4z"/>
			</g>
		</g>
		<g class="st20">
			<g>
				<path class="st1" d="M43.9,12.3l4.9-1.3c1.7,3.9,1.8,6.1,1,8c-1.6,3.9-6,5.8-9.9,4.2c-2.7-1.1-4.4-3.6-4.7-6.3h2.3
					c0.3,1.8,1.4,3.4,3.3,4.2c2.7,1.1,5.8-0.2,6.9-2.9c0.6-1.5,0.5-3.1-0.2-4.4l-2.1,0.6L43.9,12.3z M46.4,9.3l-5,1.3l-2-1.8
					c-1.3-1.1-1.9-3.1-1.1-4.9c0.9-2.2,3.4-3.2,5.6-2.4c1.7,0.7,2.6,2.3,2.6,4h-2.2c0-0.8-0.5-1.5-1.3-1.9c-1-0.5-2.2,0-2.6,1.1
					c-0.4,1,0.1,2.2,1.1,2.6l1.2,0.5l2.2-0.6L46.4,9.3z"/>
			</g>
			<g>
				<path class="st1" d="M55.5,12.1l1.4-0.8v2.7c-0.9,0.5-2,1.1-3.7,2.1V1.6h5.7c4.2,0,7.6,3.4,7.6,7.6c0,2.7-1.4,5-3.5,6.4
					c-0.3,0.2-0.5,0.3-7.5,4.4v3.2h-2.3v-4.5l8.1-4.7c1.8-1.1,2.9-2.8,2.9-4.7c0-2.9-2.4-5.3-5.3-5.3h-3.4V12.1z"/>
			</g>
			<g>
				<path class="st1" d="M83,14.3l5,8.9h-2.6L81.9,17l-14.2,3.8l-1.3,2.4h-2.6l2.5-4.3L83,14.3z M67.7,16l8.1-14.4l6,10.6L67.7,16z
					 M75.8,6.3l-3.4,6.1l6-1.6L75.8,6.3z"/>
			</g>
			<g>
				<path class="st1" d="M90.9,16V1.6h5.7c4.2,0,7.6,3.4,7.6,7.6c0,2.7-1.4,5-3.5,6.4c-0.2,0.1-0.3,0.2-2.6,1.5l6,6h-3.3l-4.8-4.8
					c-0.8,0.5-1.7,1-2.9,1.7v3.2h-2.3v-4.5L99,14c1.8-1.1,2.9-2.8,2.9-4.7c0-2.9-2.4-5.3-5.3-5.3h-3.4v8.1l1.4-0.8v2.7
					C93.9,14.3,93,14.8,90.9,16z"/>
			</g>
			<g>
				<path class="st1" d="M104.8,1.6h16.9v2.3h-7.3v4.6l1.4-0.4v2.4l-3.7,1V3.9h-7.3V1.6z M114.4,13.3v9.8h-2.3v-6.9l-1,0.3v-2.4
					L114.4,13.3z"/>
			</g>
			<g>
				<path class="st1" d="M136.7,14.3l5,8.9h-2.6l-3.5-6.2l-14.2,3.8l-1.3,2.4h-2.6l2.5-4.3L136.7,14.3z M121.5,16l8.1-14.4l6,10.6
					L121.5,16z M129.6,6.3l-3.4,6.1l6-1.6L129.6,6.3z"/>
			</g>
			<g>
				<path class="st1" d="M158.8,1.6v7.9l-14.2,3.8V1.6h2.3v8.7l9.6-2.6V1.6H158.8z M144.6,15.8l14.2-3.8v11.2h-2.3v-8.2l-9.6,2.6
					v5.6h-2.3V15.8z"/>
			</g>
			<g>
				<path class="st1" d="M181,14.3l5,8.9h-2.6l-3.5-6.2l-14.2,3.8l-1.3,2.4h-2.6l2.5-4.3L181,14.3z M165.7,16l8.1-14.4l6,10.6
					L165.7,16z M173.8,6.3l-3.4,6.1l6-1.6L173.8,6.3z"/>
			</g>
			<g>
				<path class="st1" d="M184.6,12.4l2.5-1c0.3-2.4,1.3-4.7,3.1-6.5c4.2-4.2,11-4.2,15.2,0l-1.6,1.6c-3.3-3.3-8.7-3.3-12,0
					c-1.1,1.1-1.8,2.4-2.2,3.8l1.3-0.5l0.6,2.3c-2.3,0.8-5.1,2.1-6.1,2.5L184.6,12.4z M192,14.3l0.6,2.3l-1.7,0.7
					c0.3,0.4,0.6,0.7,0.9,1.1c3.3,3.3,8.6,3.3,12,0l1.6,1.6c-4.2,4.2-11,4.2-15.2,0c-0.6-0.6-1.1-1.2-1.5-1.8l-1.8,0.7l-0.7-2.2
					C188.8,15.7,189.4,15.4,192,14.3z"/>
			</g>
			<g>
				<path class="st1" d="M212.2,9.5l-3.8,4.4v-2.6h-0.1V1.6h2.3v6.2l1.6-1.8V9.5z M225.2,23.2h-3.1l-7.9-9l-3.6,4.1v4.9h-2.3v-0.6
					h0.1v-5.3l5.9-6.7L225.2,23.2z M217.8,11.1l-2-2.3l6.3-7.2h3.1l-6.3,7.1l0.5,0.6L217.8,11.1z"/>
			</g>
		</g>
	</g>
	<g class="st5">
		<g>
			<path class="st1" d="M242.5,19.1l2-1.5v5.9H231V19l8.3-4.8c1.8-1.1,2.9-2.8,2.9-4.8c0-3-2.4-5.4-5.4-5.4h-3.5v7l1.4-0.8v2.7
				c-0.7,0.4-1.6,0.9-3.8,2.1V1.7h5.8c4.2,0,7.7,3.5,7.7,7.7c0,2.7-1.4,5.1-3.6,6.5l-7.6,4.4v0.9h9.2V19.1z"/>
		</g>
		<g>
			<path class="st1" d="M268.6,8.7l-21,5.6c-0.8-5.4,2.5-10.8,8-12.2C261,0.6,266.6,3.5,268.6,8.7z M248.2,16.5l21-5.6
				c0.8,5.4-2.6,10.8-8,12.2C255.8,24.6,250.2,21.7,248.2,16.5z M249.9,11.3l15.1-4c-2.1-2.6-5.5-3.8-8.9-2.9
				C252.8,5.2,250.4,8,249.9,11.3z M266.8,13.9L251.7,18c2.1,2.5,5.5,3.8,8.9,2.9C264,20,266.3,17.2,266.8,13.9z"/>
		</g>
		<g>
			<path class="st1" d="M275.6,13.5v10h-2.3v-6.9l-1,0.3v-2.4L275.6,13.5z M273.2,11.8V1.7h2.3v7l1.5-0.4v2.4L273.2,11.8z"/>
		</g>
		<g>
			<path class="st1" d="M294.9,5.6c-1.3-0.8-2.9-1.2-4.3-1.2l0.8,1.1l-2.1,1.1c-1.4-2.1-3.3-4.5-4-5.4l2-1.3l1.6,2.2
				c2.4-0.3,4.9,0.1,7.1,1.4 M287.2,7.8L285.1,9L284,7.4c-0.3,0.4-0.6,0.8-0.8,1.2c-2.4,4.1-1.1,9.3,3,11.7l-1.2,2
				c-5.2-3.1-6.9-9.8-3.8-14.9c0.4-0.7,0.9-1.3,1.4-1.9l-1.2-1.6l2-1.3C285.1,4.9,285.6,5.6,287.2,7.8z"/>
		</g>
		<g>
			<path class="st1" d="M289.1,11.3c2.7,0,4.9,2.2,4.9,4.9c0,2.7-2.2,4.9-4.9,4.9s-4.9-2.2-4.9-4.9
				C284.2,13.5,286.4,11.3,289.1,11.3 M289.1,8.9c-4.1,0-7.3,3.3-7.3,7.3c0,4.1,3.3,7.3,7.3,7.3c4.1,0,7.3-3.3,7.3-7.3
				C296.5,12.1,293.2,8.9,289.1,8.9L289.1,8.9z"/>
		</g>
	</g>
</g>
</svg>
