<?xml version="1.0" encoding="utf-8"?>
<!-- Generator: Adobe Illustrator 19.1.0, SVG Export Plug-In . SVG Version: 6.00 Build 0)  -->
<!DOCTYPE svg PUBLIC "-//W3C//DTD SVG 1.1//EN" "http://www.w3.org/Graphics/SVG/1.1/DTD/svg11.dtd">
<svg version="1.1" id="Layer_1" xmlns="http://www.w3.org/2000/svg" xmlns:xlink="http://www.w3.org/1999/xlink" x="0px" y="0px"
	 width="348.3px" height="23.8px" viewBox="0 0 348.3 23.8" style="enable-background:new 0 0 348.3 23.8;" xml:space="preserve">
<style type="text/css">
	.st0{opacity:0.23;}
	.st1{fill:#80FFDB;}
	.st2{opacity:6.000000e-02;}
	.st3{fill:#5AFFB4;}
	.st4{opacity:9.000000e-02;fill:#80FFDB;}
	.st5{opacity:0.41;}
	.st6{fill:#80FFDB;stroke:#60EAA5;stroke-miterlimit:10;}
	.st7{opacity:0.63;}
	.st8{fill:none;stroke:#80FFDB;stroke-miterlimit:10;}
	.st9{opacity:0.72;fill:#80FFDB;}
	.st10{opacity:0.63;fill:#80FFDB;}
	.st11{opacity:0.33;fill:#80FFDB;}
	.st12{opacity:0.49;fill:#80FFDB;stroke:#60EAA5;stroke-miterlimit:10;}
	.st13{opacity:0.46;fill:#80FFDB;}
	.st14{fill:none;stroke:#60EAA5;stroke-miterlimit:10;}
	.st15{opacity:0.33;fill:#60EAA5;}
	.st16{opacity:0.49;fill:none;stroke:#60EAA5;stroke-miterlimit:10;}
	.st17{fill:#030316;}
	.st18{opacity:0.3;fill:none;stroke:#80FFDB;stroke-miterlimit:10;}
	.st19{fill:#FFFFFF;}
	.st20{font-family:'Moondance';}
	.st21{font-size:18.8807px;}
	.st22{opacity:0.9;}
</style>
<g>
	<g>
		<g id="extras_4_">
			<path class="st1" d="M324.3,13.9l-3.7,9.1l-1.3-0.5l2.6-6.3l-0.7,0l0.9-2.2L324.3,13.9z M323.7,11.8l3.8-9.2l1.3,0.5l-2.6,6.4
				l0.9,0l-0.9,2.2L323.7,11.8z"/>
			<text transform="matrix(0 -1 1 0 347.1587 22.7776)" class="st1 st20 st21">v</text>
			<text transform="matrix(0 1 -1 0 1.1704 3.698)" class="st1 st20 st21">v</text>
		</g>
		<g class="st22">
			<path class="st1" d="M45.1,12.3L50,11c1.7,3.9,1.8,6.1,1,8c-1.6,3.9-6,5.8-9.9,4.2c-2.7-1.1-4.4-3.6-4.7-6.3h2.3
				c0.3,1.8,1.4,3.4,3.3,4.2c2.7,1.1,5.8-0.2,6.9-2.9c0.6-1.5,0.5-3.1-0.2-4.4l-2.1,0.6L45.1,12.3z M47.6,9.3l-5,1.3l-2-1.8
				c-1.3-1.1-1.9-3.1-1.1-4.9c0.9-2.2,3.4-3.2,5.6-2.4c1.7,0.7,2.6,2.3,2.6,4h-2.2c0-0.8-0.5-1.5-1.3-1.9c-1-0.5-2.2,0-2.6,1.1
				c-0.4,1,0.1,2.2,1.1,2.6l1.2,0.5l2.2-0.6L47.6,9.3z"/>
			<path class="st1" d="M56.7,12.1l1.4-0.8v2.7c-0.9,0.5-2,1.1-3.7,2.1V1.6h5.7c4.2,0,7.6,3.4,7.6,7.6c0,2.7-1.4,5-3.5,6.4
				c-0.3,0.2-0.5,0.3-7.5,4.4v3.2h-2.3v-4.5l8.1-4.7c1.8-1.1,2.9-2.8,2.9-4.7c0-2.9-2.4-5.3-5.3-5.3h-3.4V12.1z"/>
			<path class="st1" d="M84.1,14.3l5,8.9h-2.6L83,17l-14.2,3.8l-1.3,2.4h-2.6l2.5-4.3L84.1,14.3z M68.9,16L77,1.6l6,10.6L68.9,16z
				 M77,6.3l-3.4,6.1l6-1.6L77,6.3z"/>
			<path class="st1" d="M92,16V1.6h5.7c4.2,0,7.6,3.4,7.6,7.6c0,2.7-1.4,5-3.5,6.4c-0.2,0.1-0.3,0.2-2.6,1.5l6,6h-3.3l-4.8-4.8
				c-0.8,0.5-1.7,1-2.9,1.7v3.2H92v-4.5l8.1-4.7c1.8-1.1,2.9-2.8,2.9-4.7c0-2.9-2.4-5.3-5.3-5.3h-3.4v8.1l1.4-0.8v2.7
				C95.1,14.3,94.2,14.8,92,16z"/>
			<path class="st1" d="M106,1.6h16.9v2.3h-7.3v4.6l1.4-0.4v2.4l-3.7,1V3.9H106V1.6z M115.6,13.3v9.8h-2.3v-6.9l-1,0.3v-2.4
				L115.6,13.3z"/>
			<path class="st1" d="M137.9,14.3l5,8.9h-2.6l-3.5-6.2l-14.2,3.8l-1.3,2.4h-2.6l2.5-4.3L137.9,14.3z M122.6,16l8.1-14.4l6,10.6
				L122.6,16z M130.7,6.3l-3.4,6.1l6-1.6L130.7,6.3z"/>
			<path class="st1" d="M160,1.6v7.9l-14.2,3.8V1.6h2.3v8.7l9.6-2.6V1.6H160z M145.8,15.8l14.2-3.8v11.2h-2.3v-8.2l-9.6,2.6v5.6
				h-2.3V15.8z"/>
			<path class="st1" d="M182.2,14.3l5,8.9h-2.6L181,17l-14.2,3.8l-1.3,2.4h-2.6l2.5-4.3L182.2,14.3z M166.9,16L175,1.6l6,10.6
				L166.9,16z M175,6.3l-3.4,6.1l6-1.6L175,6.3z"/>
			<path class="st1" d="M185.7,12.4l2.5-1c0.3-2.4,1.3-4.7,3.1-6.5c4.2-4.2,11-4.2,15.2,0l-1.6,1.6c-3.3-3.3-8.7-3.3-12,0
				c-1.1,1.1-1.8,2.4-2.2,3.8l1.3-0.5l0.6,2.3c-2.3,0.8-5.1,2.1-6.1,2.5L185.7,12.4z M193.2,14.3l0.6,2.3l-1.7,0.7
				c0.3,0.4,0.6,0.7,0.9,1.1c3.3,3.3,8.6,3.3,12,0l1.6,1.6c-4.2,4.2-11,4.2-15.2,0c-0.6-0.6-1.1-1.2-1.5-1.8L188,19l-0.7-2.2
				C189.9,15.7,190.6,15.4,193.2,14.3z"/>
			<path class="st1" d="M213.3,9.5l-3.8,4.4v-2.6h-0.1V1.6h2.3v6.2l1.6-1.8V9.5z M226.3,23.2h-3.1l-7.9-9l-3.6,4.1v4.9h-2.3v-0.6
				h0.1v-5.3l5.9-6.7L226.3,23.2z M218.9,11.1l-2-2.3l6.3-7.2h3.1L220,8.8l0.5,0.6L218.9,11.1z"/>
		</g>
	</g>
	<g class="st5">
		<path class="st1" d="M243.7,19.1l2-1.5v5.9h-13.5V19l8.3-4.8c1.8-1.1,2.9-2.8,2.9-4.8c0-3-2.4-5.4-5.4-5.4h-3.5v7l1.4-0.8v2.7
			c-0.7,0.4-1.6,0.9-3.8,2.1V1.7h5.8c4.2,0,7.7,3.5,7.7,7.7c0,2.7-1.4,5.1-3.6,6.5l-7.6,4.4v0.9h9.2V19.1z"/>
		<path class="st1" d="M269.7,8.7l-21,5.6c-0.8-5.4,2.5-10.8,8-12.2C262.1,0.6,267.8,3.5,269.7,8.7z M249.4,16.5l21-5.6
			c0.8,5.4-2.6,10.8-8,12.2C256.9,24.6,251.4,21.7,249.4,16.5z M251.1,11.3l15.1-4c-2.1-2.6-5.5-3.8-8.9-2.9
			C253.9,5.2,251.6,8,251.1,11.3z M268,13.9L252.9,18c2.1,2.5,5.5,3.8,8.9,2.9C265.1,20,267.5,17.2,268,13.9z"/>
		<path class="st1" d="M276.7,13.5v10h-2.3v-6.9l-1,0.3v-2.4L276.7,13.5z M274.4,11.8V1.7h2.3v7l1.5-0.4v2.4L274.4,11.8z"/>
		<path class="st1" d="M296.1,5.6c-1.3-0.8-2.9-1.2-4.3-1.2l0.8,1.1l-2.1,1.1c-1.4-2.1-3.3-4.5-4-5.4l2-1.3l1.6,2.2
			c2.4-0.3,4.9,0.1,7.1,1.4 M288.4,7.8L286.3,9l-1.1-1.5c-0.3,0.4-0.6,0.8-0.8,1.2c-2.4,4.1-1.1,9.3,3,11.7l-1.2,2
			c-5.2-3.1-6.9-9.8-3.8-14.9c0.4-0.7,0.9-1.3,1.4-1.9l-1.2-1.6l2-1.3C286.3,4.9,286.7,5.6,288.4,7.8z"/>
		<path class="st1" d="M290.3,11.3c2.7,0,4.9,2.2,4.9,4.9c0,2.7-2.2,4.9-4.9,4.9s-4.9-2.2-4.9-4.9C285.4,13.5,287.6,11.3,290.3,11.3
			 M290.3,8.9c-4.1,0-7.3,3.3-7.3,7.3c0,4.1,3.3,7.3,7.3,7.3s7.3-3.3,7.3-7.3C297.6,12.1,294.3,8.9,290.3,8.9L290.3,8.9z"/>
	</g>
</g>
</svg>
