<?xml version="1.0" encoding="utf-8"?>
<!-- Generator: Adobe Illustrator 19.2.0, SVG Export Plug-In . SVG Version: 6.00 Build 0)  -->
<svg version="1.1" id="Layer_1" xmlns="http://www.w3.org/2000/svg" xmlns:xlink="http://www.w3.org/1999/xlink" x="0px" y="0px"
	 viewBox="0 0 499 499" style="enable-background:new 0 0 499 499;" xml:space="preserve">
<style type="text/css">
	.st0{fill:none;stroke:#60EAA5;stroke-miterlimit:10;}
	.st1{opacity:0.63;}
	.st2{fill:#80FFDB;}
	.st3{fill:none;stroke:#80FFDB;stroke-miterlimit:10;}
	.st4{opacity:0.72;fill:#80FFDB;enable-background:new    ;}
	.st5{opacity:0.63;fill:#80FFDB;enable-background:new    ;}
	.st6{opacity:0.33;fill:#60EAA5;enable-background:new    ;}
	.st7{fill:#5AFFB4;}
	.st8{opacity:0.46;fill:#80FFDB;enable-background:new    ;}
</style>
<title>uploaded</title>
<g>
	
		<image style="overflow:visible;enable-background:new    ;" width="500" height="498" xlink:href="7D364C8FCB96BE7F.png"  transform="matrix(1.002 0 0 1.002 -0.5 -46.5)">
	</image>
	<line class="st0" x1="282.4" y1="167.1" x2="282.7" y2="167.7"/>
	<g class="st1">
		<path class="st2" d="M247.4,297.7v0.1c-1.7,0-3.3-0.1-5-0.1c-0.5,1-1.4,1.8-2.5,2v6.8c-0.5,0-1-0.1-1.5-0.2
			c-0.4-0.1-0.7-0.2-1.1-0.2l-0.8-0.1c-0.3-0.1-0.7-0.1-1-0.1l-0.5-0.1c-0.4-0.1-0.8-0.1-1.2-0.2l-2.9-0.4c-0.7-0.1-1.5-0.2-2.2-0.4
			c-0.6-0.1-1.3-0.2-1.9-0.4c-1.4-0.2-2.7-0.5-4-0.9c-0.7-0.2-1.3-0.3-2-0.5l-2-0.5c-1.2-0.4-2.4-0.7-3.7-1.1
			c-1.6-0.5-3.3-1.1-5-1.7l-0.9-0.3l-0.2-0.1c-0.3-0.1-0.5-0.2-0.8-0.3c-0.6-0.2-1.1-0.4-1.6-0.7c-0.8-0.3-1.6-0.6-2.3-1
			c-0.1,0-0.1-0.1-0.2-0.1l-0.8-0.4c-0.6-0.3-1.1-0.5-1.7-0.8c-0.7-0.3-1.4-0.6-2.1-1c-0.7-0.4-1.5-0.8-2.2-1.2
			c-0.4-0.2-0.7-0.4-1.1-0.6l-0.1-0.1c-0.1,0-0.2-0.1-0.3-0.2c-1.1-0.6-2.4-1.3-3.6-2c-1-0.6-2-1.2-2.9-1.8
			c-0.4-0.2-0.8-0.5-1.2-0.8l-0.4-0.3c-0.9-0.6-1.8-1.2-2.6-1.8c-0.6-0.4-1.2-0.9-1.8-1.3c-0.4-0.2-0.7-0.5-1-0.8l-1.5-1.2l-0.5-0.4
			l-1.2-0.9l0.9-0.9c0.3,0.3,0.7,0.5,1,0.8l0.5,0.4l1.5,1.2c0.3,0.3,0.6,0.5,1,0.7c0.6,0.5,1.2,0.9,1.8,1.3c0.8,0.6,1.7,1.2,2.6,1.8
			l0.4,0.3c0.4,0.2,0.7,0.5,1.1,0.7c1,0.6,1.9,1.2,2.9,1.8l3.6,2.1l-0.1,0.7l0.2-0.6l0.2,0.1c0.4,0.2,0.7,0.4,1.1,0.6
			c0.8,0.4,1.5,0.8,2.2,1.2c0.7,0.4,1.4,0.7,2.1,1c0.6,0.3,1.1,0.5,1.6,0.8l1,0.4c0.8,0.3,1.6,0.7,2.3,1c0.5,0.2,1.1,0.5,1.6,0.7
			c0.3,0.1,0.5,0.2,0.8,0.3l0.2,0.1l0.9,0.3c1.6,0.6,3.3,1.2,4.9,1.7c1.2,0.4,2.4,0.7,3.6,1.1l2,0.5c0.6,0.2,1.3,0.3,1.9,0.5
			c1.3,0.4,2.6,0.7,4,0.9c0.6,0.1,1.2,0.3,1.8,0.4s1.4,0.3,2.1,0.4l2.8,0.4c0.4,0.1,0.8,0.1,1.2,0.2l0.5,0.1c0.3,0,0.7,0.1,1,0.1
			l0.8,0.1c0.2,0,0.5,0.1,0.8,0.1v-5.4c-1.8-0.5-2.8-2.4-2.3-4.2c0.4-1.4,1.7-2.4,3.2-2.4h0.1c1.5,0,2.8,1,3.2,2.5
			c1.6,0.1,3.2,0.1,4.8,0.1L247.4,297.7L247.4,297.7L247.4,297.7z"/>
	</g>
	<path class="st3" d="M248.3,92.5l-0.2-0.6h-0.3c-34.1,0.4-64.5,17-84.2,42c-1.7,2.2-3.4,4.4-4.9,6.7c-8.4,12.5-14.2,26.6-16.8,41.5
		v0.2c-1.1,6.2-1.6,12.6-1.6,18.9v3.2c0,0.6,0,1.3,0.1,1.9c0,0.4,0,0.8,0.1,1.2c0,0.7,0.1,1.5,0.1,2.2c0.1,1,0.2,2.1,0.3,3.1
		c0.1,0.6,0.1,1.2,0.2,1.8c0.1,1.1,0.3,2.2,0.5,3.4c0.2,1.4,0.5,2.7,0.7,4.1v0.2c0.1,0.5,0.2,0.9,0.3,1.4c0.2,0.8,0.3,1.6,0.5,2.4
		c0.2,0.7,0.4,1.5,0.5,2.2c0.2,0.8,0.4,1.6,0.7,2.5c0,0.1,0.1,0.2,0.1,0.3c0.2,0.8,0.5,1.6,0.7,2.4c0.2,0.6,0.3,1.1,0.5,1.7
		c0.1,0.3,0.2,0.5,0.3,0.8s0.3,0.8,0.4,1.1l1.8,4.8c0.5,1.2,1,2.3,1.5,3.4c0.3,0.6,0.6,1.2,0.8,1.8l0.9,1.8l1.8,3.6
		c0.3,0.5,0.6,1.1,0.9,1.6s0.7,1.2,1.1,1.8s0.7,1.2,1,1.7s0.7,1.1,1.1,1.7c0.3,0.4,0.5,0.8,0.8,1.2c0.2,0.2,0.3,0.4,0.4,0.7l1.2,2.1
		"/>
	<path class="st4" d="M358.9,201.9c-0.1,21.5-6.2,42.5-17.6,60.7c-0.3,0.4-0.6,0.9-0.9,1.3c-0.4,0.6-0.8,1.1-1.2,1.7l0,0
		c-5.1,7.4-11.3,14-18.4,19.5l-4.7-4.6l0,0l-1.5-1.4l-4.4-4.3l0,0l-1.5-1.5l0,0l-4.6-4.5l-1.5-1.5l-3.5-3.4l0,0l-1.5-1.4l0,0
		l-11.1-10.9l-1.6-1.6l-10.3-10l-3.2-3.1l-22.7-21.2l-0.6-0.6v-33l-0.1-3.7V91.8h1.2c46.4-0.1,87.7,29.1,103.2,72.8
		c0.3,0.9,0.6,1.7,0.9,2.5C357.1,178.3,358.9,190.1,358.9,201.9z"/>
	<path class="st2" d="M298.6,264.7c-1.7,1.4-3.4,2.6-5.2,3.9l0,0c-1.5,1-2.9,1.9-4.4,2.8c-0.7,0.4-1.4,0.8-2.2,1.2s-1.6,0.9-2.4,1.3
		l0,0c-6.9,3.5-14.2,6-21.7,7.5c-0.3,1.8-2,3.1-3.8,2.8c-1.6-0.2-2.8-1.6-2.9-3.2c0-1.7,1.4-3.2,3.1-3.3h0.8c1,0.1,1.9,0.7,2.4,1.6
		h0.1c12.8-2.4,24.7-7.9,34.8-16.1l0,0L298.6,264.7z"/>
	<path class="st2" d="M308.3,274.4l1.5,1.5c-3.3,2.8-6.8,5.3-10.4,7.7c-0.5,0.4-1.1,0.7-1.7,1c0.1,0.3,0.1,0.7,0.1,1
		c0,1.8-1.4,3.3-3.2,3.3c0,0,0,0,0,0h-0.1c-1.9,0-3.4-1.5-3.4-3.4c0-1.9,1.5-3.4,3.4-3.4c0.7,0,1.4,0.2,1.9,0.6
		c0.6-0.3,1.1-0.7,1.6-1C301.6,279.5,305,277,308.3,274.4L308.3,274.4L308.3,274.4z"/>
	<path class="st2" d="M315.8,281.6c-10.2,8.8-22,15.6-34.7,20l-0.3-1l-0.2,0.1l-2.7-8c-8,2.7-16.4,4.3-24.8,4.9v0.1l0.6,7.6
		c4.8-0.1,9.5-0.7,14.1-1.8v-0.2c0.2-1.8,1.9-3.1,3.7-2.8c1.6,0.2,2.7,1.5,2.9,3v0.6c-0.2,1.9-1.9,3.2-3.8,3c-1-0.1-1.9-0.7-2.4-1.5
		c-5,1.2-10.2,1.8-15.4,1.8h-1.2l-0.8-9.5v-0.1c-1.3,0.1-2.6,0.1-3.8,0.1l0,0v-2.1c10.2,0,20.4-1.7,30.1-5l-2.3-6.6l0.1-0.1
		l-0.1-0.5c10-3.4,19.2-8.7,27.3-15.4l1.5,1.5c-7.8,6.6-16.7,11.7-26.3,15.2l4.9,14.1c11.7-4.3,22.6-10.7,32.1-18.9L315.8,281.6z"/>
	<rect x="247" y="295.9" class="st5" width="0" height="2"/>
	<circle class="st2" cx="259.3" cy="281" r="1.7"/>
	<circle class="st2" cx="271" cy="303.7" r="1.7"/>
	<circle class="st2" cx="294.6" cy="285.5" r="1.7"/>
	<g class="st1">
		<path class="st2" d="M211.9,273.4l-4,8c-0.7-0.3-1.4-0.7-2-1l3-5.9c-4.5-2.5-8.7-5.5-12.5-9l1.6-1.6c3.9,3.6,8.2,6.6,12.9,9
			L211.9,273.4z"/>
	</g>
	<circle class="st2" cx="258.8" cy="239.7" r="1"/>
	<path class="st2" d="M285.9,252.3l-1.5-1.5c-3.3,2.4-6.8,4.5-10.5,6.4l-2.1-4c3.3-1.6,6.4-3.4,9.4-5.5l-1.5-1.5
		c-6.8,4.4-9.6,5.5-9.6,5.5l-1.2,0.4l1.5,2.9c-5.9,2.7-14.3,3.7-17.3,4l-0.5-7.6c1-0.1,2.6-0.3,4.4-0.6l0.9,2.7l2-0.7l-0.8-2.3
		c0.7-0.1,1.4-0.3,2.1-0.5l0.8,2.3l2-0.7l-0.8-2.2c0.8-0.3,1.7-0.5,2.5-0.8l0.8,2.3l2-0.7l-0.8-2.4c0.5-0.2,0.9-0.4,1.3-0.6l1.3,2.2
		l1.8-1l-2.4-4.1l-0.9,0.6c-5.9,3.6-17.4,4.6-17.5,4.6l-1,0.1l0.7,11.7l1-0.1c0.5,0,11.5-0.8,19.2-4.3l0.6,1.2
		c-7.7,3.3-16.1,5-24.5,5h-0.6v2.1h0.6C261.2,265.3,274.8,260.8,285.9,252.3z"/>
	<path class="st2" d="M259.3,237.6l-2.4-8.1l-1,0.2c-3,0.7-6,1-9,1v2.1c2.9-0.1,5.7-0.4,8.5-0.9l1.8,6.2c-0.4,0.4-0.7,1-0.7,1.6
		c0,1.2,1,2.2,2.2,2.2c1.2,0,2.2-1,2.2-2.2l0,0C261,238.7,260.3,237.8,259.3,237.6z"/>
	<path class="st2" d="M251.8,240.5l-0.6-2c-1.4,0.4-2.8,0.6-4.3,0.6v2.1C248.6,241.3,250.2,241,251.8,240.5z"/>
	<path class="st2" d="M246.9,245.6v2.1h0.6c9.1,0,18.1-2.7,25.7-7.8l-1.5-1.5c-7.2,4.7-15.5,7.1-24.1,7.1
		C247.4,245.6,247.1,245.7,246.9,245.6z"/>
	<path class="st5" d="M210.5,250.6L210.5,250.6z"/>
	<path class="st5" d="M212,251.7c-0.2-0.2-0.5-0.3-0.7-0.5l0,0C211.5,251.3,211.7,251.5,212,251.7z"/>
	<path class="st5" d="M246.9,245.6l-0.1,2.1c-8.7,0-17.2-2.5-24.4-7.3l1.6-1.5c3,1.9,6.1,3.4,9.5,4.4L237,229l1.1,0.4
		c0,0.1,3.3,1.2,8.7,1.2v2.1c-2.8,0-5.7-0.3-8.4-1l-1.4,5.8c3.2,1,6.5,1.6,9.8,1.6v2.1h-0.5c-3.3,0-6.6-0.6-9.8-1.7l-1,4.5
		C239.2,245.1,243,245.6,246.9,245.6z"/>
	<path class="st6" d="M138,289c-0.4-0.5-0.8-1.1-1.3-1.7c-0.1,0-0.1,0-0.1-0.1l0,0C137.1,287.7,137.6,288.3,138,289z"/>
	<path class="st7" d="M298.9,264.7c0.2-0.1,0.3-0.2,0.4-0.4C299.2,264.5,299.1,264.6,298.9,264.7L298.9,264.7z"/>
	<path class="st2" d="M248.6,92H248v84.1l0,0l91.2,89.5c34.9-50,22.7-118.8-27.3-153.7C293.3,98.9,271.2,92,248.6,92z"/>
	<path class="st8" d="M387.2,202.9c0,76-61.7,137.7-137.7,137.7h-1.6v-20.2c-0.6,0-1.4-0.1-1.9-0.1c-15.3-1.5-30.3-5.7-44.2-12.2
		l-5,10.4l-3-1.4c-11.2-5.6-21.6-12.6-31.1-20.8l-7.8-7.4l-1.9,16.6l-0.3-0.3c-0.6-0.5-1.1-1-1.6-1.6l-0.5-0.5l-1.4-1.4l-0.6-0.6
		c-0.5-0.6-1.1-1.2-1.6-1.8l-0.3-0.3c-0.6-0.7-1.3-1.4-1.9-2.1l-0.3-0.3l-1.6-1.9l-0.3-0.3c-1.3-1.5-2.5-3.1-3.8-4.7l-0.1-0.1
		c-0.2-0.2-0.3-0.4-0.5-0.6l-0.1-0.1c-0.4-0.6-0.9-1.2-1.3-1.8c-38.5-54.7-33.5-130.9,15.1-179.9l2.7,2.9c-0.1,0-0.2,0-0.2-0.1
		c-46.3,46.9-52.6,120.2-14.9,174.3l5-4.9l7-6.9l1.9-1.9l3.2-3.3l1.4-1.4v0.1l24.7-24.8l0.2-0.2l8.1-8.1l1.4-1.4l0.5-0.5l0.9-0.9
		l2-2l11.6-11.7l1.4-1.5l20.6-20.6l18.6-18.6l0.1,38.7l-13.7,13l-2.1,2l-21.9,20.8l0,0l-0.2,0.2l-0.9,0.9l-0.7,0.6l-0.1,0.1
		l-10.8,10.3l-2.1,2l-16.3,15.5c0-0.1-0.1-0.1-0.2-0.1l-0.8,1l0.1,0.1l-2.9,2.7l-2.7,2.5l-3.2,3.1l-3.4,3.4l-1.4,1.4l0.8,0.7
		c8.9,7.7,18.8,14.2,29.4,19.4l4.8-9.8l0.2,0.1l0.4-0.7c14.3,7,29.7,11.5,45.5,13.2l2.2,0.1h0.9c63,0,114.1-51.1,114.1-114
		c0-63-51.1-114.1-114-114.1c0,0,0,0,0,0l-1.2-0.1V65.1h1.7c24.5,0,53.1,7.7,73.5,20.9l-1.4,14.4l12.3-4.8l1.2,8l7.1-2.6
		C370.8,127.2,387.1,164.1,387.2,202.9z"/>
	<g class="st1">
		<path class="st2" d="M210.5,250.6l-0.2,0.2l-0.9,0.9l-0.7,0.7l0,0l0.7-0.6l0.9-0.9L210.5,250.6L210.5,250.6L210.5,250.6z"/>
		<path class="st2" d="M246.8,263.1v2.1h-0.1c-10.7,0-21.3-2.8-30.7-8l0,0c-0.7-0.4-1.4-0.8-2-1.2c-0.4-0.3-0.9-0.5-1.3-0.8
			l-1.8-1.2c-0.5-0.4-1-0.8-1.5-1.1l0.7-0.7l0.9-0.9l0.2-0.2c0.2,0.2,0.5,0.3,0.7,0.5h0.1c1.7,1.2,3.4,2.3,5.2,3.3
			c0.4,0.2,0.8,0.5,1.2,0.7c0.1,0,0.1,0.1,0.2,0.1s0.1,0.1,0.2,0.1c6.3,3.4,13.2,5.7,20.3,6.6v-0.3l0.9-7.1
			c-3.8-0.6-15.9-2.3-23.1-9.5l1.5-1.4c7.7,7.7,22.7,8.9,22.8,8.9l1,0.1l-1.2,9.2v0.2C242.9,263,244.8,263.2,246.8,263.1z"/>
		<path class="st2" d="M208.7,252.3L208.7,252.3z"/>
		<path class="st2" d="M212.8,255.2c-1.1-0.7-2.3-1.5-3.4-2.3l0.1-0.1c0.5,0.4,1,0.8,1.5,1.1C211.6,254.4,212.2,254.8,212.8,255.2z"
			/>
		<path class="st2" d="M217.3,255l-0.1,0.1c-1.8-1-3.5-2.1-5.2-3.3C213.7,252.9,215.5,254,217.3,255z"/>
	</g>
	<path class="st5" d="M248.9,277.6l-0.1,12.1c-0.8,0.1-1.5,0.1-2.3,0.1l0.1-9.9l-6.4,0.1v4.2h-1.1c-0.3,0-3.5-0.2-7.9-0.8l-1,5.6
		l-2.2-0.3l1-5.6c-5.1-0.9-10.1-2.3-14.9-4.3l-0.8-0.4l1.1-4.9c-0.7-0.5-1.2-1.4-1.2-2.3c0-1.5,1.3-2.8,2.8-2.8s2.8,1.3,2.8,2.8
		c0,1.3-1,2.5-2.3,2.7l0,0l-0.7,3.2c8,3.6,18.6,4.5,22.1,4.8v-6.7c0.8,0.1,1.5,0.1,2.1,0.2v2.5L248.9,277.6z"/>
</g>
<path class="st2" d="M137.9,444.6c4.4,0,8-3.5,8-7.9c0,0,0,0,0-0.1v-6.3l3.8-1v7.3c0,6.5-5.3,11.8-11.8,11.8c-5.4,0-10-3.6-11.4-8.8
	l-2.2,0.6v-4l5.7-1.5v2C130,441.1,133.6,444.6,137.9,444.6z M130,430.8l-3.8,1.1v-19.1h3.8V430.8L130,430.8z M145.9,412.7h3.8v8.8
	l2-0.6v4l-5.9,1.6V412.7z"/>
<path class="st2" d="M160.3,430l2.3-1.3v4.4c-1.4,0.8-3.4,1.9-6.1,3.5v-23.9h9.5c7,0,12.6,5.6,12.6,12.6c0,4.3-2.2,8.3-5.8,10.6
	c-0.5,0.3-0.8,0.5-12.5,7.2v5.2h-3.8v-7.4l13.5-7.8c2.9-1.5,4.8-4.6,4.8-7.9c0-4.9-3.9-8.8-8.8-8.8h-5.7L160.3,430L160.3,430z"/>
<path class="st2" d="M188.9,432v12.5h16.7v3.8h-20.5V437l-1.7,0.5v-4L188.9,432z M185.1,429.1v-16.4h3.8v11.4l2.4-0.6v4L185.1,429.1
	z"/>
<path class="st2" d="M240.1,424.1l-34.3,9.2c-1.6-9.7,5-18.9,14.7-20.5C228.9,411.4,237.1,416.1,240.1,424.1z M206.8,437l34.3-9.2
	c1.6,9.7-5,18.9-14.7,20.5C218,449.6,209.8,444.9,206.8,437z M209.5,428.3l24.8-6.6c-4.9-6-13.7-7-19.7-2.1
	C211.9,421.8,210.1,424.9,209.5,428.3L209.5,428.3z M237.3,432.7l-24.8,6.7c4.9,6,13.8,6.9,19.8,2
	C235,439.2,236.7,436.1,237.3,432.7L237.3,432.7z"/>
<path class="st2" d="M273.3,433.6l8.3,14.8h-4.3l-5.9-10.3l-23.6,6.3l-2.2,4h-4.3l4.1-7.2L273.3,433.6z M248,436.6l13.5-23.9
	l9.9,17.6L248,436.6z M261.5,420.4l-5.7,10.1l9.9-2.7L261.5,420.4z"/>
<path class="st2" d="M286.4,433.9v-21.2h9.9c8.3,0.1,15.5,5.9,17.4,14L286.4,433.9z M314,430.6c0,9.2-7.7,17.8-17.7,17.8h-9.9v-10.5
	L314,430.6z M290.2,429.1l18.5-5c-1.5-4.2-7.7-7.6-12.5-7.6h-5.9L290.2,429.1z M309.3,435.8l-19,5v3.9h6
	C302,444.6,307.2,441.1,309.3,435.8z"/>
<path class="st2" d="M318.8,430.1v-3.9l3.8-1.1v-12.5h19.8v3.8h-15.9v7.6l3.8-1.1v4L318.8,430.1z M322.6,437l-3.8,1v-3.9l11.4-3.1v4
	l-3.8,1v8.6h15.9v3.8h-19.8V437L322.6,437z"/>
<path class="st2" d="M347.1,433.9v-21.2h9.9c8.3,0.1,15.5,5.9,17.4,14L347.1,433.9z M374.7,430.6c0,9.2-7.7,17.8-17.7,17.8h-9.9
	v-10.5L374.7,430.6z M350.9,429.1l18.5-5c-1.5-4.2-7.7-7.6-12.5-7.6H351L350.9,429.1z M370,435.8l-19,5v3.9h6
	C362.7,444.6,367.9,441.1,370,435.8L370,435.8z"/>
</svg>
