<?xml version="1.0" encoding="utf-8"?>
<!-- Generator: Adobe Illustrator 19.2.0, SVG Export Plug-In . SVG Version: 6.00 Build 0)  -->
<svg version="1.1" id="Layer_1" xmlns="http://www.w3.org/2000/svg" xmlns:xlink="http://www.w3.org/1999/xlink" x="0px" y="0px"
	 viewBox="0 0 498.5 499.5" style="enable-background:new 0 0 498.5 499.5;" xml:space="preserve">
<style type="text/css">
	.st0{fill:none;stroke:#60EAA5;stroke-miterlimit:10;}
	.st1{opacity:0.63;}
	.st2{fill:#80FFDB;}
	.st3{fill:none;stroke:#80FFDB;stroke-miterlimit:10;}
	.st4{opacity:0.72;fill:#80FFDB;enable-background:new    ;}
	.st5{opacity:0.63;fill:#80FFDB;enable-background:new    ;}
	.st6{opacity:0.33;fill:#60EAA5;enable-background:new    ;}
	.st7{fill:#5AFFB4;}
	.st8{opacity:0.46;fill:#80FFDB;enable-background:new    ;}
</style>
<title>w9-upload</title>
<g>
	
		<image style="overflow:visible;enable-background:new    ;" width="501" height="500" xlink:href="101C7E6D83782D76.png"  transform="matrix(1 0 0 1 -1.003 -48.002)">
	</image>
	<line class="st0" x1="281.1" y1="165.3" x2="281.4" y2="165.9"/>
	<g class="st1">
		<path class="st2" d="M246.1,295.9v0.1c-1.7,0-3.3-0.1-5-0.1c-0.5,1-1.4,1.8-2.5,2v6.8c-0.5,0-1-0.1-1.5-0.2
			c-0.4-0.1-0.7-0.2-1.1-0.2l-0.8-0.1c-0.3-0.1-0.7-0.1-1-0.1l-0.5-0.1c-0.4-0.1-0.8-0.1-1.2-0.2l-2.9-0.4c-0.7-0.1-1.5-0.2-2.2-0.4
			c-0.6-0.1-1.3-0.2-1.9-0.4c-1.4-0.2-2.7-0.5-4-0.9c-0.7-0.2-1.3-0.3-2-0.5l-2-0.5c-1.2-0.4-2.4-0.7-3.7-1.1
			c-1.6-0.5-3.3-1.1-5-1.7l-0.9-0.3l-0.2-0.1c-0.3-0.1-0.5-0.2-0.8-0.3c-0.6-0.2-1.1-0.4-1.6-0.7c-0.8-0.3-1.6-0.6-2.3-1
			c-0.1,0-0.1-0.1-0.2-0.1L202,295c-0.6-0.3-1.1-0.5-1.7-0.8c-0.7-0.3-1.4-0.6-2.1-1c-0.7-0.4-1.5-0.8-2.2-1.2
			c-0.4-0.2-0.7-0.4-1.1-0.6l-0.1-0.1c-0.1,0-0.2-0.1-0.3-0.2c-1.1-0.6-2.4-1.3-3.6-2c-1-0.6-2-1.2-2.9-1.8
			c-0.4-0.2-0.8-0.5-1.2-0.8l-0.4-0.3c-0.9-0.6-1.8-1.2-2.6-1.8c-0.6-0.4-1.2-0.9-1.8-1.3c-0.4-0.2-0.7-0.5-1-0.8l-1.5-1.2l-0.5-0.4
			l-1.2-0.9l0.9-0.9c0.3,0.3,0.7,0.5,1,0.8l0.5,0.4l1.5,1.2c0.3,0.3,0.6,0.5,1,0.7c0.6,0.5,1.2,0.9,1.8,1.3c0.8,0.6,1.7,1.2,2.6,1.8
			l0.4,0.3c0.4,0.2,0.7,0.5,1.1,0.7c1,0.6,1.9,1.2,2.9,1.8l3.6,2.1l-0.1,0.7l0.2-0.6l0.2,0.1c0.4,0.2,0.7,0.4,1.1,0.6
			c0.8,0.4,1.5,0.8,2.2,1.2c0.7,0.4,1.4,0.7,2.1,1c0.6,0.3,1.1,0.5,1.6,0.8l1,0.4c0.8,0.3,1.6,0.7,2.3,1c0.5,0.2,1.1,0.5,1.6,0.7
			c0.3,0.1,0.5,0.2,0.8,0.3l0.2,0.1l0.9,0.3c1.6,0.6,3.3,1.2,4.9,1.7c1.2,0.4,2.4,0.7,3.6,1.1l2,0.5c0.6,0.2,1.3,0.3,1.9,0.5
			c1.3,0.4,2.6,0.7,4,0.9c0.6,0.1,1.2,0.3,1.8,0.4s1.4,0.3,2.1,0.4l2.8,0.4c0.4,0.1,0.8,0.1,1.2,0.2l0.5,0.1c0.3,0,0.7,0.1,1,0.1
			l0.8,0.1c0.2,0,0.5,0.1,0.8,0.1v-5.4c-1.8-0.5-2.8-2.4-2.3-4.2c0.4-1.4,1.7-2.4,3.2-2.4h0.1c1.5,0,2.8,1,3.2,2.5
			c1.6,0.1,3.2,0.1,4.8,0.1L246.1,295.9L246.1,295.9L246.1,295.9z"/>
	</g>
	<path class="st3" d="M247,90.7l-0.2-0.6h-0.3c-34.1,0.4-64.5,17-84.2,42c-1.7,2.2-3.4,4.4-4.9,6.7c-8.4,12.5-14.2,26.6-16.8,41.5
		v0.2c-1.1,6.2-1.6,12.6-1.6,18.9v3.2c0,0.6,0,1.3,0.1,1.9c0,0.4,0,0.8,0.1,1.2c0,0.7,0.1,1.5,0.1,2.2c0.1,1,0.2,2.1,0.3,3.1
		c0.1,0.6,0.1,1.2,0.2,1.8c0.1,1.1,0.3,2.2,0.5,3.4c0.2,1.4,0.5,2.7,0.7,4.1v0.2c0.1,0.5,0.2,0.9,0.3,1.4c0.2,0.8,0.3,1.6,0.5,2.4
		c0.2,0.7,0.4,1.5,0.5,2.2c0.2,0.8,0.4,1.6,0.7,2.5c0,0.1,0.1,0.2,0.1,0.3c0.2,0.8,0.5,1.6,0.7,2.4c0.2,0.6,0.3,1.1,0.5,1.7
		c0.1,0.3,0.2,0.5,0.3,0.8s0.3,0.8,0.4,1.1l1.8,4.8c0.5,1.2,1,2.3,1.5,3.4c0.3,0.6,0.6,1.2,0.8,1.8l0.9,1.8l1.8,3.6
		c0.3,0.5,0.6,1.1,0.9,1.6s0.7,1.2,1.1,1.8s0.7,1.2,1,1.7c0.3,0.5,0.7,1.1,1.1,1.7c0.3,0.4,0.5,0.8,0.8,1.2c0.2,0.2,0.3,0.4,0.4,0.7
		l1.2,2.1"/>
	<path class="st4" d="M357.6,200.1c-0.1,21.5-6.2,42.5-17.6,60.7c-0.3,0.4-0.6,0.9-0.9,1.3c-0.4,0.6-0.8,1.1-1.2,1.7l0,0
		c-5.1,7.4-11.3,14-18.4,19.5l-4.7-4.6l0,0l-1.5-1.4l-4.4-4.3l0,0l-1.5-1.5l0,0l-4.6-4.5l-1.5-1.5l-3.5-3.4l0,0l-1.5-1.4l0,0
		l-11.1-10.9l-1.6-1.6l-10.3-10l-3.2-3.1l-22.7-21.2l-0.6-0.6v-33l-0.1-3.7V90h1.2c46.4-0.1,87.7,29.1,103.2,72.8
		c0.3,0.9,0.6,1.7,0.9,2.5C355.8,176.6,357.7,188.3,357.6,200.1z"/>
	<path class="st2" d="M297.3,262.9c-1.7,1.4-3.4,2.6-5.2,3.9l0,0c-1.5,1-2.9,1.9-4.4,2.8c-0.7,0.4-1.4,0.8-2.2,1.2s-1.6,0.9-2.4,1.3
		l0,0c-6.9,3.5-14.2,6-21.7,7.5c-0.3,1.8-2,3.1-3.8,2.8c-1.6-0.2-2.8-1.6-2.9-3.2c0-1.7,1.4-3.2,3.1-3.3h0.8c1,0.1,1.9,0.7,2.4,1.6
		h0.1c12.8-2.4,24.7-7.9,34.8-16.1l0,0L297.3,262.9z"/>
	<path class="st2" d="M307,272.6l1.5,1.5c-3.3,2.8-6.8,5.3-10.4,7.7c-0.5,0.4-1.1,0.7-1.7,1c0.1,0.3,0.1,0.7,0.1,1
		c0,1.8-1.4,3.3-3.2,3.3c0,0,0,0,0,0h-0.1c-1.9,0-3.4-1.5-3.4-3.4c0-1.9,1.5-3.4,3.4-3.4c0.7,0,1.4,0.2,1.9,0.6
		c0.6-0.3,1.1-0.7,1.6-1C300.3,277.7,303.8,275.3,307,272.6L307,272.6L307,272.6z"/>
	<path class="st2" d="M314.5,279.8c-10.2,8.8-22,15.6-34.7,20l-0.3-1l-0.2,0.1l-2.7-8c-8,2.7-16.4,4.3-24.8,4.9v0.1l0.6,7.6
		c4.8-0.1,9.5-0.7,14.1-1.8v-0.2c0.2-1.8,1.9-3.1,3.7-2.8c1.6,0.2,2.7,1.5,2.9,3v0.6c-0.2,1.9-1.9,3.2-3.8,3c-1-0.1-1.9-0.7-2.4-1.5
		c-5,1.2-10.2,1.8-15.4,1.8h-1.2l-0.8-9.5V296c-1.3,0.1-2.6,0.1-3.8,0.1l0,0V294c10.2,0,20.4-1.7,30.1-5l-2.3-6.6l0.1-0.1l-0.1-0.5
		c10-3.4,19.2-8.7,27.3-15.4l1.5,1.5c-7.8,6.6-16.7,11.7-26.3,15.2l4.9,14.1c11.7-4.3,22.6-10.7,32.1-18.9L314.5,279.8z"/>
	<rect x="245.7" y="294.1" class="st5" width="0" height="2"/>
	<circle class="st2" cx="258" cy="279.2" r="1.7"/>
	<circle class="st2" cx="269.7" cy="301.9" r="1.7"/>
	<circle class="st2" cx="293.3" cy="283.7" r="1.7"/>
	<g class="st1">
		<path class="st2" d="M210.6,271.6l-4,8c-0.7-0.3-1.4-0.7-2-1l3-5.9c-4.5-2.5-8.7-5.5-12.5-9l1.6-1.6c3.9,3.6,8.2,6.6,12.9,9
			L210.6,271.6z"/>
	</g>
	<circle class="st2" cx="257.5" cy="237.9" r="1"/>
	<path class="st2" d="M284.6,250.5l-1.5-1.5c-3.3,2.4-6.8,4.5-10.5,6.4l-2.1-4c3.3-1.6,6.4-3.4,9.4-5.5l-1.5-1.5
		c-6.8,4.4-9.6,5.5-9.6,5.5l-1.2,0.4l1.5,2.9c-5.9,2.7-14.3,3.7-17.3,4l-0.5-7.6c1-0.1,2.6-0.3,4.4-0.6l0.9,2.7l2-0.7l-0.8-2.3
		c0.7-0.1,1.4-0.3,2.1-0.5l0.8,2.3l2-0.7l-0.8-2.2c0.8-0.3,1.7-0.5,2.5-0.8l0.8,2.3l2-0.7l-0.8-2.4c0.5-0.2,0.9-0.4,1.3-0.6l1.3,2.2
		l1.8-1l-2.4-4.1l-0.9,0.6c-5.9,3.6-17.4,4.6-17.5,4.6l-1,0.1l0.7,11.7l1-0.1c0.5,0,11.5-0.8,19.2-4.3l0.6,1.2
		c-7.7,3.3-16.1,5-24.5,5h-0.6v2.1h0.6C260,263.6,273.6,259,284.6,250.5z"/>
	<path class="st2" d="M258,235.8l-2.4-8.1l-1,0.2c-3,0.7-6,1-9,1v2.1c2.9-0.1,5.7-0.4,8.5-0.9l1.8,6.2c-0.4,0.4-0.7,1-0.7,1.6
		c0,1.2,1,2.2,2.2,2.2c1.2,0,2.2-1,2.2-2.2l0,0C259.7,236.9,259,236,258,235.8z"/>
	<path class="st2" d="M250.5,238.7l-0.6-2c-1.4,0.4-2.8,0.6-4.3,0.6v2.1C247.3,239.5,249,239.3,250.5,238.7z"/>
	<path class="st2" d="M245.6,243.8v2.1h0.6c9.1,0,18.1-2.7,25.7-7.8l-1.5-1.5c-7.2,4.7-15.5,7.1-24.1,7.1
		C246.1,243.9,245.9,243.9,245.6,243.8z"/>
	<path class="st5" d="M209.2,248.8L209.2,248.8z"/>
	<path class="st5" d="M210.7,249.9c-0.2-0.2-0.5-0.3-0.7-0.5l0,0C210.2,249.5,210.4,249.7,210.7,249.9z"/>
	<path class="st5" d="M245.6,243.8l-0.1,2.1c-8.7,0-17.2-2.5-24.4-7.3l1.6-1.5c3,1.9,6.1,3.4,9.5,4.4l3.5-14.3l1.1,0.4
		c0,0.1,3.3,1.2,8.7,1.2v2.1c-2.8,0-5.7-0.3-8.4-1l-1.4,5.8c3.2,1,6.5,1.6,9.8,1.6v2.1H245c-3.3,0-6.6-0.6-9.8-1.7l-1,4.5
		C237.9,243.3,241.8,243.9,245.6,243.8z"/>
	<path class="st6" d="M136.7,287.2c-0.4-0.5-0.8-1.1-1.3-1.7c-0.1,0-0.1,0-0.1-0.1l0,0C135.9,286,136.4,286.6,136.7,287.2z"/>
	<path class="st7" d="M297.6,262.9c0.2-0.1,0.3-0.2,0.4-0.4C298,262.7,297.8,262.9,297.6,262.9L297.6,262.9z"/>
	<path class="st2" d="M247.3,90.2h-0.6v84.1l0,0l91.2,89.5c34.9-50,22.7-118.8-27.3-153.7C292,97.2,270,90.2,247.3,90.2z"/>
	<path class="st8" d="M385.9,201.1c0,76-61.7,137.7-137.7,137.7h-1.6v-20.2c-0.6,0-1.4-0.1-1.9-0.1c-15.3-1.5-30.3-5.7-44.2-12.2
		l-5,10.4l-3-1.4c-11.2-5.6-21.6-12.6-31.1-20.8l-7.8-7.4l-1.9,16.6l-0.3-0.3c-0.6-0.5-1.1-1-1.6-1.6l-0.5-0.5l-1.4-1.4l-0.6-0.6
		c-0.5-0.6-1.1-1.2-1.6-1.8l-0.3-0.3c-0.6-0.7-1.3-1.4-1.9-2.1l-0.3-0.3l-1.6-1.9l-0.3-0.3c-1.3-1.5-2.5-3.1-3.8-4.7l-0.1-0.1
		c-0.2-0.2-0.3-0.4-0.5-0.6l-0.1-0.1c-0.4-0.6-0.9-1.2-1.3-1.8C97,230.6,102,154.4,150.6,105.4l2.7,2.9c-0.1,0-0.2,0-0.2-0.1
		c-46.3,46.9-52.6,120.2-14.9,174.3l5-4.9l7-6.9l1.9-1.9l3.2-3.3l1.4-1.4v0.1l24.7-24.8l0.2-0.2l8.1-8.1l1.4-1.4l0.5-0.5l0.9-0.9
		l2-2l11.6-11.7l1.4-1.5l20.6-20.6l18.6-18.6l0.1,38.7l-13.7,13l-2.1,2l-21.9,20.8l0,0l-0.2,0.2l-0.9,0.9l-0.7,0.6l-0.1,0.1
		l-10.8,10.3l-2.1,2L178,278c0-0.1-0.1-0.1-0.2-0.1l-0.8,1l0.1,0.1l-2.9,2.7l-2.7,2.5l-3.2,3.1l-3.4,3.4l-1.4,1.4l0.8,0.7
		c8.9,7.7,18.8,14.2,29.4,19.4l4.8-9.8l0.2,0.1l0.4-0.7c14.3,7,29.7,11.5,45.5,13.2l2.2,0.1h0.9c63,0,114.1-51.1,114.1-114
		c0-63-51.1-114.1-114-114.1c0,0,0,0,0,0l-1.2-0.1V63.3h1.7c24.5,0,53.1,7.7,73.5,20.9l-1.4,14.4l12.3-4.8l1.2,8l7.1-2.6
		C369.5,125.4,385.8,162.4,385.9,201.1z"/>
	<g class="st1">
		<path class="st2" d="M209.2,248.8L209,249l-0.9,0.9l-0.7,0.7l0,0l0.7-0.6l0.9-0.9L209.2,248.8L209.2,248.8L209.2,248.8z"/>
		<path class="st2" d="M245.5,261.3v2.1h-0.1c-10.7,0-21.3-2.8-30.7-8l0,0c-0.7-0.4-1.4-0.8-2-1.2c-0.4-0.3-0.9-0.5-1.3-0.8
			l-1.8-1.2c-0.5-0.4-1-0.8-1.5-1.1l0.7-0.7l0.9-0.9l0.2-0.2c0.2,0.2,0.5,0.3,0.7,0.5h0.1c1.7,1.2,3.4,2.3,5.2,3.3
			c0.4,0.2,0.8,0.5,1.2,0.7c0.1,0,0.1,0.1,0.2,0.1s0.1,0.1,0.2,0.1c6.3,3.4,13.2,5.7,20.3,6.6v-0.3l0.9-7.1
			c-3.8-0.6-15.9-2.3-23.1-9.5l1.5-1.4c7.7,7.7,22.7,8.9,22.8,8.9l1,0.1l-1.2,9.2v0.2C241.6,261.2,243.6,261.5,245.5,261.3z"/>
		<path class="st2" d="M207.4,250.5L207.4,250.5z"/>
		<path class="st2" d="M211.5,253.4c-1.1-0.7-2.3-1.5-3.4-2.3l0.1-0.1c0.5,0.4,1,0.8,1.5,1.1C210.3,252.6,210.9,253,211.5,253.4z"/>
		<path class="st2" d="M216,253.2l-0.1,0.1c-1.8-1-3.5-2.1-5.2-3.3C212.4,251.1,214.2,252.2,216,253.2z"/>
	</g>
	<path class="st5" d="M247.6,275.8l-0.1,12.1c-0.8,0.1-1.5,0.1-2.3,0.1l0.1-9.9l-6.4,0.1v4.2h-1.1c-0.3,0-3.5-0.2-7.9-0.8l-1,5.6
		l-2.2-0.3l1-5.6c-5.1-0.9-10.1-2.3-14.9-4.3l-0.8-0.4l1.1-4.9c-0.7-0.5-1.2-1.4-1.2-2.3c0-1.5,1.3-2.8,2.8-2.8s2.8,1.3,2.8,2.8
		c0,1.3-1,2.5-2.3,2.7l0,0l-0.7,3.2c8,3.6,18.6,4.5,22.1,4.8v-6.7c0.8,0.1,1.5,0.1,2.1,0.2v2.5L247.6,275.8z"/>
</g>
<g>
	<path class="st2" d="M18,443c4.4,0,8-3.5,8.1-7.9c0,0,0,0,0-0.1v-6.3l3.8-1v7.3c0,6.6-5.4,11.9-11.9,11.9c-5.4,0-10.1-3.7-11.5-8.9
		l-2.2,0.6v-4l5.7-1.6v2C10,439.4,13.6,443,18,443z M9.9,429l-3.8,1.1v-19.3h3.8V429z M26,410.8h3.8v8.8l2.1-0.6v4l-5.9,1.6V410.8z"
		/>
	<path class="st2" d="M40.6,428.3l2.3-1.3v4.5c-1.4,0.8-3.4,1.9-6.2,3.5v-24.1h9.6c7,0,12.7,5.7,12.7,12.7c0,4.3-2.2,8.4-5.9,10.7
		c-0.5,0.3-0.8,0.5-12.6,7.3v5.3h-3.8v-7.5l13.6-7.9c2.9-1.6,4.8-4.6,4.8-7.9c0-4.9-4-8.9-8.9-8.9h-5.8V428.3L40.6,428.3z"/>
	<path class="st2" d="M69.4,430.4V443h16.8v3.8H65.5v-11.5l-1.7,0.5v-4L69.4,430.4z M65.5,427.4v-16.6h3.8v11.5l2.4-0.6v4
		L65.5,427.4z"/>
	<path class="st2" d="M121,422.3l-34.6,9.3c-1.6-9.8,5-19.1,14.8-20.7C109.7,409.5,118,414.3,121,422.3z M87.4,435.3L122,426
		c1.6,9.8-5.1,19.1-14.9,20.7C98.7,448.1,90.4,443.3,87.4,435.3L87.4,435.3z M90.2,426.7l25-6.7c-4.9-6.1-13.8-7-19.9-2.1
		C92.6,420.1,90.8,423.2,90.2,426.7L90.2,426.7z M118.2,431.1l-25,6.7c5,6.1,13.9,7,20,2C115.8,437.6,117.6,434.5,118.2,431.1
		L118.2,431.1z"/>
	<path class="st2" d="M154.6,431.9l8.4,14.9h-4.4l-5.9-10.4l-23.8,6.4l-2.3,4h-4.4l4.1-7.2L154.6,431.9z M129,434.9l13.6-24.1
		l10,17.7L129,434.9z M142.6,418.6l-5.8,10.2l10-2.7L142.6,418.6z"/>
	<path class="st2" d="M167.8,432.2v-21.4h9.9c8.4,0.1,15.6,6,17.5,14.1L167.8,432.2z M195.6,428.9c0,9.3-7.8,18-17.9,17.9h-10v-10.6
		L195.6,428.9z M171.6,427.3l18.7-5c-1.5-4.3-7.7-7.7-12.6-7.6h-6L171.6,427.3z M190.8,434.1l-19.2,5v3.9h6.1
		C183.5,443,188.7,439.5,190.8,434.1L190.8,434.1z"/>
	<path class="st2" d="M228.9,425.2l-1.9-3.5l3.1-0.8l-5.7-10h4.4l5.1,9l2.7-0.7l1.8,3.5L228.9,425.2z M268.7,426l9.5,2.6l-1.9,3.5
		l-3.3-0.9l-8.6,15.6l-9.9-17.6l-9.9,17.6l-8.7-15.6l-3.3,0.9l-1.9-3.5l9.6-2.6l1.8,3.5l-2.4,0.6l4.9,8.8l9.9-17.7l9.9,17.7l4.9-8.8
		l-2.4-0.6L268.7,426z M280.1,425.2l-9.6-2.6l1.8-3.5l2.7,0.7l5.1-9h4.4l-5.7,10l3.1,0.8L280.1,425.2z"/>
	<path class="st2" d="M288.8,438.9c0-3.9,2.4-6.7,6.2-8.4v-0.1c-3.5-1.6-4.9-4.3-4.9-7c0-4.9,4.2-8.3,9.6-8.3c6,0,9.1,3.8,9.1,7.7
		c0,2.6-1.3,5.5-5.1,7.3v0.1c3.9,1.5,6.3,4.3,6.3,8.1c0,5.4-4.7,9.1-10.6,9.1C292.7,447.4,288.8,443.5,288.8,438.9z M305.6,438.7
		c0-3.8-2.6-5.6-6.9-6.8c-3.6,1.1-5.6,3.5-5.6,6.4c-0.1,3.2,2.3,6,6.2,6C303.1,444.3,305.6,441.9,305.6,438.7L305.6,438.7z
		 M293.9,423.1c0,3.1,2.4,4.8,6,5.8c2.7-0.9,4.8-2.8,4.8-5.7c0-2.5-1.5-5.1-5.3-5.1C295.9,418.1,294,420.4,293.9,423.1L293.9,423.1z
		"/>
	<path class="st2" d="M338,428.4v-3.9l3.8-1.1v-12.6h19.9v3.8h-16.1v7.7l3.8-1.1v4L338,428.4z M341.8,435.4l-3.8,1v-3.9l11.5-3.2v4
		l-3.8,1.1v12.5h-3.8V435.4L341.8,435.4z"/>
	<path class="st2" d="M401.4,422.3l-34.6,9.3c-1.6-9.8,5-19.1,14.8-20.7C390.1,409.5,398.4,414.3,401.4,422.3z M367.8,435.3
		l34.6-9.3c1.6,9.8-5,19.1-14.8,20.7C379.1,448.1,370.8,443.3,367.8,435.3L367.8,435.3z M370.6,426.7l25-6.7
		c-4.9-6.1-13.8-7-19.9-2.1C373,420,371.2,423.2,370.6,426.7L370.6,426.7z M398.6,431.1l-25,6.7c5,6.1,13.9,7,20,2
		C396.3,437.6,398.1,434.5,398.6,431.1L398.6,431.1z"/>
	<path class="st2" d="M407.5,434.9v-24.1h9.6c7,0,12.7,5.7,12.7,12.7c0,4.3-2.2,8.4-5.9,10.7c-0.3,0.2-0.6,0.4-4.3,2.5l10.1,10.1
		h-5.5l-8.1-8.1c-1.4,0.8-2.9,1.6-4.9,2.8v5.3h-3.8v-7.5l13.6-7.9c2.9-1.6,4.8-4.6,4.9-7.9c0-4.9-4-8.9-8.9-8.9h-5.8v13.6l2.4-1.3
		v4.5C412.5,432,411.1,432.9,407.5,434.9z"/>
	<path class="st2" d="M448.7,435.1l-1.8,3.5l-2.7-0.7l-5.1,9h-4.4l5.7-10l-3.1-0.8l1.8-3.5L448.7,435.1z M477.1,428.1l2.4-0.6
		l-4.9-8.8l-9.9,17.7l-9.9-17.7l-4.9,8.8l2.4,0.6l-1.8,3.5l-9.5-2.6l1.9-3.5l3.3,0.9l8.7-15.6l9.9,17.6l9.9-17.6l8.6,15.6l3.3-0.9
		l1.9,3.5l-9.5,2.6L477.1,428.1z M492.1,435.9l-3.1,0.8l5.7,10h-4.4l-5.1-9l-2.7,0.7l-1.8-3.5l9.6-2.6L492.1,435.9z"/>
</g>
</svg>
