<?xml version="1.0" encoding="utf-8"?>
<!-- Generator: Adobe Illustrator 19.1.0, SVG Export Plug-In . SVG Version: 6.00 Build 0)  -->
<svg version="1.1" id="Capa_1" xmlns="http://www.w3.org/2000/svg" xmlns:xlink="http://www.w3.org/1999/xlink" x="0px" y="0px"
	 viewBox="-593 355 92 92" style="enable-background:new -593 355 92 92;" xml:space="preserve">
<style type="text/css">
	.st0{fill:#030104;}
</style>
<g>
	<path class="st0" d="M-547,447.5c-3.8,0-7.6-0.5-11.3-1.4l-0.7-0.2l0.4-0.6c7.3-10.6,17.2-19,28.8-24.5l0.3-0.1l0.2,0.2
		c0.9,0.7,1.9,1.3,3,1.7l0.3,0.1l0,0.3c0.1,1.9,0.2,3.6,0.2,5.3c0,4.8-0.5,9.7-1.5,14.4l-0.1,0.2l-0.2,0.1
		C-533.6,446-540.2,447.5-547,447.5z M-557.3,445.3c3.4,0.8,6.9,1.2,10.3,1.2c6.6,0,13-1.4,19-4.1c0.9-4.6,1.4-9.3,1.4-14
		c0-1.6-0.1-3.2-0.2-4.9c-1-0.4-2-0.9-2.8-1.5C-540.7,427.2-550.3,435.3-557.3,445.3z M-564.7,444l-0.4-0.2
		c-6-2.6-11.4-6.3-15.9-11.1l-0.2-0.2l0-0.2c0.8-9.7,3.5-19,8.1-27.6l0.2-0.3l0.4,0.1c2.3,0.5,4.7,0.1,6.7-1.2l0.3-0.2l0.3,0.2
		c9.4,6.4,19.8,10.5,30.8,12.3l1.5,0.2l-1.4,0.7c-12.3,6.2-22.7,15.6-30.2,27.1L-564.7,444z M-580.1,432.2c4.3,4.6,9.3,8.1,15,10.6
		c7.3-11.1,17.3-20.2,29.1-26.4c-10.6-2-20.5-6-29.5-12.1c-2.1,1.2-4.5,1.6-6.8,1.2C-576.7,413.8-579.3,422.8-580.1,432.2z
		 M-520.5,439.2l0.1-1.1c0.4-3.2,0.6-6.5,0.6-9.7c0-1.8-0.1-3.7-0.2-5.6l0-0.4l0.3-0.1c2.4-1.1,4.3-3.1,5.1-5.6l0.1-0.3l0.3,0
		c3.7-0.4,7.3-1,10.8-1.8l0.9-0.2l-0.3,0.8c-3,9.3-9,17.6-16.9,23.4L-520.5,439.2z M-519,423.1c0.1,1.8,0.2,3.6,0.2,5.3
		c0,2.9-0.2,5.8-0.5,8.7c7.1-5.5,12.5-13,15.3-21.4c-3.2,0.7-6.5,1.3-9.8,1.6C-514.6,419.8-516.5,421.9-519,423.1z M-586.3,425.9
		l-0.7-1.2c-4.3-7.2-6.5-15.4-6.5-23.8c0-7.3,1.7-14.3,5-20.9l0.4-0.8l0.5,0.7c2.4,3.9,5.3,7.6,8.4,11.1l0.2,0.2l-0.1,0.3
		c-0.5,1.2-0.8,2.4-0.8,3.7c0,2,0.7,4,1.9,5.6l0.2,0.3l-0.2,0.3c-3.9,7.3-6.6,15.1-8.1,23.1L-586.3,425.9z M-588,381.4
		c-3,6.2-4.5,12.8-4.5,19.6c0,7.8,2,15.4,5.7,22.1c1.5-7.6,4.1-14.9,7.8-21.8c-1.2-1.7-1.9-3.8-1.9-6c0-1.3,0.2-2.6,0.7-3.8
		C-583.1,388.4-585.7,385-588,381.4z M-514.7,410.5l-0.1-0.3c-1.4-3.4-4.7-5.6-8.4-5.7l-0.4,0l-0.1-0.3c-3.2-9.7-8.1-18.5-14.8-26.3
		l-0.2-0.2l0.1-0.3c0.6-1.3,1-2.7,1-4.1c0-0.3,0-0.6,0-0.9l0-0.4l0.3-0.1c6.8-2.9,13.9-4.7,21.1-5.4l0.2,0l0.2,0.1
		c9.7,8.8,15.3,21.4,15.3,34.5c0,2.1-0.2,4.3-0.5,6.5l0,0.3l-0.3,0.1c-4.2,1.2-8.6,2.1-13,2.5L-514.7,410.5z M-522.8,403.5
		c3.8,0.2,7.2,2.5,8.8,5.9c4.1-0.4,8.2-1.2,12.1-2.4c0.3-2,0.4-4.1,0.4-6c0-12.7-5.4-25-14.8-33.6c-6.9,0.7-13.8,2.4-20.3,5.1
		c0,0.2,0,0.4,0,0.7c0,1.5-0.3,2.9-0.9,4.2C-530.9,385.2-526,393.9-522.8,403.5z M-531.9,410.1l-0.4-0.1
		c-10.5-1.6-20.4-5.4-29.3-11.3l-0.3-0.2l0.1-0.4c0.3-0.9,0.4-1.8,0.4-2.8c0-1.7-0.5-3.4-1.4-4.9l-0.2-0.3l0.3-0.3
		c3-3.3,6.3-6.4,9.9-9.1l0.3-0.2l0.3,0.2c2.6,1.9,6.1,2.2,9,1l0.3-0.1l0.2,0.3c6,7.2,10.6,15.3,13.5,24.2l0.1,0.3l-0.3,0.2
		c-1,0.8-1.8,1.9-2.4,3.1L-531.9,410.1z M-560.7,398.1c8.6,5.7,18.1,9.4,28.2,10.9c0.6-1.1,1.3-2.1,2.2-2.9
		c-2.8-8.5-7.2-16.3-12.9-23.3c-3,1.2-6.6,0.8-9.3-1c-3.3,2.5-6.4,5.4-9.2,8.5c0.9,1.6,1.4,3.3,1.4,5.1
		C-560.3,396.3-560.5,397.2-560.7,398.1z M-575,387.2l-0.3-0.3c-3.5-3.9-6.6-8.3-9.3-12.9l-0.2-0.3l0.2-0.3c3.6-4.8,8-8.9,13.1-12
		l0.2-0.1l0.2,0.1c5.3,2.1,10.4,5,15.2,8.3l0.3,0.2l-0.1,0.3c-0.3,1-0.5,1.9-0.5,2.9c0,0.7,0.1,1.4,0.3,2.2l0.1,0.3l-0.3,0.2
		c-4.1,3.1-7.9,6.6-11.3,10.4l-0.2,0.2l-0.3-0.1c-2.2-0.7-4.6-0.5-6.8,0.5L-575,387.2z M-583.5,373.8c2.5,4.3,5.4,8.4,8.7,12.1
		c2.2-1,4.6-1.1,6.8-0.5c3.3-3.7,7-7.1,11-10.1c-0.1-0.7-0.2-1.4-0.2-2.1c0-1,0.1-2,0.4-2.9c-4.5-3.2-9.3-5.9-14.4-7.9
		C-575.9,365.4-580.1,369.2-583.5,373.8z M-540.2,366.7l-0.2-0.2c-1.7-1.6-4-2.5-6.3-2.5c-1.7,0-3.3,0.4-4.7,1.3l-0.3,0.2l-0.3-0.2
		c-3.6-2.6-7.4-4.9-11.3-6.8l-1-0.5l1.1-0.4c5.2-2,10.7-3,16.4-3c8.1,0,16.1,2.1,23.2,6.2l1.2,0.7l-1.3,0.3c-5.4,1-10.8,2.7-16,4.9
		L-540.2,366.7z M-546.8,362.9c2.5,0,4.9,0.9,6.8,2.6c4.7-2,9.6-3.5,14.6-4.6c-6.6-3.5-14-5.4-21.5-5.4c-5.1,0-10.1,0.8-14.9,2.5
		c3.5,1.8,6.9,3.9,10.2,6.2C-550.2,363.4-548.5,362.9-546.8,362.9z"/>
</g>
</svg>
