<?xml version="1.0" encoding="utf-8"?>
<!-- Generator: Adobe Illustrator 19.2.0, SVG Export Plug-In . SVG Version: 6.00 Build 0)  -->
<svg version="1.1" id="Layer_1" xmlns="http://www.w3.org/2000/svg" xmlns:xlink="http://www.w3.org/1999/xlink" x="0px" y="0px"
	 viewBox="0 0 453 117.7" style="enable-background:new 0 0 453 117.7;" xml:space="preserve">
<style type="text/css">
	.st0{fill:#FFFFFF;}
</style>
<path d="M453,105.7c0,6.6-5.4,12-12,12H12c-6.6,0-12-5.4-12-12V12C0,5.4,5.4,0,12,0h429c6.6,0,12,5.4,12,12V105.7z"/>
<g>
	<g id="bag_2_">
		<g id="handles_2_">
			<path class="st0" d="M53.5,24.5c-3.5,1.2-6,2.3-6,8.9v3.2l2.1-0.4v-2.7c0-4.5,1.1-5.4,4.1-6.7C53.7,25.8,53.6,25.1,53.5,24.5z"/>
			<path class="st0" d="M59.5,23.1c0.1,0.6,0.2,1.3,0.3,2.1c5.4-0.8,5.3,1.5,5.3,6.1V33l2.1-0.4v-1.3C67.2,24,66.1,22.1,59.5,23.1z"
				/>
			<path class="st0" d="M38.1,38.4v-9.5c-0.1-5.9,3-7.7,8.6-9c8.5-2,9,3.5,9,7v8.1l2.1-0.4V27c0-6.6-2.1-11.5-11.5-9.4
				C41.2,18.7,36,20,36,28.7v10.2L38.1,38.4z"/>
		</g>
		<path class="st0" d="M77.6,33L20.4,44.5V86l57.2,11.4L89,93.3V37.2L77.6,33z M45.5,77.4l-12.8-1.8V64.9h12.8V77.4z M45.5,64H32.7
			V53.8l12.8-1.8V64z M63,79.9l-16.5-2.3V64.9H63V79.9z M63,64H46.5V52L63,49.6V64z"/>
	</g>
</g>
<g>
	<g>
		<path class="st0" d="M112.5,29.4c1.7-0.3,3.8-0.5,6.1-0.5c4.1,0,7,1,9,2.8c2,1.8,3.1,4.4,3.1,7.9c0,3.6-1.1,6.6-3.2,8.6
			c-2.1,2.1-5.5,3.2-9.8,3.2c-2,0-3.7-0.1-5.2-0.3L112.5,29.4L112.5,29.4z M115.4,48.9c0.7,0.1,1.8,0.2,2.9,0.2
			c6.1,0,9.4-3.4,9.4-9.4c0-5.2-2.9-8.5-9-8.5c-1.5,0-2.6,0.1-3.3,0.3V48.9z"/>
		<path class="st0" d="M148.5,43.1c0,5.9-4.1,8.4-7.9,8.4c-4.3,0-7.6-3.2-7.6-8.2c0-5.3,3.5-8.4,7.9-8.4
			C145.4,34.9,148.5,38.3,148.5,43.1z M135.9,43.3c0,3.5,2,6.1,4.8,6.1c2.8,0,4.8-2.6,4.8-6.2c0-2.7-1.3-6.1-4.8-6.1
			S135.9,40.3,135.9,43.3z"/>
		<path class="st0" d="M152.5,35.3l2.1,8.1c0.5,1.8,0.9,3.4,1.2,5.1h0.1c0.4-1.6,0.9-3.3,1.4-5l2.6-8.1h2.4l2.5,7.9
			c0.6,1.9,1.1,3.6,1.4,5.2h0.1c0.3-1.6,0.7-3.3,1.2-5.2l2.3-8h2.9l-5.1,15.9h-2.6l-2.4-7.6c-0.6-1.8-1-3.3-1.4-5.2H161
			c-0.4,1.9-0.9,3.5-1.4,5.3l-2.6,7.6h-2.6l-4.8-15.9L152.5,35.3L152.5,35.3L152.5,35.3z"/>
		<path class="st0" d="M175.3,39.6c0-1.6,0-3-0.1-4.3h2.6l0.2,2.6h0.1c0.8-1.5,2.6-3,5.3-3c2.2,0,5.6,1.3,5.6,6.8v9.5h-2.9V42
			c0-2.6-1-4.7-3.7-4.7c-1.9,0-3.4,1.3-3.9,3c-0.1,0.4-0.2,0.9-0.2,1.3v9.6h-2.9V39.6z"/>
		<path class="st0" d="M192.9,27.9h2.9v23.3h-2.9V27.9z"/>
		<path class="st0" d="M214.7,43.1c0,5.9-4.1,8.4-7.9,8.4c-4.3,0-7.6-3.2-7.6-8.2c0-5.3,3.5-8.4,7.9-8.4
			C211.6,34.9,214.7,38.3,214.7,43.1z M202.1,43.3c0,3.5,2,6.1,4.8,6.1c2.8,0,4.8-2.6,4.8-6.2c0-2.7-1.3-6.1-4.8-6.1
			S202.1,40.3,202.1,43.3z"/>
		<path class="st0" d="M226.8,51.2l-0.2-2h-0.1c-0.9,1.2-2.6,2.4-4.9,2.4c-3.2,0-4.9-2.3-4.9-4.6c0-3.8,3.4-5.9,9.6-5.9v-0.3
			c0-1.3-0.4-3.7-3.6-3.7c-1.5,0-3,0.5-4.1,1.2l-0.7-1.9c1.3-0.9,3.2-1.4,5.2-1.4c4.9,0,6,3.3,6,6.5v5.9c0,1.4,0.1,2.7,0.3,3.8
			L226.8,51.2L226.8,51.2z M226.4,43.1c-3.2-0.1-6.7,0.5-6.7,3.6c0,1.9,1.2,2.8,2.7,2.8c2.1,0,3.4-1.3,3.8-2.7
			c0.1-0.3,0.2-0.6,0.2-0.9L226.4,43.1L226.4,43.1z"/>
		<path class="st0" d="M247.2,27.9v19.2c0,1.4,0,3,0.1,4.1h-2.6l-0.1-2.8h-0.1c-0.9,1.8-2.8,3.1-5.4,3.1c-3.8,0-6.8-3.3-6.8-8.1
			c0-5.3,3.2-8.5,7.1-8.5c2.4,0,4.1,1.1,4.8,2.4h0.1v-9.5H247.2z M244.3,41.8c0-0.4,0-0.9-0.1-1.2c-0.4-1.8-2-3.3-4.2-3.3
			c-3,0-4.8,2.6-4.8,6.1c0,3.2,1.6,5.9,4.7,5.9c1.9,0,3.7-1.3,4.2-3.4c0.1-0.4,0.1-0.8,0.1-1.2L244.3,41.8
			C244.3,41.8,244.3,41.8,244.3,41.8z"/>
		<path class="st0" d="M259.2,51.2V37.5H257v-2.2h2.2v-0.8c0-2.2,0.5-4.3,1.8-5.6c1.1-1.1,2.5-1.5,3.9-1.5c1,0,1.9,0.2,2.5,0.5
			l-0.4,2.2c-0.4-0.2-1-0.4-1.8-0.4c-2.5,0-3.1,2.2-3.1,4.6v0.9h3.8v2.2h-3.8v13.7H259.2z"/>
		<path class="st0" d="M268.3,40.3c0-1.9,0-3.5-0.1-5h2.5l0.1,3.1h0.1c0.7-2.1,2.5-3.5,4.4-3.5c0.3,0,0.6,0,0.8,0.1v2.7
			c-0.3-0.1-0.6-0.1-1-0.1c-2,0-3.5,1.5-3.9,3.7c-0.1,0.4-0.1,0.9-0.1,1.3v8.5h-2.9V40.3L268.3,40.3z"/>
		<path class="st0" d="M292.9,43.1c0,5.9-4.1,8.4-7.9,8.4c-4.3,0-7.6-3.2-7.6-8.2c0-5.3,3.5-8.4,7.9-8.4
			C289.8,34.9,292.9,38.3,292.9,43.1z M280.3,43.3c0,3.5,2,6.1,4.8,6.1c2.8,0,4.8-2.6,4.8-6.2c0-2.7-1.3-6.1-4.8-6.1
			C281.7,37.1,280.3,40.3,280.3,43.3z"/>
		<path class="st0" d="M296.1,39.6c0-1.6,0-3-0.1-4.3h2.5l0.1,2.6h0.1c0.9-1.5,2.4-2.9,5-2.9c2.2,0,3.8,1.3,4.5,3.2h0.1
			c0.5-0.9,1.1-1.6,1.8-2.1c1-0.7,2-1.1,3.5-1.1c2.1,0,5.2,1.4,5.2,6.9v9.4H316v-9c0-3.1-1.1-4.9-3.4-4.9c-1.6,0-2.9,1.2-3.4,2.6
			c-0.1,0.4-0.2,0.9-0.2,1.4v9.8h-2.8v-9.5c0-2.5-1.1-4.4-3.3-4.4c-1.8,0-3.1,1.4-3.6,2.9c-0.2,0.4-0.2,0.9-0.2,1.4v9.6h-2.8
			L296.1,39.6L296.1,39.6z"/>
		<path class="st0" d="M116.1,92l-5.6-22.1h3l2.6,11.2c0.7,2.8,1.2,5.5,1.6,7.6h0.1c0.4-2.2,1.1-4.8,1.8-7.7l3-11.2h3l2.7,11.2
			c0.6,2.6,1.2,5.3,1.5,7.6h0.1c0.5-2.4,1.1-4.9,1.8-7.7l2.9-11.2h2.9l-6.3,22.1h-3l-2.8-11.5c-0.7-2.8-1.1-5-1.4-7.2H124
			c-0.4,2.2-0.9,4.4-1.7,7.2l-3.2,11.5L116.1,92L116.1,92z"/>
		<path class="st0" d="M143.2,71.6c0,1-0.7,1.8-1.8,1.8c-1,0-1.7-0.8-1.7-1.8c0-1,0.8-1.8,1.8-1.8C142.5,69.8,143.2,70.6,143.2,71.6
			z M140,92V76.1h2.9V92H140z"/>
		<path class="st0" d="M147.1,80.4c0-1.6,0-3-0.1-4.3h2.6l0.2,2.6h0.1c0.8-1.5,2.6-3,5.3-3c2.2,0,5.6,1.3,5.6,6.8V92h-2.9v-9.2
			c0-2.6-1-4.7-3.7-4.7c-1.9,0-3.4,1.3-3.9,3c-0.1,0.4-0.2,0.9-0.2,1.3V92h-2.9L147.1,80.4L147.1,80.4z"/>
		<path class="st0" d="M178.6,68.6v19.2c0,1.4,0,3,0.1,4.1h-2.6l-0.1-2.8H176c-0.9,1.8-2.8,3.1-5.4,3.1c-3.8,0-6.8-3.2-6.8-8.1
			c0-5.3,3.2-8.5,7.1-8.5c2.4,0,4.1,1.1,4.8,2.4h0.1v-9.5C175.8,68.6,178.6,68.6,178.6,68.6z M175.8,82.5c0-0.4,0-0.9-0.1-1.2
			c-0.4-1.8-2-3.4-4.2-3.4c-3,0-4.8,2.6-4.8,6.1c0,3.2,1.6,5.9,4.7,5.9c1.9,0,3.7-1.3,4.2-3.4c0.1-0.4,0.1-0.8,0.1-1.2L175.8,82.5
			L175.8,82.5z"/>
		<path class="st0" d="M197.4,83.9c0,5.9-4.1,8.4-7.9,8.4c-4.3,0-7.6-3.2-7.6-8.2c0-5.3,3.5-8.4,7.9-8.4
			C194.3,75.7,197.4,79,197.4,83.9z M184.8,84c0,3.5,2,6.1,4.8,6.1c2.8,0,4.8-2.6,4.8-6.2c0-2.7-1.3-6.1-4.8-6.1S184.8,81,184.8,84z
			"/>
		<path class="st0" d="M201.5,76.1l2.1,8.1c0.5,1.8,0.9,3.4,1.2,5.1h0.1c0.4-1.6,0.9-3.3,1.4-5l2.6-8.1h2.4l2.5,7.9
			c0.6,1.9,1.1,3.6,1.4,5.2h0.1c0.3-1.6,0.7-3.3,1.2-5.2l2.3-8h2.9L216.5,92h-2.6l-2.4-7.6c-0.6-1.8-1-3.4-1.4-5.2h-0.1
			c-0.4,1.9-0.9,3.5-1.4,5.3l-2.6,7.6h-2.6l-4.8-15.9L201.5,76.1L201.5,76.1z"/>
		<path class="st0" d="M223.6,89c0.9,0.6,2.4,1.1,3.8,1.1c2.1,0,3.1-1.1,3.1-2.4c0-1.4-0.8-2.1-3-2.9c-2.9-1-4.2-2.6-4.2-4.5
			c0-2.6,2.1-4.7,5.5-4.7c1.6,0,3,0.5,3.9,1l-0.7,2.1c-0.6-0.4-1.8-0.9-3.2-0.9c-1.7,0-2.7,1-2.7,2.2c0,1.3,1,1.9,3,2.7
			c2.8,1.1,4.2,2.4,4.2,4.8c0,2.8-2.2,4.8-5.9,4.8c-1.7,0-3.4-0.4-4.5-1.1L223.6,89z"/>
		<path class="st0" d="M244,70.1c1.4-0.2,3.2-0.4,5.5-0.4c2.8,0,4.9,0.7,6.2,1.8c1.2,1.1,1.9,2.7,1.9,4.6c0,2-0.6,3.6-1.7,4.7
			c-1.5,1.6-4,2.4-6.8,2.4c-0.9,0-1.6,0-2.3-0.2V92H244L244,70.1L244,70.1z M246.9,80.8c0.6,0.2,1.4,0.2,2.4,0.2
			c3.4,0,5.6-1.7,5.6-4.7c0-2.9-2.1-4.3-5.2-4.3c-1.2,0-2.2,0.1-2.7,0.2L246.9,80.8L246.9,80.8z"/>
		<path class="st0" d="M260.5,68.6h2.9v9.9h0.1c0.5-0.8,1.2-1.5,2.1-2c0.9-0.5,1.9-0.8,3-0.8c2.1,0,5.5,1.3,5.5,6.8V92h-2.9v-9.1
			c0-2.6-1-4.7-3.7-4.7c-1.9,0-3.4,1.3-3.9,2.9c-0.2,0.4-0.2,0.8-0.2,1.4V92h-2.9L260.5,68.6L260.5,68.6L260.5,68.6L260.5,68.6z"/>
		<path class="st0" d="M292.7,83.9c0,5.9-4.1,8.4-7.9,8.4c-4.3,0-7.6-3.2-7.6-8.2c0-5.3,3.5-8.4,7.9-8.4
			C289.6,75.7,292.7,79,292.7,83.9z M280.1,84c0,3.5,2,6.1,4.8,6.1c2.8,0,4.8-2.6,4.8-6.2c0-2.7-1.3-6.1-4.8-6.1
			C281.6,77.9,280.1,81,280.1,84z"/>
		<path class="st0" d="M296,80.4c0-1.6,0-3-0.1-4.3h2.6l0.2,2.6h0.1c0.8-1.5,2.6-3,5.3-3c2.2,0,5.6,1.3,5.6,6.8V92h-2.9v-9.2
			c0-2.6-1-4.7-3.7-4.7c-1.9,0-3.4,1.3-3.9,3c-0.1,0.4-0.2,0.9-0.2,1.3V92H296L296,80.4L296,80.4z"/>
		<path class="st0" d="M315.4,84.5c0.1,3.9,2.6,5.5,5.5,5.5c2.1,0,3.3-0.4,4.4-0.8l0.5,2.1c-1,0.5-2.8,1-5.3,1c-4.9,0-7.8-3.2-7.8-8
			s2.8-8.6,7.5-8.6c5.2,0,6.6,4.6,6.6,7.5c0,0.6-0.1,1.1-0.1,1.3H315.4L315.4,84.5z M323.9,82.5c0-1.8-0.8-4.7-4-4.7
			c-2.9,0-4.2,2.7-4.4,4.7H323.9z"/>
		<path class="st0" d="M336.9,88.5c1.3,0.8,3.2,1.4,5.1,1.4c2.9,0,4.6-1.5,4.6-3.8c0-2.1-1.2-3.2-4.2-4.4c-3.6-1.3-5.8-3.2-5.8-6.3
			c0-3.4,2.9-6,7.2-6c2.3,0,3.9,0.5,4.9,1.1l-0.8,2.3c-0.7-0.4-2.2-1.1-4.2-1.1c-3,0-4.2,1.8-4.2,3.3c0,2.1,1.3,3.1,4.4,4.3
			c3.7,1.4,5.6,3.3,5.6,6.5c0,3.4-2.5,6.4-7.7,6.4c-2.1,0-4.5-0.6-5.6-1.4L336.9,88.5z"/>
		<path class="st0" d="M355.8,71.5v4.6h4.1v2.2h-4.1v8.6c0,2,0.6,3.1,2.2,3.1c0.8,0,1.3-0.1,1.7-0.2l0.1,2.2
			c-0.6,0.2-1.4,0.4-2.6,0.4c-1.3,0-2.4-0.4-3.1-1.2c-0.8-0.9-1.1-2.3-1.1-4.1v-8.7h-2.5v-2.2h2.5v-3.8L355.8,71.5z"/>
		<path class="st0" d="M376.8,83.9c0,5.9-4.1,8.4-7.9,8.4c-4.3,0-7.6-3.2-7.6-8.2c0-5.3,3.5-8.4,7.9-8.4
			C373.7,75.7,376.8,79,376.8,83.9z M364.2,84c0,3.5,2,6.1,4.8,6.1c2.8,0,4.8-2.6,4.8-6.2c0-2.7-1.3-6.1-4.8-6.1S364.2,81,364.2,84z
			"/>
		<path class="st0" d="M380.1,81c0-1.9,0-3.5-0.1-5h2.5l0.1,3.1h0.1c0.7-2.1,2.5-3.5,4.4-3.5c0.3,0,0.6,0,0.8,0.1v2.7
			c-0.3-0.1-0.6-0.1-1-0.1c-2,0-3.5,1.5-3.9,3.7c-0.1,0.4-0.1,0.9-0.1,1.3V92h-2.9L380.1,81L380.1,81z"/>
		<path class="st0" d="M391.8,84.5c0.1,3.9,2.6,5.5,5.5,5.5c2.1,0,3.3-0.4,4.4-0.8l0.5,2.1c-1,0.5-2.8,1-5.3,1c-4.9,0-7.8-3.2-7.8-8
			s2.8-8.6,7.5-8.6c5.2,0,6.6,4.6,6.6,7.5c0,0.6-0.1,1.1-0.1,1.3H391.8L391.8,84.5z M400.3,82.5c0-1.8-0.8-4.7-4-4.7
			c-2.9,0-4.2,2.7-4.4,4.7H400.3z"/>
	</g>
</g>
</svg>
