<?xml version="1.0" encoding="utf-8"?>
<!-- Generator: Adobe Illustrator 19.1.0, SVG Export Plug-In . SVG Version: 6.00 Build 0)  -->
<svg version="1.1" id="Layer_1" xmlns="http://www.w3.org/2000/svg" xmlns:xlink="http://www.w3.org/1999/xlink" x="0px" y="0px"
	 viewBox="-370 328.3 537.4 144.7" style="enable-background:new -370 328.3 537.4 144.7;" xml:space="preserve">
<style type="text/css">
	.st0{fill:#FFFFFF;}
</style>
<g>
	<g>
		<path class="st0" d="M-318,385.3c6.8,4.3,16.4,10.6,29-8.5c12.6-19.1,3.4-31.3-4.9-34.8c-2.5-1.1-26.1-14.6-62,36.6l-3.9,0.8
			c0,0,5.1-7.5,5.6-8.2c3.4-4.9,6.9-9.2,10.6-13.9c5.7-7.1,13.3-14.5,20.7-19.9c7.6-5.5,17.3-10.5,27-8.7c13.7,2.5,20.3,7,23.7,13.1
			c3.4,6.1,4.2,10.7,4.3,16.6c0.1,5.3-2.3,13.4-5.4,19.4c-2.5,4.8-4.4,7.6-6.4,12.5c-1.7,4-3.5,8-3.2,12.4c0.2,2.7,1,5.4,2.3,7.7
			c0.8,1.5,5,7.9,6.8,7.6l-39.6,7C-313.4,425-317.9,385.5-318,385.3z"/>
		<path class="st0" d="M-318.5,416c-6.8-4.3-16.4-10.6-29,8.5c-12.6,19.1-3.4,31.3,4.9,34.8c2.5,1.1,26.1,14.6,62-36.6l3.6-0.8
			c0,0-4.9,7.4-5.3,8.1c-3.4,4.9-6.9,9.2-10.6,13.9c-5.7,7.1-13.3,14.5-20.7,19.9c-7.6,5.5-17.3,10.5-27,8.7
			c-13.7-2.5-20.3-7-23.7-13.1c-3.4-6.1-4.2-10.7-4.3-16.6c-0.1-5.3,2.3-13.4,5.4-19.4c2.5-4.8,4.4-7.6,6.4-12.5
			c1.7-4,3.5-8,3.2-12.4c-0.2-2.7-1-5.4-2.3-7.7c-0.8-1.5-5-7.9-6.8-7.6l39.6-7C-323.2,376.3-318.7,415.8-318.5,416z"/>
	</g>
	<g>
		<path class="st0" d="M-221.4,449.4l-9.4-5.5c2.6-2.2,5.8-6.6,5.8-11.7v-91h10.8v39.9c1.5-3.5,6.2-6,9.2-6
			c9.5,0,15.6,12.3,15.6,36.9c0,24.6-6,36.9-15.6,36.9c-3.1,0-8.8-3.1-10.6-7.9C-216.8,444.2-218.4,446.5-221.4,449.4z
			 M-208.1,438.2c4.5,0,6.9-6.9,6.9-26.2c0-19.2-2.5-26.2-6.9-26.2c-4.5,0-6.2,6.9-6.2,26.2C-214.2,431.3-212.5,438.2-208.1,438.2z"
			/>
		<path class="st0" d="M-164.2,444.1l-9.4,5.5c-4.5-4.8-7.2-8.8-7.2-18.5v-89.9h10.8v89.6C-170,437.6-166.7,441.9-164.2,444.1z"/>
		<path class="st0" d="M-121.7,443.9l-9.4,5.5c0,0-3.7-3.1-4.8-6c0,0-4.6,5.7-10.3,5.7c-8.5,0-12.9-6.8-12.9-13.4v-59.1h10.8v53.7
			c0,5.9,0.8,8.3,3.4,8.3c4.3,0,6.6-6.2,6.6-6.2v-55.9h10.8v55.6C-127.6,437.3-124.2,441.8-121.7,443.9z"/>
		<path class="st0" d="M-92.6,432.4l6.6,6.6c0,0-5.2,10-14.6,10c-12.5,0-17.4-12.3-17.4-36.9c0-24.6,5.9-36.9,17.4-36.9
			c10.6,0,15.1,12.6,15.1,25.6c0,3.4-0.5,6.9-0.5,6.9c-5.8,7.5-12.5,10.5-20.6,10.5c0,14.9,2.3,20.5,6.8,20.5
			C-95.1,438.5-92.6,432.4-92.6,432.4z M-96.2,403.3c0,0,0.6-3.8,0.6-6c0-7.2-2-12.2-4.8-12.2c-4.5,0-6.3,7.7-6.3,23.1
			C-100.8,408.2-99.2,406.5-96.2,403.3z"/>
		<path class="st0" d="M-47.5,447.4h-10.8v-53.9c0-7.4-0.5-8.2-2.5-8.2c-4.3,0-6,6-6,6v56h-10.8v-55.6c0-5.1-3.2-9.7-5.9-11.7
			l9.4-5.5c0,0,3.8,3.1,4.9,6c0,0,4.5-5.7,10.3-5.7c4.6,0,7.5,2,9.2,5.1c2.2-2,6-5.1,10-5.1c8.3,0,11.2,6.8,11.2,13.2v59.2h-10.8
			v-53.9c0-7.4-0.5-8.2-2.5-8.2c-4.3,0-6,6-6,6L-47.5,447.4L-47.5,447.4z"/>
		<path class="st0" d="M5,432.4l6.6,6.6c0,0-5.2,10-14.6,10c-12.5,0-17.4-12.3-17.4-36.9c0-24.6,5.8-36.9,17.4-36.9
			c10.6,0,15.1,12.6,15.1,25.6c0,3.4-0.5,6.9-0.5,6.9c-5.8,7.5-12.5,10.5-20.6,10.5c0,14.9,2.3,20.5,6.8,20.5
			C2.5,438.5,5,432.4,5,432.4z M1.4,403.3c0,0,0.6-3.8,0.6-6c0-7.2-2-12.2-4.8-12.2c-4.5,0-6.3,7.7-6.3,23.1
			C-3.2,408.2-1.7,406.5,1.4,403.3z"/>
		<path class="st0" d="M17,412c0-24.6,6-36.9,15.5-36.9c3.1,0,7.7,2.5,9.2,6v-39.9h10.8v91c0,5.1,3.2,9.5,5.8,11.7l-9.4,5.5
			c-3.1-2.9-4.6-5.2-5.9-8.3c-1.8,4.8-7.5,7.9-10.6,7.9C23,449,17,436.7,17,412z M28.6,412c0,19.2,2.5,26.2,6.9,26.2
			c4.5,0,6.2-6.9,6.2-26.2c0-19.2-1.7-26.2-6.2-26.2C31.1,385.9,28.6,392.8,28.6,412z"/>
		<path class="st0" d="M97.6,412c0,24.6-7.5,36.9-17.7,36.9c-10.3,0-17.9-12.3-17.9-36.9c0-24.6,7.5-36.9,17.9-36.9
			C90.1,375.1,97.6,387.4,97.6,412z M79.9,437.4c3.8,0,6-6.2,6-25.4c0-19.2-2.2-25.4-6-25.4c-3.8,0-6.2,6.2-6.2,25.4
			C73.8,431.3,76.1,437.4,79.9,437.4z"/>
		<path class="st0" d="M117.9,447.4h-10.8v-55.6c0-5.1-1.8-8.6-5.9-11.7l9.4-5.5c1.8,1.4,4.8,6,4.8,6s5.1-5.5,10.2-5.5l2.8,10.3
			c-5.1,0-10.5,6-10.5,6L117.9,447.4L117.9,447.4z"/>
		<path class="st0" d="M168.7,443.9l-9.4,5.5c0,0-4.5-4-5.7-8.3c0,0-6.2,7.9-11.5,7.9c-7.2,0-11.5-8.6-11.5-21.5
			c0-12,5.4-23.6,14.6-23.6h6.9v-8.2c0-8.8-1.9-10.2-3.8-10.2c-3.8,0-7.9,4.5-9.4,7.4l-5.5-7.2c2.9-4.9,9.2-10.6,14.9-10.6
			c10.6,0,14.6,5.5,14.6,20.6v36.5C162.9,437.3,166.3,441.8,168.7,443.9z M148.2,413.4c-4.3,0-6.8,5.8-6.8,14c0,8.5,1.7,10.3,4,10.3
			c2.2,0,6.2-4.5,6.6-8.3v-16L148.2,413.4L148.2,413.4z"/>
	</g>
</g>
</svg>
