<?xml version="1.0" encoding="utf-8"?>
<!-- Generator: Adobe Illustrator 19.1.0, SVG Export Plug-In . SVG Version: 6.00 Build 0)  -->
<svg version="1.1" id="Layer_2" xmlns="http://www.w3.org/2000/svg" xmlns:xlink="http://www.w3.org/1999/xlink" x="0px" y="0px"
	 viewBox="-369 369.1 540 63.9" style="enable-background:new -369 369.1 540 63.9;" xml:space="preserve">
<style type="text/css">
	.st0{fill:#00BCDD;}
	.st1{fill:#FFFFFF;}
</style>
<g>
	<path class="st0" d="M-289,393.4c0-7.8-2.3-15.5-6.5-22c-2-3-6.5-3.1-8.3,0.2c-1.7,3.2,1.1,5.9,2.4,8.7c3.3,7.1,3.8,15.3,1.4,22.7
		c-0.6,1.8-1.3,3.5-2.2,5.1c-0.7,1.2-1.6,3.4-3.4,2.5c-1.9-0.9-0.6-2.7,0-3.9c1-1.8,1.8-3.6,2.3-5.6c2.2-7.5,1.1-15.8-3-22.4
		c-2.1-2.9-6.7-2.5-8.2,0.8c-0.7,1.5-0.5,3.4,0.5,4.7c1,1.8,1.7,3.7,2.1,5.7c0.7,3.8,0.2,7.9-1.6,11.4c-0.6,1.2-2,2.3-3.2,1
		c-1.1-1.2,0.2-2.8,0.7-4.1c1.4-3.7,1.1-7.9-0.6-11.4c-1.3-2.7-5.8-4-7.2-0.7c-0.9,2.1-0.6,5-0.6,7.3c0,3.5,0,7,0,10.5
		c0,8.2,0,16.3,0,24.5c0,1.5,0,2.9,0,4.4C-304.3,431.1-288.9,413.3-289,393.4z M-291.9,393.7c-0.1,17.2-12.5,32.5-29.4,35.9
		c0-12.8,0-25.5,0-38.3c0-1.1-0.1-2.2,0.1-3.3c0.4-1.6,2.2,0.3,2.4,1.1c0.7,1.6,0.9,3.6,0.7,5.3c-0.3,3.2-3.3,6.5-1.1,9.7
		c1,1.4,2.6,2.2,4.3,2c2-0.2,3.2-1.5,4.1-3.2c1.8-3.5,2.5-7.5,2.2-11.3c-0.2-1.9-0.6-3.7-1.2-5.4c-0.3-0.9-0.7-1.7-1.1-2.5
		c-0.4-0.7-1-1.4-0.8-2.2c0.2-1.5,2.2-2.1,3.2-0.8c1.1,1.7,1.9,3.6,2.5,5.5c1.2,3.7,1.4,7.7,0.8,11.6c-0.3,1.8-0.8,3.6-1.6,5.4
		c-0.7,1.7-2,3.2-2.5,5c-0.8,3.3,2.1,6.4,5.4,5.9c3.6-0.6,5.2-5.5,6.3-8.5c1.3-3.6,2.1-7.5,2.1-11.4c0.1-3.9-0.5-7.8-1.8-11.4
		c-0.6-1.8-1.3-3.5-2.2-5.1c-0.6-1.2-2.4-3-1.6-4.4c1-1.7,2.7-0.6,3.4,0.6c1.1,1.7,2,3.5,2.8,5.4c1.5,3.6,2.4,7.4,2.7,11.2
		C-292,391.3-292,392.5-291.9,393.7z"/>
	<path class="st0" d="M-369,393.4c0-7.8,2.3-15.5,6.5-22c2-3,6.5-3.1,8.3,0.2c1.7,3.2-1.1,5.9-2.4,8.7c-3.3,7.1-3.8,15.3-1.4,22.7
		c0.6,1.8,1.3,3.5,2.2,5.1c0.7,1.2,1.6,3.4,3.4,2.5c1.9-0.9,0.6-2.7,0-3.9c-1-1.8-1.8-3.6-2.3-5.6c-2.2-7.5-1.1-15.8,3-22.4
		c2.1-2.9,6.7-2.5,8.2,0.8c0.7,1.5,0.5,3.4-0.5,4.7c-1,1.8-1.7,3.7-2.1,5.7c-0.7,3.9-0.2,7.9,1.6,11.4c0.6,1.2,1.9,2.3,3.2,1
		c1.1-1.2-0.2-2.8-0.7-4.1c-1.4-3.7-1.1-7.9,0.6-11.4c1.3-2.7,5.8-4,7.2-0.7c0.9,2.1,0.6,5,0.6,7.3c0,3.5,0,7,0,10.5
		c0,8.2,0,16.3,0,24.5c0,1.5,0,2.9,0,4.4C-353.7,431.1-369.1,413.3-369,393.4z M-366,393.7c0.1,17.2,12.5,32.5,29.4,35.9
		c0-12.8,0-25.5,0-38.3c0-1.1,0.1-2.2-0.1-3.3c-0.4-1.6-2.2,0.3-2.4,1.1c-0.7,1.6-0.9,3.6-0.7,5.3c0.3,3.2,3.3,6.5,1.1,9.7
		c-1,1.4-2.6,2.2-4.3,2c-2-0.2-3.2-1.5-4.1-3.2c-1.8-3.5-2.5-7.5-2.2-11.3c0.2-1.9,0.6-3.7,1.2-5.4c0.3-0.9,0.7-1.7,1.1-2.5
		c0.4-0.7,0.9-1.4,0.8-2.2c-0.2-1.5-2.2-2.1-3.2-0.8c-1.1,1.7-1.9,3.6-2.5,5.5c-1.2,3.7-1.4,7.7-0.8,11.6c0.3,1.8,0.8,3.6,1.6,5.4
		c0.7,1.7,2,3.2,2.5,5c0.8,3.3-2.1,6.4-5.4,5.9c-3.6-0.6-5.2-5.5-6.3-8.5c-1.3-3.6-2.1-7.5-2.1-11.4c-0.1-3.9,0.5-7.8,1.8-11.4
		c0.6-1.8,1.3-3.5,2.2-5.1c0.6-1.2,2.4-3,1.6-4.4c-1-1.7-2.7-0.6-3.4,0.6c-1.1,1.7-2,3.5-2.8,5.4c-1.5,3.6-2.4,7.4-2.7,11.2
		C-366,391.3-366,392.5-366,393.7z"/>
</g>
<g>
	<g>
		<g>
			<path class="st1" d="M-41.9,400.7c0-9.1,1.5-19.8,11.6-22.7c5.3-1.5,12.4-1.4,17.2,1.7c4.1,2.7,5.6,7.5,5.6,12.3
				c0,0.1,0,0.2,0,0.3c-3.1,0-6.2,0-9.3,0c0-2.8-0.8-5.8-3.3-7.4c-1.7-1.1-3.8-1.1-5.8-0.8c-3.5,0.4-5,3-5.6,6.2
				c-0.6,2.9-0.6,6-0.6,9c0,3.4,0,6.8,0.4,10.1c0.5,3.5,1.6,7.1,5.5,7.8c2.4,0.5,5,0.3,6.8-1.5c1.9-1.8,2.5-4.6,2.7-7.1
				c0-0.5,0.8-0.3,1.2-0.3c1.1,0,2.2,0,3.4,0c1.7,0,3.4,0,5.1,0c0,5.1-1.6,10.3-6.1,13.2c-4.7,3-11.3,3.3-16.6,2
				c-4.6-1.2-8.3-4.2-10.2-8.5c-1.7-4-2.1-8.5-2.2-12.8C-41.9,401.7-41.9,401.2-41.9,400.7z"/>
		</g>
	</g>
	<path class="st1" d="M-241.3,386.1H-254v37.8h-9.5v-37.8h-12.7v-8c6.1,0,12.2,0,18.3,0c4,0,8.1,0,12.1,0c1.2,0,2.4,0,3.6,0
		c0.6,0,0.9-0.2,0.9,0.4C-241.3,381-241.3,383.6-241.3,386.1z"/>
	<path class="st1" d="M-199.4,423.8h-9.5v-19.1h-16.5v19.1h-9.5v-45.7h9.5v18.7h16.5v-18.7c3.1,0,6.3,0,9.4,0c0.2,0,0.1,3.8,0.1,4.1
		c0,8,0,16.1,0,24.1C-199.4,412.2-199.4,418-199.4,423.8z"/>
	<path class="st1" d="M-151.7,423.8h-9.9l-2.9-8.1h-17.3l-2.9,8.1h-9.9l17.8-45.7c1.6,0,3.2,0,4.8,0c0.4,0,2.6-0.3,2.7,0.1
		c0.7,1.7,1.4,3.5,2,5.2c3,7.7,6,15.3,9,23C-156.2,412.3-154,418.1-151.7,423.8z M-167,408.2l-6-16.6c-2.1,5.5-4.1,11.1-6.2,16.6
		C-175.1,408.2-171.1,408.2-167,408.2z"/>
	<path class="st1" d="M-117.9,423.8h-29.2v-45.7h9.5v37.8c5.2,0,10.4,0,15.6,0c1.1,0,2.2,0,3.3,0c0.6,0,0.8-0.2,0.8,0.4
		C-117.9,418.8-117.9,421.3-117.9,423.8z"/>
	<path class="st1" d="M-68.7,423.8h-9.5v-26.7l-9.3,17.3h-6.5l-9.4-17.3v26.7h-9.5v-45.7h9.4l12.7,24.7l12.7-24.7c3.1,0,6.2,0,9.3,0
		c0.2,0,0.1,3.8,0.1,4.1c0,8,0,16.1,0,24.1C-68.7,412.2-68.7,418-68.7,423.8z"/>
	<path class="st1" d="M-49.1,423.8h-9.5v-45.7c3.1,0,6.3,0,9.4,0c0.2,0,0.1,3.8,0.1,4.1c0,8,0,16.1,0,24.1
		C-49.1,412.2-49.1,418-49.1,423.8z"/>
</g>
<g>
	<path class="st1" d="M33.2,423.8H3v-45.7h5.2v41.4c5.3,0,10.5,0,15.8,0c2.7,0,5.5,0,8.2,0c0.5,0,0.9-0.2,0.9,0.3
		C33.2,421.1,33.2,422.5,33.2,423.8z"/>
	<path class="st1" d="M69.4,423.8h-5.6L60,413.5H38.6l-3.9,10.3h-5.5l17.9-45.7c0.7,0,1.4,0,2.1,0c0.4,0,2-0.3,2.3,0
		c0.2,0.2,0.3,0.9,0.4,1.1c1,2.5,1.9,5,2.9,7.4c3.1,8,6.2,15.9,9.4,23.9C65.9,415,67.7,419.4,69.4,423.8z M58.4,409.3l-9-24.1
		c-3.1,8-6.1,16.1-9.2,24.1C46.3,409.3,52.4,409.3,58.4,409.3z"/>
	<path class="st1" d="M109.4,411.2c0,6-3.5,10.6-9.3,12c-2.8,0.7-5.6,0.6-8.5,0.6c-5.2,0-10.5,0-15.7,0v-45.7h18.4
		c5.8,0,11.9,2.4,13.8,8.3c1.9,5.7-0.8,12-6.6,13.9C106.2,401.9,109.4,406.2,109.4,411.2z M103.4,390.4c0-3.5-1.9-6.2-5.3-7.3
		c-2-0.6-4.1-0.6-6.1-0.6c-3.6,0-7.3,0-10.9,0v15.9h12.7C98.8,398.3,103.4,395.8,103.4,390.4z M104.2,411c0-4.1-2.7-7.1-6.6-8
		c-1.8-0.4-3.7-0.3-5.6-0.3c-3.6,0-7.2,0-10.9,0v16.8h13.3C99.5,419.5,104.2,416.6,104.2,411z"/>
	<path class="st1" d="M148.3,411.3c0,7.4-6.2,11.8-13,12.7c-7.4,1-15-0.6-20.6-5.8c1.2-1.1,2.4-2.2,3.6-3.4c4,3.8,8.8,5.2,14.2,5
		c4.3-0.2,9.3-1.8,10.3-6.5c0.5-2.3,0.2-5.1-1.4-7c-1.5-1.8-3.6-2.3-5.8-2.7c-2.3-0.4-4.7-0.7-7.1-1.1c-4.3-0.7-9.1-2.2-11.3-6.3
		c-2.3-4.1-1.7-9.8,1.2-13.4c3.1-3.9,8.3-5.2,13.1-5.2c5.4,0,10.3,1.4,14.5,5c-1.1,1.1-2.2,2.1-3.3,3.2c-3.7-3.1-8.5-4.4-13.2-3.8
		c-4.6,0.5-8.4,3.5-8.4,8.4c0,7.5,8.5,7.7,14.1,8.5c3.4,0.5,6.9,1.3,9.5,3.7C147.2,404.9,148.3,408,148.3,411.3z"/>
</g>
<g>
	<path class="st1" d="M157,387.7h-1.6v-8.2h-2.8V378h7.3v1.4c-0.9,0-1.9,0-2.8,0c-0.1,0,0,1.9,0,2.1C157,383.6,157,385.6,157,387.7z
		 M165.1,387.7l-2.7-7.5h-0.1l0.1,1.7v5.8h-1.6V378h2.5l2.6,7.5l2.7-7.5h2.4v9.6h-1.7v-5.6l0.1-1.8h-0.1c-0.6,1.5-1.2,3.1-1.7,4.6
		c-0.3,0.8-0.6,1.7-0.9,2.5C166.3,387.9,165.7,387.7,165.1,387.7z"/>
</g>
</svg>
