<?xml version="1.0" encoding="utf-8"?>
<!-- Generator: Adobe Illustrator 16.0.4, SVG Export Plug-In . SVG Version: 6.00 Build 0)  -->
<!DOCTYPE svg PUBLIC "-//W3C//DTD SVG 1.1//EN" "http://www.w3.org/Graphics/SVG/1.1/DTD/svg11.dtd">
<svg version="1.1" id="Layer_2" xmlns="http://www.w3.org/2000/svg" xmlns:xlink="http://www.w3.org/1999/xlink" x="0px" y="0px"
	 width="540px" height="63.865px" viewBox="1.521 581.861 540 63.865" enable-background="new 1.521 581.861 540 63.865"
	 xml:space="preserve">
<g>
	<path fill="#00BCDD" d="M81.544,606.14c0-7.777-2.255-15.473-6.465-22.014c-1.957-3.04-6.532-3.075-8.269,0.239
		c-1.669,3.185,1.122,5.949,2.395,8.699c3.274,7.072,3.762,15.282,1.356,22.695c-0.575,1.77-1.309,3.488-2.19,5.128
		c-0.655,1.219-1.557,3.372-3.351,2.548c-1.903-0.873-0.619-2.699,0.05-3.905c0.979-1.765,1.765-3.637,2.336-5.572
		c2.207-7.476,1.117-15.755-3.014-22.373c-2.124-2.928-6.727-2.476-8.208,0.85c-0.688,1.545-0.502,3.363,0.5,4.726
		c1.011,1.767,1.717,3.704,2.085,5.706c0.707,3.849,0.153,7.9-1.612,11.396c-0.619,1.228-1.956,2.284-3.192,0.968
		c-1.144-1.219,0.23-2.841,0.678-4.055c1.352-3.672,1.139-7.873-0.58-11.388c-1.299-2.655-5.789-3.968-7.24-0.684
		c-0.933,2.109-0.599,4.959-0.598,7.266c0,3.487,0.001,6.976,0.001,10.464c0.001,8.171,0.003,16.342,0.004,24.513
		c0,1.46,0,2.92,0.001,4.38C66.199,643.834,81.613,625.988,81.544,606.14z M78.593,606.463
		c-0.082,17.181-12.516,32.484-29.402,35.856c0-12.771,0-25.543,0-38.314c0-1.081-0.139-2.229,0.142-3.278
		c0.434-1.62,2.156,0.347,2.447,1.068c0.662,1.642,0.888,3.551,0.746,5.308c-0.261,3.232-3.329,6.53-1.13,9.654
		c0.965,1.371,2.625,2.158,4.298,2.013c1.995-0.173,3.242-1.471,4.095-3.168c1.756-3.492,2.497-7.453,2.156-11.346
		c-0.163-1.856-0.567-3.691-1.21-5.441c-0.319-0.869-0.696-1.716-1.129-2.534c-0.363-0.686-0.954-1.374-0.816-2.201
		c0.223-1.498,2.238-2.068,3.154-0.818c1.06,1.725,1.903,3.582,2.506,5.515c1.163,3.724,1.424,7.716,0.763,11.56
		c-0.317,1.841-0.844,3.645-1.569,5.366c-0.699,1.661-2.038,3.215-2.478,4.951c-0.825,3.253,2.081,6.442,5.411,5.857
		c3.589-0.631,5.242-5.546,6.346-8.528c1.345-3.636,2.061-7.497,2.113-11.372c0.053-3.878-0.548-7.763-1.789-11.438
		c-0.591-1.751-1.327-3.453-2.197-5.084c-0.64-1.199-2.416-3.007-1.554-4.447c1.026-1.715,2.697-0.554,3.434,0.635
		c1.064,1.714,1.99,3.513,2.766,5.375c1.487,3.569,2.416,7.367,2.749,11.22C78.549,604.066,78.562,605.262,78.593,606.463z"/>
	<path fill="#00BCDD" d="M1.521,606.14c0-7.777,2.257-15.472,6.463-22.014c1.956-3.042,6.534-3.074,8.269,0.239
		c1.668,3.185-1.12,5.948-2.393,8.699c-3.273,7.075-3.762,15.28-1.355,22.695c0.574,1.77,1.308,3.488,2.188,5.128
		c0.653,1.216,1.558,3.374,3.35,2.548c1.901-0.876,0.624-2.697-0.047-3.905c-0.98-1.764-1.766-3.636-2.337-5.572
		c-2.208-7.475-1.117-15.756,3.014-22.373c2.122-2.929,6.729-2.475,8.209,0.85c0.687,1.543,0.501,3.362-0.497,4.726
		c-1.014,1.766-1.724,3.703-2.095,5.706c-0.712,3.851-0.152,7.902,1.62,11.396c0.622,1.226,1.948,2.285,3.188,0.968
		c1.146-1.219-0.226-2.841-0.674-4.055c-1.354-3.667-1.144-7.877,0.575-11.388c1.3-2.656,5.789-3.967,7.243-0.684
		c0.934,2.106,0.598,4.96,0.597,7.266c0,3.487-0.001,6.976-0.001,10.464c-0.001,8.171-0.002,16.342-0.003,24.513
		c0,1.46,0,2.92-0.001,4.38C16.862,643.842,1.454,625.984,1.521,606.14z M4.473,606.463c0.078,17.183,12.515,32.485,29.402,35.856
		c0-12.771,0-25.543,0-38.314c0-1.081,0.141-2.23-0.142-3.278c-0.436-1.618-2.157,0.347-2.449,1.068
		c-0.663,1.641-0.891,3.551-0.747,5.308c0.264,3.232,3.33,6.53,1.131,9.654c-0.966,1.373-2.625,2.158-4.3,2.013
		c-1.995-0.173-3.238-1.472-4.091-3.168c-1.757-3.493-2.502-7.452-2.161-11.346c0.163-1.856,0.569-3.691,1.21-5.441
		c0.319-0.869,0.695-1.716,1.127-2.534c0.367-0.694,0.948-1.364,0.825-2.201c-0.23-1.5-2.242-2.064-3.164-0.818
		c-1.056,1.727-1.898,3.583-2.502,5.515c-1.164,3.725-1.429,7.715-0.764,11.56c0.318,1.841,0.847,3.645,1.571,5.366
		c0.699,1.66,2.036,3.216,2.477,4.951c0.826,3.253-2.08,6.443-5.411,5.857c-3.588-0.631-5.243-5.546-6.346-8.528
		c-1.345-3.636-2.06-7.497-2.112-11.372c-0.053-3.878,0.547-7.763,1.788-11.438c0.591-1.751,1.327-3.453,2.196-5.084
		c0.639-1.199,2.417-3.008,1.553-4.447c-1.027-1.712-2.698-0.557-3.438,0.635c-1.063,1.714-1.988,3.513-2.763,5.375
		c-1.485,3.57-2.411,7.367-2.742,11.22C4.521,604.067,4.526,605.264,4.473,606.463z"/>
</g>
<g>
	<g>
		<g>
			<path fill="#FFFFFF" d="M328.576,613.42c0-9.076,1.465-19.793,11.612-22.697c5.338-1.528,12.411-1.406,17.184,1.733
				c4.119,2.709,5.563,7.54,5.619,12.252c0,0.107,0.001,0.214,0.002,0.321c-3.089,0-6.178,0-9.267,0
				c0-2.784-0.795-5.841-3.316-7.382c-1.724-1.052-3.815-1.076-5.763-0.83c-3.491,0.44-4.955,2.955-5.568,6.213
				c-0.552,2.939-0.608,5.976-0.632,8.957c-0.027,3.37-0.021,6.779,0.438,10.124c0.475,3.468,1.611,7.074,5.456,7.826
				c2.377,0.465,5.028,0.301,6.837-1.482c1.853-1.827,2.541-4.625,2.691-7.145c0.028-0.472,0.83-0.254,1.241-0.254
				c1.121,0,2.243,0,3.365,0c1.711,0,3.423,0,5.134,0c0,5.11-1.606,10.332-6.076,13.242c-4.678,3.046-11.336,3.312-16.618,2
				c-4.639-1.15-8.271-4.16-10.172-8.549c-1.74-4.018-2.094-8.512-2.157-12.84C328.579,614.413,328.576,613.917,328.576,613.42z"/>
		</g>
	</g>
	<path fill="#FFFFFF" d="M129.212,598.811h-12.737v37.761h-9.536v-37.761H94.193v-7.969c6.107,0,12.214,0,18.322,0
		c4.037,0,8.074,0,12.11,0c1.215,0,2.43,0,3.645,0c0.57,0,0.942-0.224,0.942,0.387C129.212,593.756,129.212,596.283,129.212,598.811
		z"/>
	<path fill="#FFFFFF" d="M171.123,636.571h-9.53v-19.135h-16.491v19.135h-9.528v-45.729h9.528v18.693h16.491v-18.693
		c3.147,0,6.294,0,9.442,0c0.191,0,0.088,3.795,0.088,4.117c0,8.035,0,16.069,0,24.104
		C171.123,624.899,171.123,630.735,171.123,636.571z"/>
	<path fill="#FFFFFF" d="M218.788,636.571h-9.939l-2.872-8.094H188.65l-2.943,8.094h-9.937l17.765-45.729c1.594,0,3.189,0,4.783,0
		c0.376,0,2.575-0.263,2.723,0.116c0.679,1.745,1.358,3.489,2.037,5.234c2.985,7.672,5.97,15.343,8.954,23.014
		C214.284,624.995,216.536,630.783,218.788,636.571z M203.472,620.949l-5.992-16.619c-2.051,5.54-4.101,11.079-6.152,16.619
		C195.376,620.949,199.424,620.949,203.472,620.949z"/>
	<path fill="#FFFFFF" d="M252.662,636.571h-29.193v-45.729h9.536v37.761c5.19,0,10.38,0,15.569,0c1.105,0,2.21,0,3.316,0
		c0.551,0,0.772-0.185,0.772,0.387C252.662,631.517,252.662,634.044,252.662,636.571z"/>
	<path fill="#FFFFFF" d="M301.869,636.571h-9.531v-26.662l-9.303,17.35h-6.45l-9.366-17.35v26.662h-9.537v-45.729h9.403
		l12.712,24.716l12.673-24.716c3.104,0,6.208,0,9.312,0c0.188,0,0.087,3.796,0.087,4.117c0,8.035,0,16.069,0,24.104
		C301.869,624.899,301.869,630.735,301.869,636.571z"/>
	<path fill="#FFFFFF" d="M321.397,636.571h-9.529v-45.729c3.147,0,6.294,0,9.44,0c0.191,0,0.089,3.795,0.089,4.117
		c0,8.035,0,16.069,0,24.104C321.397,624.899,321.397,630.735,321.397,636.571z"/>
</g>
<g>
	<path fill="#FFFFFF" d="M403.677,636.565h-30.135v-45.728h5.217v41.369c5.261,0,10.522,0,15.784,0c2.739,0,5.479,0,8.219,0
		c0.455,0,0.915-0.206,0.915,0.299C403.677,633.859,403.677,635.213,403.677,636.565z"/>
	<path fill="#FFFFFF" d="M439.936,636.565h-5.551l-3.91-10.349h-21.306l-3.914,10.349h-5.517l17.923-45.728c0.688,0,1.374,0,2.062,0
		c0.428,0,1.979-0.262,2.325,0c0.201,0.152,0.338,0.863,0.426,1.088c0.968,2.475,1.937,4.95,2.904,7.425
		c3.118,7.973,6.237,15.944,9.355,23.917C436.468,627.7,438.201,632.133,439.936,636.565z M428.969,621.982l-9.032-24.148
		c-3.065,8.049-6.131,16.099-9.196,24.148C416.816,621.982,422.893,621.982,428.969,621.982z"/>
	<path fill="#FFFFFF" d="M479.908,623.926c0,5.979-3.534,10.553-9.339,12.035c-2.771,0.708-5.619,0.604-8.451,0.604
		c-5.23,0-10.46,0-15.69,0v-45.728h18.364c5.773,0,11.856,2.363,13.786,8.267c1.854,5.672-0.813,11.982-6.597,13.939
		C476.71,614.666,479.908,618.884,479.908,623.926z M473.952,603.102c0-3.535-1.925-6.199-5.291-7.293
		c-1.99-0.647-4.055-0.609-6.116-0.609c-3.633,0-7.266,0-10.899,0v15.868h12.741C469.351,611.067,473.952,608.541,473.952,603.102z
		 M474.688,623.77c0-4.075-2.662-7.078-6.572-7.995c-1.833-0.43-3.727-0.347-5.596-0.347c-3.625,0-7.25,0-10.875,0v16.779h13.257
		C470.022,632.207,474.688,629.312,474.688,623.77z"/>
	<path fill="#FFFFFF" d="M518.84,623.99c0,7.429-6.187,11.765-12.995,12.701c-7.427,1.021-15.029-0.559-20.582-5.771
		c1.193-1.118,2.386-2.237,3.579-3.355c3.998,3.755,8.801,5.216,14.232,5c4.251-0.169,9.265-1.825,10.339-6.487
		c0.525-2.281,0.18-5.106-1.354-6.95c-1.46-1.757-3.608-2.346-5.761-2.706c-2.345-0.394-4.705-0.706-7.056-1.057
		c-4.334-0.652-9.098-2.23-11.342-6.31c-2.252-4.093-1.67-9.757,1.207-13.391c3.087-3.896,8.312-5.202,13.073-5.202
		c5.441,0,10.324,1.435,14.52,4.987c-1.116,1.057-2.231,2.112-3.347,3.169c-3.665-3.143-8.48-4.352-13.245-3.822
		c-4.592,0.511-8.395,3.477-8.395,8.367c0,7.468,8.519,7.745,14.084,8.531c3.445,0.472,6.865,1.346,9.515,3.724
		C517.766,617.619,518.84,620.746,518.84,623.99z"/>
</g>
<g>
	<path fill="#FFFFFF" d="M527.561,600.397h-1.646v-8.226h-2.794v-1.416h7.261v1.416c-0.93,0-1.858,0-2.788,0
		c-0.067,0-0.032,1.9-0.032,2.054C527.561,596.282,527.561,598.34,527.561,600.397z M535.583,600.397l-2.687-7.477h-0.108
		l0.08,1.727v5.75h-1.59v-9.642h2.5l2.621,7.475l2.713-7.475h2.408v9.642h-1.697v-5.616l0.081-1.833h-0.108
		c-0.579,1.528-1.158,3.058-1.738,4.586c-0.315,0.834-0.632,1.667-0.947,2.501C536.87,600.669,536.218,600.397,535.583,600.397z"/>
</g>
</svg>
