<?xml version="1.0" encoding="utf-8"?>
<!-- Generator: Adobe Illustrator 16.0.4, SVG Export Plug-In . SVG Version: 6.00 Build 0)  -->
<!DOCTYPE svg PUBLIC "-//W3C//DTD SVG 1.1//EN" "http://www.w3.org/Graphics/SVG/1.1/DTD/svg11.dtd">
<svg version="1.1" id="Layer_1" xmlns="http://www.w3.org/2000/svg" xmlns:xlink="http://www.w3.org/1999/xlink" x="0px" y="0px"
	 width="537.44px" height="144.701px" viewBox="1.28 19.858 537.44 144.701" enable-background="new 1.28 19.858 537.44 144.701"
	 xml:space="preserve">
<g>
	<g>
		<path fill="#FFFFFF" d="M51.958,76.824c6.757,4.264,16.396,10.629,28.976-8.514c12.581-19.141,3.353-31.32-4.858-34.843
			c-2.537-1.089-26.116-14.582-62.003,36.556l-3.886,0.84c0,0,5.123-7.49,5.585-8.16c3.44-4.895,6.893-9.193,10.613-13.889
			c5.661-7.114,13.314-14.529,20.707-19.864c7.579-5.465,17.26-10.501,26.986-8.731c13.74,2.492,20.312,6.971,23.712,13.079
			c3.398,6.11,4.193,10.674,4.349,16.598c0.138,5.295-2.318,13.425-5.373,19.387c-2.457,4.794-4.367,7.581-6.434,12.525
			c-1.661,3.994-3.509,7.992-3.177,12.43c0.191,2.663,1.002,5.381,2.262,7.735c0.767,1.462,4.981,7.883,6.844,7.649l-39.646,6.968
			C56.615,116.591,52.108,77.079,51.958,76.824z"/>
		<path fill="#FFFFFF" d="M51.465,107.593c-6.757-4.264-16.396-10.63-28.976,8.509c-12.581,19.143-3.352,31.325,4.858,34.847
			c2.537,1.09,26.116,14.583,62.004-36.556l3.62-0.753c0,0-4.857,7.404-5.32,8.07c-3.439,4.896-6.893,9.195-10.612,13.893
			c-5.662,7.111-13.315,14.526-20.707,19.863c-7.579,5.465-17.26,10.501-26.985,8.732c-13.741-2.491-20.312-6.972-23.712-13.082
			c-3.399-6.108-4.194-10.673-4.349-16.599c-0.14-5.293,2.316-13.426,5.372-19.386c2.457-4.792,4.367-7.58,6.434-12.523
			c1.661-3.997,3.51-7.993,3.177-12.431c-0.191-2.662-1.001-5.383-2.26-7.735c-0.769-1.461-4.983-7.883-6.846-7.649l39.646-6.968
			C46.809,67.826,51.315,107.337,51.465,107.593z"/>
	</g>
	<g>
		<path fill="#FFFFFF" d="M148.551,141.008l-9.391-5.543c2.616-2.151,5.847-6.617,5.847-11.697V32.807h10.778v39.86
			c1.532-3.535,6.152-6.001,9.227-6.001c9.546,0,15.553,12.317,15.553,36.941c0,24.625-6.007,36.94-15.553,36.94
			c-3.075,0-8.766-3.075-10.615-7.852C153.164,135.779,151.626,138.082,148.551,141.008z M161.938,129.776
			c4.464,0,6.924-6.93,6.924-26.169c0-19.24-2.459-26.168-6.924-26.168c-4.458,0-6.152,6.928-6.152,26.168
			C155.786,122.846,157.479,129.776,161.938,129.776z"/>
		<path fill="#FFFFFF" d="M205.809,135.616l-9.39,5.542c-4.471-4.771-7.235-8.767-7.235-18.467V32.807h10.772v89.577
			C199.956,129.154,203.343,133.461,205.809,135.616z"/>
		<path fill="#FFFFFF" d="M248.285,135.465l-9.39,5.543c0,0-3.692-3.077-4.769-6.004c0,0-4.62,5.692-10.311,5.692
			c-8.469,0-12.932-6.775-12.932-13.387v-59.1h10.778v53.708c0,5.853,0.765,8.318,3.387,8.318c4.308,0,6.613-6.163,6.613-6.163
			V68.21h10.772v55.558C242.433,128.848,245.82,133.314,248.285,135.465z"/>
		<path fill="#FFFFFF" d="M277.374,123.923l6.611,6.615c0,0-5.229,10.009-14.616,10.009c-12.467,0-17.398-12.315-17.398-36.94
			c0-24.624,5.853-36.941,17.398-36.941c10.62,0,15.079,12.622,15.079,25.554c0,3.384-0.463,6.922-0.463,6.922
			c-5.844,7.547-12.464,10.467-20.619,10.467c0,14.932,2.302,20.471,6.775,20.471C274.908,130.08,277.374,123.923,277.374,123.923z
			 M273.832,94.833c0,0,0.615-3.847,0.615-6.001c0-7.233-2.004-12.161-4.769-12.161c-4.468,0-6.312,7.695-6.312,23.085
			C269.212,99.756,270.75,98.064,273.832,94.833z"/>
		<path fill="#FFFFFF" d="M322.464,139.003h-10.771V85.131c0-7.383-0.462-8.155-2.466-8.155c-4.31,0-6.004,6.003-6.004,6.003v56.024
			h-10.771V83.44c0-5.075-3.233-9.688-5.853-11.695l9.39-5.54c0,0,3.847,3.074,4.932,6.003c0,0,4.459-5.692,10.31-5.692
			c4.62,0,7.54,2,9.233,5.075c2.155-1.998,6.004-5.075,10.008-5.075c8.306,0,11.23,6.769,11.23,13.239v59.249h-10.771V85.131
			c0-7.383-0.46-8.155-2.466-8.155c-4.31,0-6.003,6.003-6.003,6.003V139.003z"/>
		<path fill="#FFFFFF" d="M374.951,123.923l6.62,6.615c0,0-5.234,10.009-14.625,10.009c-12.464,0-17.392-12.315-17.392-36.94
			c0-24.624,5.849-36.941,17.392-36.941c10.621,0,15.086,12.622,15.086,25.554c0,3.384-0.461,6.922-0.461,6.922
			c-5.846,7.547-12.469,10.467-20.628,10.467c0,14.932,2.311,20.471,6.774,20.471C372.488,130.08,374.951,123.923,374.951,123.923z
			 M371.416,94.833c0,0,0.611-3.847,0.611-6.001c0-7.233-1.998-12.161-4.769-12.161c-4.466,0-6.315,7.695-6.315,23.085
			C366.795,99.756,368.335,98.064,371.416,94.833z"/>
		<path fill="#FFFFFF" d="M386.957,103.607c0-24.624,6.004-36.941,15.544-36.941c3.074,0,7.692,2.466,9.238,6.001v-39.86h10.771
			v90.961c0,5.08,3.231,9.546,5.847,11.697l-9.382,5.543c-3.083-2.927-4.62-5.229-5.853-8.312
			c-1.844,4.776-7.547,7.852-10.621,7.852C392.96,140.547,386.957,128.232,386.957,103.607z M398.65,103.607
			c0,19.239,2.466,26.169,6.925,26.169c4.47,0,6.164-6.93,6.164-26.169c0-19.24-1.694-26.168-6.164-26.168
			C401.116,77.439,398.65,84.367,398.65,103.607z"/>
		<path fill="#FFFFFF" d="M467.607,103.607c0,24.625-7.539,36.94-17.701,36.94c-10.312,0-17.855-12.315-17.855-36.94
			c0-24.624,7.544-36.941,17.855-36.941C460.068,66.666,467.607,78.983,467.607,103.607z M449.906,129.004
			c3.847,0,6.004-6.158,6.004-25.397c0-19.24-2.157-25.396-6.004-25.396c-3.848,0-6.152,6.156-6.152,25.396
			C443.753,122.846,446.058,129.004,449.906,129.004z"/>
		<path fill="#FFFFFF" d="M487.924,139.003h-10.773V83.44c0-5.075-1.848-8.616-5.853-11.695l9.391-5.54
			c1.844,1.381,4.768,6.003,4.768,6.003s5.083-5.542,10.163-5.542l2.771,10.31c-5.079,0-10.467,6.003-10.467,6.003V139.003z"/>
		<path fill="#FFFFFF" d="M538.72,135.465l-9.392,5.543c0,0-4.469-4.003-5.702-8.312c0,0-6.152,7.852-11.538,7.852
			c-7.234,0-11.543-8.619-11.543-21.549c0-12.006,5.386-23.551,14.619-23.551h6.93v-8.16c0-8.768-1.851-10.155-3.848-10.155
			c-3.847,0-7.852,4.466-9.392,7.39l-5.539-7.234c2.928-4.927,9.233-10.623,14.931-10.623c10.615,0,14.62,5.542,14.62,20.622v36.48
			C532.867,128.848,536.254,133.314,538.72,135.465z M518.247,104.995c-4.311,0-6.775,5.847-6.775,14.004
			c0,8.462,1.693,10.311,4,10.311c2.153,0,6.162-4.465,6.623-8.312v-16.002H518.247z"/>
	</g>
</g>
</svg>
