<?xml version="1.0" encoding="utf-8"?>
<!-- Generator: Adobe Illustrator 16.0.4, SVG Export Plug-In . SVG Version: 6.00 Build 0)  -->
<!DOCTYPE svg PUBLIC "-//W3C//DTD SVG 1.1//EN" "http://www.w3.org/Graphics/SVG/1.1/DTD/svg11.dtd">
<svg version="1.1" id="Layer_1" xmlns="http://www.w3.org/2000/svg" xmlns:xlink="http://www.w3.org/1999/xlink" x="0px" y="0px"
	 width="646.957px" height="51.91px" viewBox="0 -0.001 646.957 51.91" enable-background="new 0 -0.001 646.957 51.91"
	 xml:space="preserve">
<g id="Layer_1_1_" display="none">
	<g display="inline">
		<path fill="#CC9548" d="M633.727,666.224c0,0,9.64,52.439-183.859,52.439h-30.033c-193.499,0-183.862-52.439-183.862-52.439
			c-21.283,28.558,6.503,64.854,11.824,79.043c5.321,14.189,172.038,4.142,172.038,4.142v-0.181h30.033v0.181
			c0,0,166.718,10.05,172.038-4.142C627.224,731.078,655.01,694.778,633.727,666.224z"/>
		<path fill="#EBD6B9" d="M235.969,690.521c0,0-9.636,39.965,183.862,39.965h30.033c193.499,0,183.859-39.965,183.859-39.965v-5.383
			c0,0,9.64,39.967-183.859,39.967h-30.033c-193.499,0-183.862-39.967-183.862-39.967L235.969,690.521L235.969,690.521z"/>
		<path fill="#EBD6B9" d="M235.614,701.518c0,0-9.637,39.968,183.862,39.968h30.033c193.499,0,183.862-39.968,183.862-39.968v-5.38
			c0,0,9.637,39.966-183.862,39.966h-30.033c-193.499,0-183.862-39.966-183.862-39.966V701.518L235.614,701.518z"/>
	</g>
	<path display="inline" fill="#996928" d="M642.891,638.319l-11.884,5.261c0.062,0.65,12.534,54.745-17.145,88.146
		c-8.75,9.813-19.982,14.724-34.585,14.724h-99.146H388.91h-99.146c-14.604,0-25.955-4.789-34.584-14.724
		c-25.599-29.265-17.736-92.106-17.677-92.697l-5.675-0.771l-5.853-0.769c-0.354,2.775-8.868,68.695,20.278,102.041
		c10.878,12.474,25.539,18.738,43.512,18.738h99.146h91.222h99.146c17.973,0,32.634-6.323,43.512-18.738
		C651.936,706.188,643.304,641.156,642.891,638.319z"/>
	<g display="inline">
		<rect x="282.674" y="493.298" fill="#15110E" width="177.359" height="177.359"/>
		<rect x="282.556" y="493.298" fill="#641313" width="88.683" height="44.34"/>
		<rect x="282.556" y="537.756" fill="#996928" width="44.343" height="44.34"/>
		<rect x="326.896" y="537.756" fill="#744921" width="44.34" height="44.34"/>
		<rect x="282.556" y="581.979" fill="#8C5B29" width="44.343" height="44.342"/>
		<rect x="282.556" y="626.377" fill="#D57A16" width="29.562" height="44.34"/>
		<rect x="312.115" y="626.377" fill="#EB9D1B" width="29.56" height="44.34"/>
		<rect x="341.675" y="626.377" fill="#EBD6B9" width="29.562" height="44.34"/>
		<rect x="326.896" y="582.096" fill="#CC9548" width="44.34" height="44.34"/>
	</g>
</g>
<g id="Layer_3" display="none">
	<path display="inline" fill="#996928" d="M697.398,629.806c-0.18-4.434-3.192-1.771-3.192-1.771
		c-10.582-2.72-11.942-14.604-12.062-15.903c7.745-1.062,6.858-2.66,3.666-4.907c-1.948-1.356-8.1-3.485-13.479-5.199
		c-0.71-0.297-1.479-0.595-2.306-0.89c0.942-10.583-12.533-15.901-12.533-15.901c0.118,7.033-0.178,9.104-1.479,12.945
		c-6.441-0.178-12.944,1.715-17.732,7.807c-13.896,17.677-7.036,37.127-5.265,48.301l10.878-7.981c0,0-1.771-10.521-1.301-15.783
		c0.177-1.007,0.296-1.949,0.532-2.777c0.65-2.011,2.479-6.207,7.922-6.207c14.543,0.06,9.577,18.327,20.278,22.938
		c3.898,1.715,6.681,0.296,6.681,0.296c-8.159-8.571-7.979-21.936-7.979-21.936c5.317,5.912,18.209,14.366,21.575,14.544
		C695.093,637.432,697.576,634.239,697.398,629.806z"/>
	<path display="inline" fill="#996928" d="M656.074,598.059c0,0-15.549-3.367-21.047,2.364l8.273,2.365
		C643.304,602.788,659.267,604.089,656.074,598.059z"/>
	<path display="inline" fill="#996928" d="M646.615,603.261c0,0-11.059-3.604-16.557,2.069l8.276,2.365
		C638.279,607.695,649.748,609.291,646.615,603.261z"/>
	<path display="inline" fill="#996928" d="M643.009,608.404c0,0-11.056-3.606-16.554,2.066l8.275,2.364
		C634.731,612.838,646.201,614.375,643.009,608.404z"/>
	<path display="inline" fill="#996928" d="M641.058,613.43c0,0-11.056-3.604-16.554,2.069l8.277,2.364
		C632.781,617.863,644.25,619.46,641.058,613.43z"/>
	<path display="inline" fill="#996928" d="M639.698,618.396c0,0-11.059-3.606-16.557,2.066l8.276,2.364
		C631.421,622.829,642.831,624.366,639.698,618.396z"/>
	<path display="inline" fill="#996928" d="M675.761,738.054c3.312-5.853,5.265-12.592,5.265-19.805
		c0-11.528-4.907-21.934-12.713-29.265c0,0-1.535-1.419-2.307-2.013c-21.047-18.856-21.992-40.73-21.992-40.73h-5.676
		c0,0,0.236,14.068-1.951,32.22c0,0,0,0-0.059,0c-1.064,8.041-0.178,35.06-16.438,54.213
		c-13.834,16.199-45.167,25.602-45.167,25.602h66.217c12.826,0,24.236-6.029,31.567-15.371c1.359-1.479,2.482-3.074,3.251-4.788
		C675.702,738.113,675.702,738.054,675.761,738.054z"/>
	<path display="inline" fill="#996928" d="M192.161,738.054c-3.311-5.853-5.262-12.592-5.262-19.805
		c0-11.528,4.907-21.934,12.711-29.265c0,0,1.537-1.419,2.306-2.013c21.046-18.856,21.992-40.73,21.992-40.73h5.676
		c0,0-0.236,14.068,1.951,32.22c0,0,0,0,0.059,0c1.064,8.041,0.178,35.06,16.436,54.213c13.775,16.258,45.11,25.602,45.11,25.602
		h-66.216c-12.829,0-24.239-6.029-31.57-15.371c-1.36-1.479-2.483-3.074-3.251-4.788
		C192.161,738.113,192.161,738.054,192.161,738.054z"/>
	<path display="inline" fill="#8C5B29" d="M697.398,629.806c-0.18-4.434-3.192-1.771-3.192-1.771
		c-10.582-2.72-11.942-14.604-12.062-15.903c2.483-0.354,4.969-1.183,4.969-1.183s-15.075-4.611-21.641-5.202
		c-31.862-3.019-31.215,14.661-30.443,34.053c0.529,12.651,28.315,111.678,28.315,111.678c3.488-2.362,6.562-5.262,9.164-8.514
		c1.359-1.479,2.482-3.074,3.251-4.789c0,0,0-0.059,0.062-0.059c3.311-5.854,5.262-12.595,5.262-19.809
		c0-11.525-4.907-21.933-12.711-29.264c0,0-1.537-1.419-2.308-2.011c-21.048-18.858-21.991-40.733-21.991-40.733
		s-1.773-10.521-1.303-15.785c0.18-1.005,0.298-1.947,0.531-2.775c0.65-2.011,2.483-6.207,7.923-6.207
		c14.543,0.059,9.577,18.327,20.277,22.938c3.902,1.716,6.681,0.295,6.681,0.295c-8.155-8.569-7.979-21.934-7.979-21.934
		c5.319,5.912,18.209,14.366,21.579,14.544C695.093,637.432,697.576,634.239,697.398,629.806z"/>
	<g display="inline">
		<circle fill="#996928" cx="216.696" cy="638.673" r="20.81"/>
		<circle fill="#CC9548" cx="216.696" cy="638.673" r="14.78"/>
		<circle fill="#996928" cx="216.696" cy="638.674" r="11.824"/>
		<circle fill="#CC9548" cx="216.696" cy="638.674" r="8.868"/>
		<circle fill="#996928" cx="216.696" cy="638.674" r="2.956"/>
	</g>
</g>
<g id="Layer_4" display="none">
	<circle display="inline" fill="#8C5B29" cx="228.342" cy="718.426" r="31.688"/>
	<circle display="inline" fill="#996928" cx="228.342" cy="718.426" r="23.648"/>
	<circle display="inline" fill="#CC9548" cx="228.342" cy="718.426" r="19.687"/>
	<circle display="inline" fill="#996928" cx="228.342" cy="718.426" r="16.79"/>
	<circle display="inline" fill="#8C5B29" cx="639.166" cy="718.426" r="31.688"/>
	<circle display="inline" fill="#996928" cx="639.166" cy="718.426" r="23.648"/>
	<circle display="inline" fill="#CC9548" cx="639.166" cy="718.426" r="19.687"/>
	<circle display="inline" fill="#996928" cx="639.166" cy="718.426" r="16.79"/>
</g>
<g>
	<defs>
		<rect id="SVGID_1_" x="509.856" y="0" width="137.101" height="51.91"/>
	</defs>
	<clipPath id="SVGID_2_">
		<use xlink:href="#SVGID_1_"  overflow="visible"/>
	</clipPath>
	<g clip-path="url(#SVGID_2_)">
		<path fill="#37B1DB" d="M185.141,15.371c-11.352,0-21.283-6.207-26.604-15.371c-2.602,4.493-4.079,9.755-4.079,15.312
			c0,16.969,13.716,30.684,30.683,30.684s30.686-13.715,30.686-30.684c0-5.558-1.479-10.817-4.08-15.312
			C206.482,9.164,196.551,15.371,185.141,15.371z"/>
		<path fill="#37B1DB" d="M610.626,15.371c-11.354,0-21.283-6.207-26.604-15.371c-2.602,4.493-4.079,9.755-4.079,15.312
			c0,16.969,13.716,30.684,30.686,30.684c16.967,0,30.684-13.715,30.684-30.684c0-5.558-1.479-10.817-4.079-15.312
			C631.909,9.164,621.976,15.371,610.626,15.371z"/>
		<path fill="#37B1DB" d="M238.29,15.371c-11.353,0-21.282-6.207-26.604-15.371c-2.602,4.493-4.08,9.755-4.08,15.312
			c0,16.969,13.719,30.684,30.686,30.684c16.969,0,30.684-13.715,30.684-30.684c0-5.558-1.479-10.817-4.078-15.312
			C259.572,9.164,249.699,15.371,238.29,15.371z"/>
		<path fill="#37B1DB" d="M291.498,15.371c-11.354,0-21.283-6.207-26.604-15.371c-2.603,4.493-4.08,9.755-4.08,15.312
			c0,16.969,13.716,30.684,30.686,30.684c16.969,0,30.684-13.715,30.684-30.684c0-5.558-1.479-10.817-4.08-15.312
			C312.78,9.164,302.848,15.371,291.498,15.371z"/>
		<path fill="#37B1DB" d="M344.645,15.371c-11.351,0-21.282-6.207-26.604-15.371c-2.604,4.493-4.079,9.755-4.079,15.312
			c0,16.969,13.716,30.684,30.683,30.684c16.969,0,30.685-13.715,30.685-30.684c0-5.558-1.479-10.817-4.077-15.312
			C365.93,9.164,355.998,15.371,344.645,15.371z"/>
		<path fill="#37B1DB" d="M397.795,15.371c-11.354,0-21.283-6.207-26.604-15.371c-2.603,4.493-4.079,9.755-4.079,15.312
			c0,16.969,13.716,30.684,30.686,30.684c16.967,0,30.684-13.715,30.684-30.684c0-5.558-1.479-10.817-4.079-15.312
			C419.077,9.164,409.145,15.371,397.795,15.371z"/>
		<path fill="#37B1DB" d="M451.062,15.371c-11.353,0-21.283-6.207-26.604-15.371c-2.603,4.493-4.079,9.755-4.079,15.312
			c0,16.969,13.716,30.684,30.685,30.684c16.967,0,30.683-13.715,30.683-30.684c0-5.558-1.479-10.817-4.077-15.312
			C472.345,9.164,462.412,15.371,451.062,15.371z"/>
		<path fill="#37B1DB" d="M504.21,15.371c-11.353,0-21.283-6.207-26.604-15.371c-2.603,4.493-4.079,9.755-4.079,15.312
			c0,16.969,13.715,30.684,30.685,30.684c16.968,0,30.685-13.715,30.685-30.684c0-5.558-1.479-10.817-4.079-15.312
			C525.493,9.164,515.561,15.371,504.21,15.371z"/>
		<path fill="#37B1DB" d="M557.477,15.371c-11.352,0-21.283-6.207-26.604-15.371c-2.604,4.493-4.079,9.755-4.079,15.312
			c0,16.969,13.716,30.684,30.684,30.684S588.16,32.28,588.16,15.312c0-5.558-1.479-10.817-4.077-15.312
			C578.76,9.164,568.828,15.371,557.477,15.371z"/>
		<rect x="112.6" y="15.312" fill="#37B1DB" width="528.708" height="30.686"/>
		<path fill="#37B1DB" d="M158.596,0c-5.322,9.164-15.252,15.371-26.604,15.371c-7.331,0-14.13-2.603-19.392-6.917v30.624
			c5.262,4.314,12.061,6.918,19.392,6.918c16.967,0,30.684-13.717,30.684-30.685C162.676,9.695,161.198,4.493,158.596,0z"/>
	</g>
	<g clip-path="url(#SVGID_2_)">
		<g>
			<path fill="#2980B9" d="M137.638,15.371c-11.352,0-21.284-6.207-26.605-15.371c-2.602,4.493-4.08,9.755-4.08,15.312
				c0,16.969,13.717,30.684,30.684,30.684c16.968,0,30.683-13.715,30.683-30.684c0-5.558-1.479-10.817-4.079-15.312
				C158.921,9.164,148.988,15.371,137.638,15.371z"/>
			<path fill="#2980B9" d="M190.786,15.371c-11.351,0-21.282-6.207-26.603-15.371c-2.603,4.493-4.08,9.755-4.08,15.312
				c0,16.969,13.717,30.684,30.684,30.684c16.968,0,30.684-13.715,30.684-30.684c0-5.558-1.479-10.817-4.078-15.312
				C212.129,9.164,202.196,15.371,190.786,15.371z"/>
			<path fill="#2980B9" d="M243.936,15.371c-11.354,0-21.282-6.207-26.604-15.371c-2.603,4.493-4.078,9.755-4.078,15.312
				c0,16.969,13.716,30.684,30.685,30.684c16.967,0,30.685-13.715,30.685-30.684c0-5.558-1.479-10.817-4.079-15.312
				C265.219,9.164,255.346,15.371,243.936,15.371z"/>
			<path fill="#2980B9" d="M297.143,15.371c-11.352,0-21.283-6.207-26.604-15.371c-2.604,4.493-4.079,9.755-4.079,15.312
				c0,16.969,13.717,30.684,30.684,30.684c16.968,0,30.686-13.715,30.686-30.684c0-5.558-1.479-10.817-4.079-15.312
				C318.426,9.164,308.494,15.371,297.143,15.371z"/>
			<path fill="#2980B9" d="M350.292,15.371c-11.354,0-21.282-6.207-26.604-15.371c-2.601,4.493-4.078,9.755-4.078,15.312
				c0,16.969,13.716,30.684,30.686,30.684c16.967,0,30.684-13.715,30.684-30.684c0-5.558-1.479-10.817-4.08-15.312
				C371.576,9.164,361.643,15.371,350.292,15.371z"/>
			<path fill="#2980B9" d="M403.439,15.371c-11.351,0-21.282-6.207-26.604-15.371c-2.604,4.493-4.08,9.755-4.08,15.312
				c0,16.969,13.717,30.684,30.684,30.684c16.969,0,30.686-13.715,30.686-30.684c0-5.558-1.479-10.817-4.079-15.312
				C424.724,9.164,414.791,15.371,403.439,15.371z"/>
			<path fill="#2980B9" d="M456.707,15.371c-11.353,0-21.283-6.207-26.604-15.371c-2.603,4.493-4.079,9.755-4.079,15.312
				c0,16.969,13.716,30.684,30.685,30.684c16.968,0,30.684-13.715,30.684-30.684c0-5.558-1.479-10.817-4.078-15.312
				C477.99,9.164,468.058,15.371,456.707,15.371z"/>
			<path fill="#2980B9" d="M509.855,15.371c-11.352,0-21.281-6.207-26.604-15.371c-2.604,4.493-4.079,9.755-4.079,15.312
				c0,16.969,13.716,30.684,30.684,30.684c16.969,0,30.686-13.715,30.686-30.684c0-5.558-1.479-10.817-4.079-15.312
				C531.139,9.164,521.207,15.371,509.855,15.371z"/>
			<path fill="#2980B9" d="M563.123,15.371C551.77,15.371,541.84,9.164,536.52,0c-2.602,4.493-4.079,9.755-4.079,15.312
				c0,16.969,13.716,30.684,30.686,30.684c16.967,0,30.684-13.715,30.684-30.684c0-5.558-1.479-10.817-4.079-15.312
				C584.406,9.164,574.474,15.371,563.123,15.371z"/>
			<path fill="#2980B9" d="M616.271,15.371c-11.352,0-21.283-6.207-26.604-15.371c-2.604,4.493-4.08,9.755-4.08,15.312
				c0,16.969,13.716,30.684,30.685,30.684c16.968,0,30.686-13.715,30.686-30.684c0-5.558-1.479-10.817-4.08-15.312
				C637.555,9.164,627.622,15.371,616.271,15.371z"/>
		</g>
		<rect x="106.954" y="15.312" fill="#2980B9" width="540.001" height="36.598"/>
	</g>
</g>
<g>
	<g>
		<path fill="#37B1DB" d="M78.188,15.37c-11.352,0-21.284-6.207-26.604-15.371c-2.601,4.493-4.079,9.755-4.079,15.312
			c0,16.969,13.716,30.684,30.683,30.684s30.685-13.715,30.685-30.684c0-5.558-1.479-10.817-4.08-15.312
			C99.529,9.163,89.598,15.37,78.188,15.37z"/>
		<path fill="#37B1DB" d="M503.673,15.37c-11.354,0-21.283-6.207-26.604-15.371c-2.602,4.493-4.079,9.755-4.079,15.312
			c0,16.969,13.716,30.684,30.686,30.684c16.967,0,30.684-13.715,30.684-30.684c0-5.558-1.479-10.817-4.079-15.312
			C524.956,9.163,515.022,15.37,503.673,15.37z"/>
		<path fill="#37B1DB" d="M131.337,15.37c-11.352,0-21.283-6.207-26.604-15.371c-2.602,4.493-4.08,9.755-4.08,15.312
			c0,16.969,13.718,30.684,30.685,30.684c16.968,0,30.684-13.715,30.684-30.684c0-5.558-1.479-10.817-4.079-15.312
			C152.619,9.163,142.746,15.37,131.337,15.37z"/>
		<path fill="#37B1DB" d="M184.545,15.37c-11.353,0-21.283-6.207-26.604-15.371c-2.602,4.493-4.08,9.755-4.08,15.312
			c0,16.969,13.716,30.684,30.686,30.684c16.968,0,30.684-13.715,30.684-30.684c0-5.558-1.479-10.817-4.08-15.312
			C205.827,9.163,195.895,15.37,184.545,15.37z"/>
		<path fill="#37B1DB" d="M237.691,15.37c-11.351,0-21.282-6.207-26.604-15.371c-2.604,4.493-4.079,9.755-4.079,15.312
			c0,16.969,13.716,30.684,30.683,30.684c16.969,0,30.685-13.715,30.685-30.684c0-5.558-1.479-10.817-4.077-15.312
			C258.977,9.163,249.045,15.37,237.691,15.37z"/>
		<path fill="#37B1DB" d="M290.842,15.37c-11.354,0-21.283-6.207-26.604-15.371c-2.603,4.493-4.079,9.755-4.079,15.312
			c0,16.969,13.716,30.684,30.686,30.684c16.967,0,30.684-13.715,30.684-30.684c0-5.558-1.479-10.817-4.079-15.312
			C312.124,9.163,302.191,15.37,290.842,15.37z"/>
		<path fill="#37B1DB" d="M344.108,15.37c-11.353,0-21.283-6.207-26.604-15.371c-2.603,4.493-4.079,9.755-4.079,15.312
			c0,16.969,13.716,30.684,30.685,30.684c16.967,0,30.683-13.715,30.683-30.684c0-5.558-1.479-10.817-4.077-15.312
			C365.392,9.163,355.459,15.37,344.108,15.37z"/>
		<path fill="#37B1DB" d="M397.257,15.37c-11.353,0-21.283-6.207-26.604-15.371c-2.603,4.493-4.079,9.755-4.079,15.312
			c0,16.969,13.715,30.684,30.685,30.684c16.968,0,30.685-13.715,30.685-30.684c0-5.558-1.479-10.817-4.079-15.312
			C418.54,9.163,408.607,15.37,397.257,15.37z"/>
		<path fill="#37B1DB" d="M450.523,15.37c-11.352,0-21.283-6.207-26.604-15.371c-2.604,4.493-4.079,9.755-4.079,15.312
			c0,16.969,13.716,30.684,30.684,30.684s30.684-13.715,30.684-30.684c0-5.558-1.479-10.817-4.077-15.312
			C471.807,9.163,461.875,15.37,450.523,15.37z"/>
		<rect x="5.647" y="15.311" fill="#37B1DB" width="528.708" height="30.685"/>
		<path fill="#37B1DB" d="M51.643-0.001C46.321,9.163,36.39,15.37,25.039,15.37c-7.331,0-14.13-2.603-19.392-6.917v30.624
			c5.262,4.313,12.061,6.918,19.392,6.918c16.967,0,30.683-13.718,30.683-30.685C55.723,9.695,54.245,4.492,51.643-0.001z"/>
	</g>
	<g>
		<g>
			<path fill="#2980B9" d="M30.685,15.37C19.333,15.37,9.401,9.163,4.08-0.001C1.478,4.492,0,9.754,0,15.311
				C0,32.28,13.717,45.995,30.684,45.995c16.968,0,30.683-13.715,30.683-30.684c0-5.558-1.478-10.817-4.079-15.312
				C51.968,9.163,42.035,15.37,30.685,15.37z"/>
			<path fill="#2980B9" d="M83.833,15.37c-11.351,0-21.282-6.207-26.603-15.371c-2.602,4.493-4.079,9.755-4.079,15.312
				c0,16.969,13.716,30.684,30.683,30.684c16.968,0,30.684-13.715,30.684-30.684c0-5.558-1.479-10.817-4.079-15.312
				C105.176,9.163,95.243,15.37,83.833,15.37z"/>
			<path fill="#2980B9" d="M136.982,15.37c-11.353,0-21.282-6.207-26.604-15.371c-2.602,4.493-4.078,9.755-4.078,15.312
				c0,16.969,13.716,30.684,30.684,30.684c16.967,0,30.685-13.715,30.685-30.684c0-5.558-1.479-10.817-4.079-15.312
				C158.266,9.163,148.393,15.37,136.982,15.37z"/>
			<path fill="#2980B9" d="M190.189,15.37c-11.351,0-21.283-6.207-26.604-15.371c-2.604,4.493-4.079,9.755-4.079,15.312
				c0,16.969,13.716,30.684,30.683,30.684c16.968,0,30.686-13.715,30.686-30.684c0-5.558-1.479-10.817-4.079-15.312
				C211.473,9.163,201.541,15.37,190.189,15.37z"/>
			<path fill="#2980B9" d="M243.339,15.37c-11.354,0-21.282-6.207-26.604-15.371c-2.601,4.493-4.078,9.755-4.078,15.312
				c0,16.969,13.716,30.684,30.686,30.684c16.967,0,30.684-13.715,30.684-30.684c0-5.558-1.479-10.817-4.08-15.312
				C264.623,9.163,254.689,15.37,243.339,15.37z"/>
			<path fill="#2980B9" d="M296.486,15.37c-11.351,0-21.282-6.207-26.604-15.371c-2.604,4.493-4.08,9.755-4.08,15.312
				c0,16.969,13.717,30.684,30.684,30.684c16.969,0,30.686-13.715,30.686-30.684c0-5.558-1.479-10.817-4.079-15.312
				C317.771,9.163,307.838,15.37,296.486,15.37z"/>
			<path fill="#2980B9" d="M349.754,15.37c-11.353,0-21.283-6.207-26.604-15.371c-2.603,4.493-4.079,9.755-4.079,15.312
				c0,16.969,13.716,30.684,30.685,30.684c16.968,0,30.684-13.715,30.684-30.684c0-5.558-1.479-10.817-4.078-15.312
				C371.037,9.163,361.104,15.37,349.754,15.37z"/>
			<path fill="#2980B9" d="M402.902,15.37c-11.352,0-21.281-6.207-26.604-15.371c-2.604,4.493-4.079,9.755-4.079,15.312
				c0,16.969,13.716,30.684,30.684,30.684c16.969,0,30.686-13.715,30.686-30.684c0-5.558-1.479-10.817-4.079-15.312
				C424.186,9.163,414.254,15.37,402.902,15.37z"/>
			<path fill="#2980B9" d="M456.17,15.37c-11.354,0-21.283-6.207-26.604-15.371c-2.602,4.493-4.079,9.755-4.079,15.312
				c0,16.969,13.716,30.684,30.686,30.684c16.967,0,30.684-13.715,30.684-30.684c0-5.558-1.479-10.817-4.079-15.312
				C477.453,9.163,467.521,15.37,456.17,15.37z"/>
			<path fill="#2980B9" d="M509.318,15.37c-11.352,0-21.283-6.207-26.604-15.371c-2.604,4.493-4.08,9.755-4.08,15.312
				c0,16.969,13.716,30.684,30.685,30.684c16.968,0,30.686-13.715,30.686-30.684c0-5.558-1.479-10.817-4.08-15.312
				C530.602,9.163,520.669,15.37,509.318,15.37z"/>
		</g>
		<rect x="0.001" y="15.311" fill="#2980B9" width="540.001" height="36.597"/>
	</g>
</g>
</svg>
