<?xml version="1.0" encoding="utf-8"?>
<!-- Generator: Adobe Illustrator 18.1.0, SVG Export Plug-In . SVG Version: 6.00 Build 0)  -->
<svg version="1.1" id="Layer_1" xmlns="http://www.w3.org/2000/svg" xmlns:xlink="http://www.w3.org/1999/xlink" x="0px" y="0px"
	 viewBox="70 208.2 751.5 377.8" enable-background="new 70 208.2 751.5 377.8" xml:space="preserve">
<path id="lil_cloud" fill="#C6AA92" d="M85.1,346.2C73.2,219.4,219.1,209.5,219.1,209.5c10.3-0.3,20.5-0.5,30.8-1.1
	c4-0.2,7.5-0.8,11.5,1.1c5.1,2.4,10.9,3.3,16.3,5.1c9.7,3.3,18,8.9,25.7,15.6c5.4,4.7,11.7,8.6,17.8,12.4
	c15.1,9.5,24.8,23.1,30.3,39.7c1.9,5.7,2.5,11.9,2.9,17.9c0.2,2.3-1.5,5.1-3,7.2c-12,16.6-14.4,34.5-4.7,52.3
	c6.8,12.5,18.8,19.7,33.4,20.8c10.5,0.8,21.1-6.3,25.2-15.9c0.7-1.7,1.3-3.5,2.3-5.1c2.4-3.9,3.1-8,0.9-11.9
	c-2.1-3.7-7.8-5.3-13.8-4.2c1.1,2.5,2.1,4.9,3.2,7.3c4.7,10,0.4,19.8-10.2,22.7c-3.9,1.1-7.9,1.8-11.9,2.3
	c-5.8,0.7-10.7-1.3-14.3-5.9c-8.8-11.6-11.4-25.1-8.1-38.9c2.6-10.8,15.7-23.6,29.9-24.9c6.7-0.6,13.4-1,20.2-1.3
	c14.9-0.7,27.9,4.1,40.2,12.6c9.9,6.9,19.2,14.3,26.6,23.8c8,10.1,14.2,21.1,17.9,33.7c2.7,9.2,3.7,18.4,3.8,27.9
	c0,1.4,1.1,3.2,2.2,4.1c3.8,3,10.1,2.2,13.9-0.8c2.7-2.1,5.9-4.3,9.2-4.9c12.1-2.4,24.3-1.5,34.8,4.8c6.5,3.9,12.1,10.4,16.2,16.9
	c7.1,11.3,6.5,11.7,19.5,8.4c2-0.5,3.8-1.3,5.8-1.9c6.1-1.9,12-1.1,16.7,3.1c5.8,5.3,11,11.3,16,16.6c-5.9,7.7-11.8,14.6-16.9,22
	c-8.8,12.8-3.2,33.3,11.1,39.4c12.1,5.1,22,4.9,32.1-7.7c6.2-7.6,3-18.1-6.9-21.9c0.9,1.6,1.7,2.8,2.3,4.1
	c4.4,8.9,0.3,19.2-9.2,22.1c-3.7,1.1-7.6,1.6-11.4,1.6c-5.1,0-9.3-2.6-11.4-7.2c-3.5-7.6-5.3-15.9-3.5-24.2
	c2.4-10.9,9.9-17.2,20.7-19.3c13.1-2.6,25.2-0.5,35.8,8.3c0.9,0.7,3.2,0.1,4.8-0.3c8.1-2.1,16.3-5.9,24.5-1.7
	c5.8,2.9,11.6,6.3,14.5,13c2.7,6.1,4.9,6.3,9.8,2.1c9.6-8.2,23.6-8.1,33.4-0.2c2.6,2.1,6.1,3.1,9.1,4.6c3,1.4,6.1,2.8,9.7,4.4
	c0.5-0.4,1.6-1.2,2.7-1.9c7.5-5.5,14.2-4.6,20.4,2.2c3.2,3.6,6.9,6.8,10.8,9.7c1,0.8,3.4,0,5-0.5c2.8-0.9,5.8-2.5,7.4,1.2
	c1.7,3.9-1.6,5.3-4.5,6.5c-0.9,0.4-2.1,0.6-2.8,1.2c-7.4,7.7-15.6,2.9-23.6,1.8c-1.8-0.2-4.2-0.4-5.5,0.5c-8.3,5.7-17.1,5.4-26.2,3
	c-5-1.3-9-1.9-13.2,3.3c-5.9,7.3-16.4,7.1-24.4,1.5c-1.9-1.4-4.8-1.8-7.3-1.9c-4.7-0.1-9.4,0.8-14,0.6c-6.1-0.4-11.1,0.9-15.2,6
	c-4.2,5.3-10.1,7.9-16.9,7.7c-3.8-0.1-6.6,1.1-9.3,4c-6.7,7.3-16.3,9.5-25.2,10.4c-12.6,1.2-25.6,0.8-38.2-0.6
	c-6.8-0.7-13.1-5-19.8-7.3c-2.3-0.8-5-1.2-7.5-1c-4.3,0.3-8.6,1.1-12.9,2c-1.5,0.3-3.4,1.3-4.2,2.6c-4.1,6.2-9.8,9.1-17.1,10.6
	c-4.5,0.9-8.9,3.7-12.9,6.4c-8.8,6-18.2,9.1-28.9,9c-17,0-34.1-0.1-51.1,0.6c-10.2,0.4-20.4,3.6-30.5,3.3c-13-0.3-26.3-2.3-37.7-9.4
	c-9-5.6-14.4-14.6-17.1-24.8c-2.5-9.5-2.4-19.1,2.9-27.9c7.6-12.8,16.6-24.4,31.9-28c5.8-1.4,12.4-0.1,18.5,0.9c5.1,0.9,10,3,14.9,5
	c9.9,4,15.7,17.9,12,28c-0.6,1.7-0.7,3.6-1.2,6.1c7.3-4.3,10-15.5,5.7-22.9c-8.2-14.3-21.2-21.3-37.3-22.9c-9.3-0.9-18.2,0.6-26.8,4
	c-12.1,4.8-17.4,15.3-21.5,26.7c-1.6,4.3-3,8.8-5.2,12.8c-7.3,13.1-6.1,33.2,2.9,45.1c1.3,1.7,2.7,3.4,5,6.3
	c-10.4,2-19.8,4.2-29.4,5.4c-5.8,0.7-11.8-0.8-17.6-0.4c-3.2,0.2-6.5,1.7-9.4,3.2c-16.1,8.4-33.3,9.9-51.1,9.7
	c-10.7-0.1-20.5-3.2-30.4-6.4C-11,509.9,97.1,472.9,85.1,346.2z"/>
</svg>
