<?xml version="1.0" encoding="utf-8"?>
<!-- Generator: Adobe Illustrator 18.1.1, SVG Export Plug-In . SVG Version: 6.00 Build 0)  -->
<svg version="1.1" id="Layer_1" xmlns="http://www.w3.org/2000/svg" xmlns:xlink="http://www.w3.org/1999/xlink" x="0px" y="0px"
	 viewBox="276.2 156.4 638.5 476.5" enable-background="new 276.2 156.4 638.5 476.5" xml:space="preserve">
<g id="shield_copy">
	<path id="shield_back" fill="#744921" d="M731.3,208.9l-10.1,3.4l-1.4-11.8l-17.2,6.6l1.5-19.2c-30.3-19.8-73.7-31.6-110.3-31.6
		c-0.6,0-1.1,0-1.7,0c0,0,0,0,0,0c-112.4,0.9-203.3,92.4-203.3,205.1c0,17.6,2.2,34.7,6.4,51l13.3,6.4l-6.2,13.4l17,2.6l-7.6,20.7
		c33.9,65.5,101.9,110.4,180.5,111c0,0,0,0,0,0c0.6,0,1.1,0,1.7,0c113.2,0,205-91.8,205-205.1C798.9,301.5,772.5,246.4,731.3,208.9z
		 M677,467.7c-4.5,3.5-9.1,6.8-14,9.7c-0.8-0.6-1.7-0.9-2.8-0.9c-2.6,0-4.8,2.1-4.8,4.8s2.1,4.8,4.8,4.8s4.8-2.1,4.8-4.8
		c0-0.5-0.1-0.9-0.2-1.4c5-3,9.9-6.4,14.4-10.1l6.5,6.4c-12.9,10.5-27.4,18.9-43.1,24.6l-7-20.2c12.6-4.6,24.3-11.2,34.7-19.5
		L677,467.7z M593.2,522.6c-0.3,0-0.6,0-0.9,0c0,0,0,0,0,0c-39.3-0.2-75.2-14.5-103-38.1l9.9-9.7c26.6,21.3,55.7,29,55.7,29l3.7-9.7
		c-1.4-0.3-2.8-0.7-4.1-1.1l-1.2,3l-2.8-1.1l0.7-2.8c-0.7-0.2-1.5-0.5-2.2-0.8l-1.3,2.6l-2.9-1.4l1.3-2.3
		c-14.9-5.9-29.1-15.1-39.4-22.8l8-7.9c4.5,4.1,10,8.1,16.5,11.8c0,0,0,0,0.1,0l0,0c7.4,4.2,15.9,7.9,25.6,10.6c0,0,0,0,0,0
		c0.9,0.3,1.9,0.5,2.8,0.8c0,0,0,0,0,0c9.2,2.4,19.3,3.8,30.2,4.1l2.3-19.3c-6.1-0.1-11.8-0.6-17.1-1.4c-1-0.1-1.9-0.3-2.9-0.5
		c-10.7-1.9-19.6-5-27-8.7c-0.9-0.4-1.8-0.9-2.6-1.4c-5.6-3.1-10.3-6.4-14.1-9.8l4.7-4.6c16.5,12.3,36.9,19.6,59,19.7
		c0.2,0,0.4,0,0.6,0c21.7,0,41.8-6.9,58.2-18.7l9.8,9.6c-13.8,10.3-29.8,17.5-47,20.7c-0.8-1.5-2.3-2.4-4.1-2.4
		c-2.6,0-4.8,2.1-4.8,4.8s2.1,4.8,4.8,4.8c2.4,0,4.4-1.8,4.7-4.1c17.7-3.3,34.3-10.7,48.6-21.5l5.2,5.1c-10.8,8.5-23,15.2-36.1,19.7
		l0.2,0.7l-0.2,0.1l3.3,9.4c-13.8,4.7-28.3,7.1-43.1,7.1c0,0,0,0,0,0c-2.3,0-4.6-0.1-6.9-0.2c-0.5-2.1-2.4-3.6-4.6-3.6
		c-2.6,0-4.8,2.1-4.8,4.8s2.1,4.8,4.8,4.8c2,0,3.6-1.2,4.4-2.9c2.4,0.1,4.7,0.2,7.1,0.2c0,0,0,0,0,0c1.8,0,3.7,0,5.5-0.1l1.2,13.7
		l1.4,0c0,0,0.2,0,0.3,0c2,0,12.1-0.1,22-2.6c0.9,1.3,2.3,2.1,4,2.1c2.6,0,4.8-2.1,4.8-4.8s-2.1-4.8-4.8-4.8c-2.5,0-4.6,2-4.7,4.5
		c-8.3,2.1-16.9,2.5-20.2,2.5l-0.9-10.9c12.1-0.8,24.1-3.1,35.5-7l3.9,11.4l0.3-0.1l0.5,1.5c17.1-5.9,32.9-14.8,46.8-26.2l7.7,7.6
		C667.7,508.8,632.1,522.6,593.2,522.6z"/>
</g>
<g id="supertech">
	<g id="background">
		<path fill="#8C5B29" d="M731.3,208.9l-10.1,3.4l-1.4-11.8l-17.2,6.6l1.5-19.2c-30.3-19.8-73.7-31.6-110.3-31.6c-0.6,0-1.1,0-1.7,0
			v223.3l0.3-0.3L700,485c0,0-44,40.5-107.5,40.5c-0.1,0-0.2,0-0.3,0v41.2c0.6,0,1.1,0,1.7,0c113.2,0,205-91.8,205-205.1
			C798.9,301.5,772.5,246.4,731.3,208.9z"/>
		<path fill="#7B4B1E" d="M484.5,483.5l107.7-103.7V156.4c0,0,0,0,0,0c-112.4,0.9-203.3,92.4-203.3,205.1c0,17.6,2.2,34.7,6.4,51
			l13.3,6.4l-6.2,13.4l17,2.6l-7.6,20.7c33.9,65.5,101.9,110.4,180.5,111c0,0,0,0,0,0v-41.2C528.9,525.4,484.5,483.5,484.5,483.5z"
			/>
	</g>
	<g id="center_circle">
		<path fill="#CC9548" d="M592.9,260.9c-0.2,0-0.4,0-0.6,0v200c0.2,0,0.4,0,0.6,0c55.2,0,100-44.8,100-100S648.1,260.9,592.9,260.9z
			"/>
		<path fill="#B37A36" d="M492.9,360.9c0,55,44.4,99.6,99.4,100v-200C537.3,261.2,492.9,305.9,492.9,360.9z"/>
	</g>
	<g id="lines">
		<g>
			<g>
				<path fill="#EDB066" d="M609.8,479.5c2.4,0,4.4-1.8,4.7-4.1c26.8-5,50.9-19.3,68.4-40.5l-2.3-1.9c-17,20.7-40.6,34.6-66.6,39.5
					c-0.8-1.5-2.3-2.4-4.1-2.4c-2.6,0-4.8,2.1-4.8,4.8S607.1,479.5,609.8,479.5z"/>
				<path fill="#EDB066" d="M663,477.4c-0.8-0.6-1.7-0.9-2.8-0.9c-2.6,0-4.8,2.1-4.8,4.8s2.1,4.8,4.8,4.8s4.8-2.1,4.8-4.8
					c0-0.5-0.1-0.9-0.2-1.4c12.9-7.8,24.3-17.5,34.1-29l-2.3-1.9C686.9,460.2,675.7,469.8,663,477.4z"/>
				<path fill="#EDB066" d="M704.2,458.2c-16.6,19.2-37.9,33.9-61.6,42.6l-7-20.2c20.9-7.7,39.4-20.8,53.7-38.1l-2.3-1.9
					c-14.5,17.6-33.6,30.7-55,38.1l0.2,0.7l-0.2,0.1l3.3,9.4c-13.8,4.7-28.3,7.1-43.1,7.1c0,0,0,0,0,0c-2.3,0-4.6-0.1-6.9-0.2
					c-0.5-2.1-2.4-3.6-4.6-3.6c-2.6,0-4.8,2.1-4.8,4.8s2.1,4.8,4.8,4.8c2,0,3.6-1.2,4.4-2.9c2.4,0.1,4.7,0.2,7.1,0.2c0,0,0,0,0,0
					c1.8,0,3.7,0,5.5-0.1l1.2,13.7l1.4,0c0,0,0.2,0,0.3,0c2,0,12.1-0.1,22-2.6c0.9,1.3,2.3,2.1,4,2.1c2.6,0,4.8-2.1,4.8-4.8
					s-2.1-4.8-4.8-4.8c-2.5,0-4.6,2-4.7,4.5c-8.3,2.1-16.9,2.5-20.2,2.5l-0.9-10.9c12.1-0.8,24.1-3.1,35.5-7l3.9,11.4l0.3-0.1
					l0.5,1.5c25.3-8.7,47.9-24,65.4-44.4L704.2,458.2z"/>
			</g>
			<path fill="#CC9548" d="M682.8,434.9l-2.3-1.9c-17,20.7-40.6,34.6-66.6,39.5c-0.8-1.5-2.3-2.4-4.1-2.4c-2.6,0-4.8,2.1-4.8,4.8
				s2.1,4.8,4.8,4.8c2.4,0,4.4-1.8,4.7-4.1C641.2,470.4,665.4,456.1,682.8,434.9z"/>
			<path fill="#CC9548" d="M698.8,450.8l-2.3-1.9c-9.6,11.3-20.9,20.9-33.5,28.5c-0.8-0.6-1.7-0.9-2.8-0.9c-2.6,0-4.8,2.1-4.8,4.8
				s2.1,4.8,4.8,4.8s4.8-2.1,4.8-4.8c0-0.5-0.1-0.9-0.2-1.4C677.6,472.1,689.1,462.3,698.8,450.8z"/>
			<g>
				<path fill="#CC9548" d="M704.2,458.2c-16.6,19.2-37.9,33.9-61.6,42.6l-7-20.2c20.9-7.7,39.4-20.8,53.7-38.1l-2.3-1.9
					c-14.5,17.6-33.6,30.7-55,38.1l0.2,0.7l-0.2,0.1l3.3,9.4c-13.8,4.7-28.3,7.1-43.1,7.1v3c1.8,0,3.7,0,5.5-0.1l1.2,13.7l1.4,0
					c0,0,0.2,0,0.3,0c2,0,12.1-0.1,22-2.6c0.9,1.3,2.3,2.1,4,2.1c2.6,0,4.8-2.1,4.8-4.8s-2.1-4.8-4.8-4.8c-2.5,0-4.6,2-4.7,4.5
					c-8.3,2.1-16.9,2.5-20.2,2.5l-0.9-10.9c12.1-0.8,24.1-3.1,35.5-7l3.9,11.4l0.3-0.1l0.5,1.5c25.3-8.7,47.9-24,65.4-44.4
					L704.2,458.2z"/>
				<path fill="#B37A36" d="M592.2,496.1c-2.3,0-4.6-0.1-6.9-0.2c-0.5-2.1-2.4-3.6-4.6-3.6c-2.6,0-4.8,2.1-4.8,4.8s2.1,4.8,4.8,4.8
					c2,0,3.6-1.2,4.4-2.9c2.4,0.1,4.7,0.2,7.1,0.2c0,0,0,0,0,0L592.2,496.1C592.2,496.1,592.2,496.1,592.2,496.1z"/>
			</g>
			<circle fill="#D0914C" cx="580.8" cy="497" r="2.5"/>
			<circle fill="#EDB066" cx="609.8" cy="474.8" r="2.5"/>
			<circle fill="#EDB066" cx="626.6" cy="507.4" r="2.5"/>
			<circle fill="#EDB066" cx="660.3" cy="481.3" r="2.5"/>
		</g>
		<g>
			<path fill="#87561E" d="M592.3,467.5c-40.8-0.8-62.1-18.1-72-30.3l-12,15.5c12.8,15.4,41.8,33.3,81.8,34L592.3,467.5z"/>
		</g>
		<g>
			<path fill="#B37A36" d="M554.3,492.9l-1.2,3l-2.8-1.1l0.7-2.8c-0.7-0.2-1.5-0.5-2.2-0.8l-1.3,2.6l-2.9-1.4l1.3-2.3
				c-28.9-11.4-55.3-35.7-55.3-35.7l-7,6c29.3,32.3,71,43.3,71,43.3l3.7-9.7C557,493.7,555.7,493.3,554.3,492.9z"/>
		</g>
		<g>
			<g>
				<path fill="#B37A36" d="M572.2,465.6l-1,8.8c-4.6-0.9-18.4-3.8-28.5-9.7l2.7-7.7c-0.9-0.5-1.8-0.9-2.7-1.4L539,466l1,0.6
					c5.9,3.6,13,6.2,19,8l-2.2,7.3c1,0.3,1.9,0.5,2.9,0.8l2.2-7.3c5.7,1.5,9.9,2.2,10.3,2.3l1.5,0.2l0.6-5.5l8.5,0.8l-1.6,13.1
					c1,0.1,2,0.2,3,0.2l1.9-16l-11.6-1l0.4-3.3C574.2,466,573.2,465.8,572.2,465.6z"/>
			</g>
			<g>
				<path fill="#B37A36" d="M515.7,443.1l-1.9,2.4c6.3,8.1,15.8,14.4,19.3,16.5l-4.4,7.7c0.8,0.5,1.7,1,2.6,1.5l5.9-10.4l-1.3-0.7
					C535.8,460.1,523,452.8,515.7,443.1z"/>
			</g>
		</g>
		<g>
			<circle fill="none" cx="609.1" cy="415.9" r="1.5"/>
			<path fill="none" d="M605,401.5l1.4-0.3l3.4,11.6c1.4,0.3,2.5,1.6,2.5,3.1c0,1.8-1.4,3.2-3.2,3.2s-3.2-1.4-3.2-3.2
				c0-0.9,0.4-1.7,1-2.3l-2.6-8.9c-4.6,0.9-8.7,1.3-12.2,1.3v9c2.1,0,4.2-0.3,6.2-0.9l0.8,2.9c-2.3,0.6-4.7,0.9-7,1v6.3
				c0.3,0,0.5,0,0.8,0c12.7,0,24.6-3.8,34.5-10.2L592.1,380v23C595.7,403,600.1,402.7,605,401.5z"/>
			<path fill="none" d="M630.6,440.9c5.3-2.5,10.4-5.6,15-9.1l-4.6-4.4c-7,4.6-11.4,6.8-13.5,7.8L630.6,440.9z"/>
			<path fill="none" d="M592.1,427.4v22c0.3,0,0.5,0,0.8,0c12.4,0,24.3-2.6,35-7.2l-0.9-1.7c-10.8,5-26.7,6.1-27.4,6.2l-1.5,0.1
				l-1-16.8l1.5-0.1c0.2,0,16.6-1.5,25-6.6l1.3-0.8l3.4,5.8l-2.6,1.5l-1.9-3.2c-0.6,0.3-1.3,0.6-1.9,0.9l1.2,3.4l-2.8,1l-1.2-3.3
				c-1.2,0.4-2.4,0.8-3.6,1.2l1.1,3.1l-2.8,1l-1.2-3.3c-1,0.2-2,0.5-3,0.7l1.2,3.3l-2.8,1l-1.3-3.8c-2.7,0.5-4.9,0.8-6.3,0.9
				l0.7,10.9c4.2-0.4,16.2-1.8,24.7-5.7l-2.2-4.2l1.7-0.6c0,0,4.2-1.5,13.8-7.8l-9.3-9c-10.5,7-23.1,11.1-36.7,11.1
				C592.6,427.4,592.3,427.4,592.1,427.4z"/>
			<path fill="#EDB066" d="M647.8,434l-2.2-2.1c-4.7,3.5-9.7,6.5-15,9.1l-3-5.7c2.1-1,6.4-3.2,13.5-7.8l-2.2-2.1
				c-9.7,6.3-13.8,7.8-13.8,7.8l-1.7,0.6l2.2,4.2c-8.5,3.9-20.5,5.3-24.7,5.7l-0.7-10.9c1.4-0.2,3.7-0.5,6.3-0.9l1.3,3.8l2.8-1
				l-1.2-3.3c1-0.2,2-0.4,3-0.7l1.2,3.3l2.8-1l-1.1-3.1c1.2-0.4,2.4-0.7,3.6-1.2l1.2,3.3l2.8-1l-1.2-3.4c0.7-0.3,1.3-0.6,1.9-0.9
				l1.9,3.2l2.6-1.5l-3.4-5.8l-1.3,0.8c-8.4,5.1-24.9,6.6-25,6.6l-1.5,0.1l1,16.8l1.5-0.1c0.7,0,16.5-1.2,27.4-6.2l0.9,1.7
				c-10.7,4.6-22.6,7.2-35,7.2c-0.3,0-0.5,0-0.8,0v3c0.3,0,0.5,0,0.8,0C613.5,452.4,632.5,445.5,647.8,434z"/>
			<path fill="#EDB066" d="M604.3,404.8l2.6,8.9c-0.6,0.6-1,1.4-1,2.3c0,1.8,1.4,3.2,3.2,3.2s3.2-1.4,3.2-3.2c0-1.5-1.1-2.8-2.5-3.1
				l-3.4-11.6l-1.4,0.3c-4.9,1.1-9.3,1.5-12.9,1.5v3C595.6,406,599.7,405.7,604.3,404.8z M609.1,414.4c0.8,0,1.5,0.7,1.5,1.5
				s-0.7,1.5-1.5,1.5s-1.5-0.7-1.5-1.5S608.2,414.4,609.1,414.4z"/>
			<path fill="#EDB066" d="M599.1,417.1l-0.8-2.9c-2,0.6-4.1,0.8-6.2,0.9v3C594.4,418,596.8,417.8,599.1,417.1z"/>
			<path fill="#EDB066" d="M592.1,424.4v3c0.3,0,0.5,0,0.8,0c13.6,0,26.2-4.1,36.7-11.1l-2.2-2.1c-9.9,6.5-21.8,10.2-34.5,10.2
				C592.6,424.4,592.3,424.4,592.1,424.4z"/>
			<path fill="#D0914C" d="M583.9,448.9l1.7-13.5l-1.5-0.2c-0.2,0-23.5-2.8-34.3-14.5l-2.2,2c10.1,10.9,29.1,14.4,34.7,15.3
				l-1.4,10.6c-15.8-2.1-30.4-8.5-42.4-17.9l-2.2,2.1c15.4,12.1,34.7,19.4,55.7,19.6v-3C589.3,449.4,586.6,449.2,583.9,448.9z"/>
			<path fill="#D0914C" d="M592.1,424.4c-5.6-0.1-11.1-0.9-16.3-2.3l1.5-6.4c2.7,0.9,8.1,2.4,14,2.4c0.2,0,0.5,0,0.7,0v-3
				c-5.9,0.1-11.5-1.5-14-2.3l2-8.2c2.1,0.6,6.3,1.5,12,1.5v-3c-7.8,0-12.5-1.7-12.5-1.8l-1.6-0.6l-5,20.5
				c-5.8-1.9-11.2-4.7-16.2-8.1l-2.2,2.1c10.6,7.5,23.5,12,37.5,12.2L592.1,424.4L592.1,424.4z"/>
		</g>
	</g>
</g>
<g id="shield">
	<g>
		<path fill="#CC9548" d="M729,213.2l-10.4,3.8l-1.7-11.7l-18,7l2-21c-29.7-19.3-71.4-30.5-107.1-30.5c-0.6,0-1.1,0-1.7,0
			c-0.2,0-0.4,0-0.7,0v219.5l0.9-0.9L700,485c0,0-44,40.5-107.5,40.5c-0.3,0-0.6,0-0.9,0v36.7c0.2,0,0.4,0,0.7,0c0.6,0,1.1,0,1.7,0
			c110.8,0,200.7-89.9,200.7-200.7C794.6,302.8,769.3,249.9,729,213.2z"/>
		<path fill="#B37A36" d="M484.5,483.5l107.1-103.1V160.9c-109.8,1.3-198.4,90.6-198.4,200.7c0,17.2,2.2,34,6.3,49.9l13.3,5.5
			l-5.6,12.6l16.3,2.4l-8,21.7c33,63.9,99.4,107.7,176,108.6v-36.7C528.6,525.1,484.5,483.5,484.5,483.5z"/>
	</g>
	<g>
		<path fill="#744921" d="M593.2,195.3c-0.3,0-0.6,0-1,0v5.3c0,0,0,0,0,0c0.3,0,0.6,0,0.9,0c88.9,0,161,72.1,161,161
			c0,88.9-72.1,161-161,161c-0.3,0-0.6,0-0.9,0c0,0,0,0,0,0v5.3c0.3,0,0.6,0,1,0c91.8,0,166.3-74.5,166.3-166.3
			S685,195.3,593.2,195.3z"/>
		<path fill="#663C19" d="M432.2,361.6c0-88.6,71.6-160.5,160-161v-5.3c-91.4,0.5-165.3,74.8-165.3,166.3s73.9,165.8,165.3,166.3
			v-5.3C503.8,522,432.2,450.2,432.2,361.6z"/>
	</g>
	<g>
		<path fill="#8C5B29" d="M592.2,333.8v50.7l112.2,110.1c8.9-8.1,17-17.2,24-27.1L592.2,333.8z"/>
		<path fill="#7B4B1E" d="M591.7,333.2L456,466.4c6.9,10,14.9,19.1,23.8,27.3l111.9-109.8l0.6,0.6v-50.7L591.7,333.2z"/>
	</g>
	<g>
		<path fill="#CC9548" d="M729,457.5L592.2,323.2l0,0v50.7l0,0l112.8,110.7l24.9,24.5c8.9-8.2,17-17.2,24.3-26.8L729,457.5z"/>
		<path fill="#B37A36" d="M456.6,456.4l-24.4,24c0,0,0,0.1,0.1,0.1c0.9,1.2,1.7,2.3,2.6,3.4c0,0,0.1,0.1,0.1,0.1
			c1.8,2.3,3.6,4.6,5.5,6.8c0.1,0.2,0.3,0.3,0.4,0.5c0.8,0.9,1.6,1.9,2.4,2.8c0.1,0.2,0.3,0.3,0.4,0.5c0.9,1.1,1.9,2.1,2.8,3.1
			c0.1,0.1,0.2,0.2,0.4,0.4c0.8,0.9,1.6,1.7,2.4,2.6c0.3,0.3,0.6,0.6,0.9,0.9c0.7,0.7,1.4,1.4,2.1,2.1c0.3,0.3,0.6,0.6,0.8,0.8
			c0.9,0.9,1.8,1.8,2.8,2.7c0.1,0.1,0.2,0.1,0.2,0.2l24.2-23.8l111.9-109.8v-50.7L456.6,456.4z"/>
	</g>
	<g>
		<path fill="#996928" d="M593.2,200.6c-0.3,0-0.6,0-0.9,0c0,0,0,0,0,0v122.6l0,0l133,130.5c18.3-26.1,29-57.9,29-92.2
			C754.2,272.6,682.1,200.6,593.2,200.6z"/>
		<path fill="#87561E" d="M432.2,361.6c0,33.8,10.4,65.1,28.2,91l131.8-129.4V200.6C503.8,201.1,432.2,273,432.2,361.6z"/>
	</g>
	<g id="buttons_copy">
		<g>
			<circle fill="#663C19" cx="502.9" cy="203.9" r="5"/>
		</g>
		<g>
			<circle fill="#663C19" cx="436.2" cy="270.5" r="5"/>
		</g>
		<g>
			<circle fill="#663C19" cx="411.9" cy="361.6" r="5"/>
		</g>
		<g>
			<circle fill="#663C19" cx="436.2" cy="452.6" r="5"/>
		</g>
		<g>
			<circle fill="#663C19" cx="502.9" cy="519.2" r="5"/>
		</g>
		<g>
			<path fill="#EDB066" d="M592.3,174.5c-0.2,0-0.5,0-0.7,0.1v9.9c0.2,0,0.5,0.1,0.7,0.1c2.8,0,5-2.2,5-5S595,174.5,592.3,174.5z"/>
			<path fill="#D0914C" d="M587.3,179.5c0,2.5,1.9,4.6,4.3,4.9v-9.9C589.1,174.9,587.3,177,587.3,179.5z"/>
		</g>
		<g>
			<path fill="#EDB066" d="M592.2,538.6c-0.2,0-0.4,0-0.7,0.1v9.9c0.2,0,0.4,0.1,0.7,0.1c2.8,0,5-2.2,5-5
				C597.2,540.9,595,538.6,592.2,538.6z"/>
			<path fill="#D0914C" d="M587.2,543.6c0,2.5,1.9,4.6,4.3,4.9v-9.9C589.1,539,587.2,541.1,587.2,543.6z"/>
		</g>
		<g>
			<path fill="#EDB066" d="M680.6,521.7c-1.4-2.4-0.6-5.5,1.8-6.8c2.4-1.4,5.4-0.6,6.8,1.8c1.4,2.4,0.6,5.4-1.8,6.8
				C685,524.9,682,524.1,680.6,521.7z"/>
		</g>
		<g>
			<path fill="#EDB066" d="M749.1,456.9c-2.4-1.4-3.2-4.4-1.8-6.8c1.4-2.4,4.4-3.2,6.8-1.8c2.4,1.4,3.2,4.4,1.8,6.8
				C754.5,457.5,751.5,458.3,749.1,456.9z"/>
		</g>
		<g>
			<circle fill="#EDB066" cx="776" cy="361.6" r="5"/>
		</g>
		<g>
			<path fill="#EDB066" d="M754.1,274.9c-2.4,1.4-5.5,0.6-6.8-1.8c-1.4-2.4-0.6-5.5,1.8-6.8c2.4-1.4,5.4-0.6,6.8,1.8
				C757.3,270.4,756.5,273.5,754.1,274.9z"/>
		</g>
		<g>
			<path fill="#EDB066" d="M689.3,206.4c-1.4,2.4-4.4,3.2-6.8,1.8c-2.4-1.4-3.2-4.4-1.8-6.8c1.4-2.4,4.4-3.2,6.8-1.8
				C689.8,200.9,690.7,204,689.3,206.4z"/>
		</g>
	</g>
</g>
<g id="supertech_copy">
</g>
<g id="scratches">
	<path fill="#744921" d="M674.4,241.2L664.1,310l-45.7-26.6l19.5,18.4l36.5,14.2l-10.3-6C683.2,269.8,674.4,241.2,674.4,241.2z"/>
	<polygon fill="#663C19" points="553.9,277 491.1,341.6 522.4,299.3 	"/>
	<path fill="#663C19" d="M526.3,286.2l-33.8,31.2c0,0,2.8-9.4,13.9-19.8C517.5,287.2,526.3,286.2,526.3,286.2z"/>
</g>
<g id="extras">
	<polyline fill="none" stroke="#CC9548" stroke-width="5" stroke-miterlimit="10" points="583.6,594.5 565.6,609.3 583.6,624 	"/>
	<line fill="none" stroke="#CC9548" stroke-width="5" stroke-miterlimit="10" x1="603.1" y1="586.4" x2="588.1" y2="632.1"/>
	<polyline fill="none" stroke="#CC9548" stroke-width="5" stroke-miterlimit="10" points="607.5,594.5 625.6,609.3 607.5,624 	"/>
</g>
<g id="laurels">
	<g id="laurel_1_">
		<g>
			<path fill="#996928" d="M287.3,275.4c0,0,43.7,8.6,32.6,48.6C278.6,319.1,287.3,275.4,287.3,275.4z"/>
			<path fill="#744921" d="M319.8,324l-32.6-48.6C287.3,275.4,278.6,319.1,319.8,324z"/>
		</g>
		<g>
			<path fill="#996928" d="M276.7,327.8c0,0,44.5-2,43.2,39.5C278.7,372.4,276.7,327.8,276.7,327.8z"/>
			<path fill="#744921" d="M319.9,367.3l-43.2-39.5C276.7,327.8,278.7,372.4,319.9,367.3z"/>
		</g>
		<g>
			<path fill="#996928" d="M276.2,375.3c0,0,43.9-7.9,48,33.4C284.1,419.2,276.2,375.3,276.2,375.3z"/>
			<path fill="#744921" d="M324.2,408.7l-48-33.4C276.2,375.3,284.1,419.2,324.2,408.7z"/>
		</g>
		<g>
			<path fill="#996928" d="M291.9,426.4c0,0,36.3-12.1,45,22.6C304.1,462.8,291.9,426.4,291.9,426.4z"/>
			<path fill="#744921" d="M336.9,448.9l-45-22.6C291.9,426.4,304.1,462.8,336.9,448.9z"/>
		</g>
		<g>
			<path fill="#996928" d="M306.2,469.6c0,0,34.4-16.8,47.6,16.4C323.1,504.1,306.2,469.6,306.2,469.6z"/>
			<path fill="#744921" d="M353.8,486l-47.6-16.4C306.2,469.6,323.1,504.1,353.8,486z"/>
		</g>
		<g>
			<path fill="#996928" d="M328.4,508.8c0,0,32.3-20.5,49.1,11.1C349,541.2,328.4,508.8,328.4,508.8z"/>
			<path fill="#744921" d="M377.5,519.9l-49.1-11.1C328.4,508.8,349,541.2,377.5,519.9z"/>
		</g>
		<g>
			<path fill="#996928" d="M362.3,545.7c0,0,22.8-21.4,41,1.3C383.8,568.5,362.3,545.7,362.3,545.7z"/>
			<path fill="#744921" d="M403.4,547l-41-1.3C362.3,545.7,383.8,568.5,403.4,547z"/>
		</g>
		<g>
			<path fill="#996928" d="M391,572.6c0,0,20.4-23.6,40.9-2.9C414.7,593.1,391,572.6,391,572.6z"/>
			<path fill="#744921" d="M432,569.7l-40.9,2.9C391,572.6,414.7,593.1,432,569.7z"/>
		</g>
		<g>
			<path fill="#996928" d="M433,596.6c0,0,10.2-22.1,30.1-11C455.2,606.8,433,596.6,433,596.6z"/>
			<path fill="#744921" d="M463.1,585.6l-30.1,11C433,596.6,455.2,606.8,463.1,585.6z"/>
		</g>
		<g>
			<path fill="#996928" d="M467,606.4c0,0,7.7-16.6,22.6-8.2C483.6,614.1,467,606.4,467,606.4z"/>
			<path fill="#744921" d="M489.5,598.2l-22.6,8.2C467,606.4,483.6,614.1,489.5,598.2z"/>
		</g>
		<g>
			<path fill="#996928" d="M369.3,288.4c0,0-44.3-5.3-46,36.2C364,332.7,369.3,288.4,369.3,288.4z"/>
			<path fill="#CC9548" d="M323.3,324.6l46-36.2C369.3,288.4,325,283.2,323.3,324.6z"/>
		</g>
		<g>
			<path fill="#996928" d="M366.7,330.3c0,0-44.4-4-45,37.4C362.7,374.6,366.7,330.3,366.7,330.3z"/>
			<path fill="#CC9548" d="M321.9,364.8c0.3,1.7,0.6,2.7,0.6,2.7l44.2-37.2C366.7,330.3,324.5,326.4,321.9,364.8z"/>
		</g>
		<g>
			<path fill="#996928" d="M369.2,366.4c0,0-44.6,0-41.4,41.3C369.1,411,369.2,366.4,369.2,366.4z"/>
			<path fill="#CC9548" d="M327.7,407.8l41.4-41.3C369.2,366.4,324.6,366.4,327.7,407.8z"/>
		</g>
		<g>
			<path fill="#996928" d="M366.7,405.2c0,0-37.3,8.7-26.4,42.8C375.5,442.6,366.7,405.2,366.7,405.2z"/>
			<path fill="#CC9548" d="M340.3,448l26.4-42.8C366.7,405.2,329.4,413.9,340.3,448z"/>
		</g>
		<g>
			<path fill="#996928" d="M383.9,443.7c0,0-37.5,7.7-27.6,42C391.7,481.3,383.9,443.7,383.9,443.7z"/>
			<path fill="#CC9548" d="M356.3,485.8l27.6-42C383.9,443.7,346.4,451.4,356.3,485.8z"/>
		</g>
		<g>
			<path fill="#996928" d="M399.5,472c0,0-35.7,13.8-20.3,46C413.4,507.8,399.5,472,399.5,472z"/>
			<path fill="#CC9548" d="M379.3,518l20.3-46C399.5,472,363.8,485.8,379.3,518z"/>
		</g>
		<g>
			<path fill="#996928" d="M414.6,505.3c0,0-26.5,16.6-9.1,40C431.2,531.8,414.6,505.3,414.6,505.3z"/>
			<path fill="#CC9548" d="M405.5,545.3l9.1-40C414.6,505.3,388.1,521.8,405.5,545.3z"/>
		</g>
		<g>
			<path fill="#996928" d="M437.9,527.1c0,0-24.6,19.2-4.9,40.7C457.1,551.8,437.9,527.1,437.9,527.1z"/>
			<path fill="#CC9548" d="M432.9,567.8l4.9-40.7C437.9,527.1,413.2,546.3,432.9,567.8z"/>
		</g>
		<g>
			<path fill="#996928" d="M458.3,552.4c0,0-14.3,19.7,5,31.6C478.1,566.8,458.3,552.4,458.3,552.4z"/>
			<path fill="#CC9548" d="M463.4,584l-5-31.6C458.3,552.4,444,572.1,463.4,584z"/>
		</g>
		<g>
			<path fill="#996928" d="M486,573.3c0,0-10.8,14.8,3.8,23.7C500.8,584,486,573.3,486,573.3z"/>
			<path fill="#CC9548" d="M489.8,597l-3.8-23.7C486,573.3,475.2,588.1,489.8,597z"/>
		</g>
		<path fill="none" stroke="#CC9548" stroke-width="5" stroke-miterlimit="10" d="M329.7,284.8c-9.8,35.9-12,74.4-5.1,113.5
			c18.1,102.6,94,180.4,188.3,205.9"/>
		<g>
			<path fill="#744921" d="M327.2,287.8l20.5-54.8C347.8,233,307.2,251.5,327.2,287.8z"/>
			<path fill="#CC9548" d="M327.2,287.8C327.2,287.8,327.2,287.8,327.2,287.8c39-14.2,20.5-54.8,20.5-54.8L327.2,287.8
				C327.2,287.8,327.2,287.8,327.2,287.8z"/>
		</g>
	</g>
	<g id="laurel_2_">
		<g>
			<path fill="#996928" d="M903.7,275.4c0,0-43.7,8.6-32.6,48.6C912.3,319.1,903.7,275.4,903.7,275.4z"/>
			<path fill="#744921" d="M871.1,324l32.6-48.6C903.7,275.4,912.3,319.1,871.1,324z"/>
		</g>
		<g>
			<path fill="#996928" d="M914.2,327.8c0,0-44.5-2-43.2,39.5C912.2,372.4,914.2,327.8,914.2,327.8z"/>
			<path fill="#744921" d="M871.1,367.3l43.2-39.5C914.2,327.8,912.2,372.4,871.1,367.3z"/>
		</g>
		<g>
			<path fill="#996928" d="M914.7,375.3c0,0-43.9-7.9-48,33.4C906.8,419.2,914.7,375.3,914.7,375.3z"/>
			<path fill="#744921" d="M866.7,408.7l48-33.4C914.7,375.3,906.8,419.2,866.7,408.7z"/>
		</g>
		<g>
			<path fill="#996928" d="M899,426.4c0,0-36.3-12.1-45,22.6C886.9,462.8,899,426.4,899,426.4z"/>
			<path fill="#744921" d="M854,448.9l45-22.6C899,426.4,886.9,462.8,854,448.9z"/>
		</g>
		<g>
			<path fill="#996928" d="M884.8,469.6c0,0-34.4-16.8-47.6,16.4C867.8,504.1,884.8,469.6,884.8,469.6z"/>
			<path fill="#744921" d="M837.2,486l47.6-16.4C884.8,469.6,867.8,504.1,837.2,486z"/>
		</g>
		<g>
			<path fill="#996928" d="M862.5,508.8c0,0-32.3-20.5-49.1,11.1C841.9,541.2,862.5,508.8,862.5,508.8z"/>
			<path fill="#744921" d="M813.4,519.9l49.1-11.1C862.5,508.8,841.9,541.2,813.4,519.9z"/>
		</g>
		<g>
			<path fill="#996928" d="M828.6,545.7c0,0-22.8-21.4-41,1.3C807.1,568.5,828.6,545.7,828.6,545.7z"/>
			<path fill="#744921" d="M787.6,547l41-1.3C828.6,545.7,807.1,568.5,787.6,547z"/>
		</g>
		<g>
			<path fill="#996928" d="M799.9,572.6c0,0-20.4-23.6-40.9-2.9C776.2,593.1,799.9,572.6,799.9,572.6z"/>
			<path fill="#744921" d="M759,569.7l40.9,2.9C799.9,572.6,776.2,593.1,759,569.7z"/>
		</g>
		<g>
			<path fill="#996928" d="M757.9,596.6c0,0-10.2-22.1-30.1-11C735.8,606.8,757.9,596.6,757.9,596.6z"/>
			<path fill="#744921" d="M727.9,585.6l30.1,11C757.9,596.6,735.8,606.8,727.9,585.6z"/>
		</g>
		<g>
			<path fill="#996928" d="M724,606.4c0,0-7.7-16.6-22.6-8.2C707.3,614.1,724,606.4,724,606.4z"/>
			<path fill="#744921" d="M701.4,598.2l22.6,8.2C724,606.4,707.3,614.1,701.4,598.2z"/>
		</g>
		<g>
			<path fill="#996928" d="M821.7,288.4c0,0,44.3-5.3,46,36.2C827,332.7,821.7,288.4,821.7,288.4z"/>
			<path fill="#CC9548" d="M867.6,324.6l-46-36.2C821.7,288.4,865.9,283.2,867.6,324.6z"/>
		</g>
		<g>
			<path fill="#996928" d="M824.2,330.3c0,0,44.4-4,45,37.4C828.3,374.6,824.2,330.3,824.2,330.3z"/>
			<path fill="#CC9548" d="M869.1,364.8c-0.3,1.7-0.6,2.7-0.6,2.7l-44.2-37.2C824.2,330.3,866.5,326.4,869.1,364.8z"/>
		</g>
		<g>
			<path fill="#996928" d="M821.8,366.4c0,0,44.6,0,41.4,41.3C821.8,411,821.8,366.4,821.8,366.4z"/>
			<path fill="#CC9548" d="M863.2,407.8l-41.4-41.3C821.8,366.4,866.3,366.4,863.2,407.8z"/>
		</g>
		<g>
			<path fill="#996928" d="M824.2,405.2c0,0,37.3,8.7,26.4,42.8C815.4,442.6,824.2,405.2,824.2,405.2z"/>
			<path fill="#CC9548" d="M850.6,448l-26.4-42.8C824.2,405.2,861.5,413.9,850.6,448z"/>
		</g>
		<g>
			<path fill="#996928" d="M807,443.7c0,0,37.5,7.7,27.6,42C799.2,481.3,807,443.7,807,443.7z"/>
			<path fill="#CC9548" d="M834.6,485.8l-27.6-42C807,443.7,844.5,451.4,834.6,485.8z"/>
		</g>
		<g>
			<path fill="#996928" d="M791.4,472c0,0,35.7,13.8,20.3,46C777.5,507.8,791.4,472,791.4,472z"/>
			<path fill="#CC9548" d="M811.6,518l-20.3-46C791.4,472,827.1,485.8,811.6,518z"/>
		</g>
		<g>
			<path fill="#996928" d="M776.3,505.3c0,0,26.5,16.6,9.1,40C759.7,531.8,776.3,505.3,776.3,505.3z"/>
			<path fill="#CC9548" d="M785.5,545.3l-9.1-40C776.3,505.3,802.8,521.8,785.5,545.3z"/>
		</g>
		<g>
			<path fill="#996928" d="M753.1,527.1c0,0,24.6,19.2,4.9,40.7C733.8,551.8,753.1,527.1,753.1,527.1z"/>
			<path fill="#CC9548" d="M758,567.8l-4.9-40.7C753.1,527.1,777.7,546.3,758,567.8z"/>
		</g>
		<g>
			<path fill="#996928" d="M732.6,552.4c0,0,14.3,19.7-5,31.6C712.8,566.8,732.6,552.4,732.6,552.4z"/>
			<path fill="#CC9548" d="M727.6,584l5-31.6C732.6,552.4,746.9,572.1,727.6,584z"/>
		</g>
		<g>
			<path fill="#996928" d="M704.9,573.3c0,0,10.8,14.8-3.8,23.7C690.1,584,704.9,573.3,704.9,573.3z"/>
			<path fill="#CC9548" d="M701.2,597l3.8-23.7C704.9,573.3,715.7,588.1,701.2,597z"/>
		</g>
		<path fill="none" stroke="#CC9548" stroke-width="5" stroke-miterlimit="10" d="M861.2,284.8c9.8,35.9,12,74.4,5.1,113.5
			c-18.1,102.6-94,180.4-188.3,205.9"/>
		<g>
			<path fill="#744921" d="M863.7,287.8L843.2,233C843.2,233,883.7,251.5,863.7,287.8z"/>
			<path fill="#CC9548" d="M863.7,287.8C863.7,287.8,863.7,287.8,863.7,287.8c-39-14.2-20.5-54.8-20.5-54.8L863.7,287.8
				C863.7,287.8,863.7,287.8,863.7,287.8z"/>
		</g>
	</g>
</g>
</svg>
