<?xml version="1.0" encoding="utf-8"?>
<!-- Generator: Adobe Illustrator 16.0.0, SVG Export Plug-In . SVG Version: 6.00 Build 0)  -->
<!DOCTYPE svg PUBLIC "-//W3C//DTD SVG 1.1//EN" "http://www.w3.org/Graphics/SVG/1.1/DTD/svg11.dtd">
<svg version="1.1" id="Layer_1" xmlns="http://www.w3.org/2000/svg" xmlns:xlink="http://www.w3.org/1999/xlink" x="0px" y="0px"
	 width="1439.209px" height="805.093px" viewBox="0 0 1439.209 805.093" enable-background="new 0 0 1439.209 805.093"
	 xml:space="preserve">
<g id="columns_1_">
	<rect x="1136.735" y="37.148" fill="#55483E" width="20.863" height="79.57"/>
	<rect x="1172.736" y="37.148" fill="#55483E" width="20.864" height="79.57"/>
	<rect x="1208.738" y="37.148" fill="#55483E" width="20.865" height="79.57"/>
	<rect x="1244.739" y="37.148" fill="#55483E" width="20.866" height="79.57"/>
	<polygon fill="#4C4037" points="1150.073,49.989 1150.073,114.54 1144.265,114.54 1144.265,49.989 1141.359,49.989 
		1141.359,114.54 1141.359,116.718 1144.265,116.718 1150.073,116.718 1152.979,116.718 1152.979,114.54 1152.979,49.989 	"/>
	<polygon fill="#4C4037" points="1186.074,49.989 1186.074,114.54 1180.265,114.54 1180.265,49.989 1177.36,49.989 1177.36,114.54 
		1177.36,116.718 1180.265,116.718 1186.074,116.718 1188.979,116.718 1188.979,114.54 1188.979,49.989 	"/>
	<polygon fill="#4C4037" points="1222.076,49.989 1222.076,114.54 1216.268,114.54 1216.268,49.989 1213.362,49.989 
		1213.362,114.54 1213.362,116.718 1216.268,116.718 1222.076,116.718 1224.98,116.718 1224.98,114.54 1224.98,49.989 	"/>
	<polygon fill="#4C4037" points="1258.077,49.989 1258.077,114.54 1252.27,114.54 1252.27,49.989 1249.363,49.989 1249.363,114.54 
		1249.363,116.718 1252.27,116.718 1258.077,116.718 1260.98,116.718 1260.98,114.54 1260.98,49.989 	"/>
</g>
<g>
	<polygon fill="#4C4037" points="1265.767,27.976 1220.288,27.976 1220.288,46.32 1265.767,46.32 1265.767,116.718 
		1270.965,116.718 1270.965,46.32 1270.965,27.976 	"/>
	<polygon fill="#65564A" points="1208.096,0 1148.646,0 1211.517,22.014 1220.288,22.014 1220.288,27.976 1270.965,27.976 
		1270.965,22.014 	"/>
</g>
<polygon fill="#8D7868" points="1156.195,0 1148.646,0 1152.401,1.29 1091.416,22.014 1091.416,46.32 1199.421,46.32 
	1199.421,116.718 1220.288,116.718 1220.288,46.32 1220.288,37.148 1220.288,22.014 "/>
<polygon fill="#9F8875" points="1148.646,0 1083.867,22.014 1083.867,46.32 1212.739,46.32 1212.739,22.014 "/>
<g>
	<polygon fill="#9F8875" points="1133.188,49.989 1136.093,49.989 1136.093,60.128 1140.718,67.797 1140.718,42.346 
		1138.422,42.346 1138.422,37.148 1131.925,37.148 1131.925,42.346 1127.188,42.346 1127.188,37.148 1122.233,37.148 
		1133.188,55.311 	"/>
	<polygon fill="#9F8875" points="1172.127,37.148 1165.631,37.148 1165.631,42.346 1160.892,42.346 1160.892,37.148 
		1155.852,37.148 1155.852,92.893 1160.477,100.562 1160.477,49.989 1163.381,49.989 1163.381,105.378 1168.906,114.54 
		1169.189,114.54 1169.189,49.989 1172.095,49.989 1172.095,114.54 1172.095,116.718 1176.719,116.718 1176.719,42.346 
		1172.127,42.346 	"/>
	<polygon fill="#9F8875" points="1199.336,37.148 1199.336,42.346 1194.598,42.346 1194.598,37.148 1191.854,37.148 
		1191.854,116.718 1196.479,116.718 1196.479,114.54 1196.479,49.989 1199.382,49.989 1199.382,114.54 1205.189,114.54 
		1205.189,49.989 1208.096,49.989 1208.096,114.54 1208.096,116.718 1212.721,116.718 1212.721,37.148 	"/>
	<polygon fill="#79604C" points="1136.093,49.989 1133.188,49.989 1133.188,55.311 1136.093,60.128 	"/>
	<polygon fill="#79604C" points="1163.381,49.989 1160.477,49.989 1160.477,100.562 1163.381,105.378 	"/>
	<polygon fill="#79604C" points="1172.095,49.989 1169.189,49.989 1169.189,114.54 1168.906,114.54 1170.22,116.718 
		1172.095,116.718 1172.095,114.54 	"/>
	<polygon fill="#79604C" points="1208.096,49.989 1205.189,49.989 1205.189,114.54 1199.382,114.54 1199.382,49.989 
		1196.479,49.989 1196.479,114.54 1196.479,116.718 1199.382,116.718 1205.189,116.718 1208.096,116.718 1208.096,114.54 	"/>
	<polygon fill="#7C624E" points="1120.689,32.409 1119.376,32.409 1120.689,34.587 	"/>
	<rect x="1127.188" y="32.409" fill="#7C624E" width="4.737" height="4.739"/>
	<rect x="1127.188" y="37.148" fill="#7C624E" width="4.737" height="5.198"/>
	<polygon fill="#7C624E" points="1140.718,42.346 1143.16,42.346 1143.16,32.409 1138.422,32.409 1138.422,37.148 1140.718,37.148 	
		"/>
	<rect x="1138.422" y="37.148" fill="#7C624E" width="2.296" height="5.198"/>
	<rect x="1149.657" y="32.409" fill="#7C624E" width="4.737" height="9.937"/>
	<rect x="1160.892" y="32.409" fill="#7C624E" width="4.739" height="4.739"/>
	<rect x="1160.892" y="37.148" fill="#7C624E" width="4.739" height="5.198"/>
	<polygon fill="#7C624E" points="1172.127,37.148 1176.719,37.148 1176.719,42.346 1176.866,42.346 1176.866,32.409 
		1172.127,32.409 	"/>
	<rect x="1172.127" y="37.148" fill="#7C624E" width="4.592" height="5.198"/>
	<rect x="1183.362" y="32.409" fill="#7C624E" width="4.737" height="9.937"/>
	<rect x="1194.598" y="32.409" fill="#7C624E" width="4.738" height="4.739"/>
	<rect x="1194.598" y="37.148" fill="#7C624E" width="4.738" height="5.198"/>
	<polygon fill="#7C624E" points="1148.304,10.867 1199.324,27.976 1203.146,27.976 1203.146,24.46 1148.342,5.835 1148.342,5.809 
		1148.304,5.822 1148.266,5.809 1148.266,5.835 1110.989,18.503 1113.436,22.56 	"/>
	<polygon fill="#755C49" points="1136.093,114.54 1136.093,116.718 1140.718,116.718 1140.718,67.797 1136.093,60.128 	"/>
	<path fill="#755C49" d="M1122.233,37.148l-1.544-2.561v2.561v5.198h-0.84h-3.898v-9.937h3.425l-5.939-9.85l-16.152,5.417h-3.821
		V24.46l17.527-5.957l-2.855-4.735l-24.267,8.246v15.134h-0.019v79.57h4.625v-2.178V49.989h2.903v64.551h5.811V49.989h2.903v64.551
		v2.178h4.625V46.32h15.135v70.398h4.623v-2.178V49.989h2.904v64.551h5.81V55.311L1122.233,37.148z M1098.217,37.148v5.198h-4.735
		v-5.198v-4.739h4.735V37.148z M1109.454,42.346h-4.738v-5.198v-4.739h4.738V42.346z"/>
	<polygon fill="#5B4231" points="1100.092,49.989 1097.188,49.989 1097.188,114.54 1091.378,114.54 1091.378,49.989 
		1088.474,49.989 1088.474,114.54 1088.474,116.718 1091.378,116.718 1097.188,116.718 1100.092,116.718 1100.092,114.54 	"/>
	<polygon fill="#5B4231" points="1136.093,60.128 1133.188,55.311 1133.188,114.54 1127.379,114.54 1127.379,49.989 
		1124.474,49.989 1124.474,114.54 1124.474,116.718 1127.379,116.718 1133.188,116.718 1136.093,116.718 1136.093,114.54 	"/>
	<polygon fill="#5B4231" points="1093.48,32.409 1093.48,37.148 1093.48,42.346 1098.217,42.346 1098.217,37.148 1098.217,32.409 	
		"/>
	<polygon fill="#5B4231" points="1109.454,42.346 1109.454,32.409 1104.716,32.409 1104.716,37.148 1104.716,42.346 	"/>
	<polygon fill="#5B4231" points="1119.376,32.409 1115.951,32.409 1115.951,42.346 1119.851,42.346 1120.689,42.346 
		1120.689,37.148 1120.689,34.587 	"/>
	<polygon fill="#5B4231" points="1093.462,27.976 1097.283,27.976 1113.436,22.56 1110.989,18.503 1093.462,24.46 	"/>
	<polygon fill="#755C49" points="1168.906,114.54 1163.381,105.378 1163.381,114.54 	"/>
	<polygon fill="#755C49" points="1160.477,100.562 1155.852,92.893 1155.852,116.718 1160.477,116.718 1160.477,114.54 	"/>
	<polygon fill="#5B4231" points="1163.381,114.54 1163.381,105.378 1160.477,100.562 1160.477,114.54 1160.477,116.718 
		1163.381,116.718 1169.189,116.718 1170.22,116.718 1168.906,114.54 	"/>
</g>
<path fill="#5F4836" d="M1438.533,401.177c0,58.086,0,116.174,0,174.305c-168.06,0-336.113,0-504.518,0c0-97.25,0-194.546,0-291.841
	c0.215-1.74,0.604-3.479,0.611-5.22c0.112-22.02,0.188-44.04,0.234-66.061c0.028-13.994,0.006-27.988,0.006-42.283
	c1.898,0.13,3.234,0.002,4.438,0.339c6.269,1.763,11.979,1.342,16.354-4.033c1.804-2.217,3.748-4.512,4.806-7.099
	c4.475-10.94,8.636-22.005,12.247-31.311c7.087,6.205,14.706,12.231,21.491,19.065c3.879,3.906,7.085,5.772,12.018,2.406
	c3.354-2.286,6.57-1.896,9.977,0.335c3.096,2.028,6.559,3.507,9.876,5.237c6.394-14.186,4.415-29.111,6.041-43.701
	c7.081,0.416,13.72,0.34,20.188,1.335c4.958,0.763,7.866-0.673,9.667-5.025c1.254-3.03,3.457-3.752,6.704-3.43
	c6.893,0.685,13.864,0.631,20.736,1.435c11.327,1.325,23.229-0.437,33.712,5.846c0.829,0.496,2.279,0.291,3.348,0.033
	c13.613-3.285,27.102-1.893,40.685,0.473c5.043,0.878,10.889,1.644,15.44-0.018c10.892-3.973,21.791-5.933,33.34-5.443
	c7.412,0.314,14.854,0.005,22.28-0.158c4.165-0.091,8.37-0.562,10.132,5.062c10.834-6.104,21.215-11.954,31.6-17.804
	c0.988,0,1.979,0,2.974,0c4.799,1.522,9.599,3.045,14.808,4.697c0,3.317,0.293,6.745-0.062,10.105
	c-0.593,5.562,0.775,10.179,5.157,13.897c10.524,8.939,15.514,20.469,17.057,33.984c0.866,7.564,1.546,15.961,5.354,22.159
	c3.811,6.204,11.404,10.14,17.345,15.068c0.632,0.525,1.357,0.969,1.886,1.582c1.918,2.236,3.991,2.041,6.57,1.024
	c8.23-3.246,16.562-6.255,24.921-9.381c7.591,9.783,15.4,18.776,17.466,31.481c1.813,11.18,5.438,22.072,8.487,33.952
	c5.062-5.292,9.534-9.963,14.678-15.339c0.479,2.979,0.838,4.988,1.125,7.008c2.354,16.627,3.688,33.473,7.309,49.825
	c4.096,18.48,6.396,36.81,4.896,55.707c-0.903,11.371,0.052,22.91-1.218,34.223C1427.692,392.47,1430.643,397.841,1438.533,401.177z
	"/>
<path fill="#49382D" d="M1437.771,561.498L1310.017,519.4c-4.947-31.42-9.87-62.844-14.743-94.273
	c-0.477-3.076-1.752-4.84-4.69-6.137c-19.915-8.783-39.798-17.646-59.535-26.818c-3.029-1.407-6.021-4.074-7.748-6.933
	c-55.014-91.107-109.868-182.312-164.75-273.498c-1.015-1.688-2.056-3.36-2.687-4.388c-9.627-0.543-18.72-1.055-28.069-1.583
	c-1.471,14.863,0.264,29.801-5.976,44.148c-2.809-1.475-5.837-2.726-8.483-4.534c-4.212-2.875-8.306-3.516-12.671-0.581
	c-3.816,2.564-6.396,1.378-9.609-1.804c-7.264-7.19-15.172-13.729-22.637-20.371c-3.569,9.298-7.737,20.492-12.208,31.563
	c-1.062,2.623-2.977,4.966-4.777,7.21c-4.362,5.429-10.058,5.961-16.347,4.141c-1.211-0.351-2.557-0.243-4.422-0.394
	c0,5.7,0.013,11.114-0.002,16.528c-0.051,16.069-0.099,32.137-0.147,48.205c-7.65-6.188-15.487-12.184-23.559-18.467
	c-7.729,11.716-15.062,23.061-22.693,34.197c-1.342,1.956-3.745,3.728-6.013,4.415c-15.146,4.593-30.629,8.192-45.523,13.47
	c-10.997,3.897-20.886,4.427-30.74-2.233c-1.335-0.902-3.013-1.295-5.028-2.13c-1.687,9.1-3.561,17.939-4.863,26.862
	c-0.614,4.201-2.364,6.654-6.196,8.526c-8.296,4.05-16.267,8.764-24.527,12.887c-3.394,1.689-5.163,3.917-6.078,7.622
	c-10.479,42.424-21.145,84.801-31.634,127.221c-0.731,2.963-1.956,4.41-4.997,5.068c-9.51,2.059-18.941,4.453-28.412,6.686
	c-14.23,3.354-28.471,6.678-42.954,10.072c-4.062-12.051-7.991-23.709-11.968-35.506c-1.721,0.645-2.942,1.086-4.15,1.562
	c-36.905,14.732-73.79,29.521-110.759,44.1c-2.484,0.979-5.816,1.145-8.373,0.395c-26.896-7.891-53.728-16.004-80.534-24.184
	c-3.04-0.93-4.967-0.705-7.194,1.92c-6.727,7.932-13.753,15.617-20.857,23.213c-1.146,1.223-3.363,2.25-4.974,2.105
	c-29.598-2.641-59.185-5.412-88.751-8.363c-2.954-0.295-6.068-1.461-8.605-3.031c-11.5-7.133-22.79-14.604-34.237-21.822
	c-1.729-1.09-3.853-2.002-5.854-2.141c-11.859-0.828-23.738-1.385-35.609-2.068c-11.82-0.682-23.638-1.396-35.843-2.129
	c1.555-9.434,3.271-18.346,4.383-27.33c0.449-3.625,2.033-5.471,5.086-7.039c8.656-4.444,17.24-9.046,25.697-13.856
	c1.799-1.024,3.501-2.972,4.289-4.89c2.821-6.854,6.001-13.707,7.621-20.884c2.798-12.403,9.42-20.407,21.979-23.374
	c2.683-0.633,5.187-2.109,7.695-3.354c1.121-0.557,2.709-1.312,2.97-2.281c2.331-8.673,4.413-17.414,6.679-26.582
	c-46.451-2.973-92.198-5.902-138.48-8.866c1.015-2.207,1.704-3.849,2.508-5.432c12.627-24.852,25.222-49.721,37.974-74.509
	c1.51-2.936,1.675-5.355,0.316-8.355c-4.49-9.913-8.852-19.887-13-29.947c-1.021-2.477-1.613-5.403-1.437-8.059
	c1.687-25.538,3.528-51.065,5.482-76.584c0.238-3.119-0.604-5.187-2.873-7.319c-12.636-11.88-25.128-23.911-37.63-35.933
	c-1.13-1.087-1.977-2.47-2.955-3.715c-0.331,0-0.661,0-0.991,0c-8.403,9.307-16.382,19.043-25.293,27.834
	c-20.344,20.069-34.356,44.6-49.135,68.565c-5.755,9.332-12.526,16.967-21.975,22.708C18.644,174.911,9.468,181.99,0,188.588
	c0,128.524,0,257.048,0,385.574c0.161,0,0.326,0,0.488,0v230.932h1438.721V561.498H1437.771z"/>
<g>
	<g>
		<path fill="#6E5C4F" d="M944.714,575.482c5.644-16.295,11.282-32.59,17.152-49.553c-11.674-3.395-23.101-6.719-34.771-10.113
			c4.683-26.863,9.305-53.4,13.925-79.938c0.37-0.053,0.737-0.104,1.107-0.156c2.465,18.43,4.932,36.857,7.488,55.955
			c9.334,0,18.217,0,27.484,0c2.653,12.133,5.19,23.625,7.685,35.129c3.511,16.223,6.984,32.449,10.479,48.676
			C978.415,575.482,961.564,575.482,944.714,575.482z"/>
		<path fill="#6E5C4F" d="M897.137,298.94c2.663-4.643,5.433-9.23,7.971-13.94c4.432-8.227,8.723-16.53,13.716-26.021
			c1.849,10.961,2.952,20.741,5.229,30.24c3.214,13.397-1.247,26.074-2.567,39.036c-0.77,7.521-2.354,14.951-3.324,22.454
			c-0.215,1.655,0.464,3.493,1.007,5.157c0.4,1.226,1.109,2.418,1.92,3.434c8.503,10.679,10.658,22.817,8.803,36.07
			c-0.797,5.699-0.885,11.499-1.355,18.159c-5.041-2.852-10.101-5.146-14.397-8.434c-1.607-1.229-1.688-4.729-2.068-7.254
			c-4.768-31.559-9.454-63.127-14.189-94.691c-0.065-0.438-0.479-0.825-0.731-1.236C897.137,300.922,897.137,299.931,897.137,298.94
			z"/>
		<path fill="#6E5C4F" d="M1008.15,240.46c-2.93,10.5-5.854,20.999-9.125,32.731c-6.617-16.926-12.793-32.644-18.854-48.405
			c-0.421-1.092-0.176-2.543,0.063-3.769c3.395-17.425,6.842-34.841,11.229-52.411c0.601,3.503,1.498,6.987,1.744,10.515
			c1.403,20.226,6.687,39.497,14.053,58.271c0.162,0.414,0.585,0.726,0.89,1.085C1008.15,239.139,1008.15,239.799,1008.15,240.46z"
			/>
		<path fill="#6E5C4F" d="M952.346,197.981c1.758,13.997,3.75,27.971,5.146,42.004c0.466,4.687,1.732,7.954,6.519,8.974
			c8.983,1.917,10.698,7.455,10.684,16.223c-0.12,61.608,0.416,123.218,0.739,184.827c0.013,1.629,0.005,3.256,0.005,5.219
			c-4.623,0.389-8.979,0.754-13.582,1.139c-0.433-10.043-0.923-19.908-1.264-29.779c-0.484-14.027,0.01-28.155-1.518-42.06
			c-1.701-15.479-5.067-30.779-7.973-46.108c-1.739-9.202-4.652-18.229-5.771-27.488c-0.839-6.938,0.25-14.125,0.651-21.191
			c1.182-20.761,2.438-41.517,3.688-62.274c0.592-9.835,1.23-19.666,1.849-29.499C951.791,197.968,952.067,197.975,952.346,197.981z
			"/>
	</g>
	<g>
		<path fill="#42342B" d="M993.964,304.885c3.844,4.432,7.688,8.859,12.033,13.868c5.42-16.177,10.666-31.834,15.913-47.491
			c0.268-0.002,0.535-0.004,0.802-0.006c0.972,7.845,2.668,15.683,2.748,23.538c0.127,12.447,3.579,23.414,12.23,32.293
			c6.411,6.581,6.403,13.79,4.877,22.121c-3.627,19.736-6.189,39.672-10.059,59.358c-1.496,7.613-4.53,15.221-8.312,22.029
			c-7.053,12.705-7.734,24.922-1.778,38.256c3.588,8.033,7.443,16.924,7.31,25.365c-0.139,8.447-5.09,16.816-7.94,25.215
			c-1.133,3.334-2.301,6.656-4.396,9.982c-2.098-8.203-4.229-16.398-6.274-24.613c-4.528-18.182-9.021-36.373-13.495-54.568
			c-0.35-1.422-0.632-2.896-0.658-4.354c-0.74-38.959-1.427-77.92-2.182-116.879c-0.066-3.417-0.535-6.825-0.817-10.237
			C993.964,314.137,993.964,309.51,993.964,304.885z"/>
		<path fill="#42342B" d="M1034.604,575.48c4.782-15.697,9.543-31.4,14.359-47.088c3.038-9.893,6.361-19.701,9.116-29.672
			c0.761-2.754,0.665-6.195-0.278-8.891c-4.621-13.178-9.747-26.18-14.469-39.324c-0.829-2.309-1.204-5.129-0.725-7.498
			c3.168-15.615,6.619-31.176,10.01-46.748c0.203-0.933,0.675-1.808,1.238-3.271c6.71,9.275,13.652,17.899,19.375,27.268
			c2.305,3.775,2.097,9.166,2.744,13.861c3.464,25.104,6.796,50.223,10.252,75.326c2.806,20.373,5.729,40.732,8.568,61.104
			c0.229,1.623,0.187,3.283,0.271,4.926C1074.91,575.48,1054.757,575.48,1034.604,575.48z"/>
		<path fill="#42342B" d="M1267.532,575.48c-4.731-5.641-9.261-11.469-14.273-16.846c-2.812-3.016-2.858-4.963-0.259-8.246
			c8.604-10.852,16.917-21.941,25.044-33.156c1.463-2.021,2.335-5.145,2.095-7.625c-1.973-20.475-4.271-40.918-6.521-61.789
			c4.343-1.889,8.669-3.771,13.515-5.879c2.07,4.621,3.729,9.254,6.11,13.479c11.479,20.381,13.276,43.205,16.853,65.584
			c2.756,17.256,5.406,34.529,8.137,51.791c0.097,0.596,0.556,1.133,0.844,1.695c-0.991,0.33-1.981,0.943-2.977,0.947
			C1299.91,575.498,1283.722,575.48,1267.532,575.48z"/>
		<path fill="#42342B" d="M1174.36,575.48c-1.63-15.707,1.674-30.732,6.208-45.605c1.621-5.322,2.999-10.719,4.821-17.301
			c13.224,21.586,25.874,42.246,38.526,62.906C1207.4,575.48,1190.879,575.48,1174.36,575.48z"/>
		<path fill="#42342B" d="M1117.862,575.48c-0.977-8.646-2.062-17.279-2.896-25.939c-0.984-10.299-1.753-20.619-2.706-32.023
			c14.575,10.914,28.526,21.359,42.954,32.162c-3.656,4.219-6.848,8.365-10.535,12.016c-3.22,3.184-4.979,6.346-3.105,10.854
			c0.351,0.844,0.064,1.949,0.076,2.936C1133.722,575.48,1125.792,575.48,1117.862,575.48z"/>
		<path fill="#42342B" d="M1124.45,260.871c3.907,12,7.684,24.046,11.837,35.96c0.84,2.407,2.745,4.809,4.806,6.35
			c5.003,3.742,12.408,5.875,15.043,10.727c2.579,4.747,0.502,12.051,0.388,18.229c-0.561,30.021-3.159,59.829-9.243,89.283
			c-0.933,4.508-1.899,9.031-2.362,13.596c-0.171,1.689,0.65,3.846,1.732,5.232c5.576,7.156,11.479,14.059,17.035,21.229
			c1.136,1.463,2.108,3.887,1.732,5.543c-3.27,14.41-6.858,28.748-10.376,43.104c-0.142,0.578-0.504,1.102-0.999,2.154
			c-9.271-9.941-18.891-19.084-26.915-29.461c-3.013-3.893-2.526-10.623-3.279-16.107c-3.312-24.129-6.616-48.258-9.66-72.418
			c-1.129-8.965-1.786-18.011-2.194-27.041c-0.36-7.907,0.391-15.876-0.162-23.761c-1.774-25.312,2.184-49.828,9.362-73.973
			c0.829-2.792,1.479-5.638,2.216-8.458C1123.754,260.994,1124.102,260.932,1124.45,260.871z"/>
		<path fill="#42342B" d="M1075.352,362.085c-7.286-21.805-14.334-43.695-21.973-65.377c-3.556-10.096-5.41-20.168-5.079-30.896
			c0.316-10.218-0.614-20.47-0.581-30.706c0.007-2.507,1.615-5.017,2.549-7.502c0.163-0.433,0.582-0.818,0.972-1.114
			c9.562-7.321,10.882-17.097,9.995-28.472c-1.548-19.907-2.272-39.905-2.438-59.872c-0.043-5.029,3.345-10.087,5.271-15.447
			c7.832,8.608,10.785,16.351,11.271,26.9c0.664,14.343,1.779,28.665,2.426,43.008c0.166,3.665,1.771,5.095,5.023,6.019
			c6.621,1.875,13.142,4.102,19.91,6.25c-5.117,29.405-8.319,58.861-19.838,86.522c-2.276,5.471-3.01,11.783-3.457,17.782
			c-1.312,17.604-2.123,35.241-3.132,52.866C1075.966,362.06,1075.658,362.072,1075.352,362.085z"/>
		<path fill="#42342B" d="M1181.161,344.066c3.354-4.785,5.979-8.535,9.078-12.952c1.184,1.883,2.118,3.313,3.002,4.778
			c9.454,15.681,19.096,31.249,28.237,47.107c2.972,5.153,6.559,8.842,12.183,10.676c2.012,0.656,3.883,1.741,6.117,2.771
			c-7.621,16.963-15.15,33.723-22.886,50.938c-14.715-3.914-29.244-7.779-44.291-11.779c2.613-10.072,5.088-19.871,7.765-29.615
			c0.354-1.301,1.645-2.408,2.651-3.458c9.256-9.642,18.542-19.246,27.913-28.958
			C1201.055,363.781,1191.26,354.074,1181.161,344.066z"/>
		<path fill="#42342B" d="M1249.779,428.027c1.951,13.002,3.936,26,5.841,39.008c1.477,10.09,2.899,20.188,4.217,30.299
			c0.166,1.279,0.006,3.115-0.786,3.926c-10.108,10.369-20.365,20.604-31.082,31.361c-10.454-18.604-20.58-36.619-31.417-55.904
			c7.184,2.021,13.302,3.424,19.188,5.494c4.12,1.449,5.944,0.389,7.814-3.479c8.229-17.025,16.815-33.883,25.273-50.799
			C1249.146,427.962,1249.463,427.996,1249.779,428.027z"/>
		<path fill="#42342B" d="M1177.529,311.877c-8.498-8.235-17.022-16.442-25.448-24.751c-0.82-0.81-1.41-2.241-1.44-3.4
			c-0.146-5.573-0.064-11.155,0.834-17.21c8.954,14.86,17.91,29.718,26.866,44.579
			C1178.069,311.355,1177.799,311.616,1177.529,311.877z"/>
		<path fill="#42342B" d="M1168.729,387.776c2.373-9.191,4.406-17.068,6.694-25.933c4.416,5.397,8.272,10.11,12.527,15.312
			C1181.688,380.617,1175.858,383.837,1168.729,387.776z"/>
		<path fill="#42342B" d="M1097.354,176.564c6.482,10.772,12.968,21.546,19.448,32.319c-0.244,0.173-0.487,0.345-0.729,0.518
			c-6.601-8.071-13.434-15.968-19.611-24.347c-1.379-1.87-0.465-5.432-0.605-8.215
			C1096.354,176.747,1096.852,176.656,1097.354,176.564z"/>
	</g>
	<g>
		<path fill="#776253" d="M1435.569,530.208c-9.041-10.682-18.082-21.365-26.268-31.035c8.95-9.689,17.607-19.062,26.268-28.436
			C1435.569,490.562,1435.569,510.384,1435.569,530.208z"/>
		<path fill="#776253" d="M1347.586,446.236c-4.996-7.885-9.995-15.766-14.984-23.652c-1.766-2.789-3.385-5.682-5.296-8.367
			c-2.944-4.141-4.061-8.074-3.215-13.601c0.908-5.951-0.968-12.371-1.875-18.553c-3.823-26.058-7.739-52.103-11.623-78.148
			c-3.06-20.515-6.132-41.028-9.144-61.55c-0.184-1.221-0.287-2.739,0.267-3.734c6.226-11.192,12.584-22.31,19.676-34.8
			c0,12.108,0,22.699,0,33.83c8.761,0,17.082,0,25.986,0c0,4.437-0.024,8.349,0.005,12.26c0.052,6.771-0.68,13.671,0.359,20.292
			c3.317,21.165-3.774,40.375-10.716,59.501c-3.082,8.494-2.886,15.585,1.018,23.799c7.613,16.039,13.971,32.671,21.084,48.956
			c1.559,3.569,1.404,6.274-0.831,9.465c-3.396,4.857-6.001,10.275-9.493,15.055c-3.125,4.27-3.845,8.432-1.938,13.287
			c0.698,1.781,0.893,3.77,1.313,5.66C1347.98,446.037,1347.783,446.136,1347.586,446.236z"/>
		<path fill="#776253" d="M1166.789,137.132c8.138,18.694,16.015,36.766,23.87,54.846c3.146,7.237,6.41,14.43,9.246,21.788
			c0.695,1.811,0.61,4.544-0.277,6.244c-4.812,9.183-9.901,18.224-15.093,27.2c-1.396,2.414-1.69,4.116,0.15,6.543
			c3.77,4.958,9.11,9.916,10.03,15.495c0.886,5.366-3.005,11.513-4.774,17.324c-2.86,9.389-5.707,18.784-8.822,29.044
			c-1.27-1.713-2.163-2.743-2.858-3.896c-8.096-13.407-16.422-26.686-24.132-40.312c-4.214-7.446-3.617-15.824-1.821-23.931
			c0.627-2.834,2.08-5.56,3.529-8.123c9.703-17.163,12.624-35.51,11.215-55.075c-1.1-15.28-0.682-30.669-0.927-46.01
			C1166.123,138.153,1166.257,138.032,1166.789,137.132z"/>
		<path fill="#776253" d="M1240.145,198.115c3.431,2.836,6.328,5.236,9.757,8.071c-8.228,11.729-16.39,23.369-25.235,35.991
			c-1.496-10.776-2.875-20.436-4.163-30.107c-0.826-6.198-1.709-12.401-2.141-18.631c-0.118-1.695,0.845-4.002,2.106-5.151
			c3.528-3.208,7.369-6.108,11.289-8.835c2.958-2.06,4.13-4.666,4.646-8.175c2.091-14.316,4.413-28.602,6.851-42.863
			c0.304-1.77,1.809-3.333,3.486-6.274c2.833,8.213,5.146,14.845,7.404,21.495c3.491,10.262,6.812,20.584,10.493,30.777
			c1.104,3.051,0.49,4.641-2.058,6.506C1255.146,186.357,1247.936,192.105,1240.145,198.115z"/>
		<path fill="#776253" d="M1402.188,351.265c2.215,10.069,4.433,20.141,6.638,30.208c4.53,20.701,9.008,41.416,13.631,62.097
			c0.812,3.635,0.6,6.447-2.54,9.072c-5.134,4.293-9.908,9.014-14.754,13.479c1.802-5.807-3.329-6.982-7.143-8.73
			c-4.011-1.84-5.734-3.789-4.317-8.596c1.81-6.137,2.432-12.613,3.802-18.893c0.854-3.908,1.487-7.502-3.849-9.354
			c1.646-1.346,2.854-2.336,4.269-3.49c-4.582-4.898-9.079-9.471-13.242-14.331c-1.044-1.221-1.854-3.675-1.349-5.029
			c5.788-15.544,11.849-30.986,17.838-46.455C1401.507,351.25,1401.848,351.257,1402.188,351.265z"/>
		<path fill="#776253" d="M1241.568,399.068c-10.402-1.961-16.199-8.104-20.903-16.516c-9.097-16.265-19.067-32.04-28.835-48.279
			c8.267-11.811,16.554-23.646,25.526-36.459c1.823,12.134,3.683,23.093,5.059,34.113c0.933,7.464,2.755,14.312,7.232,20.622
			c6.191,8.733,11.802,17.896,17.352,27.062c0.961,1.586,1.051,4.322,0.413,6.134
			C1245.784,390.351,1243.517,394.734,1241.568,399.068z"/>
		<path fill="#776253" d="M1273.015,214.378c0,11.795-0.232,22.937,0.146,34.059c0.113,3.355,1.377,6.975,3.09,9.903
			c3.154,5.393,7.122,10.304,10.539,15.554c0.766,1.177,1.379,3.289,0.841,4.348c-5.272,10.365-10.808,20.596-16.619,31.525
			c-6.924-10.137-13.401-19.614-19.873-29.099c-3.253-4.768-6.646-9.451-9.62-14.388c-0.789-1.312-0.982-3.9-0.209-5.094
			c9.891-15.205,20.002-30.264,30.072-45.35C1271.617,215.483,1272.034,215.244,1273.015,214.378z"/>
		<path fill="#776253" d="M1122.186,134.055c-0.627,9.01-1.064,17.056-1.797,25.076c-0.342,3.762,0.356,6.665,3.815,8.762
			c2.091,1.266,3.651,3.45,5.787,4.596c6.491,3.488,7.097,8.387,5.335,15.087c-3.122,11.88-5.374,23.99-8.236,37.139
			c-2.938-4.11-5.493-7.291-7.62-10.736c-6.053-9.81-11.771-19.831-17.952-29.559c-2.653-4.18-3.339-8.135-2.357-13.011
			c1.774-8.847,2.791-17.846,4.268-26.758c0.208-1.254,0.938-2.996,1.921-3.453C1110.677,138.715,1116.163,136.566,1122.186,134.055
			z"/>
		<path fill="#776253" d="M1284.005,195.739c-3.39-11.821-6.509-22.664-9.577-33.522c-0.16-0.565,0.021-1.288,0.215-1.881
			c3.271-9.945,6.57-19.88,10.267-31.027c1.997,3.524,3.474,6.095,4.918,8.684c4.321,7.751,8.762,15.445,12.841,23.322
			c0.787,1.521,0.904,4.248,0.05,5.623C1296.908,176.294,1290.759,185.438,1284.005,195.739z"/>
		<path fill="#776253" d="M1407.711,322.698c-4.729-3.699-8.949-6.996-13.544-10.588c2.907-5.15,5.681-10.062,8.729-15.461
			c3.273,2.637,6.239,4.886,9.017,7.351c0.668,0.594,1.195,2.044,0.954,2.854C1411.339,311.991,1409.576,317.059,1407.711,322.698z"
			/>
	</g>
	<g>
		<path fill="#4C3B2F" d="M1318.098,573.505c-1.921-11.193-3.932-22.373-5.74-33.586c-3.057-18.887-5.984-37.793-8.948-56.695
			c-0.103-0.637-0.013-1.303-0.013-3.17c1.225,2.482,2.025,3.951,2.69,5.482c8.978,20.67,17.867,41.379,26.964,61.994
			c1.381,3.129,1.107,5.252-1.013,7.957c-4.559,5.811-8.661,11.984-12.949,18.018
			C1318.758,573.505,1318.429,573.505,1318.098,573.505z"/>
		<path fill="#4C3B2F" d="M1371.569,365.943c-6.773-9.657-13.067-18.526-19.194-27.51c-0.7-1.023-0.822-2.735-0.607-4.03
			c0.371-2.252,1.021-4.507,1.895-6.621c6.818-16.6,6.514-34.118,6.777-51.561c0.153-10.238,0.881-20.533,0.082-30.704
			c-0.938-11.997,3.312-22.181,9.048-33.279c1.407,7.313,2.734,13.77,3.889,20.257c2.475,13.927,5.438,27.805,7.012,41.836
			c0.704,6.271-1.25,12.902-2.371,19.304c-1.669,9.525-3.669,18.993-5.646,29.085c5.287,0.779,10.257,1.515,15.706,2.315
			C1382.649,338.62,1377.245,351.947,1371.569,365.943z"/>
		<path fill="#4C3B2F" d="M1244.09,313.266c12.409,7.352,24.241,14.357,36.325,21.517c4.044-4.293,7.979-8.473,12.58-13.356
			c0.801,5.902,1.579,11.11,2.201,16.336c0.993,8.336,1.905,16.685,2.776,25.032c0.115,1.099-0.131,2.266-0.371,3.366
			c-2.446,11.232-5.02,22.44-7.341,33.703c-0.612,2.979-2.047,4.419-4.976,4.9c-5.025,0.826-10.018,1.865-15.485,2.9
			c0.362-8.125,0.141-16.172,1.22-24.042c1.377-10.034,0.272-18.727-7.739-25.921c-3.519-3.156-5.715-7.776-9.224-10.947
			c-7.66-6.929-9.543-15.666-9.387-25.35C1244.712,318.976,1244.338,316.543,1244.09,313.266z"/>
		<path fill="#4C3B2F" d="M1328.053,506.693c-5.24-16.611-9.756-32.211-15.148-47.502c-2.736-7.752-3.312-14.9-0.954-22.85
			c3.259-10.996,5.506-22.291,8.421-34.437c4.832,7.64,9.2,14.542,13.562,21.447c0.881,1.395,1.631,2.895,2.664,4.162
			c9.26,11.377,12.546,25.082,15.214,39.01c0.281,1.467,0.33,3.42-0.409,4.57C1343.929,482.72,1336.27,494.226,1328.053,506.693z"/>
		<path fill="#4C3B2F" d="M1372.13,498.751c13.051,14.121,25.542,27.639,38.306,41.451c-10.341,9.188-21.845,19.412-33.804,30.039
			c-6.271-11.492-11.718-22.76-18.384-33.25c-4.605-7.25-5.025-12.801,0.89-19.439
			C1363.797,512.326,1367.215,505.99,1372.13,498.751z"/>
		<path fill="#4C3B2F" d="M1393.536,421.236c5.173,1.395,5.633,4.527,4.61,8.85c-1.661,7.045-2.718,14.232-4.286,21.299
			c-0.598,2.674-0.352,4.367,2.434,5.439c1.982,0.76,3.798,1.965,5.674,2.994c4.218,2.311,5.205,7.02,1.828,10.436
			c-5.554,5.613-11.374,10.965-17.315,16.648c-0.356-0.773-0.938-1.846-1.359-2.971c-5.29-14.141-10.477-28.318-15.899-42.406
			c-1.083-2.812-0.847-4.264,1.863-5.904C1378.799,430.931,1386.304,425.9,1393.536,421.236z"/>
	</g>
</g>
</svg>
