<?xml version="1.0" encoding="utf-8"?>
<!-- Generator: Adobe Illustrator 16.0.4, SVG Export Plug-In . SVG Version: 6.00 Build 0)  -->
<!DOCTYPE svg PUBLIC "-//W3C//DTD SVG 1.1//EN" "http://www.w3.org/Graphics/SVG/1.1/DTD/svg11.dtd">
<svg version="1.1" id="Layer_1" xmlns="http://www.w3.org/2000/svg" xmlns:xlink="http://www.w3.org/1999/xlink" x="0px" y="0px"
	 width="900px" height="400px" viewBox="0 0 900 400" enable-background="new 0 0 900 400" xml:space="preserve">
<g display="none">
	<rect x="200.971" y="-119.235" display="inline" fill="#15110E" width="300" height="300"/>
	<rect x="200.75" y="-119.235" display="inline" fill="#641313" width="150" height="75"/>
	<rect x="200.75" y="-44.015" display="inline" fill="#996928" width="75" height="75"/>
	<rect x="275.75" y="-44.015" display="inline" fill="#744921" width="75" height="75"/>
	<rect x="200.75" y="30.765" display="inline" fill="#8C5B29" width="75" height="75"/>
	<rect x="200.75" y="105.875" display="inline" fill="#D57A16" width="50" height="75"/>
	<rect x="250.75" y="105.875" display="inline" fill="#EB9D1B" width="50" height="75"/>
	<rect x="300.75" y="105.875" display="inline" fill="#EBD6B9" width="50" height="75"/>
	<rect x="275.75" y="30.985" display="inline" fill="#CC9548" width="75" height="75"/>
</g>
<g>
	<g>
		<path fill="#CC9548" d="M787.88,192.284c0,0,16.331,88.716-311.002,88.716h-50.753c-327.333,0-311.001-88.716-311.001-88.716
			C79.122,240.566,126.125,302,135.125,326s291,7,291,7v-0.332h50.753V333c0,0,282,17,291-7S823.881,240.566,787.88,192.284z"/>
		<path fill="#EBD6B9" d="M115.124,233.424c0,0-16.332,67.576,311.001,67.576h50.753c327.333,0,311.002-67.576,311.002-67.576
			v-9.141c0,0,16.331,67.576-311.002,67.576h-50.753c-327.333,0-311.001-67.576-311.001-67.576V233.424z"/>
		<path fill="#EBD6B9" d="M114.511,251.973c0,0-16.332,67.576,311,67.576h50.753c327.333,0,311.002-67.576,311.002-67.576v-9.141
			c0,0,16.331,67.576-311.002,67.576h-50.753c-327.333,0-311-67.576-311-67.576V251.973L114.511,251.973z"/>
	</g>
	<path fill="#996928" d="M803.464,145.133l-20.101,8.869c0.143,1.066,21.238,92.564-28.979,149.113
		C739.608,319.753,720.589,328,695.865,328h-167.74h-154.26h-167.74c-24.724,0-43.865-8.141-58.519-24.885
		c-43.346-49.535-30-155.752-29.856-156.819L108.125,145l-9.911-1.335c-0.635,4.718-14.998,116.188,34.313,172.588
		C150.945,337.318,175.707,348,206.125,348h167.74h154.26h167.74c30.418,0,55.18-10.682,73.598-31.747
		C818.773,259.854,804.1,149.851,803.464,145.133z"/>
	<path fill="#996928" d="M895.615,130.679c-0.3-7.52-5.416-3.009-5.416-3.009c-17.917-4.552-20.188-24.703-20.382-26.893
		c13.102-1.829,11.586-4.548,6.239-8.308c-3.251-2.287-13.715-5.934-22.781-8.844c-1.235-0.52-2.536-1.035-3.891-1.541
		c1.608-17.935-21.165-26.92-21.165-26.92c0.194,11.945-0.319,15.397-2.454,21.884c-10.9-0.27-21.904,2.897-30.039,13.247
		c-23.468,29.854-11.943,62.752-8.936,81.707l18.428-13.507c0,0-3.001-17.801-2.184-26.742c0.251-1.746,0.546-3.334,0.91-4.702
		c1.093-3.353,4.179-10.549,13.442-10.511c24.595,0.1,16.244,30.989,34.299,38.811c6.646,2.881,11.278,0.527,11.278,0.527
		c-13.841-14.542-13.461-37.116-13.461-37.116c9,10,30.766,24.254,36.481,24.556C891.701,143.617,895.915,138.199,895.615,130.679z"
		/>
	<path fill="#996928" d="M825.767,77.047c0,0-26.309-5.714-35.642,3.953l14.01,4C804.135,85,831.119,87.191,825.767,77.047z"/>
	<path fill="#996928" d="M809.677,85.811c0,0-18.687-6.145-28.02,3.522l14.01,4C795.667,93.333,815.029,95.955,809.677,85.811z"/>
	<path fill="#996928" d="M803.667,94.478c0,0-18.687-6.145-28.021,3.522l14.011,4C789.657,102,809.02,104.622,803.667,94.478z"/>
	<path fill="#996928" d="M800.334,103.021c0,0-18.688-6.145-28.02,3.522l14.01,4C786.324,110.544,805.688,113.166,800.334,103.021z"
		/>
	<path fill="#996928" d="M798.001,111.355c0,0-18.687-6.145-28.021,3.522l14.011,4C783.991,118.877,803.354,121.499,798.001,111.355
		z"/>
	<path fill="#996928" d="M858.992,313.771c5.643-9.889,8.883-21.322,8.883-33.521c0-19.525-8.271-37.111-21.49-49.477
		c-0.003-0.01-2.643-2.373-3.945-3.416c-35.592-31.881-37.22-68.864-37.22-68.864h-9.595c0,0,0.405,23.812-3.283,54.467
		c-0.021,0.003-0.043,0.004-0.063,0.007c-1.783,13.562-0.333,59.285-27.819,91.7C741.165,332.139,688.125,348,688.125,348h112
		c21.678,0,40.963-10.193,53.364-26.035c2.327-2.511,4.206-5.199,5.452-8.066C858.959,313.855,858.975,313.812,858.992,313.771z"/>
	<path fill="#996928" d="M41.008,313.771c-5.643-9.889-8.883-21.323-8.883-33.521c0-19.525,8.272-37.111,21.49-49.477
		c0.003-0.01,2.643-2.373,3.946-3.416c35.591-31.881,37.219-68.864,37.219-68.864h9.595c0,0-0.405,23.812,3.283,54.467
		c0.021,0.003,0.043,0.004,0.064,0.007c1.783,13.562,0.333,59.285,27.819,91.7C158.835,332.139,211.875,348,211.875,348h-112
		c-21.678,0-40.963-10.193-53.364-26.035c-2.327-2.511-4.206-5.199-5.452-8.066C41.041,313.855,41.025,313.812,41.008,313.771z"/>
	<path fill="#8C5B29" d="M895.615,130.679c-0.3-7.52-5.416-3.009-5.416-3.009c-17.917-4.552-20.188-24.703-20.382-26.893
		c4.197-0.586,8.439-2.038,8.439-2.038s-25.532-7.792-36.627-8.849c-53.897-5.134-52.844,24.788-51.506,57.61
		c0.873,21.417,47.89,188.9,47.89,188.9c5.881-3.98,11.106-8.855,15.476-14.437c2.327-2.511,4.206-5.198,5.452-8.067
		c0.018-0.041,0.032-0.086,0.051-0.127c5.643-9.888,8.883-21.321,8.883-33.521c0-19.526-8.271-37.112-21.49-49.476
		c-0.003-0.01-2.643-2.373-3.945-3.418c-35.592-31.88-37.22-68.863-37.22-68.863s-3.001-17.801-2.184-26.742
		c0.251-1.746,0.546-3.334,0.91-4.702c1.093-3.353,4.179-10.549,13.442-10.511c24.595,0.1,16.244,30.989,34.299,38.811
		c6.646,2.881,11.278,0.527,11.278,0.527c-13.841-14.542-13.461-37.116-13.461-37.116c9,10,30.767,24.254,36.481,24.556
		S895.915,138.199,895.615,130.679z"/>
	<circle fill="#8C5B29" cx="797.126" cy="280.647" r="53.647"/>
	<circle fill="#996928" cx="797.125" cy="280.646" r="40"/>
	<circle fill="#CC9548" cx="797.125" cy="280.647" r="33.283"/>
	<circle fill="#996928" cx="797.125" cy="280.648" r="28.395"/>
	<g>
		<path fill="#996928" d="M14.015,141.736c5.716-0.302,27.481-14.556,36.481-24.556c0,0,0.38,22.574-13.461,37.116
			c0,0,4.632,2.354,11.278-0.527c18.055-7.822,9.704-38.711,34.299-38.811c9.264-0.038,12.35,7.158,13.442,10.511
			c0.364,1.368,0.659,2.956,0.91,4.702c0.817,8.941-2.184,26.742-2.184,26.742l18.428,13.507
			c3.008-18.955,14.532-51.853-8.936-81.707c-8.135-10.35-19.139-13.517-30.039-13.247c-2.135-6.487-2.648-9.939-2.454-21.884
			c0,0-22.773,8.985-21.165,26.92c-1.354,0.506-2.655,1.021-3.891,1.541c-9.066,2.91-19.53,6.557-22.781,8.844
			c-5.347,3.76-6.862,6.479,6.239,8.308c-0.193,2.19-2.465,22.341-20.382,26.893c0,0-5.116-4.511-5.416,3.009
			S8.299,142.035,14.015,141.736z"/>
		<path fill="#996928" d="M95.865,83.418l14.01-4c-9.333-9.667-35.642-3.953-35.642-3.953
			C68.881,85.609,95.865,83.418,95.865,83.418z"/>
		<path fill="#996928" d="M104.333,91.751l14.01-4c-9.333-9.667-28.02-3.522-28.02-3.522
			C84.971,94.373,104.333,91.751,104.333,91.751z"/>
		<path fill="#996928" d="M110.343,100.418l14.011-4c-9.334-9.667-28.021-3.522-28.021-3.522
			C90.98,103.04,110.343,100.418,110.343,100.418z"/>
		<path fill="#996928" d="M113.676,108.961l14.01-4c-9.332-9.667-28.02-3.522-28.02-3.522
			C94.312,111.584,113.676,108.962,113.676,108.961z"/>
		<path fill="#996928" d="M116.009,117.295l14.011-4c-9.334-9.667-28.021-3.522-28.021-3.522
			C96.646,119.917,116.009,117.295,116.009,117.295z"/>
		<path fill="#996928" d="M41.059,312.316c1.246,2.867,3.125,5.556,5.452,8.066c12.401,15.842,31.687,26.035,53.364,26.035h112
			c0,0-53.04-15.861-76.334-43.333c-27.486-32.415-26.036-78.138-27.819-91.7c-0.021-0.003-0.043-0.004-0.063-0.007
			c-3.688-30.655-3.283-54.467-3.283-54.467H94.78c0,0-1.628,36.983-37.22,68.864c-1.303,1.043-3.942,3.406-3.945,3.416
			c-13.219,12.365-21.49,29.951-21.49,49.477c0,12.199,3.24,23.633,8.883,33.521C41.025,312.23,41.041,312.273,41.059,312.316z"/>
		<path fill="#8C5B29" d="M14.014,141.733c5.715-0.302,27.481-14.556,36.481-24.556c0,0,0.38,22.574-13.461,37.116
			c0,0,4.632,2.354,11.278-0.527c18.055-7.822,9.704-38.711,34.299-38.811c9.264-0.038,12.35,7.158,13.442,10.511
			c0.364,1.368,0.659,2.956,0.91,4.702c0.817,8.941-2.184,26.742-2.184,26.742s-1.628,36.983-37.22,68.863
			c-1.303,1.045-3.942,3.408-3.945,3.418c-13.219,12.363-21.49,29.949-21.49,49.476c0,12.199,3.24,23.633,8.883,33.521
			c0.019,0.041,0.033,0.086,0.051,0.127c1.246,2.869,3.125,5.557,5.452,8.067c4.369,5.581,9.595,10.456,15.476,14.437
			c0,0,47.017-167.483,47.89-188.9c1.338-32.822,2.392-62.744-51.506-57.61c-11.095,1.057-36.627,8.849-36.627,8.849
			s4.242,1.452,8.439,2.038c-0.193,2.19-2.465,22.341-20.382,26.893c0,0-5.116-4.511-5.416,3.009S8.299,142.035,14.014,141.733z"/>
		<circle fill="#8C5B29" cx="102.874" cy="279.064" r="53.647"/>
		<circle fill="#996928" cx="102.875" cy="279.064" r="40"/>
		<circle fill="#CC9548" cx="102.875" cy="279.064" r="33.283"/>
		<circle fill="#996928" cx="102.875" cy="279.066" r="28.395"/>
	</g>
</g>
</svg>
