<?xml version="1.0" encoding="utf-8"?>
<!-- Generator: Adobe Illustrator 18.1.1, SVG Export Plug-In . SVG Version: 6.00 Build 0)  -->
<svg version="1.1" id="Layer_1" xmlns="http://www.w3.org/2000/svg" xmlns:xlink="http://www.w3.org/1999/xlink" x="0px" y="0px"
	 viewBox="-51.8 355.9 611.8 90.1" enable-background="new -51.8 355.9 611.8 90.1" xml:space="preserve">
<path fill="#D8BCA7" d="M-45.7,446h602c1.5-2,1.8-4.5,1.4-6.4c-0.9-3.8,2.7-6.2,2.3-12.3c-0.4-6.1-12.6-12.7-12.6-12.7
	c-1-0.1-1.8-0.6-2.5-1.5c-1.9-2.3-4.4-2.7-7.1-2.3c-1.9,0.3-3.8,1-5.8,1.5c-0.8-5.4-5-7.3-9.5-8.8c-4.9-1.6-9,0.5-13,2.8
	c-1.4-1.6-3-2.6-5.1-2.1c-2,0.5-3.9,1.4-5.9,2c-0.9,0.3-2.1,0.6-2.8,0.2c-1.8-1-3.5-2.2-4.9-3.6c-3.6-4.1-8.2-4.9-13.1-3.9
	c-6.8,1.4-13.3,4-19,8.1c-1.5,1.1-3.1,1.7-5.1,1.4c-4.8-0.7-9.6-1.5-14.4-2c-4.1-0.5-7.6-1.9-10.6-4.8c-1.9-1.9-4.3-3-7-3.3
	c-0.6-0.1-1.3-0.8-1.8-1.3c-0.9-0.8-1.6-1.7-2.5-2.4c-2.5-1.7-5.3-1.5-7.9-0.3c-2.5,1.2-4.1,0.5-5.7-1.5c-2.5-3.2-6-4.7-10.1-4.7
	c-4.3,0.1-8.5,0.8-12.1,3.5c-1,0.8-12.4,7.2-18.3,6.8c-2.4-0.2-5-0.2-7.4-0.8c-1.4-1.2-2.6-2.5-4-3.7c-0.4-0.7-0.8-1.4-1.3-2
	c-1.1-1.5-2.3-2-4.2-1.6c-1.4,0.3-2.6,0.8-3.8,1.4c-2.2,1.2-4.2,2.6-6.4,3.8c-0.4-0.3-0.7-0.6-1.1-0.9c-0.8-0.6-1.3-1.4-2.1-1.9
	c-3-1.9-6.1-2.9-9.8-1.7c-2.7,0.9-4.7,2.8-5,5.5c0,0.4-0.2,0.9-0.3,1.3c-0.4,0.4-0.8,0.8-1.3,1.1c-0.7-0.1-1.6-0.6-2.2-1.1
	c-2.6-2.5-7.1-2.2-9,0.9c-0.1,0.3-0.3,0.4-0.5,0.6c-1.8-0.5-3.5-1.1-5.2-1.6c-0.3-0.1-0.6-0.2-1-0.3c-1.3-2.7-4.5-3.9-7.3-2.7
	c-2,0.9-3.5,0.5-5.1-0.8c-1.6-1.3-2.3-3-2.3-5c0-1.6-0.8-2.7-2.2-3.4c-3.3-1.8-6.6-1.4-9.4,1c-0.8,0.8-1.7,1.3-2.7,1.8
	c-1.2-0.3-2.4-0.4-3.4-0.5c-1.3-0.2-2.6-0.3-3.9-0.4c-0.1-0.3-0.2-0.5-0.2-0.9c-0.4-2.7-3.6-5.3-6.3-5.4c-3.7-0.1-7.4-0.3-11-0.6
	c-0.8-0.1-1.5-0.6-2.1-1.1c-2.2-1.6-4.2-3.3-7.2-3.2c-1.7,0.1-3.5,0.1-5.1-0.3c-7.4-1.8-14.6-0.5-21.8,1.1c-3,0.7-5.7,2.6-8.6,3.8
	c-2,0.8-3.7,2-4.7,3.9c-1.2,2.3-3.4,2.3-5.7,2.6c0.1-0.5,0.6-0.8,0.9-1.1c1.7-2.3,1.1-5.8-1.1-7.5c-3.2-2.4-6.7-4.1-10.5-5.2
	c-3.1-0.9-6-2.3-9.1-3.2c-1.7-0.5-3.7-0.4-5.5-0.4c-3.8-0.1-7.6-0.5-11.4-0.3c-9.1,0.5-17.8,2.8-25.7,7.6c-3.9,2.4-7.1,5.4-8.2,10.2
	c-0.7,3.1-1.9,6.1-3.1,9c-1.8,4.3-5.3,6.5-9.7,7.7c-0.7,0.2-1.4,0.5-2,0.8c-5.4,2.6-11.7,1.5-16-2.7c-2-2-3.1-4.4-3.1-7.2
	c-0.1-4.2,3.4-6.1,7.1-5.2c1.1,0.3,2.1,1.1,1.8,2.5c-0.3,1.3-1.4,1.2-2.4,1c-2.2-0.3-3,0.6-2.5,2.8c0.7,3.4,4.9,7.2,8.4,7
	c6.2-0.5,12.1-2.2,15.8-8c1.1-1.7,2-3.5,3.2-5.2c2.2-3,1.6-6.2,1-9.5c-0.1-0.8-0.8-1.7-1.4-2.3c-2.2-2.1-4.5-3.9-7.9-4
	c-2.4-0.1-4.4,0.9-6.5,1.7c-1,0.4-2.3,0.8-3.2,0.5c-3.9-1.2-7.6-2.7-11.5-3.9c-4.1-1.3-8.3-2.8-12.5-3.4c-4.5-0.6-9.1,0.6-13.2,2.5
	c-4.9,2.2-9.8,3.7-15.2,3.3c-2.1-0.1-3.9-0.2-5.6-2.2c-3.3-3.7-7-7-10.6-10.4c-3.4-3.1-7.3-5.5-11.8-6.4c-5.7-1.1-11.3,0.1-16.6,2.2
	c0,0-25.7,6.4-26,24.8c-0.3,18.5,7.9,36.2-5.7,38.6c-13.6,2.4-27.1-2.5-19,16.7C-48.3,441.3-47.1,443.7-45.7,446z"/>
</svg>
