<?xml version="1.0" encoding="utf-8"?>
<!-- Generator: Adobe Illustrator 16.0.4, SVG Export Plug-In . SVG Version: 6.00 Build 0)  -->
<!DOCTYPE svg PUBLIC "-//W3C//DTD SVG 1.1//EN" "http://www.w3.org/Graphics/SVG/1.1/DTD/svg11.dtd">
<svg version="1.1" id="Layer_1" xmlns="http://www.w3.org/2000/svg" xmlns:xlink="http://www.w3.org/1999/xlink" x="0px" y="0px"
	 width="540px" height="540px" viewBox="0 0 540 540" enable-background="new 0 0 540 540" xml:space="preserve">
<g>
	<g>
		<path fill="#FFFFFF" d="M159.673,207.236c-0.762-0.818-1.521-1.639-2.317-2.436c-0.794-0.796-1.615-1.555-2.433-2.319
			l-2.319,2.319l-2.433,2.433l-7.706,7.706l-0.256,0.256l-4.496,4.496l-7.79,7.79l0,0l-4.752,4.752
			c0.842,0.737,1.693,1.461,2.492,2.26c0.799,0.799,1.523,1.652,2.263,2.492c8.021,9.153,12.447,20.733,12.447,33.016
			c0,13.411-5.222,26.02-14.707,35.508c-9.485,9.482-22.094,14.707-35.508,14.707c-12.282,0-23.863-4.426-33.016-12.447
			l-1.299,1.299l-3.456,3.456c10.43,9.285,23.69,14.415,37.768,14.415c15.209,0,29.506-5.924,40.26-16.678
			c10.754-10.754,16.678-25.051,16.678-40.257c0-14.078-5.13-27.34-14.415-37.768l7.79-7.79
			c11.348,12.503,17.561,28.552,17.561,45.56c0,18.127-7.061,35.17-19.877,47.99c-12.819,12.819-29.864,19.88-47.992,19.88
			c-17.005,0-33.054-6.21-45.557-17.561l-4.752,4.752c13.778,12.617,31.512,19.529,50.312,19.529
			c19.923,0,38.656-7.758,52.745-21.849c14.083-14.091,21.84-32.821,21.84-52.747c0-18.803-6.915-36.534-19.529-50.312l7.703-7.703
			l0,0c30.977,33.488,30.219,85.927-2.316,118.462c-16.146,16.146-37.614,25.04-60.45,25.04c-21.711,0-42.174-8.052-58.015-22.72
			l-2.433,2.432l-2.319,2.32c17.113,15.935,39.261,24.688,62.767,24.688c24.629,0,47.785-9.59,65.202-27.008
			C192.513,300.045,193.269,243.346,159.673,207.236z"/>
		<g>
			<path fill="#FFFFFF" d="M142.209,215.193l0.256-0.257c-13.778-12.617-31.512-19.529-50.309-19.529
				c-19.923,0-38.656,7.757-52.744,21.848c-14.091,14.089-21.851,32.819-21.851,52.742c0,18.8,6.915,36.534,19.529,50.312
				l-7.703,7.703C-1.59,294.523-0.829,242.087,31.706,209.55c16.146-16.146,37.614-25.04,60.45-25.04
				c21.711,0,42.174,8.052,58.015,22.721l-7.706,7.706l7.706-7.706l2.433-2.433l2.319-2.319
				c-17.113-15.936-39.264-24.689-62.77-24.689c-24.629,0-47.785,9.59-65.203,27.008c-35.154,35.157-35.913,91.856-2.313,127.966
				c0.761,0.818,1.52,1.64,2.316,2.436c0.794,0.794,1.615,1.556,2.433,2.32l2.319-2.32l2.433-2.432l7.706-7.707l4.752-4.752
				l7.79-7.789l3.456-3.456l1.298-1.299c-0.842-0.737-1.693-1.46-2.492-2.26c-0.799-0.799-1.523-1.649-2.26-2.492
				c-8.021-9.153-12.447-20.733-12.447-33.016c0-13.414,5.222-26.022,14.707-35.51c9.485-9.482,22.097-14.707,35.507-14.707
				c12.285,0,23.865,4.428,33.016,12.45l4.752-4.752c-10.43-9.285-23.689-14.418-37.77-14.418c-15.207,0-29.506,5.924-40.26,16.678
				c-10.754,10.754-16.678,25.05-16.678,40.257c0,14.081,5.13,27.34,14.415,37.77l-7.79,7.79
				C30.494,303.053,24.284,287.004,24.284,270c0-18.13,7.061-35.173,19.88-47.993c12.819-12.819,29.862-19.88,47.992-19.88
				c17.005,0,33.054,6.212,45.557,17.561l-7.79,7.79l0,0l7.79-7.79L142.209,215.193z"/>
		</g>
	</g>
	<g>
		<path fill="#FFFFFF" d="M260.056,243.829c8.964,0,14.297,3.548,18.668,8.745c0.416,0.494,1.161,0.542,1.645,0.116l1.966-1.728
			c0.473-0.416,0.523-1.131,0.127-1.62c-4.879-5.972-12.167-10.487-22.405-10.487c-18.233,0-30.056,13.994-30.056,31.142
			c0,17.153,11.826,31.142,30.056,31.142c10.241,0,17.526-4.509,22.405-10.479c0.399-0.488,0.348-1.201-0.125-1.617l-1.968-1.733
			c-0.486-0.427-1.231-0.38-1.647,0.116c-4.368,5.197-9.701,8.751-18.665,8.751c-15.614,0-24.641-12.456-24.641-26.18
			C235.416,256.284,244.439,243.829,260.056,243.829z"/>
		<path fill="#FFFFFF" d="M411.202,243.829c8.964,0,14.296,3.548,18.668,8.745c0.415,0.494,1.16,0.542,1.644,0.116l1.966-1.728
			c0.476-0.416,0.523-1.131,0.127-1.62c-4.879-5.972-12.166-10.487-22.404-10.487c-18.233,0-30.057,13.994-30.057,31.142
			c0,17.153,11.826,31.142,30.057,31.142c10.241,0,17.525-4.509,22.404-10.479c0.399-0.488,0.349-1.201-0.124-1.617l-1.969-1.733
			c-0.485-0.427-1.23-0.38-1.646,0.116c-4.369,5.197-9.701,8.751-18.665,8.751c-15.614,0-24.641-12.456-24.641-26.18
			C386.562,256.284,395.585,243.829,411.202,243.829z"/>
		<path fill="#FFFFFF" d="M298.582,239.223c-0.643,0-1.16,0.521-1.16,1.161v1.544v56.141c0,0.003,0,0.005,0,0.008l0,0v1.544
			c0,0.643,0.521,1.162,1.16,1.162h3.092c0.643,0,1.16-0.521,1.16-1.162v-1.544l0,0c0-0.003,0-0.005,0-0.008v-56.141v-1.544
			c0-0.643-0.521-1.161-1.16-1.161H298.582z"/>
		<path fill="#FFFFFF" d="M322.882,298.069c0,0.003,0,0.005,0,0.008l0,0v1.544c0,0.643,0.521,1.162,1.161,1.162h3.092
			c0.643,0,1.161-0.521,1.161-1.162v-1.512c0-0.014,0.003-0.023,0.003-0.037v-24.727h22.294l12.728,25.9
			c0.032,0.057,0.064,0.108,0.097,0.162l0.232,0.465c0.278,0.559,0.848,0.912,1.472,0.912h3.437c0.667,0,1.104-0.699,0.813-1.299
			l-1.25-2.562c-0.003-0.008-0.009-0.016-0.011-0.023l-0.427-0.869l-0.003-0.004l0,0l-11.311-23.133
			c8.848-1.62,13.633-8.035,13.633-16.246c0-9.566-6.591-16.699-18.506-16.699h-27.451c-0.643,0-1.161,0.521-1.161,1.161
			L322.882,298.069z M328.299,268.466v-23.649h24.28c7.493,0,12.005,4.963,12.005,11.826s-4.512,11.826-12.005,11.826
			L328.299,268.466z"/>
		<path fill="#FFFFFF" d="M485.846,295.184h-32.313v-53.255c0-0.014-0.003-0.024-0.003-0.035v-1.509c0-0.643-0.521-1.161-1.16-1.161
			h-3.092c-0.643,0-1.161,0.521-1.161,1.161v1.544v55.423v1.544c0,0.643,0.521,1.161,1.161,1.161h1.547h2.705h32.319h1.271
			c0.643,0,1.161-0.521,1.161-1.161v-2.552c0-0.643-0.521-1.16-1.161-1.16H485.846z"/>
		<path fill="#FFFFFF" d="M500.013,297.352v1.544c0,0.643,0.521,1.161,1.161,1.161h1.547h2.706h32.135h0.003l0,0h1.271
			c0.643,0,1.161-0.521,1.161-1.161v-1.272l0,0l0,0v-1.279c0-0.643-0.521-1.16-1.161-1.16h-1.271l0,0h-0.003h-32.133v-23.739h18.596
			c0.002,0,0.005,0,0.008,0h1.267c0.643,0,1.16-0.521,1.16-1.161v-2.552c0-0.643-0.521-1.161-1.16-1.161h-1.272l0,0h-18.595V244.82
			h32.044c0.032,0,0.06-0.008,0.092-0.008v0.008h1.271c0.643,0,1.161-0.521,1.161-1.161v-2.551c0-0.643-0.521-1.161-1.161-1.161
			h-1.271v0.008c-0.032,0-0.06-0.008-0.092-0.008h-36.299c-0.643,0-1.161,0.521-1.161,1.161L500.013,297.352z"/>
	</g>
</g>
</svg>
