<?xml version="1.0" encoding="utf-8"?>
<!-- Generator: Adobe Illustrator 18.1.1, SVG Export Plug-In . SVG Version: 6.00 Build 0)  -->
<svg version="1.1" id="Layer_1" xmlns="http://www.w3.org/2000/svg" xmlns:xlink="http://www.w3.org/1999/xlink" x="0px" y="0px"
	 viewBox="144.1 197 899.8 133.3" enable-background="new 144.1 197 899.8 133.3" xml:space="preserve">
<path fill="#D8BCA7" d="M1035.2,197H149.6c-2.2,2.9-2.6,6.6-2.1,9.4c1.3,5.6-4,9.1-3.4,18.1c0.6,9,18.5,18.7,18.5,18.7
	c1.5,0.1,2.6,0.9,3.7,2.2c2.8,3.4,6.5,4,10.4,3.4c2.8-0.4,5.6-1.5,8.5-2.2c1.2,7.9,7.4,10.7,14,12.9c7.2,2.4,13.2-0.7,19.1-4.1
	c2.1,2.4,4.4,3.8,7.5,3.1c2.9-0.7,5.7-2.1,8.7-2.9c1.3-0.4,3.1-0.9,4.1-0.3c2.6,1.5,5.1,3.2,7.2,5.3c5.3,6,12.1,7.2,19.3,5.7
	c10-2.1,19.6-5.9,28-11.9c2.2-1.6,4.6-2.5,7.5-2.1c7.1,1,14.1,2.2,21.2,2.9c6,0.7,11.2,2.8,15.6,7.1c2.8,2.8,6.3,4.4,10.3,4.9
	c0.9,0.1,1.9,1.2,2.6,1.9c1.3,1.2,2.4,2.5,3.7,3.5c3.7,2.5,7.8,2.2,11.6,0.4c3.7-1.8,6-0.7,8.4,2.2c3.7,4.7,8.8,6.9,14.9,6.9
	c6.3-0.1,12.5-1.2,17.8-5.1c1.5-1.2,18.2-10.6,26.9-10c3.5,0.3,7.4,0.3,10.9,1.2c2.1,1.8,3.8,3.7,5.9,5.4c0.6,1,1.2,2.1,1.9,2.9
	c1.6,2.2,3.4,2.9,6.2,2.4c2.1-0.4,3.8-1.2,5.6-2.1c3.2-1.8,6.2-3.8,9.4-5.6c0.6,0.4,1,0.9,1.6,1.3c1.2,0.9,1.9,2.1,3.1,2.8
	c4.4,2.8,9,4.3,14.4,2.5c4-1.3,6.9-4.1,7.4-8.1c0-0.6,0.3-1.3,0.4-1.9c0.6-0.6,1.2-1.2,1.9-1.6c1,0.1,2.4,0.9,3.2,1.6
	c3.8,3.7,10.4,3.2,13.2-1.3c0.1-0.4,0.4-0.6,0.7-0.9c2.6,0.7,5.1,1.6,7.6,2.4c0.4,0.1,0.9,0.3,1.5,0.4c1.9,4,6.6,5.7,10.7,4
	c2.9-1.3,5.1-0.7,7.5,1.2c2.4,1.9,3.4,4.4,3.4,7.4c0,2.4,1.2,4,3.2,5c4.9,2.6,9.7,2.1,13.8-1.5c1.2-1.2,2.5-1.9,4-2.6
	c1.8,0.4,3.5,0.6,5,0.7c1.9,0.3,3.8,0.4,5.7,0.6c0.1,0.4,0.3,0.7,0.3,1.3c0.6,4,5.3,7.8,9.3,7.9c5.4,0.1,10.9,0.4,16.2,0.9
	c1.2,0.1,2.2,0.9,3.1,1.6c3.2,2.4,6.2,4.9,10.6,4.7c2.5-0.1,5.1-0.1,7.5,0.4c10.9,2.6,21.5,0.7,32.1-1.6c4.4-1,8.4-3.8,12.7-5.6
	c2.9-1.2,5.4-2.9,6.9-5.7c1.8-3.4,5-3.4,8.4-3.8c-0.1,0.7-0.9,1.2-1.3,1.6c-2.5,3.4-1.6,8.5,1.6,11c4.7,3.5,9.9,6,15.4,7.6
	c4.6,1.3,8.8,3.4,13.4,4.7c2.5,0.7,5.4,0.6,8.1,0.6c5.6,0.1,11.2,0.7,16.8,0.4c13.4-0.7,26.2-4.1,37.8-11.2
	c5.7-3.5,10.4-7.9,12.1-15c1-4.6,2.8-9,4.6-13.2c2.6-6.3,7.8-9.6,14.3-11.3c1-0.3,2.1-0.7,2.9-1.2c7.9-3.8,17.2-2.2,23.5,4
	c2.9,2.9,4.6,6.5,4.6,10.6c0.1,6.2-5,9-10.4,7.6c-1.6-0.4-3.1-1.6-2.6-3.7c0.4-1.9,2.1-1.8,3.5-1.5c3.2,0.4,4.4-0.9,3.7-4.1
	c-1-5-7.2-10.6-12.4-10.3c-9.1,0.7-17.8,3.2-23.2,11.8c-1.6,2.5-2.9,5.1-4.7,7.6c-3.2,4.4-2.4,9.1-1.5,14c0.1,1.2,1.2,2.5,2.1,3.4
	c3.2,3.1,6.6,5.7,11.6,5.9c3.5,0.1,6.5-1.3,9.6-2.5c1.5-0.6,3.4-1.2,4.7-0.7c5.7,1.8,11.2,4,16.9,5.7c6,1.9,12.2,4.1,18.4,5
	c6.6,0.9,13.4-0.9,19.4-3.7c7.2-3.2,14.4-5.4,22.4-4.9c3.1,0.1,5.7,0.3,8.2,3.2c4.9,5.4,10.3,10.3,15.6,15.3
	c5,4.6,10.7,8.1,17.4,9.4c8.4,1.6,16.6-0.1,24.4-3.2c0,0,37.8-9.4,38.2-36.5c0.4-27.2-11.6-53.3,8.4-56.8c20-3.5,39.9,3.7,27.9-24.6
	C1039,203.9,1037.2,200.4,1035.2,197z"/>
</svg>
