<?xml version="1.0" encoding="utf-8"?>
<!-- Generator: Adobe Illustrator 16.0.4, SVG Export Plug-In . SVG Version: 6.00 Build 0)  -->
<!DOCTYPE svg PUBLIC "-//W3C//DTD SVG 1.1//EN" "http://www.w3.org/Graphics/SVG/1.1/DTD/svg11.dtd">
<svg version="1.1" id="Layer_1" xmlns="http://www.w3.org/2000/svg" xmlns:xlink="http://www.w3.org/1999/xlink" x="0px" y="0px"
	 width="800px" height="350px" viewBox="0 0 800 350" enable-background="new 0 0 800 350" xml:space="preserve">
<path fill="#996928" d="M748.867,273.771c5.643-9.89,8.883-21.322,8.883-33.521c0-19.525-8.271-37.111-21.49-49.477
	c-0.003-0.01-2.643-2.373-3.944-3.416c-35.593-31.881-37.221-58.864-37.221-58.864H685.5c0,0,0.405,13.812-3.283,44.467
	c-0.021,0.003-0.043,0.004-0.062,0.007c-1.783,13.562-0.333,59.285-27.819,91.7C631.04,292.139,578,308,578,308h112
	c21.678,0,40.963-10.193,53.364-26.035c2.327-2.511,4.206-5.199,5.452-8.066C748.834,273.855,748.85,273.812,748.867,273.771z"/>
<g>
	<path fill="#CC9548" d="M677.755,162.284c0,0,66.331,78.716-261.002,78.716H366c-327.333,0-251.001-78.716-251.001-78.716
		C78.997,210.566,126,262,135,286s231,7,231,7v-0.332h50.753V293c0,0,232,17,241-7S713.756,210.566,677.755,162.284z"/>
	<path fill="#EBD6B9" d="M114.999,193.424c0,0-76.332,67.576,251.001,67.576h50.753c327.333,0,261.002-67.576,261.002-67.576v-9.141
		c0,0,66.331,67.576-261.002,67.576H366c-327.333,0-251.001-67.576-251.001-67.576V193.424z"/>
	<path fill="#EBD6B9" d="M114.386,211.973c0,0-76.332,67.576,251,67.576h50.753c327.333,0,261.002-67.576,261.002-67.576v-9.141
		c0,0,66.331,67.576-261.002,67.576h-50.753c-327.333,0-251-67.576-251-67.576L114.386,211.973L114.386,211.973z"/>
</g>
<path fill="#996928" d="M748.816,271.648c-1.246,2.867-3.125,5.556-5.453,8.065c-12.4,15.843-31.687,26.035-53.363,26.035H578
	c0,0,53.04-15.86,76.334-43.333c27.486-32.415,26.036-78.139,27.818-91.7c0.021-0.003,0.043-0.004,0.063-0.007
	c3.688-30.655,3.283-44.467,3.283-44.467h9.596c0,0,1.627,26.983,37.22,58.863c1.303,1.043,3.941,3.406,3.944,3.416
	c13.22,12.365,21.49,29.951,21.49,49.478c0,12.198-3.24,23.633-8.883,33.521C748.85,271.562,748.834,271.605,748.816,271.648z"/>
<path fill="#996928" d="M693.339,115.133l-20.101,8.869c0.143,1.066,21.237,82.564-28.979,139.113
	C629.483,279.753,610.464,288,585.74,288H468h-94.26H206c-24.724,0-43.865-8.141-58.519-24.885
	c-43.346-49.535-30-145.752-29.856-146.819L108,115l-9.911-1.335c-0.635,4.718-14.998,106.188,34.313,162.588
	C150.82,297.318,175.582,308,206,308h167.74H468h117.74c30.418,0,55.18-10.682,73.598-31.747
	C708.648,219.854,693.975,119.851,693.339,115.133z"/>
<g display="none">
	<rect x="211.971" y="-159.235" display="inline" fill="#15110E" width="300" height="300"/>
	<rect x="211.75" y="-159.235" display="inline" fill="#641313" width="150" height="75"/>
	<rect x="211.75" y="-84.015" display="inline" fill="#996928" width="75" height="75"/>
	<rect x="286.75" y="-84.015" display="inline" fill="#744921" width="75" height="75"/>
	<rect x="211.75" y="-9.235" display="inline" fill="#8C5B29" width="75" height="75"/>
	<rect x="211.75" y="65.875" display="inline" fill="#D57A16" width="50" height="75"/>
	<rect x="261.75" y="65.875" display="inline" fill="#EB9D1B" width="50" height="75"/>
	<rect x="311.75" y="65.875" display="inline" fill="#EBD6B9" width="50" height="75"/>
	<rect x="286.75" y="-9.015" display="inline" fill="#CC9548" width="75" height="75"/>
</g>
<path fill="#996928" d="M40.883,273.771C35.24,263.883,32,252.448,32,240.25c0-19.525,8.272-37.111,21.49-49.477
	c0.003-0.01,2.643-2.373,3.946-3.416c35.591-31.881,37.219-58.864,37.219-58.864h9.595c0,0-0.405,13.812,3.283,44.467
	c0.021,0.003,0.043,0.004,0.064,0.007c1.783,13.562,0.333,59.285,27.819,91.7C158.71,292.139,211.75,308,211.75,308h-112
	c-21.678,0-40.963-10.193-53.364-26.035c-2.327-2.511-4.206-5.199-5.452-8.066C40.916,273.855,40.9,273.812,40.883,273.771z"/>
<circle fill="#996928" cx="82.438" cy="115.688" r="35.188"/>
<circle fill="#CC9548" cx="82.438" cy="115.688" r="25"/>
<circle fill="#996928" cx="82.438" cy="115.688" r="20"/>
<circle fill="#CC9548" cx="82.438" cy="115.688" r="15"/>
<circle fill="#8C5B29" cx="102.085" cy="240.647" r="53.647"/>
<circle fill="#996928" cx="102.085" cy="240.646" r="40"/>
<circle fill="#8C5B29" cx="687.001" cy="240.647" r="53.647"/>
<circle fill="#996928" cx="687" cy="240.646" r="40"/>
<circle fill="#996928" cx="707.312" cy="113.438" r="35.188"/>
<circle fill="#CC9548" cx="707.312" cy="113.438" r="25"/>
<circle fill="#996928" cx="707.312" cy="113.438" r="20"/>
<circle fill="#CC9548" cx="707.312" cy="113.438" r="15"/>
</svg>
