<?xml version="1.0" encoding="utf-8"?>
<!-- Generator: Adobe Illustrator 16.0.4, SVG Export Plug-In . SVG Version: 6.00 Build 0)  -->
<!DOCTYPE svg PUBLIC "-//W3C//DTD SVG 1.1//EN" "http://www.w3.org/Graphics/SVG/1.1/DTD/svg11.dtd">
<svg version="1.1" id="Layer_1" xmlns="http://www.w3.org/2000/svg" xmlns:xlink="http://www.w3.org/1999/xlink" x="0px" y="0px"
	 width="796.007px" height="177.788px" viewBox="0 0 796.007 177.788" enable-background="new 0 0 796.007 177.788"
	 xml:space="preserve">
<polygon fill="#5F4836" points="796.007,116.456 753.13,73.013 709.85,100.931 667.682,86.146 591.004,21.04 533.098,107.56 
	375.904,0 346.816,54.782 318.921,79.903 269.86,59.377 230.317,102.923 177.192,68.516 160.498,83.428 139.303,63.01 
	121.305,84.93 54.527,32.314 0,116.955 "/>
<polygon fill="#776253" points="57.194,46.958 70.801,72.438 58.926,69.47 49.278,94.209 40.62,84.312 20.087,103.855 "/>
<rect x="-35" y="115.788" fill="#5F4836" width="865" height="62"/>
<polygon fill="#776253" points="139,73.954 117.5,104.288 139,94.121 "/>
<polygon fill="#776253" points="177.833,75.789 164,87.955 172.167,86.622 148.667,109.289 179.333,104.288 "/>
<polygon fill="#776253" points="271.334,68.456 221.833,125.121 259.834,106.29 "/>
<polygon fill="#776253" points="379,15.288 358.5,58.478 325.75,86.538 356.25,85.288 344.25,110.788 377.5,78.538 385,109.288 "/>
<polygon fill="#776253" points="593.29,37.575 558.833,87.289 576,79.789 567.758,115.59 600.382,83.894 "/>
<polygon fill="#776253" points="751.736,86.04 718.403,105.788 744.645,102.114 746.063,134.738 758.829,108.456 785.779,115.59 "/>
<polygon fill="#564031" points="57.071,47.205 102.712,82.21 70.801,72.686 "/>
<polygon fill="#564031" points="271.168,68.623 299.668,79.623 281.834,83.456 315.833,109.121 276.334,96.123 280.334,113.456 
	259.668,106.456 "/>
<polygon fill="#564031" points="378.75,15.538 506.25,103.538 454.75,88.894 468,123.538 403.25,71.038 384.5,108.538 "/>
<polygon fill="#564031" points="593.167,36.955 676.5,104.622 634.834,91.122 639.667,117.538 611.5,98.955 598.833,119.289 "/>
</svg>
