<?xml version="1.0" standalone="no"?>
<!DOCTYPE svg PUBLIC "-//W3C//DTD SVG 1.1//EN" "http://www.w3.org/Graphics/SVG/1.1/DTD/svg11.dtd" >
<svg xmlns="http://www.w3.org/2000/svg" xmlns:xlink="http://www.w3.org/1999/xlink" version="1.1">
<metadata></metadata>
<defs>
<font id="moondanceregular" horiz-adv-x="1218" >
<font-face units-per-em="2048" ascent="1638" descent="-410" />
<missing-glyph horiz-adv-x="1024" />
<glyph horiz-adv-x="0" />
<glyph horiz-adv-x="682" />
<glyph unicode=" "  horiz-adv-x="1024" />
<glyph unicode="&#x09;" horiz-adv-x="1024" />
<glyph unicode="&#xa0;" horiz-adv-x="1024" />
<glyph unicode="A" horiz-adv-x="1941" d="M102 0l177 309l1202 326l358 -635h-186l-252 442l-1016 -272l-96 -170h-187zM391 508l580 1028l426 -756zM725 768l428 115l-182 321z" />
<glyph unicode="B" horiz-adv-x="1054" d="M102 0v565q379 210 447 252q154 94 201 162q38 56 38 133q0 109 -76.5 184.5t-185.5 75.5h-260v-524l-164 -96v784h424q177 0 301.5 -123.5t124.5 -300.5q0 -103 -47 -193.5t-127 -150.5q80 -60 127 -150.5t47 -193.5q0 -177 -124.5 -300.5t-301.5 -123.5h-424zM266 164 h260q109 0 185.5 75.5t76.5 184.5q0 85 -49.5 153t-128.5 95l-344 -199v-309z" />
<glyph unicode="C" horiz-adv-x="1691" d="M102 770l179 74q14 129 70 248.5t151 214.5q148 147 346 199q99 26 197 26l199 -26q198 -52 345 -201l-116 -115q-115 116 -271 158q-78 21 -156 20.5t-156 -20.5q-156 -42 -272 -158q-113 -113 -157 -272l92 36l41 -163q-74 -25 -162.5 -61.5t-175 -74.5t-98.5 -43z M211 455q107 45 232 95.5t192 78.5l41 -164l-125 -51q31 -42 67 -78q116 -116 272 -158q78 -21 156 -20l154 20q156 41 273 158l114 -117q-110 -110 -253.5 -167.5t-289 -57.5t-289 57.5t-253.5 167.5q-60 61 -107 131l-131 -53z" />
<glyph unicode="D" horiz-adv-x="1392" d="M102 0v451l1188 313q0 -147 -59.5 -287t-160 -245t-242.5 -169q-140 -63 -295 -63h-5h-426zM102 623v911l424 2q174 0 331.5 -79t267 -216.5t149.5 -306.5zM266 162l260 2q184 2 339.5 105t219.5 274l-819 -215v-166zM266 831l797 213q-32 88 -121 164.5t-201 119.5 q-109 42 -210 42h-5l-258 2z" />
<glyph unicode="E" d="M102 446v168l492 136v-170l-164 -45v-371h686v-164h-850v489zM102 786v168l164 45v537h850v-164h-686v-328l164 46v-170z" />
<glyph unicode="F" d="M102 446v168l492 136v-170l-164 -45v-535h-164v489zM102 786v168l164 45v537h850v-164h-686v-328l164 46v-170z" />
<glyph unicode="G" horiz-adv-x="1691" d="M102 770l179 74q14 129 70 248.5t151 214.5q148 147 346 199q99 26 197 26l199 -26q198 -53 345 -201l-116 -115q-116 116 -271 158q-78 20 -156 20t-156 -20q-156 -42 -272 -158q-113 -113 -157 -272l92 36l41 -163q-74 -25 -162.5 -61.5t-175 -74.5t-98.5 -43zM211 455 q107 45 232 95.5t192 78.5l41 -164l-125 -51q31 -42 67 -78q108 -109 251 -152q87 -26 174 -26q57 0 115 11q146 28 265 122v395h164v-467q-110 -110 -253.5 -167.5t-289 -57.5t-289 57.5t-253.5 167.5q-60 61 -107 131l-131 -53z" />
<glyph unicode="H" d="M102 0v526l1014 275v-801h-164v586l-686 -187v-399h-164zM102 696v840h164v-625l686 187v438h164v-565z" />
<glyph unicode="I" horiz-adv-x="542" d="M102 469v170l236 63v-702h-164v489zM174 827v709h164v-492l102 27v-170z" />
<glyph unicode="J" horiz-adv-x="835" d="M102 0v164h103q109 0 185.5 76.5t76.5 185.5v63l-72 -20v170l236 63v-276q0 -177 -124.5 -301.5t-301.5 -124.5h-103zM467 827v709h164v-492l102 27v-170z" />
<glyph unicode="K" horiz-adv-x="1411" d="M102 0v43h7v379l417 475l783 -897h-219l-566 643l-258 -293v-350h-164zM102 850v686h164v-442l115 129v-246l-272 -311v184h-7zM639 1024l451 512h219l-451 -510l35 -41l-113 -123z" />
<glyph unicode="L" horiz-adv-x="1157" d="M102 469v170l236 63v-538h717v-164h-881v489zM174 827v709h164v-492l102 27v-170z" />
<glyph unicode="M" horiz-adv-x="2772" d="M102 0l244 428l-131 35l78 147l409 -110l-77 -148l-115 31l-219 -383h-189zM373 758l80 149l141 -39l371 666l421 -752l424 752l369 -666l141 39l80 -149l-407 -111l-78 150l102 26l-207 377l-424 -754l-421 754l-209 -377l102 -26l-78 -150zM2071 500l409 110l78 -147 l-131 -35l244 -428h-189l-219 383l-115 -31z" />
<glyph unicode="N" horiz-adv-x="1443" d="M102 0v1536l514 -541l123 33l90 -145l-264 -72l-299 315v-1126h-164zM602 651l272 74l304 -315v1126h163v-1536l-518 541l-110 -31z" />
<glyph unicode="O" horiz-adv-x="1744" d="M113 649q-9 58 -9 116q0 83 18 165q32 140 105.5 254.5t189.5 200.5t257 124q96 27 193 27l91 -6q142 -19 264 -79.5t219 -166.5t148 -240zM156 492l1476 395q9 -60 9 -119q0 -128 -42 -250q-62 -180 -201.5 -310.5t-326.5 -180.5q-97 -27 -193 -27q-46 0 -92 6 q-142 19 -264 79.5t-218.5 166.5t-147.5 240zM274 862l1067 285q-111 137 -279 195q-93 32 -188 31q-78 0 -157 -21q-177 -46 -296 -181t-147 -309zM401 387q111 -137 281 -193q93 -31 189 -31q78 0 157 21q176 46 294 180.5t146 309.5z" />
<glyph unicode="P" horiz-adv-x="1157" d="M102 0v319l582 336q98 57 152.5 145.5t54.5 192.5q0 157 -111 268t-268 111h-246v-581l101 57v-191q-14 -8 -104.5 -58t-160.5 -91v1028h410q147 0 272 -73t198 -198t73 -272q0 -142 -67.5 -262t-182.5 -194q-35 -21 -539 -312v-225h-164z" />
<glyph unicode="Q" horiz-adv-x="1744" d="M113 649q-9 58 -9 116q0 83 18 165q32 140 105.5 254.5t189.5 200.5t257 124q96 27 193 27l91 -6q142 -19 264 -79.5t219 -166.5t148 -240zM156 492l1476 395q9 -60 9 -119q0 -107 -31 -212q-47 -163 -157.5 -290.5t-264.5 -197.5l65 -113l-143 -82l-84 143 q-79 -16 -156 -16q-102 0 -202 28q-176 48 -311 170t-201 294zM274 862l1067 285q-111 137 -279 195q-93 31 -188 31q-78 0 -157 -21q-177 -46 -296 -181t-147 -309zM401 387q96 -119 239 -179q109 -45 225 -45q37 0 75 5l-78 135l142 82l100 -176q146 61 242.5 185.5 t121.5 279.5z" />
<glyph unicode="R" horiz-adv-x="1157" d="M102 0v319l582 336q98 57 152.5 145.5t54.5 192.5q0 157 -111 268t-268 111h-246v-581l101 57v-191q-119 -66 -265 -149v1028h410q147 0 272 -73t198 -198t73 -272q0 -142 -67.5 -262t-182.5 -194q-2 -1 -15.5 -9.5t-55 -33t-111.5 -64.5l430 -430h-236l-344 344 q-31 -18 -99 -56.5t-108 -62.5v-225h-164z" />
<glyph unicode="S" horiz-adv-x="1282" d="M102 446h164q14 -98 76 -178.5t158 -117.5q76 -28 148 -28q24 0 48 3q96 12 177 74t120 157q26 69 26 140q-1 11 -1 22q-4 83 -41 156l-150 -41l-106 139l350 94q59 -138 85 -243q22 -89 22 -157v-24q-4 -76 -35 -149q-42 -103 -119.5 -180.5t-173 -116t-203.5 -42.5h-16 q-100 0 -195 42q-143 59 -231 180.5t-103 269.5zM302 1183q-9 37 -9 73q0 59 24 118q50 117 167 166q60 25 120 25q58 0 115 -23q88 -38 138 -116t50 -171h-159q0 41 -26 79t-67 55q-29 13 -58 13q-27 0 -53 -11q-54 -23 -77 -80q-10 -26 -10 -52q1 -29 13 -59 q24 -56 79 -78l86 -32l160 43l104 -142l-356 -96l-144 131q-73 61 -97 157z" />
<glyph unicode="T" horiz-adv-x="1413" d="M102 1372v164h1209v-164h-523v-328l103 27v-170l-266 -74v545h-523zM553 469v170l235 63v-702h-163v489z" />
<glyph unicode="U" horiz-adv-x="1386" d="M102 352v172l244 66v-88q0 -135 100 -236.5t242 -101.5q143 0 243.5 100t100.5 242v270l164 43v-313q0 -138 -68 -254.5t-185 -184t-255 -67.5q-177 0 -313 106.5t-178 272.5zM182 713v823h164v-778zM1032 944v592h164v-377l88 25v-170z" />
<glyph unicode="V" horiz-adv-x="1933" d="M102 1534h189l219 -383l115 31l77 -148l-409 -110l-78 147l131 35zM373 776l407 111l78 -150l-102 -26l209 -377l675 1200h191l-866 -1534l-371 666l-141 -39z" />
<glyph unicode="W" horiz-adv-x="2772" d="M102 1534h189l219 -383l115 31l77 -148l-409 -110l-78 147l131 35zM373 776l407 111l78 -150l-102 -26l209 -377l421 753l424 -753l207 377l-102 26l78 150l407 -111l-80 -149l-141 39l-369 -666l-424 752l-421 -752l-371 666l-141 -39zM2071 1034l77 148l115 -31 l219 383h189l-244 -428l131 -35l-78 -147z" />
<glyph unicode="X" horiz-adv-x="1282" d="M102 0l885 1536h191l-887 -1536h-189zM104 1536h189l160 -276l43 75l94 -166l-137 -237zM688 360l141 244l351 -604h-189l-162 276l-49 -88z" />
<glyph unicode="Y" horiz-adv-x="1697" d="M102 1536h189l368 -639l43 76l95 -166l-138 -238zM819 0v520l586 1016h190l-612 -1061v-475h-164z" />
<glyph unicode="Z" horiz-adv-x="1280" d="M102 0l299 524l-100 -2l102 166h283l-301 -524h793v-164h-1076zM102 1372v164h1076l-304 -522l89 2l-97 -166h-274l301 522h-791z" />
<glyph unicode="a" horiz-adv-x="1941" d="M102 0l177 309l1202 326l358 -635h-186l-252 442l-1016 -272l-96 -170h-187zM391 508l580 1028l426 -756zM725 768l428 115l-182 321z" />
<glyph unicode="b" horiz-adv-x="1054" d="M102 0v565q379 210 447 252q154 94 201 162q38 56 38 133q0 109 -76.5 184.5t-185.5 75.5h-260v-524l-164 -96v784h424q177 0 301.5 -123.5t124.5 -300.5q0 -103 -47 -193.5t-127 -150.5q80 -60 127 -150.5t47 -193.5q0 -177 -124.5 -300.5t-301.5 -123.5h-424zM266 164 h260q109 0 185.5 75.5t76.5 184.5q0 85 -49.5 153t-128.5 95l-344 -199v-309z" />
<glyph unicode="c" horiz-adv-x="1691" d="M102 770l179 74q14 129 70 248.5t151 214.5q148 147 346 199q99 26 197 26l199 -26q198 -52 345 -201l-116 -115q-115 116 -271 158q-78 21 -156 20.5t-156 -20.5q-156 -42 -272 -158q-113 -113 -157 -272l92 36l41 -163q-74 -25 -162.5 -61.5t-175 -74.5t-98.5 -43z M211 455q107 45 232 95.5t192 78.5l41 -164l-125 -51q31 -42 67 -78q116 -116 272 -158q78 -21 156 -20l154 20q156 41 273 158l114 -117q-110 -110 -253.5 -167.5t-289 -57.5t-289 57.5t-253.5 167.5q-60 61 -107 131l-131 -53z" />
<glyph unicode="d" horiz-adv-x="1392" d="M102 0v451l1188 313q0 -147 -59.5 -287t-160 -245t-242.5 -169q-140 -63 -295 -63h-5h-426zM102 623v911l424 2q174 0 331.5 -79t267 -216.5t149.5 -306.5zM266 162l260 2q184 2 339.5 105t219.5 274l-819 -215v-166zM266 831l797 213q-32 88 -121 164.5t-201 119.5 q-109 42 -210 42h-5l-258 2z" />
<glyph unicode="e" d="M102 446v168l492 136v-170l-164 -45v-371h686v-164h-850v489zM102 786v168l164 45v537h850v-164h-686v-328l164 46v-170z" />
<glyph unicode="f" d="M102 446v168l492 136v-170l-164 -45v-535h-164v489zM102 786v168l164 45v537h850v-164h-686v-328l164 46v-170z" />
<glyph unicode="g" horiz-adv-x="1691" d="M102 770l179 74q14 129 70 248.5t151 214.5q148 147 346 199q99 26 197 26l199 -26q198 -53 345 -201l-116 -115q-116 116 -271 158q-78 20 -156 20t-156 -20q-156 -42 -272 -158q-113 -113 -157 -272l92 36l41 -163q-74 -25 -162.5 -61.5t-175 -74.5t-98.5 -43zM211 455 q107 45 232 95.5t192 78.5l41 -164l-125 -51q31 -42 67 -78q108 -109 251 -152q87 -26 174 -26q57 0 115 11q146 28 265 122v395h164v-467q-110 -110 -253.5 -167.5t-289 -57.5t-289 57.5t-253.5 167.5q-60 61 -107 131l-131 -53z" />
<glyph unicode="h" d="M102 0v526l1014 275v-801h-164v586l-686 -187v-399h-164zM102 696v840h164v-625l686 187v438h164v-565z" />
<glyph unicode="i" horiz-adv-x="542" d="M102 469v170l236 63v-702h-164v489zM174 827v709h164v-492l102 27v-170z" />
<glyph unicode="j" horiz-adv-x="835" d="M102 0v164h103q109 0 185.5 76.5t76.5 185.5v63l-72 -20v170l236 63v-276q0 -177 -124.5 -301.5t-301.5 -124.5h-103zM467 827v709h164v-492l102 27v-170z" />
<glyph unicode="k" horiz-adv-x="1411" d="M102 0v43h7v379l417 475l783 -897h-219l-566 643l-258 -293v-350h-164zM102 850v686h164v-442l115 129v-246l-272 -311v184h-7zM639 1024l451 512h219l-451 -510l35 -41l-113 -123z" />
<glyph unicode="l" horiz-adv-x="1157" d="M102 469v170l236 63v-538h717v-164h-881v489zM174 827v709h164v-492l102 27v-170z" />
<glyph unicode="m" horiz-adv-x="2772" d="M102 0l244 428l-131 35l78 147l409 -110l-77 -148l-115 31l-219 -383h-189zM373 758l80 149l141 -39l371 666l421 -752l424 752l369 -666l141 39l80 -149l-407 -111l-78 150l102 26l-207 377l-424 -754l-421 754l-209 -377l102 -26l-78 -150zM2071 500l409 110l78 -147 l-131 -35l244 -428h-189l-219 383l-115 -31z" />
<glyph unicode="n" horiz-adv-x="1443" d="M102 0v1536l514 -541l123 33l90 -145l-264 -72l-299 315v-1126h-164zM602 651l272 74l304 -315v1126h163v-1536l-518 541l-110 -31z" />
<glyph unicode="o" horiz-adv-x="1744" d="M113 649q-9 58 -9 116q0 83 18 165q32 140 105.5 254.5t189.5 200.5t257 124q96 27 193 27l91 -6q142 -19 264 -79.5t219 -166.5t148 -240zM156 492l1476 395q9 -60 9 -119q0 -128 -42 -250q-62 -180 -201.5 -310.5t-326.5 -180.5q-97 -27 -193 -27q-46 0 -92 6 q-142 19 -264 79.5t-218.5 166.5t-147.5 240zM274 862l1067 285q-111 137 -279 195q-93 32 -188 31q-78 0 -157 -21q-177 -46 -296 -181t-147 -309zM401 387q111 -137 281 -193q93 -31 189 -31q78 0 157 21q176 46 294 180.5t146 309.5z" />
<glyph unicode="p" horiz-adv-x="1157" d="M102 0v319l582 336q98 57 152.5 145.5t54.5 192.5q0 157 -111 268t-268 111h-246v-581l101 57v-191q-14 -8 -104.5 -58t-160.5 -91v1028h410q147 0 272 -73t198 -198t73 -272q0 -142 -67.5 -262t-182.5 -194q-35 -21 -539 -312v-225h-164z" />
<glyph unicode="q" horiz-adv-x="1744" d="M113 649q-9 58 -9 116q0 83 18 165q32 140 105.5 254.5t189.5 200.5t257 124q96 27 193 27l91 -6q142 -19 264 -79.5t219 -166.5t148 -240zM156 492l1476 395q9 -60 9 -119q0 -107 -31 -212q-47 -163 -157.5 -290.5t-264.5 -197.5l65 -113l-143 -82l-84 143 q-79 -16 -156 -16q-102 0 -202 28q-176 48 -311 170t-201 294zM274 862l1067 285q-111 137 -279 195q-93 31 -188 31q-78 0 -157 -21q-177 -46 -296 -181t-147 -309zM401 387q96 -119 239 -179q109 -45 225 -45q37 0 75 5l-78 135l142 82l100 -176q146 61 242.5 185.5 t121.5 279.5z" />
<glyph unicode="r" horiz-adv-x="1157" d="M102 0v319l582 336q98 57 152.5 145.5t54.5 192.5q0 157 -111 268t-268 111h-246v-581l101 57v-191q-119 -66 -265 -149v1028h410q147 0 272 -73t198 -198t73 -272q0 -142 -67.5 -262t-182.5 -194q-2 -1 -15.5 -9.5t-55 -33t-111.5 -64.5l430 -430h-236l-344 344 q-31 -18 -99 -56.5t-108 -62.5v-225h-164z" />
<glyph unicode="s" horiz-adv-x="1282" d="M102 446h164q14 -98 76 -178.5t158 -117.5q76 -28 148 -28q24 0 48 3q96 12 177 74t120 157q26 69 26 140q-1 11 -1 22q-4 83 -41 156l-150 -41l-106 139l350 94q59 -138 85 -243q22 -89 22 -157v-24q-4 -76 -35 -149q-42 -103 -119.5 -180.5t-173 -116t-203.5 -42.5h-16 q-100 0 -195 42q-143 59 -231 180.5t-103 269.5zM302 1183q-9 37 -9 73q0 59 24 118q50 117 167 166q60 25 120 25q58 0 115 -23q88 -38 138 -116t50 -171h-159q0 41 -26 79t-67 55q-29 13 -58 13q-27 0 -53 -11q-54 -23 -77 -80q-10 -26 -10 -52q1 -29 13 -59 q24 -56 79 -78l86 -32l160 43l104 -142l-356 -96l-144 131q-73 61 -97 157z" />
<glyph unicode="t" horiz-adv-x="1413" d="M102 1372v164h1209v-164h-523v-328l103 27v-170l-266 -74v545h-523zM553 469v170l235 63v-702h-163v489z" />
<glyph unicode="u" horiz-adv-x="1386" d="M102 352v172l244 66v-88q0 -135 100 -236.5t242 -101.5q143 0 243.5 100t100.5 242v270l164 43v-313q0 -138 -68 -254.5t-185 -184t-255 -67.5q-177 0 -313 106.5t-178 272.5zM182 713v823h164v-778zM1032 944v592h164v-377l88 25v-170z" />
<glyph unicode="v" horiz-adv-x="1933" d="M102 1534h189l219 -383l115 31l77 -148l-409 -110l-78 147l131 35zM373 776l407 111l78 -150l-102 -26l209 -377l675 1200h191l-866 -1534l-371 666l-141 -39z" />
<glyph unicode="w" horiz-adv-x="2772" d="M102 1534h189l219 -383l115 31l77 -148l-409 -110l-78 147l131 35zM373 776l407 111l78 -150l-102 -26l209 -377l421 753l424 -753l207 377l-102 26l78 150l407 -111l-80 -149l-141 39l-369 -666l-424 752l-421 -752l-371 666l-141 -39zM2071 1034l77 148l115 -31 l219 383h189l-244 -428l131 -35l-78 -147z" />
<glyph unicode="x" horiz-adv-x="1282" d="M102 0l885 1536h191l-887 -1536h-189zM104 1536h189l160 -276l43 75l94 -166l-137 -237zM688 360l141 244l351 -604h-189l-162 276l-49 -88z" />
<glyph unicode="y" horiz-adv-x="1697" d="M102 1536h189l368 -639l43 76l95 -166l-138 -238zM819 0v520l586 1016h190l-612 -1061v-475h-164z" />
<glyph unicode="z" horiz-adv-x="1280" d="M102 0l299 524l-100 -2l102 166h283l-301 -524h793v-164h-1076zM102 1372v164h1076l-304 -522l89 2l-97 -166h-274l301 522h-791z" />
<glyph unicode="&#x2000;" horiz-adv-x="782" />
<glyph unicode="&#x2001;" horiz-adv-x="1565" />
<glyph unicode="&#x2002;" horiz-adv-x="782" />
<glyph unicode="&#x2003;" horiz-adv-x="1565" />
<glyph unicode="&#x2004;" horiz-adv-x="521" />
<glyph unicode="&#x2005;" horiz-adv-x="391" />
<glyph unicode="&#x2006;" horiz-adv-x="260" />
<glyph unicode="&#x2007;" horiz-adv-x="260" />
<glyph unicode="&#x2008;" horiz-adv-x="195" />
<glyph unicode="&#x2009;" horiz-adv-x="313" />
<glyph unicode="&#x200a;" horiz-adv-x="86" />
<glyph unicode="&#x202f;" horiz-adv-x="313" />
<glyph unicode="&#x205f;" horiz-adv-x="391" />
<glyph unicode="&#x25fc;" horiz-adv-x="1536" d="M0 0v1536h1536v-1536h-1536z" />
</font>
</defs>
</svg>
